<?xml version="1.0" standalone="no"?>
<!DOCTYPE svg PUBLIC "-//W3C//DTD SVG 1.1//EN" "http://www.w3.org/Graphics/SVG/1.1/DTD/svg11.dtd" >
<svg xmlns="http://www.w3.org/2000/svg">
<metadata>
This is a custom SVG webfont generated by Font Squirrel.
Copyright   : Copyright c 1992 Corel Corporation All Rights Reserved
</metadata>
<defs>
<font id="VAGRoundedLtNormal" horiz-adv-x="1095" >
<font-face units-per-em="2048" ascent="1638" descent="-410" />
<missing-glyph horiz-adv-x="491" />
<glyph unicode=" "  horiz-adv-x="491" />
<glyph unicode="&#x09;" horiz-adv-x="491" />
<glyph unicode="&#xa0;" horiz-adv-x="491" />
<glyph unicode="!" horiz-adv-x="567" d="M196 92q0 44 31.5 74t75.5 30t74.5 -30t30.5 -74q0 -42 -31 -73t-74 -31t-75 30.5t-32 73.5zM213 484v896q0 88 86 88q92 0 92 -88v-892q0 -94 -92 -101q-86 8 -86 97z" />
<glyph unicode="&#x22;" horiz-adv-x="643" d="M112 1096v288q0 88 84 88t84 -88v-288q0 -72 -88 -80q-80 8 -80 80zM404 1096v288q0 88 84 88t84 -88v-288q0 -72 -88 -80q-80 8 -80 80z" />
<glyph unicode="#" d="M24 508q6 68 88 68h144l43 304h-131q-76 0 -84 64q7 72 80 72h152l56 380q8 52 26 64q16 12 50 12q68 0 68 -71v-25l-47 -360h239l56 385q10 71 80 71q68 0 68 -92l-52 -364h127q84 0 84 -72q0 -64 -84 -64h-143l-43 -304h127q80 0 80 -68q0 -64 -76 -64h-152l-53 -376 q-6 -48 -20 -63q-15 -17 -55 -17q-70 0 -76 76q4 8 4 20l53 360h-246l-51 -376q-11 -80 -80 -80q-66 0 -72 76q4 8 4 24l48 356h-132q-74 0 -80 64zM408 576h239l45 304h-244z" />
<glyph unicode="$" horiz-adv-x="948" d="M41 168q11 84 71 84q42 0 68 -16q144 -92 268 -92v568q-268 82 -346 211q-48 76 -46 181q2 84 54 169q112 179 338 199v101q0 35 40 35q44 0 44 -39v-97q182 -18 277 -96q35 -30 35 -76q0 -74 -84 -80q-34 10 -84 38q-68 37 -81 43q-27 12 -63 16v-449q204 -66 295 -150 q117 -110 117 -298q-22 -236 -206 -353q-90 -57 -206 -71v-104q0 -44 -44 -44q-40 0 -40 44v96q-210 0 -348 96q-56 40 -59 84zM248 1112q-2 -142 200 -213v418q-84 -10 -140 -64q-59 -57 -60 -141zM532 152q124 24 186 144q32 62 34 140q0 80 -46 140q-46 58 -174 104v-528 z" />
<glyph unicode="%" horiz-adv-x="1515" d="M84 1116q1 94 37 179q77 177 279 177q184 0 268 -166q42 -83 40 -190q-1 -102 -43 -181q-83 -155 -269 -155q-136 0 -224 96q-90 97 -88 240zM219 1120q-1 -62 23 -117q23 -52 63 -83q43 -34 91 -31q176 9 176 231q0 96 -38 161q-46 79 -134 79t-133 -66 q-46 -68 -48 -174zM396 28q8 28 16 48l565 1356q23 58 63 57q76 1 76 -57q0 -20 -8 -40l-572 -1372q-12 -48 -71 -48q-55 0 -69 56zM809 320q1 212 141 308q72 48 174 48q146 0 231 -109q79 -99 77 -247q-2 -104 -44 -182q-84 -154 -268 -154q-188 0 -272 166 q-40 78 -39 170zM944 324q-2 -93 48 -160.5t128 -67.5q58 1 100 36q76 64 76 200q0 96 -39 158q-47 74 -137 73q-86 0 -130 -65q-44 -67 -46 -174z" />
<glyph unicode="&#x26;" horiz-adv-x="1368" d="M72 416q2 28 8 84q22 134 111 232q69 74 209 157q-122 129 -148 213q-12 44 -12 102q0 170 171 238q77 30 165 30q141 0 240 -70q102 -73 100 -198q-2 -94 -60 -182q-56 -86 -204 -166l325 -387q31 41 73 107l46 71q50 88 96 88q76 0 76 -59q0 -94 -100 -217 q-42 -53 -88 -107l188 -227q24 -29 24 -69q0 -30 -26 -48q-24 -16 -54 -16q-38 0 -59 24l-176 207q-125 -155 -295 -209q-82 -26 -166 -26q-258 0 -383 206q-59 98 -61 222zM248 432q12 -168 140 -242q66 -38 144 -38q86 0 182 51q90 48 158 141l-372 428 q-244 -128 -252 -340zM416 1180q4 -8 4 -27q8 -39 49 -89q18 -23 51 -58l33 -38q191 98 191 220q0 66 -54 104q-48 35 -114 35q-150 1 -160 -147z" />
<glyph unicode="'" horiz-adv-x="381" d="M47 1096q7 32 21 59l124 250q32 63 88 63q88 0 88 -76q0 -35 -16 -65l-129 -247q-33 -64 -83 -72q-78 14 -93 88z" />
<glyph unicode="(" horiz-adv-x="415" d="M131 692q1 128 19 273q30 255 106 467q28 76 88 76q68 0 68 -64q0 -50 -26 -125q-33 -98 -38 -123q-33 -164 -42 -330q-6 -110 -7 -190q-3 -122 7 -276q16 -288 98 -496q8 -32 8 -44q0 -26 -23 -45.5t-49 -19.5q-48 0 -80 70q-98 220 -120 533q-10 156 -9 294z" />
<glyph unicode=")" horiz-adv-x="415" d="M76 -135q116 344 116 811q0 410 -108 735q0 21 -4 29q8 68 64 68q62 0 92 -76q124 -320 124 -808q0 -478 -128 -759q-32 -70 -80 -70q-68 0 -76 70z" />
<glyph unicode="*" horiz-adv-x="796" d="M72 1243q0 32 22 53t54 21q52 -1 146 -83q48 -42 54 -46q-2 42 -24 200q0 34 21 59t55 25q72 0 71 -71q0 -34 -9.5 -105t-9.5 -108q41 40 131 109q35 20 69 20q70 0 69 -74q0 -38 -41 -55l-188 -80l196 -80q37 -16 37 -60q1 -68 -73 -71q-34 5 -68 31l-132 104 q0 -34 9 -101t10 -99q1 -82 -75 -88q-26 -2 -49 22q-19 22 -23 58q24 90 24 196v12l-70 -61q-72 -63 -134 -74q-26 -1 -47 25q-18 22 -21 51q6 40 40 55l191 80q-65 18 -189 72q-38 22 -46 63z" />
<glyph unicode="+" horiz-adv-x="1229" d="M92 520q10 84 80 84h360v352q0 80 84 80t84 -80v-352h357q79 0 79 -84t-84 -84h-352v-356q0 -80 -84 -80t-84 84v352h-360q-70 0 -80 84z" />
<glyph unicode="," horiz-adv-x="491" d="M41 -180q5 37 19 59l132 261q28 56 84 56q80 0 80 -80q0 -36 -12 -60l-131 -256q-30 -60 -92 -60q-76 0 -80 80z" />
<glyph unicode="-" horiz-adv-x="721" d="M68 545q8 83 84 83h411q84 0 84 -79q0 -78 -84 -78h-407q-80 0 -88 74z" />
<glyph unicode="." horiz-adv-x="491" d="M152 92q0 42 31 73t73 31q43 0 73.5 -30.5t30.5 -73.5q0 -42 -31 -73t-73 -31t-73 31t-31 73z" />
<glyph unicode="/" horiz-adv-x="831" d="M37 64q3 16 10 48l581 1299q14 32 35 46q23 15 49 15q80 0 80 -76q0 -16 -8 -40l-579 -1305q-29 -63 -89 -63q-74 0 -79 76z" />
<glyph unicode="0" d="M68 756q0 380 204 594q112 118 281 122q117 2 213 -64q176 -122 238 -403q28 -127 28 -253q0 -344 -132 -554t-347 -210q-237 0 -365 223q-120 211 -120 545zM260 748q0 -362 130 -522q66 -82 163 -82q185 0 255 288q32 130 32 280q0 402 -141 540q-68 66 -154 65 q-95 -2 -161 -88q-124 -161 -124 -481z" />
<glyph unicode="1" horiz-adv-x="721" d="M68 1380q8 80 88 80h309q51 0 51 -51v-1325q0 -96 -92 -96q-40 0 -64 28t-24 68v1220h-184q-76 0 -84 76z" />
<glyph unicode="2" d="M104 1016q2 120 56 226q52 104 158 168q108 64 254 62q106 0 198 -50q194 -106 194 -330q0 -152 -108 -296l-484 -640h556q76 0 76 -80q0 -76 -80 -76h-719q-83 0 -89 64q8 46 24 65l552 743q76 102 76 216q0 96 -67 160.5t-165 64.5q-150 -1 -224 -149q-36 -68 -36 -148 q0 -110 -88 -117q-4 4 -8 4q-77 7 -76 113z" />
<glyph unicode="3" d="M80 328q8 96 88 96q63 0 88 -80q56 -180 248 -204q155 6 239 128q41 60 41 128q2 292 -248 292q-114 0 -120 72q0 42 43 64q11 5 81 24q88 24 133 85q47 64 44 179q-2 56 -32 108q-58 98 -173 97q-86 1 -142 -51q-60 -54 -67 -162q-2 -42 -24 -64q-24 -24 -60 -28 q-84 8 -84 128q26 206 204 291q91 43 201 41q102 -2 187 -56q170 -112 170 -324q0 -196 -170 -308q246 -76 246 -356q-1 -52 -9 -104q-14 -84 -74 -166q-126 -170 -398 -170q-198 0 -324 143q-58 65 -80 145q-2 18 -8 52z" />
<glyph unicode="4" d="M16 428q6 42 44 104l528 856q36 58 64 70q31 14 75 14q137 0 137 -145v-795h92q34 0 57 -24q23 -26 23 -60q0 -72 -88 -71h-84v-293q0 -42 -25.5 -69t-66.5 -27q-39 0 -63.5 26t-24.5 66v297h-580q-82 0 -88 51zM252 532h432v748h-4z" />
<glyph unicode="5" d="M88 228q0 76 64 75q42 -1 76 -35q116 -114 268 -116q114 -2 200 82q82 80 84 222q2 108 -32 184q-64 140 -224 140q-44 0 -149 -31q-65 -20 -99 -24q-56 -1 -61 63q4 12 4 27l84 565q8 56 18 70q7 10 47 10h516q76 0 76 -80q0 -76 -80 -76h-411l-61 -396q90 40 184 40 q234 0 337 -230q46 -104 46 -222q0 -22 -2 -44q-22 -234 -160 -354q-128 -110 -309 -110q-200 0 -334 105q-68 55 -82 135z" />
<glyph unicode="6" d="M104 508q2 38 8 112q40 272 196 479q150 199 325 345q33 28 63 28q72 0 72 -88q0 -48 -91 -121q-39 -31 -57 -51q-116 -126 -233 -328h4q113 60 225 60q234 0 332 -258q44 -116 43 -234q-2 -204 -136 -336q-131 -128 -315 -128q-264 0 -379 254q-55 118 -57 266zM284 461 q4 -127 66 -211q70 -94 190 -94q132 0 200 97q58 84 58 222q0 25 -2 45q-26 260 -243 268q-99 4 -175 -62q-71 -62 -85 -194q-1 -22 -9 -71z" />
<glyph unicode="7" horiz-adv-x="983" d="M47 1392q7 80 88 80h745q92 0 93 -48q-1 -8 -21 -72l-565 -1284q-35 -80 -111 -80q-65 0 -71 72q8 50 18 71l529 1186h-612q-84 -1 -93 75z" />
<glyph unicode="8" d="M100 448q0 130 72 234q68 100 196 133q-92 50 -140 134q-52 87 -52 179q0 86 45 169q42 78 124 126q83 47 195 49q120 2 208 -46q172 -94 172 -298q0 -221 -189 -317q129 -29 199 -133q66 -96 66 -234q0 -256 -206 -390q-101 -66 -237 -66q-276 0 -396 238 q-57 110 -57 222zM293 436q-1 -157 115 -246q58 -46 137 -46q83 -1 143 41q118 81 117 255q0 168 -118 250q-61 42 -142 41q-118 -2 -185 -90t-67 -205zM344 1104q0 -215 209 -215q97 1 151 63q52 59 52 156q0 122 -94 181q-46 28 -107 28q-98 0 -154.5 -57.5t-56.5 -155.5z " />
<glyph unicode="9" d="M104 1008q2 278 229 406q102 58 222 58q195 0 315 -150q118 -148 117 -374q-1 -340 -259 -664q-117 -146 -263 -268q-35 -24 -69 -24q-62 0 -72 80q4 12 4 24q10 20 68 75q75 68 83 77q103 114 229 328h-4q-90 -52 -220 -60q-113 6 -181 47q-135 81 -179 275 q-20 88 -20 170zM297 985q0 -26 2 -45q14 -128 72 -194q61 -70 174 -74q99 -4 175 62q72 62 89 194v59q0 133 -59 219q-68 98 -195 98q-131 0 -199 -97q-59 -85 -59 -222z" />
<glyph unicode=":" horiz-adv-x="491" d="M152 92q0 42 31 73t73 31q44 0 74 -30t30 -74q0 -45 -29.5 -74.5t-74.5 -29.5q-43 0 -73.5 30.5t-30.5 73.5zM152 780q0 42 31 73t73 31q44 0 74 -30t30 -74t-30 -74t-74 -30q-42 0 -73 31t-31 73z" />
<glyph unicode=";" horiz-adv-x="491" d="M41 -176q3 25 15 47l140 273q28 52 84 52q80 0 80 -75q0 -27 -16 -61l-129 -260q-28 -56 -90 -56q-33 0 -57.5 23.5t-26.5 56.5zM152 780q0 42 31 73t73 31q44 0 74 -30t30 -74t-30 -74t-74 -30q-42 0 -73 31t-31 73z" />
<glyph unicode="&#x3c;" horiz-adv-x="1229" d="M92 512q8 66 68 96l848 424q33 16 63 16q69 0 69 -67q0 -52 -65 -84l-768 -377l781 -389q48 -23 48 -75q0 -68 -69 -68q-13 0 -55 16l-864 428q-48 24 -56 80z" />
<glyph unicode="=" horiz-adv-x="1229" d="M92 299q9 88 88 88h877q75 0 75 -84t-80 -84h-872q-78 0 -88 80zM92 727q9 88 88 88h877q75 0 75 -84t-80 -84h-872q-78 0 -88 80z" />
<glyph unicode="&#x3e;" horiz-adv-x="1229" d="M84 983q0 27 24 47q22 18 52 18t63 -16l848 -424q65 -32 65 -96q0 -52 -56 -80l-861 -428q-33 -16 -59 -16q-58 0 -68 68q8 62 52 75l780 389l-768 377q-64 32 -72 86z" />
<glyph unicode="?" horiz-adv-x="907" d="M37 1164q4 16 4 40q24 108 138 188q115 82 269 80q98 -1 196 -43q212 -93 232 -317q0 -344 -348 -420v-213q0 -84 -92 -92q-88 8 -88 92v273q0 46 30 68q20 14 73 28q57 14 77 20q148 36 148 199q0 108 -66 172.5t-174 64.5q-176 0 -221 -149q-26 -87 -86 -90 q-51 15 -67 31q-22 22 -25 68zM332 92q0 44 32 74t76 30q42 0 73.5 -31t31.5 -73q0 -41 -31.5 -72.5t-73.5 -31.5q-43 0 -75.5 31t-32.5 73z" />
<glyph unicode="@" horiz-adv-x="1640" d="M76 717q-1 227 112 399q112 170 287 262q179 92 353 94q196 2 363 -72q341 -154 373 -497q2 -22 2 -43q0 -218 -142 -388q-68 -82 -162 -130q-103 -54 -201 -53q-133 3 -145 119h-8q-94 -112 -244 -119q-180 10 -260 167q-38 72 -40 160q19 298 225 450q103 74 239 74 q164 0 239 -153l29 84q14 42 25 51q15 10 43 10q76 0 75 -52q0 -4 -1 -14t-1 -14l-145 -497l-12 -67q0 -53 60 -60q194 46 252 280q16 67 17 136q0 298 -288 430q-139 64 -297 62q-154 -4 -296 -82q-148 -82 -226 -226q-74 -138 -74 -311q0 -167 85 -304t235 -213 q142 -73 284 -75q116 -1 202 21q120 30 266 147q69 55 109 55q51 0 51 -49q0 -25 -32 -71q-100 -116 -333 -196q-131 -46 -267 -44q-196 2 -372 102q-172 98 -275 263q-104 167 -105 364zM545 633q5 -157 167 -189q168 12 246 218q33 90 33 174q-1 148 -123 151 q-126 4 -202.5 -69.5t-102.5 -165.5q-8 -26 -18 -119z" />
<glyph unicode="A" horiz-adv-x="1251" d="M16 60q2 12 7 26l5 22l472 1260q20 54 52 80q34 28 72 28q42 0 76 -26q32 -26 52 -78l477 -1264q8 -32 8 -52q0 -72 -84 -72q-30 0 -56 17q-24 15 -36 50l-97 265h-675l-97 -265q-24 -63 -92 -63q-78 0 -84 72zM344 471h568l-284 793h-4z" />
<glyph unicode="B" horiz-adv-x="1100" d="M121 96v1268q0 96 92 96h327q222 0 333 -172q53 -82 55 -172v-8q0 -56 -20 -120q-46 -150 -183 -196v-4q230 -46 291 -228q24 -74 24 -140q0 -238 -214 -360q-106 -60 -246 -60h-361q-98 0 -98 96zM299 156h241q206 0 283 132q36 62 37 136v4q0 67 -34 130 q-74 138 -267 138h-260v-540zM299 844h209q151 0 212 118q28 54 28 113q0 99 -60 163q-62 66 -160 66h-229v-460z" />
<glyph unicode="C" horiz-adv-x="1216" d="M64 708q0 322 163 536q173 226 481 228q2 0 5 1q157 0 291 -70q68 -35 108 -86q24 -30 24 -70q0 -67 -75 -75q-34 8 -45 16q-102 75 -136 92q-70 36 -159 37h-5q-153 0 -257 -88q-105 -89 -153 -221q-49 -136 -50 -264v-6q0 -115 38.5 -251.5t136.5 -236.5 q100 -102 261 -106q6 0 13 -1q95 1 165 29q72 28 166 84q28 16 60 16q68 0 68 -80q0 -46 -28 -67q-148 -138 -424 -138q-4 1 -8 1q-320 2 -492 246q-148 210 -148 474z" />
<glyph unicode="D" horiz-adv-x="1292" d="M129 80v1284q0 96 94 96h369q190 0 337 -94t225 -266q76 -167 75 -360v-5q-3 -212 -75 -381q-152 -354 -546 -354h-385q-36 0 -64 21q-30 23 -30 59zM307 156h281q158 0 283 110q165 146 165 482q0 260 -128 408t-345 148h-256v-1148z" />
<glyph unicode="E" horiz-adv-x="907" d="M121 96v1264q0 38 18 66q21 34 57 34h552q76 0 76 -84t-80 -84h-445v-481h405q80 0 80 -84t-84 -84h-401v-475h449q76 0 76 -88q0 -80 -89 -80h-526q-88 0 -88 96z" />
<glyph unicode="F" horiz-adv-x="831" d="M121 80v1280q0 38 18 66q21 34 57 34h552q68 0 67 -88q0 -80 -84 -80h-432v-481h389q80 0 80 -86q0 -34 -21 -58t-55 -24h-393v-559q0 -96 -90 -96q-39 0 -63.5 26t-24.5 66z" />
<glyph unicode="G" horiz-adv-x="1368" d="M64 708q0 4 -1 8q-1 318 163 528q82 104 204 164q126 62 278 64q6 0 12 1q147 0 284 -49q132 -48 204 -132q20 -24 21 -59q1 -33 -27 -57q-26 -21 -62 -23q-40 3 -69 27q-94 74 -162 102q-83 35 -188 35q-238 -1 -359 -193q-104 -166 -106 -380v-7q0 -307 174 -485 q102 -102 262 -108q7 0 14 -1q104 1 208 51q230 110 231 410v64h-261q-76 0 -83 80q7 88 75 88h328q119 0 119 -136v-32q0 -376 -219 -564q-138 -116 -400 -116q-320 0 -491 247q-147 212 -149 473z" />
<glyph unicode="H" horiz-adv-x="1368" d="M121 88v1280q0 104 88 104q90 0 90 -104v-559h768v559q0 44 22 74q24 34 66 34q92 0 92 -108v-1280q0 -100 -92 -100q-40 0 -65 30q-23 28 -23 70v564h-768v-564q0 -100 -90 -100q-88 0 -88 100z" />
<glyph unicode="I" horiz-adv-x="415" d="M121 84v1292q0 96 92 96q86 0 86 -96v-1288q0 -100 -86 -100q-92 0 -92 96z" />
<glyph unicode="J" horiz-adv-x="721" d="M-16 148q0 76 72 75q24 0 48 -8l56 -36q55 -35 143 -35q158 0 158 200v1036q0 92 88 92q92 0 92 -92v-999q1 -209 -107 -315q-76 -74 -222 -78q-5 0 -11 -1q-59 0 -137 22q-180 51 -180 139z" />
<glyph unicode="K" horiz-adv-x="1140" d="M121 80v1296q0 96 88 96q90 0 90 -92v-536l645 592q40 36 80 36q76 0 76 -84q0 -44 -35 -75l-600 -541l663 -641q30 -23 31 -71q1 -34 -27 -56q-25 -20 -61 -20q-44 0 -90 44l-682 668v-616q0 -92 -90 -92q-39 0 -63.5 26t-24.5 66z" />
<glyph unicode="L" horiz-adv-x="755" d="M121 108v1268q0 96 92 96q86 0 86 -104v-1200h369q104 0 104 -80q0 -88 -76 -88h-491q-32 0 -58 24.5t-26 83.5z" />
<glyph unicode="M" horiz-adv-x="1708" d="M56 72q4 16 4 40l212 1236q11 66 48 96q38 32 88 32q48 0 84 -25q32 -23 48 -75l312 -1069h4l312 1077q13 44 48.5 68t79.5 24q54 0 92 -31q38 -30 48 -89l212 -1252q0 -120 -88 -120q-80 0 -92 80l-168 1179l-356 -1187q-22 -72 -88 -72q-70 0 -92 72l-352 1187 l-172 -1187q-12 -88 -100 -89q-78 1 -84 105z" />
<glyph unicode="N" horiz-adv-x="1364" d="M121 80v1300q-1 96 75 96q60 0 103 -61l766 -1099h2v1060q0 40 24.5 68t63.5 28q92 0 92 -96v-1300q1 -92 -79 -92q-60 0 -101 57l-768 1104v-1069q0 -88 -90 -88q-88 0 -88 92z" />
<glyph unicode="O" horiz-adv-x="1401" d="M64 727q0 194 71 359q79 180 227 284q146 102 342 102q296 0 470 -222q80 -104 124 -236q44 -140 46 -287v-7q0 -192 -77 -362q-80 -176 -225 -272q-148 -98 -338 -98q-182 0 -330 95q-144 93 -226 259q-84 168 -84 385zM256 731q0 -327 182 -495q100 -92 266 -92 q154 0 264 94q100 86 148 237q36 112 37 256v6q0 278 -130 434q-123 146 -319 146q-270 0 -388 -269q-60 -133 -60 -317z" />
<glyph unicode="P" horiz-adv-x="1065" d="M121 80v1284q0 96 88 96h363q196 0 330 -116q142 -124 142 -340q0 -2 1 -5q0 -185 -130 -319q-131 -136 -319 -135h-297v-469q0 -38 -25.5 -63t-64.5 -25t-63.5 26t-24.5 66zM299 700h256q136 0 222.5 86t86.5 222q0 134 -83 215t-218 81h-264v-604z" />
<glyph unicode="Q" horiz-adv-x="1401" d="M64 727q0 194 71 359q79 180 227 284q146 102 342 102q296 0 470 -222q80 -104 124 -236q44 -138 46 -287v-10q0 -119 -34 -237q-34 -120 -94 -212l168 -168q16 -22 17 -57q0 -67 -80 -67q-31 0 -61 24l-148 144q-168 -156 -408 -156q-182 0 -330 95q-144 93 -226 259 q-84 168 -84 385zM256 731q0 -327 182 -495q100 -92 266 -92q174 0 292 116l-132 127q-24 23 -32 65q0 30 23 53t53 23q38 0 69 -24l107 -108q70 156 69 335q0 284 -130 440q-123 146 -319 146q-270 0 -388 -269q-60 -133 -60 -317z" />
<glyph unicode="R" horiz-adv-x="1065" d="M121 80v1284q0 96 88 96h350q241 0 371 -196q66 -99 66 -224v-16q-3 -96 -44 -179q-68 -140 -238 -179q-83 -19 -194 -19l467 -512q37 -33 37 -79q0 -64 -84 -64q-51 0 -84 36l-557 613v-565q0 -88 -90 -88q-88 0 -88 92zM299 784h254q193 0 239 127q22 59 23 137v4 q0 73 -36 132q-75 120 -234 120h-246v-520z" />
<glyph unicode="S" horiz-adv-x="948" d="M41 168v4q0 32 22 58t58 26q19 0 51 -16q142 -96 303 -96q155 0 236 144q37 66 37 140q0 139 -151 215q-66 33 -167 68q-56 19 -127 45q-74 34 -131 78q-52 40 -84 102q-32 64 -32 152q0 2 -1 3q0 108 64 196q133 185 373 185q178 0 292 -76q60 -40 60 -96q0 -74 -84 -80 q-40 10 -100 38q-80 38 -98 46q-35 14 -83 13q-98 0 -160.5 -57.5t-74.5 -155.5q6 -124 172 -196q90 -31 266 -100q61 -26 118 -65q144 -101 144 -299q0 -258 -224 -390q-112 -66 -268 -66q-112 0 -214 30q-98 28 -154 70q-41 32 -43 80z" />
<glyph unicode="T" horiz-adv-x="872" d="M0 1376q8 84 88 84h731q89 0 89 -84t-80 -84h-283v-1212q0 -40 -26.5 -66t-66.5 -26q-39 0 -63.5 26t-24.5 66v1212h-280q-77 0 -84 84z" />
<glyph unicode="U" horiz-adv-x="1364" d="M121 559v821q0 92 88 92q90 0 90 -92v-876q0 -231 193 -319q91 -42 197 -42q3 1 7 1q110 2 200 49q176 94 175 311v876q0 92 84 92q92 0 92 -92v-817q0 -366 -245 -505q-124 -70 -310 -70q-286 0 -432 156q-140 150 -139 415z" />
<glyph unicode="V" horiz-adv-x="1140" d="M0 1401q0 37 21 63q22 28 59 29q72 0 104 -92l384 -1108h4l384 1112q24 71 96 71q80 0 80 -88q0 -16 -8 -48l-452 -1264q-18 -48 -40 -70q-18 -18 -60 -18q-72 0 -101 80l-455 1268q-8 24 -16 65z" />
<glyph unicode="W" horiz-adv-x="1671" d="M60 1352q0 120 84 120t96 -80l168 -1179l356 1188q22 71 84 71q75 0 96 -71l352 -1188l172 1188q12 88 96 88q84 -1 84 -109v-36l-212 -1236q-10 -64 -48 -94q-40 -34 -92 -34q-44 0 -80 25q-34 24 -48 71l-312 1073h-4l-312 -1077q-26 -92 -132 -92q-50 0 -88 31t-48 89 z" />
<glyph unicode="X" horiz-adv-x="1216" d="M16 64q7 36 25 61l463 659l-383 539q-28 49 -33 78q0 29 25 51q24 20 55 20q58 0 92 -48l348 -508l348 508q34 48 88 48q76 0 76 -76q0 -38 -24 -73l-384 -539l464 -653q24 -33 24 -71q0 -32 -26 -52t-58 -20q-48 0 -80 45l-428 608l-428 -608q-32 -45 -84 -45 q-30 0 -53.5 23t-26.5 53z" />
<glyph unicode="Y" horiz-adv-x="987" d="M0 1401q0 29 25 51q24 20 55 20q58 0 88 -48l344 -560l344 556q33 52 84 52q80 0 80 -76q0 -30 -16 -56l-400 -652v-604q0 -42 -24 -70q-26 -30 -68 -30q-38 0 -64 30q-24 30 -24 70v604l-400 648q-20 40 -24 65z" />
<glyph unicode="Z" horiz-adv-x="1140" d="M43 80q5 40 29 76l760 1148h-664q-81 0 -88 76q8 80 92 80h801q92 0 92 -72q0 -34 -33 -84l-764 -1148h740q84 0 84 -76q0 -80 -88 -80h-856q-96 0 -105 80z" />
<glyph unicode="[" horiz-adv-x="456" d="M156 -72v1444q0 100 96 100h139q80 0 80 -80q0 -30 -22.5 -52.5t-52.5 -22.5h-72v-1329h67q80 0 80 -80q0 -76 -86 -76h-133q-96 0 -96 96z" />
<glyph unicode="\" horiz-adv-x="831" d="M37 1401q-1 75 75 75q64 0 88 -52l584 -1312q12 -27 12 -61q0 -71 -75 -71q-58 0 -84 57l-581 1299q-12 38 -19 65z" />
<glyph unicode="]" horiz-adv-x="456" d="M16 1396q8 76 92 76h132q96 0 96 -96v-1444q0 -100 -92 -100h-144q-80 0 -80 80q0 31 23 53.5t53 22.5h72v1329h-68q-76 -1 -84 79z" />
<glyph unicode="^" horiz-adv-x="1229" d="M112 660q9 34 17 48l391 701q38 67 92 67q60 0 100 -71l392 -697q12 -22 12 -48q0 -64 -76 -72q-50 8 -80 64l-344 640l-356 -651q-26 -46 -76 -53q-66 0 -72 72z" />
<glyph unicode="_" horiz-adv-x="1024" d="M-64 -196q0 44 60 44h1028q64 0 64 -53q0 -51 -64 -51h-1024q-64 0 -64 60z" />
<glyph unicode="`" horiz-adv-x="415" d="M400 1764q0 34 26 59t62 25q24 0 32 -5l272 -115q68 -28 68 -80q0 -69 -88 -75q-16 3 -47 10l-260 105q-57 24 -65 76z" />
<glyph unicode="a" horiz-adv-x="1140" d="M72 540q0 359 250 502q108 62 218 62q179 0 308 -148h4v60q0 38 23.5 63t60.5 25q84 0 84 -92v-932q0 -92 -84 -92t-84 84v80h-4q-117 -162 -285 -164q-4 0 -7 -1q-130 0 -244 69q-240 145 -240 484zM252 545v-6q0 -99 32 -191q72 -204 256 -204q162 0 242 124 q66 104 66 277q0 253 -141 355q-68 48 -154 48h-4q-142 0 -220 -116q-75 -113 -77 -287z" />
<glyph unicode="b" horiz-adv-x="1140" d="M129 80v1409q0 94 86 94q92 0 92 -90v-537h5q115 148 292 148q280 0 406 -280q58 -129 57 -281v-3q1 -242 -131 -396q-64 -75 -154 -116q-89 -41 -189 -41q-5 1 -9 1q-198 4 -272 147h-5v-59q0 -88 -92 -88q-38 0 -62 27t-24 65zM284 553q4 -4 5 -8q7 -237 133 -343 q69 -59 175 -59q4 1 7 1q94 2 160 60q64 58 95 150q30 92 30 189v6q-1 108 -35 200q-34 89 -98 141q-68 56 -156 58h-10q-78 0 -149 -46q-153 -100 -157 -349z" />
<glyph unicode="c" horiz-adv-x="907" d="M72 520q0 4 -1 7q0 107 29 212q60 222 238 314q96 50 217 51h10q103 0 181 -30q79 -30 102 -70q8 -26 8 -40q0 -69 -80 -75q-52 17 -105 35q-62 20 -108 20q-190 0 -271 -199q-38 -94 -40 -186v-10q0 -137 64 -263t216 -142q20 0 31 -4q51 4 91 18q16 6 42 17l39 17 q25 12 45 13q68 0 68 -76q0 -80 -109 -117q-74 -24 -176 -24q-299 0 -429 265q-60 125 -62 267z" />
<glyph unicode="d" horiz-adv-x="1140" d="M72 540q0 3 -1 7q0 107 34 211q69 214 241 302q84 44 186 44q184 0 296 -148h4v537q0 90 88 90q92 0 92 -94v-1409q0 -92 -92 -92q-37 0 -62.5 25.5t-25.5 62.5v59h-4q-29 -59 -95 -101q-69 -44 -178 -46q-4 0 -8 -1q-137 0 -245 71q-109 70 -168 196q-60 128 -62 286z M252 549v-7q0 -159 72 -276q72 -120 212 -122q4 0 9 -1q105 -1 175 59q70 58 100 150q32 94 32 193v8q0 111 -38 203q-80 192 -261 192q-194 0 -267 -210q-33 -95 -34 -189z" />
<glyph unicode="e" horiz-adv-x="1065" d="M47 545q2 4 4 10q13 312 229 469q108 79 252 80h4q136 0 247 -76q108 -74 169 -202q60 -126 60 -263q0 -88 -100 -88h-680q4 -215 166 -295q74 -36 165 -36q154 0 293 112q40 33 68 33q64 0 63 -76q-1 -35 -27 -65q-56 -62 -170 -112q-110 -48 -237 -48q-257 0 -389 183 q-112 156 -117 374zM232 612h600q-2 150 -80 242t-212 94h-4q-132 0 -214 -88q-84 -90 -90 -248z" />
<glyph unicode="f" horiz-adv-x="491" d="M12 1020q2 72 92 72h72v260q0 102 68 162q72 66 168 69h16q144 0 144 -84q0 -71 -93 -71h-55q-68 0 -68 -80v-256h115q81 0 88 -72q0 -84 -88 -84h-115v-856q0 -92 -92 -92q-39 0 -63.5 26t-24.5 66v856h-76q-88 0 -88 79v5z" />
<glyph unicode="g" horiz-adv-x="1140" d="M72 553q2 157 62 285q60 126 168.5 196t244.5 70h8q201 -4 273 -152h4v60q0 88 88 88q92 0 92 -92v-932q0 -314 -222 -452q-112 -68 -262 -68q-2 0 -3 -1q-179 0 -337 97q-82 50 -88 112q12 64 72 76q60 -8 121 -49q117 -80 243 -80q150 -1 230 125q68 106 68 266 q0 7 -1 20.5t-1 21.5h-4q-86 -156 -288 -157q-2 1 -4 1q-136 1 -244 79q-104 75 -162 203q-59 129 -59 278q1 3 1 5zM252 545q2 -111 36 -203q32 -90 97 -142q67 -54 155 -56q3 0 6 -1q134 -1 220 105q86 104 86 284q0 238 -138 356q-71 61 -171 60h-7q-92 -2 -158 -62 q-64 -58 -96 -148q-31 -92 -30 -187v-6z" />
<glyph unicode="h" d="M121 80v1409q0 94 88 94q90 0 90 -94l4 -529q106 144 293 144q226 0 336 -202q50 -94 51 -202v-620q0 -92 -90 -92q-39 0 -63.5 26t-24.5 66v596q0 117 -67.5 193.5t-182.5 78.5h-4q-65 0 -123 -30q-130 -68 -129 -238v-600q0 -92 -90 -92q-39 0 -63.5 26t-24.5 66z" />
<glyph unicode="i" horiz-adv-x="415" d="M96 1360q0 46 33.5 79t79.5 33t78.5 -33t32.5 -79q0 -45 -33 -79t-78 -34q-46 0 -79.5 33.5t-33.5 79.5zM121 80v928q0 96 88 96q90 0 90 -92v-932q0 -92 -90 -92q-39 0 -63.5 26t-24.5 66z" />
<glyph unicode="j" horiz-adv-x="415" d="M96 1360q0 46 33.5 79t79.5 33t78.5 -33t32.5 -79q0 -45 -33 -79t-78 -34q-46 0 -79.5 33.5t-33.5 79.5zM121 -348v1356q0 96 88 96q90 0 90 -92v-1360q0 -96 -90 -96q-88 0 -88 96z" />
<glyph unicode="k" horiz-adv-x="907" d="M121 80v1413q0 86 88 86q90 0 90 -90v-772l422 354q33 29 71 29q76 0 76 -84q0 -38 -32 -64l-420 -332l481 -472q35 -34 35 -88q0 -72 -76 -72q-48 0 -92 45l-465 483v-436q0 -92 -90 -92q-39 0 -63.5 26t-24.5 66z" />
<glyph unicode="l" horiz-adv-x="415" d="M121 84v1401q0 94 88 94q90 0 90 -90v-1405q0 -96 -90 -96q-88 0 -88 96z" />
<glyph unicode="m" horiz-adv-x="1704" d="M121 76v940q-1 38 27 62q26 22 65 22q86 0 86 -92v-35h4q103 131 274 131h7q186 -2 292 -184q74 104 158 144q84 41 182 40h4q98 -1 186 -50q186 -104 186 -346v-632q0 -88 -93 -88q-37 0 -62.5 25.5t-25.5 62.5v620q1 162 -111 224q-52 28 -116 28q-240 0 -240 -252 v-620q0 -84 -92 -84q-37 0 -62.5 23.5t-25.5 60.5v612q0 132 -66 196t-161 64h-5q-62 -1 -117 -27q-116 -55 -116 -213v-632q0 -38 -25.5 -63t-64.5 -25q-38 0 -63 25t-25 63z" />
<glyph unicode="n" d="M121 80v928q0 96 88 96q90 0 90 -96v-44l4 -4q109 144 297 144q225 0 330 -186q53 -94 53 -230v-608q0 -88 -90 -88q-88 0 -88 88v604q0 113 -69 186q-70 74 -183 74q-147 0 -218 -120q-36 -60 -36 -144v-600q0 -96 -86 -96q-40 0 -66 28t-26 68z" />
<glyph unicode="o" d="M72 545q0 334 233 487q110 72 244 72h4q141 -1 253 -78q108 -74 168 -205q58 -128 58 -276q0 -327 -225 -482q-109 -75 -254 -75q-296 0 -423 280q-58 128 -58 277zM252 545q0 -161 67 -271q80 -130 230 -130q199 0 269 199q34 94 34 202v6q0 103 -34 196 q-74 201 -265 201q-192 0 -266 -196q-35 -92 -35 -207z" />
<glyph unicode="p" horiz-adv-x="1140" d="M129 -352v1360q0 96 86 96q92 0 92 -92v-56h5q74 144 272 148h7q99 0 189 -40q180 -82 252 -288q35 -104 35 -223q0 -335 -221 -491q-106 -74 -242 -74q-182 0 -292 147h-5v-483q0 -108 -88 -108q-40 0 -66 32q-24 30 -24 72zM289 549v-6q0 -179 82 -289 q83 -110 213 -114q8 4 16 4q182 12 254 200q34 92 35 201v6q-1 96 -31 188q-30 91 -94 149q-66 59 -160 60h-7q-106 0 -175 -57q-70 -59 -100 -149q-32 -96 -33 -193z" />
<glyph unicode="q" horiz-adv-x="1140" d="M68 553q2 156 66 286q62 124 170 195q109 70 243 70h6q110 -1 179 -46q68 -44 96 -102h4v56q0 39 24 66q26 26 64 26q92 0 92 -96v-1360q0 -44 -26 -74t-70 -30q-84 0 -84 108v483h-8q-100 -147 -292 -147q-280 0 -406 280q-59 131 -59 275q1 5 1 10zM252 545 q0 -239 130 -343q68 -56 158 -58q5 0 10 -1q79 0 149 47q149 98 149 346q0 234 -135 351q-71 61 -174 61h-7q-91 -2 -156 -60q-124 -112 -124 -343z" />
<glyph unicode="r" horiz-adv-x="643" d="M121 84v924q0 92 88 92q90 0 90 -92v-92h4q40 71 106 128.5t136 59.5h3q38 0 68 -26q32 -26 31 -66q0 -74 -124 -106q-61 -16 -79 -26q-146 -80 -145 -272v-528q0 -92 -86 -92q-92 0 -92 96z" />
<glyph unicode="s" horiz-adv-x="907" d="M47 196q0 34 22.5 57t55.5 23q38 0 117 -56q38 -28 55 -36q65 -38 151 -40q6 0 12 -1q76 1 144 37t68 113q0 73 -84 123q-54 32 -158 73q-118 45 -154 65q-84 44 -132 102t-48 145q0 172 171 258q85 43 185 45h11q89 0 183 -34q96 -34 138 -74q44 -42 44 -84 q0 -32 -24 -55t-56 -25q-36 8 -100 44q-88 50 -99 56q-34 16 -78 16h-7q-90 0 -138 -39q-50 -40 -54 -98q16 -89 137 -143q49 -24 121 -48q54 -18 98 -36q123 -52 175 -116q53 -66 53 -156v-5q-1 -81 -47 -155q-45 -72 -135 -118q-92 -46 -222 -46q-2 0 -3 -1 q-211 -1 -353 121q-42 28 -49 88z" />
<glyph unicode="t" horiz-adv-x="491" d="M8 1012q8 80 88 80h80v244q0 84 88 84q92 0 92 -89v-239h80q84 0 84 -80q0 -76 -76 -76h-88v-860q0 -88 -96 -88q-84 0 -84 92v856h-80q-78 0 -88 76z" />
<glyph unicode="u" d="M121 412v600q0 92 88 92q90 0 90 -92v-596q0 -272 250 -272q256 0 256 272v596q0 92 88 92q90 0 90 -92v-600q-1 -252 -189 -365q-98 -59 -249 -59q-279 0 -379 212q-46 96 -45 212z" />
<glyph unicode="v" horiz-adv-x="872" d="M4 1032q0 88 84 88q72 0 96 -76l252 -768l256 768q21 64 84 64q88 0 88 -84q0 -19 -8 -43l-324 -917q-12 -36 -36 -58q-21 -18 -60 -18q-66 0 -92 72l-324 908q-8 26 -16 64z" />
<glyph unicode="w" horiz-adv-x="1515" d="M0 1020q0 80 88 80q76 0 96 -64l244 -772l240 764q26 84 92 84q65 0 92 -84l244 -760h4l236 756q26 80 96 80q84 0 84 -88q0 -20 -8 -43l-308 -897q-30 -88 -100 -88q-72 0 -104 100l-232 727h-4l-228 -711q-23 -72 -45 -92q-26 -24 -67 -24q-70 0 -108 108l-304 885 q-2 13 -8 39z" />
<glyph unicode="x" horiz-adv-x="948" d="M8 68q8 50 35 84l329 424l-288 376q-25 33 -33 76q0 32 23.5 54t56.5 22q49 0 78 -39l266 -357l265 353q32 43 75 43q78 0 78 -84q-1 -32 -25 -64l-288 -380l328 -428q36 -48 36 -101q0 -71 -76 -71q-52 0 -96 61l-297 411l-299 -415q-32 -45 -88 -45q-72 0 -80 80z" />
<glyph unicode="y" horiz-adv-x="872" d="M33 1020q-1 80 83 80q72 0 93 -64l247 -747h5l247 751q20 64 84 64q84 0 84 -88q0 -20 -8 -43l-472 -1345q-14 -40 -38 -59q-28 -21 -61 -21q-66 0 -74 84q5 16 13 56l132 353l-325 932q-2 14 -10 47z" />
<glyph unicode="z" horiz-adv-x="907" d="M33 51q6 49 47 109l520 776h-460q-76 0 -84 76q8 80 88 80h616q84 0 84 -64q0 -40 -35 -92l-529 -780h504q88 0 88 -80q0 -76 -88 -76h-655q-92 0 -96 51z" />
<glyph unicode="{" horiz-adv-x="528" d="M-33 652q0 55 76 73q74 19 98 87q15 42 15 136v316q0 92 54 150t146 58h88q80 0 80 -63q0 -57 -88 -61q-46 -2 -59 -8q-53 -18 -53 -103v-301q0 -266 -189 -280v-9q189 -13 189 -279v-300q0 -86 53 -105q14 -7 59.5 -10t66.5 -14t21 -47q0 -60 -80 -60h-88q-92 0 -146 59 q-54 58 -54 150v315q0 94 -16 138q-24 66 -97 86q-76 20 -76 72z" />
<glyph unicode="|" horiz-adv-x="456" d="M144 72v1431q0 76 84 76t84 -80v-1431q0 -80 -84 -80t-84 84z" />
<glyph unicode="}" horiz-adv-x="528" d="M-33 -108q0 56 89 61q42 3 60 10q52 21 52 105v300q0 266 188 279v9q-188 16 -188 280v301q0 85 -52 103q-17 8 -62 11t-66 13t-21 47q0 61 80 61h93q88 0 142 -58q53 -58 54 -150l4 -316q2 -114 22 -158q22 -48 86 -65q76 -20 76 -78q0 -47 -76 -67q-66 -16 -86 -66 q-20 -46 -22 -158l-4 -315q-1 -91 -54.5 -150t-141.5 -59h-93q-80 0 -80 60z" />
<glyph unicode="~" horiz-adv-x="1229" d="M131 432q0 120 142 198q63 34 123 34q117 0 245.5 -68t186.5 -68q42 0 95 68t105 68q72 0 72 -56q0 -126 -142 -202q-62 -34 -126 -34q-109 0 -240 68q-42 22 -120 58q-32 14 -68 14q-42 0 -94 -68q-54 -72 -105 -72q-74 0 -74 60z" />
<glyph d="M40 898q0 68 80 68h113q26 202 144 347q136 167 333 167q234 0 336 -150q20 -30 20 -61q0 -30 -20 -51.5t-48 -21.5q-24 0 -44 18q-76 67 -112 84q-52 26 -140 26q-117 0 -193 -110q-68 -98 -85 -248h392q80 0 80 -68t-80 -68h-406q-4 -58 -4 -114q0 -42 3 -86h308 q80 0 80 -69t-80 -69h-291q20 -148 86 -238q76 -104 194 -104q74 0 144 30q32 14 55 30q39 30 55 40q30 18 60 18q31 0 49 -23q13 -19 13 -47q0 -40 -24 -66q-68 -72 -163 -106q-91 -32 -195 -32q-195 0 -323 158q-111 136 -143 340h-114q-80 0 -80 69t80 69h100 q-4 44 -4 86q0 60 4 114h-100q-80 0 -80 68z" />
<glyph unicode="&#x20ac;" d="M40 898q0 68 80 68h113q26 202 144 347q136 167 333 167q234 0 336 -150q20 -30 20 -61q0 -30 -20 -51.5t-48 -21.5q-24 0 -44 18q-76 67 -112 84q-52 26 -140 26q-117 0 -193 -110q-68 -98 -85 -248h392q80 0 80 -68t-80 -68h-406q-4 -58 -4 -114q0 -42 3 -86h308 q80 0 80 -69t-80 -69h-291q20 -148 86 -238q76 -104 194 -104q74 0 144 30q32 14 55 30q39 30 55 40q30 18 60 18q31 0 49 -23q13 -19 13 -47q0 -40 -24 -66q-68 -72 -163 -106q-91 -32 -195 -32q-195 0 -323 158q-111 136 -143 340h-114q-80 0 -80 69t80 69h100 q-4 44 -4 86q0 60 4 114h-100q-80 0 -80 68z" />
<glyph unicode="&#xa1;" horiz-adv-x="567" d="M196 996q0 46 30.5 75t76.5 29q45 0 75 -30t30 -74q0 -42 -31 -72.5t-74 -30.5q-44 0 -75.5 30t-31.5 73zM213 -293v901q0 37 24.5 62.5t61.5 25.5q92 0 92 -92v-897q0 -88 -92 -88q-86 0 -86 88z" />
<glyph unicode="&#xa2;" horiz-adv-x="907" d="M72 580q2 131 56 247q101 225 337 269v120q0 40 39 40q49 0 49 -44v-112q303 0 303 -136q0 -69 -80 -75l-79 28q-88 31 -144 31v-804q74 0 182 48q27 12 45 13q68 0 68 -76q0 -141 -295 -141v-113q0 -39 -49 -39q-39 0 -39 43v117q-263 54 -352 314q-44 130 -41 270z M252 559q-2 -121 50 -241q50 -116 163 -158v772q-105 -42 -157 -143q-54 -104 -56 -230z" />
<glyph unicode="&#xa3;" horiz-adv-x="1216" d="M56 727q8 88 88 88h163q-96 160 -102 293q10 220 240 320q111 48 219 44q110 -3 218 -59q89 -47 154 -118q76 -85 84 -171q0 -52 -23 -72q-12 -10 -73 -32q-44 4 -88 92q-54 108 -112 148q-64 44 -181 44q-104 0 -180 -56q-78 -58 -76 -168q1 -54 23 -100q20 -43 86 -165 h272q80 0 80 -84t-80 -84h-232q12 -51 13 -119q0 -183 -172 -360h694q84 0 84 -84t-84 -84h-848q-79 0 -88 72q7 56 49 96q122 120 162 214q26 62 26 138q0 41 -16 127h-212q-80 0 -88 80z" />
<glyph unicode="&#xa4;" d="M40 898q0 68 80 68h113q26 202 144 347q136 167 333 167q234 0 336 -150q20 -30 20 -61q0 -30 -20 -51.5t-48 -21.5q-24 0 -44 18q-76 67 -112 84q-52 26 -140 26q-117 0 -193 -110q-68 -98 -85 -248h392q80 0 80 -68t-80 -68h-406q-4 -58 -4 -114q0 -42 3 -86h308 q80 0 80 -69t-80 -69h-291q20 -148 86 -238q76 -104 194 -104q74 0 144 30q32 14 55 30q39 30 55 40q30 18 60 18q31 0 49 -23q13 -19 13 -47q0 -40 -24 -66q-68 -72 -163 -106q-91 -32 -195 -32q-195 0 -323 158q-111 136 -143 340h-114q-80 0 -80 69t80 69h100 q-4 44 -4 86q0 60 4 114h-100q-80 0 -80 68z" />
<glyph unicode="&#xa5;" d="M12 1401q0 30 23 50.5t53 20.5q54 0 92 -57l369 -551l363 545q42 63 100 63q68 0 68 -71q0 -19 -19 -65l-336 -521h199q80 1 80 -67t-80 -68h-283v-144h283q80 0 80 -67q0 -69 -84 -69h-279v-320q0 -92 -92 -92q-39 0 -63.5 26t-24.5 66v320h-289q-71 0 -80 65 q8 71 80 71h289v144h-285q-81 0 -88 68q8 68 84 67h205l-340 521q-17 26 -25 65z" />
<glyph unicode="&#xa7;" horiz-adv-x="1140" d="M51 555q9 240 256 348q-132 79 -135 237q-2 82 52 164q49 76 148 122q100 48 240 46q118 -1 214 -46q187 -90 202 -254q0 -103 -84 -107q-62 4 -92 80q-50 127 -154 157q-50 14 -122 15q-84 0 -148 -43q-72 -48 -76 -129q6 -69 60 -113q64 -54 223 -130q121 -58 243 -116 q202 -107 202 -321q0 -137 -98 -249q-50 -58 -122 -100q131 -91 131 -237q-1 -181 -191 -273q-100 -48 -228 -50q-106 -2 -214 38q-222 83 -254 234q-4 20 -4 30q0 92 84 99q66 -7 96 -69q46 -96 112 -138q64 -40 176 -39q92 0 158 35q83 44 83 129q-1 93 -101 149 q-68 38 -216 102q-146 62 -216 101q-213 120 -225 328zM236 568q7 -128 192 -220l297 -148q178 124 178 269q0 137 -168 215l-270 125q-223 -79 -229 -241z" />
<glyph unicode="&#xa8;" horiz-adv-x="415" d="M-92 1348q0 48 32 80t80 32q47 0 78 -33t31 -79t-31.5 -77.5t-77.5 -31.5t-79 31.5t-33 77.5zM289 1348q0 48 31.5 80t79.5 32t80 -32t32 -80q0 -46 -33 -77.5t-79 -31.5t-78.5 31.5t-32.5 77.5z" />
<glyph unicode="&#xa9;" horiz-adv-x="1640" d="M76 727q0 200 100 371q98 172 272 274q171 100 371 100t371.5 -99t273.5 -273q100 -172 100 -373q0 -199 -100 -370q-99 -169 -272 -269q-172 -100 -373 -100q-199 0 -370 98.5t-273 270.5q-100 170 -100 370zM244 727q0 -157 76.5 -292t211.5 -216q132 -79 287 -79 t288 78q131 78 208 214t77 295q0 158 -76 294t-210 217q-132 79 -287 79t-289 -80q-131 -78 -208.5 -214t-77.5 -296zM387 731q0 273 206 397q99 60 231 60q170 0 277 -100q91 -86 91 -160q0 -60 -68 -60q-43 0 -116 102q-60 82 -184 82q-172 0 -238 -154q-31 -73 -31 -167 q1 -183 129 -273q62 -42 140 -42q82 0 130 30q38 25 92 98q44 60 78 60q68 0 68 -55q0 -58 -62 -127q-50 -58 -110 -92q-84 -50 -196 -50q-192 0 -316 132q-121 128 -121 319z" />
<glyph unicode="&#xaa;" horiz-adv-x="739" d="M60 1140q2 86 42 166q86 166 266 166q114 0 172 -84l5 -4v36q-1 52 67 52t68 -52v-564q0 -55 -68 -55t-67 51v37h-5q-62 -91 -180 -88q-132 3 -217 101q-85 94 -83 238zM209 1136q-1 -84 41 -144q47 -68 127 -68q81 0 129 68q44 60 43 144q-1 121 -85 183q-40 29 -87 29 q-79 0 -126 -68q-42 -62 -42 -144z" />
<glyph unicode="&#xab;" horiz-adv-x="796" d="M76 549l204 367q30 52 72 52q27 0 51.5 -22t24.5 -49q0 -31 -20 -65l-168 -283l176 -293q16 -40 16 -56q0 -58 -84 -71q-44 4 -64 51zM400 549l204 367q30 52 76 52q28 0 52 -21t24 -48q0 -25 -25 -67l-168 -283l177 -293q16 -26 16 -60q0 -54 -80 -67q-40 4 -68 51z" />
<glyph unicode="&#xac;" horiz-adv-x="1229" d="M92 731q10 84 80 84h876q84 0 84 -88v-428q0 -72 -84 -80q-84 8 -84 84v344h-788q-74 0 -84 84z" />
<glyph unicode="&#xad;" horiz-adv-x="721" d="M68 545q8 83 84 83h411q84 0 84 -79q0 -78 -84 -78h-407q-80 0 -88 74z" />
<glyph unicode="&#xae;" horiz-adv-x="1640" d="M76 727q0 310 217 527.5t526 217.5q307 0 525 -218q216 -217 216 -527q0 -200 -98 -369.5t-270 -269.5t-373 -100q-200 0 -371.5 98t-271.5 271q-100 170 -100 370zM244 727q0 -156 77 -290.5t213 -214.5q132 -78 285 -78q154 0 288 78q132 78 210.5 212t78.5 293 q0 158 -77 293.5t-213 217.5q-133 80 -287 79q-153 -1 -287 -81q-130 -78 -209 -213.5t-79 -295.5zM516 360v744q0 41 43 41h273q212 0 274 -101q34 -54 34 -145q0 -205 -208 -235l184 -283q16 -26 16 -49q0 -28 -75 -35q-52 4 -80 47l-197 312h-133v-296q1 -60 -67 -63 q-64 3 -64 63zM647 780h158q133 0 175 44q28 28 28 84q0 112 -193 112h-168v-240z" />
<glyph unicode="&#xb1;" horiz-adv-x="1229" d="M88 641q8 84 96 84h348v223q0 88 80 88q88 0 88 -88v-223h357q75 0 75 -88q0 -82 -80 -82h-352v-227q0 -80 -84 -88q-84 8 -84 88v227h-348q-88 0 -96 86zM92 84q8 84 92 84h873q83 0 83 -88q0 -80 -83 -80h-873q-82 0 -92 84z" />
<glyph unicode="&#xb2;" horiz-adv-x="712" d="M60 637q8 28 16 39l364 456q52 64 52 111q0 50 -42 79q-38 26 -90 26q-67 0 -119.5 -51t-52.5 -117q0 -44 -63 -52q-61 8 -61 72q0 125 91 201q85 71 213 71q114 0 188 -52q84 -60 85 -168q0 -76 -78 -172l-295 -359h312q72 1 72 -65q0 -60 -72 -60h-455q-59 0 -65 41z " />
<glyph unicode="&#xb3;" horiz-adv-x="712" d="M60 796q8 68 56 68q36 0 56 -40q42 -92 112 -107q18 -3 52 -9q68 2 116 42q50 40 52 94q2 74 -32 112q-34 36 -112 35q-88 -1 -88 53q0 41 72 60q114 30 112 143q-2 48 -40 75q-36 26 -88 26q-50 0 -88 -26t-40 -70q-1 -24 -17.5 -38.5t-42.5 -17.5q-52 6 -52 80 q10 94 79 146t185 50q114 -2 182 -69q66 -67 66 -160q0 -123 -108 -182q160 -48 160 -209q0 -124 -102 -200q-92 -68 -222 -68q-208 0 -260 176q-2 12 -8 36z" />
<glyph unicode="&#xb4;" horiz-adv-x="415" d="M400 1648q8 58 79 88l242 99q14 8 47 8q32 0 58 -23.5t26 -55.5q0 -48 -68 -76l-239 -101q-19 -8 -61 -10q-34 -2 -58 20q-22 19 -26 51z" />
<glyph unicode="&#xb5;" d="M121 -356v1368q0 92 88 92q90 0 90 -92v-580q0 -196 101 -254q62 -36 176 -34q144 2 187 84q42 82 42 200v584q0 92 88 92q90 0 90 -92v-924q0 -100 -90 -100q-74 0 -84 59q-113 -59 -256 -59q-178 0 -254 96v-436q0 -88 -90 -88q-88 0 -88 84z" />
<glyph unicode="&#x3bc;" d="M121 -356v1368q0 92 88 92q90 0 90 -92v-580q0 -196 101 -254q62 -36 176 -34q144 2 187 84q42 82 42 200v584q0 92 88 92q90 0 90 -92v-924q0 -100 -90 -100q-74 0 -84 59q-113 -59 -256 -59q-178 0 -254 96v-436q0 -88 -90 -88q-88 0 -88 84z" />
<glyph unicode="&#xb6;" horiz-adv-x="1229" d="M56 1092q0 228 238 323q113 45 255 45h424q94 0 94 -104v-1716q0 -80 -84 -80t-84 76v1687h-235v-1691q0 -76 -84 -76t-84 80v1068q-254 0 -378 174q-62 88 -62 214z" />
<glyph unicode="&#xb7;" horiz-adv-x="491" d="M144 620q0 46 33 78.5t79 32.5q47 0 79.5 -31.5t32.5 -79.5q0 -46 -33 -77t-79 -31t-79 31.5t-33 76.5z" />
<glyph unicode="&#x2219;" horiz-adv-x="491" d="M144 620q0 46 33 78.5t79 32.5q47 0 79.5 -31.5t32.5 -79.5q0 -46 -33 -77t-79 -31t-79 31.5t-33 76.5z" />
<glyph unicode="&#xb8;" horiz-adv-x="415" d="M125 -297q0 57 39 57q18 0 54 -10t54 -10q72 0 72 55q0 32 -33 39q-10 2 -59 2q-54 0 -60 35q6 24 21 53l55 76h109l-61 -88q16 2 44 8q56 -4 97 -34q43 -32 43 -78q2 -87 -62 -133q-62 -43 -166 -43q-148 0 -147 71z" />
<glyph unicode="&#xb9;" horiz-adv-x="469" d="M12 1396q8 64 60 64h217q35 0 35 -28v-785q0 -53 -72 -63q-72 9 -72 63v689h-108q-52 0 -60 60z" />
<glyph unicode="&#xba;" horiz-adv-x="712" d="M47 1136q0 200 147 292q70 44 166 44q192 0 274 -166q38 -78 38 -170q0 -198 -147 -290q-73 -46 -165 -45q-192 3 -274 169q-38 76 -39 166zM192 1136q0 -82 43 -142q47 -70 125 -70q76 0 124 70q40 62 40 142q0 124 -80 184q-38 28 -84 28q-100 0 -146 -104 q-22 -50 -22 -108z" />
<glyph unicode="&#xbb;" horiz-adv-x="796" d="M76 196q8 40 20 60l176 293l-172 283q-14 24 -24 65q3 28 25.5 49.5t50.5 21.5q46 0 76 -52l204 -367l-209 -369q-17 -48 -67 -51q-70 9 -80 67zM400 196q8 40 20 60l176 293l-172 283q-14 24 -24 65q3 28 25 49.5t50 21.5q48 0 78 -52l203 -367l-203 -369 q-26 -48 -74 -51q-70 9 -79 67z" />
<glyph unicode="&#xbc;" horiz-adv-x="1648" d="M72 1396q8 64 57 64h215q41 0 41 -28v-785q0 -55 -78 -63q-71 11 -71 63v689h-105q-51 0 -59 60zM381 24q5 24 19 60l560 1348q24 58 72 57q68 1 68 -61q0 -28 -25 -88l-547 -1307q-26 -61 -76 -61q-64 0 -71 52zM912 244q8 38 32 76l328 495q40 61 104 61q96 0 96 -80 v-476h48q58 0 57 -60q1 -60 -53 -60h-52v-153q0 -59 -71 -59q-78 0 -78 63v149h-367q-38 0 -44 44zM1084 320h239v407h-2z" />
<glyph unicode="&#xbd;" horiz-adv-x="1648" d="M68 1396q8 64 61 64h215q41 0 41 -28v-785q0 -55 -78 -63q-71 11 -71 63v689h-105q-55 0 -63 60zM316 24q2 16 20 60l561 1348q23 58 71 57q68 1 68 -61q0 -28 -24 -88l-547 -1307q-26 -61 -78 -61q-59 0 -71 52zM928 41q14 31 16 35l360 460q52 66 52 111q0 51 -40 79 q-36 26 -87 26q-68 0 -122 -50q-55 -50 -55 -118q0 -44 -61 -52q-59 8 -59 72q0 126 91 202q85 70 214 70q113 0 185 -54q80 -60 81 -170q1 -88 -71 -173l-300 -354h316q68 1 68 -65q0 -60 -72 -60h-453q-57 0 -63 41z" />
<glyph unicode="&#xbe;" horiz-adv-x="1648" d="M88 796q10 68 56 68q40 0 56 -40q36 -90 112 -107q18 -3 52 -9q62 3 110 38q52 38 58 98q0 147 -145 147q-88 -1 -88 53q1 26 17 39q12 10 56 21q108 28 107 143q-1 47 -37 75q-34 26 -86 26q-51 0 -90 -26q-40 -26 -43 -70q-1 -24 -16.5 -38.5t-38.5 -17.5q-52 6 -52 80 q10 94 78.5 146t186.5 50q113 -2 181 -69q66 -67 66 -160q0 -118 -112 -182q160 -48 160 -213q0 -124 -100 -198q-92 -66 -220 -66q-208 0 -260 176q-2 12 -8 36zM508 24q6 41 16 60l560 1348q24 58 71 57q69 1 69 -61q0 -30 -24 -88l-548 -1307q-26 -61 -76 -61 q-56 0 -68 52zM912 244q8 38 32 76l328 495q40 61 104 61q96 0 96 -80v-476h52q54 0 53 -60q0 -60 -49 -60h-56v-153q0 -59 -71 -59q-78 0 -78 63v149h-367q-38 0 -44 44zM1084 320h239v407h-2z" />
<glyph unicode="&#xbf;" horiz-adv-x="907" d="M37 -20q-4 164 89 274q88 106 255 142v212q0 88 84 88q94 0 94 -88v-268q0 -76 -82 -94q-29 -6 -96 -23q-57 -17 -105 -67q-46 -50 -48 -140q4 -16 4 -49q32 -180 243 -180q83 1 141 41q60 42 80 108q26 84 84 84q88 0 88 -92q0 -182 -222 -270q-96 -38 -185 -39 q-225 0 -353 163q-68 88 -71 198zM368 996q0 46 29 75t74 29t75 -30t30 -74q0 -42 -31 -72.5t-74 -30.5q-44 0 -73.5 29.5t-29.5 73.5z" />
<glyph unicode="&#xc0;" horiz-adv-x="1251" d="M16 60q2 12 7 26l5 22l472 1260q20 54 52 80q34 28 72 28q42 0 76 -26q32 -26 52 -78l477 -1264q8 -32 8 -52q0 -72 -84 -72q-30 0 -56 17q-24 15 -36 50l-97 265h-675l-97 -265q-24 -63 -92 -63q-78 0 -84 72zM344 471h568l-284 793h-4zM392 1764q0 34 26 59t62 25 q24 0 32 -5l272 -115q68 -28 68 -80q0 -69 -88 -75q-16 3 -47 10l-260 105q-57 24 -65 76z" />
<glyph unicode="&#xc1;" horiz-adv-x="1251" d="M16 60q2 12 7 26l5 22l472 1260q20 54 52 80q34 28 72 28q42 0 76 -26q32 -26 52 -78l477 -1264q8 -32 8 -52q0 -72 -84 -72q-30 0 -56 17q-24 15 -36 50l-97 265h-675l-97 -265q-24 -63 -92 -63q-78 0 -84 72zM344 471h568l-284 793h-4zM396 1644q8 58 79 88l242 99 q14 8 47 8q32 0 58 -23.5t26 -55.5q0 -48 -68 -76l-239 -101q-19 -8 -61 -10q-34 -2 -58 20q-22 19 -26 51z" />
<glyph unicode="&#xc2;" horiz-adv-x="1251" d="M16 60q2 12 7 26l5 22l472 1260q20 54 52 80q34 28 72 28q42 0 76 -26q32 -26 52 -78l477 -1264q8 -32 8 -52q0 -72 -84 -72q-30 0 -56 17q-24 15 -36 50l-97 265h-675l-97 -265q-24 -63 -92 -63q-78 0 -84 72zM344 471h568l-284 793h-4zM300 1641q0 59 48 79l273 116 l266 -116q53 -17 53 -79q0 -68 -76 -74q-28 7 -48 13l-195 79l-193 -75q-20 -8 -59 -17q-69 0 -69 74z" />
<glyph unicode="&#xc3;" horiz-adv-x="1251" d="M16 60q2 12 7 26l5 22l472 1260q20 54 52 80q34 28 72 28q42 0 76 -26q32 -26 52 -78l477 -1264q8 -32 8 -52q0 -72 -84 -72q-30 0 -56 17q-24 15 -36 50l-97 265h-675l-97 -265q-24 -63 -92 -63q-78 0 -84 72zM344 471h568l-284 793h-4zM324 1668q0 46 20 69 q52 59 160 59q42 0 112 -17q82 -19 112 -23q20 2 65 21q43 19 67 19q28 0 48 -23t20 -53q0 -64 -70 -100q-52 -28 -126 -32q-8 4 -19 4q-30 0 -96.5 18t-100.5 18q-26 0 -65 -15q-31 -13 -63 -25q-64 32 -64 80z" />
<glyph unicode="&#xc4;" horiz-adv-x="1251" d="M16 60q2 12 7 26l5 22l472 1260q20 54 52 80q34 28 72 28q42 0 76 -26q32 -26 52 -78l477 -1264q8 -32 8 -52q0 -72 -84 -72q-30 0 -56 17q-24 15 -36 50l-97 265h-675l-97 -265q-24 -63 -92 -63q-78 0 -84 72zM344 471h568l-284 793h-4zM328 1676q0 48 32 80t80 32 q47 0 78 -33t31 -79t-31.5 -77.5t-77.5 -31.5t-79 31.5t-33 77.5zM709 1676q0 48 31.5 80t79.5 32t80 -32t32 -80q0 -46 -33 -77.5t-79 -31.5t-78.5 31.5t-32.5 77.5z" />
<glyph unicode="&#xc5;" horiz-adv-x="1251" d="M16 60q2 12 7 26l5 22l472 1260q20 54 52 80q34 28 72 28q42 0 76 -26q32 -26 52 -78l477 -1264q8 -32 8 -52q0 -72 -84 -72q-30 0 -56 17q-24 15 -36 50l-97 265h-675l-97 -265q-24 -63 -92 -63q-78 0 -84 72zM344 471h568l-284 793h-4zM428 1700q0 80 56.5 137.5 t136.5 57.5q81 0 138 -56.5t57 -138.5q0 -80 -57.5 -136t-137.5 -56q-79 0 -136 56.5t-57 135.5zM528 1700q0 -40 27 -66t66 -26q40 0 67 27t27 65t-27.5 67.5t-66.5 29.5t-66 -29t-27 -68z" />
<glyph unicode="&#xc6;" horiz-adv-x="1515" d="M-16 56q0 23 16 65l647 1267q24 46 51 60q24 12 66 12h600q84 0 84 -84t-88 -84h-416v-477h404q80 0 80 -90q0 -82 -84 -82h-400v-475h440q88 0 88 -88q0 -36 -28 -59q-26 -21 -64 -21h-520q-96 0 -96 100v216h-471l-149 -283q-24 -45 -80 -45q-80 0 -80 68zM368 471h396 v781h-4z" />
<glyph unicode="&#xc7;" horiz-adv-x="1216" d="M64 708q0 322 163 536q173 226 481 228q160 1 296 -69q68 -35 108 -86q24 -30 24 -70q0 -67 -75 -75q-34 8 -45 16q-102 75 -136 92q-70 36 -159 37q-156 2 -261.5 -87.5t-153.5 -221.5q-49 -136 -50 -264q-2 -118 38 -258q38 -136 137 -236q100 -102 261 -106 q104 -2 178 28q72 28 166 84q28 16 60 16q68 0 68 -80q0 -43 -28 -67q-142 -127 -401 -137l-51 -76q14 2 43 8q59 -4 99 -34q42 -32 42 -78q2 -87 -62 -133q-62 -43 -165 -43q-149 0 -149 71q0 57 44 57q14 0 50 -10t55 -10q71 0 71 55q0 41 -72 42q-36 1 -50 5 q-27 8 -31 33q5 16 21 49l48 68q-281 32 -432 267q-132 205 -132 449z" />
<glyph unicode="&#xc8;" horiz-adv-x="907" d="M121 96v1264q0 38 18 66q21 34 57 34h552q76 0 76 -84t-80 -84h-445v-481h405q80 0 80 -84t-84 -84h-401v-475h449q76 0 76 -88q0 -80 -89 -80h-526q-88 0 -88 96zM236 1764q0 34 26 59t62 25q24 0 32 -5l272 -115q68 -28 68 -80q0 -69 -88 -75q-16 3 -47 10l-260 105 q-57 24 -65 76z" />
<glyph unicode="&#xc9;" horiz-adv-x="907" d="M121 96v1264q0 38 18 66q21 34 57 34h552q76 0 76 -84t-80 -84h-445v-481h405q80 0 80 -84t-84 -84h-401v-475h449q76 0 76 -88q0 -80 -89 -80h-526q-88 0 -88 96zM224 1644q8 58 79 88l242 99q14 8 47 8q32 0 58 -23.5t26 -55.5q0 -48 -68 -76l-239 -101q-19 -8 -61 -10 q-34 -2 -58 20q-22 19 -26 51z" />
<glyph unicode="&#xca;" horiz-adv-x="907" d="M121 96v1264q0 38 18 66q21 34 57 34h552q76 0 76 -84t-80 -84h-445v-481h405q80 0 80 -84t-84 -84h-401v-475h449q76 0 76 -88q0 -80 -89 -80h-526q-88 0 -88 96zM140 1641q0 59 48 79l273 116l266 -116q53 -17 53 -79q0 -68 -76 -74q-28 7 -48 13l-195 79l-193 -75 q-20 -8 -59 -17q-69 0 -69 74z" />
<glyph unicode="&#xcb;" horiz-adv-x="907" d="M121 96v1264q0 38 18 66q21 34 57 34h552q76 0 76 -84t-80 -84h-445v-481h405q80 0 80 -84t-84 -84h-401v-475h449q76 0 76 -88q0 -80 -89 -80h-526q-88 0 -88 96zM160 1672q0 48 32 80t80 32q47 0 78 -33t31 -79t-31.5 -77.5t-77.5 -31.5t-79 31.5t-33 77.5zM541 1672 q0 48 31.5 80t79.5 32t80 -32t32 -80q0 -46 -33 -77.5t-79 -31.5t-78.5 31.5t-32.5 77.5z" />
<glyph unicode="&#xcc;" horiz-adv-x="415" d="M121 84v1292q0 96 92 96q86 0 86 -96v-1288q0 -100 -86 -100q-92 0 -92 96zM-16 1752q0 34 26 59t62 25q24 0 32 -5l272 -115q68 -28 68 -80q0 -69 -88 -75q-16 3 -47 10l-260 105q-57 24 -65 76z" />
<glyph unicode="&#xcd;" horiz-adv-x="415" d="M121 84v1292q0 96 92 96q86 0 86 -96v-1288q0 -100 -86 -100q-92 0 -92 96zM-36 1640q8 58 79 88l242 99q14 8 47 8q32 0 58 -23.5t26 -55.5q0 -48 -68 -76l-239 -101q-19 -8 -61 -10q-34 -2 -58 20q-22 19 -26 51z" />
<glyph unicode="&#xce;" horiz-adv-x="415" d="M121 84v1292q0 96 92 96q86 0 86 -96v-1288q0 -100 -86 -100q-92 0 -92 96zM-112 1641q0 59 48 79l273 116l266 -116q53 -17 53 -79q0 -68 -76 -74q-28 7 -48 13l-195 79l-193 -75q-20 -8 -59 -17q-69 0 -69 74z" />
<glyph unicode="&#xcf;" horiz-adv-x="415" d="M121 84v1292q0 96 92 96q86 0 86 -96v-1288q0 -100 -86 -100q-92 0 -92 96zM-92 1676q0 48 32 80t80 32q47 0 78 -33t31 -79t-31.5 -77.5t-77.5 -31.5t-79 31.5t-33 77.5zM289 1676q0 48 31.5 80t79.5 32t80 -32t32 -80q0 -46 -33 -77.5t-79 -31.5t-78.5 31.5t-32.5 77.5 z" />
<glyph unicode="&#xd0;" horiz-adv-x="1292" d="M-37 735q0 76 84 76h82v553q0 96 94 96h369q190 0 336 -94q148 -94 226 -266q76 -169 75 -365q-3 -212 -75 -381q-152 -354 -546 -354h-385q-36 0 -64 21q-30 23 -30 59v580h-86q-80 0 -80 75zM307 156h281q158 0 283 110q165 146 165 482q0 260 -128 408t-345 148h-256 v-493h252q84 0 84 -76q0 -75 -84 -75h-252v-504z" />
<glyph unicode="&#xd1;" horiz-adv-x="1364" d="M121 80v1300q-1 96 75 96q60 0 103 -61l766 -1099h2v1060q0 40 24.5 68t63.5 28q92 0 92 -96v-1300q1 -92 -79 -92q-60 0 -101 57l-768 1104v-1069q0 -88 -90 -88q-88 0 -88 92zM383 1668q0 46 20 69q52 59 160 59q42 0 112 -17q82 -19 112 -23q20 2 65 21q43 19 67 19 q28 0 48 -23t20 -53q0 -64 -70 -100q-52 -28 -126 -32q-8 4 -19 4q-30 0 -96.5 18t-100.5 18q-26 0 -65 -15q-31 -13 -63 -25q-64 32 -64 80z" />
<glyph unicode="&#xd2;" horiz-adv-x="1401" d="M64 727q0 194 71 359q79 180 227 284q146 102 342 102q296 0 470 -222q80 -104 124 -236q44 -140 46 -287v-7q0 -192 -77 -362q-80 -176 -225 -272q-148 -98 -338 -98q-182 0 -330 95q-144 93 -226 259q-84 168 -84 385zM256 731q0 -327 182 -495q100 -92 266 -92 q154 0 264 94q100 86 148 237q36 112 37 256v6q0 278 -130 434q-123 146 -319 146q-270 0 -388 -269q-60 -133 -60 -317zM476 1768q0 34 26 59t62 25q24 0 32 -5l272 -115q68 -28 68 -80q0 -69 -88 -75q-16 3 -47 10l-260 105q-57 24 -65 76z" />
<glyph unicode="&#xd3;" horiz-adv-x="1401" d="M64 727q0 194 71 359q79 180 227 284q146 102 342 102q296 0 470 -222q80 -104 124 -236q44 -140 46 -287v-7q0 -192 -77 -362q-80 -176 -225 -272q-148 -98 -338 -98q-182 0 -330 95q-144 93 -226 259q-84 168 -84 385zM256 731q0 -327 182 -495q100 -92 266 -92 q154 0 264 94q100 86 148 237q36 112 37 256v6q0 278 -130 434q-123 146 -319 146q-270 0 -388 -269q-60 -133 -60 -317zM476 1648q8 58 79 88l242 99q14 8 47 8q32 0 58 -23.5t26 -55.5q0 -48 -68 -76l-239 -101q-19 -8 -61 -10q-34 -2 -58 20q-22 19 -26 51z" />
<glyph unicode="&#xd4;" horiz-adv-x="1401" d="M64 727q0 194 71 359q79 180 227 284q146 102 342 102q296 0 470 -222q80 -104 124 -236q44 -140 46 -287v-7q0 -192 -77 -362q-80 -176 -225 -272q-148 -98 -338 -98q-182 0 -330 95q-144 93 -226 259q-84 168 -84 385zM256 731q0 -327 182 -495q100 -92 266 -92 q154 0 264 94q100 86 148 237q36 112 37 256v6q0 278 -130 434q-123 146 -319 146q-270 0 -388 -269q-60 -133 -60 -317zM384 1645q0 59 48 79l273 116l266 -116q53 -17 53 -79q0 -68 -76 -74q-28 7 -48 13l-195 79l-193 -75q-20 -8 -59 -17q-69 0 -69 74z" />
<glyph unicode="&#xd5;" horiz-adv-x="1401" d="M64 727q0 194 71 359q79 180 227 284q146 102 342 102q296 0 470 -222q80 -104 124 -236q44 -140 46 -287v-7q0 -192 -77 -362q-80 -176 -225 -272q-148 -98 -338 -98q-182 0 -330 95q-144 93 -226 259q-84 168 -84 385zM256 731q0 -327 182 -495q100 -92 266 -92 q154 0 264 94q100 86 148 237q36 112 37 256v6q0 278 -130 434q-123 146 -319 146q-270 0 -388 -269q-60 -133 -60 -317zM400 1668q0 46 20 69q52 59 160 59q42 0 112 -17q82 -19 112 -23q20 2 65 21q43 19 67 19q28 0 48 -23t20 -53q0 -64 -70 -100q-52 -28 -126 -32 q-8 4 -19 4q-30 0 -96.5 18t-100.5 18q-26 0 -65 -15q-31 -13 -63 -25q-64 32 -64 80z" />
<glyph unicode="&#xd6;" horiz-adv-x="1401" d="M64 727q0 194 71 359q79 180 227 284q146 102 342 102q296 0 470 -222q80 -104 124 -236q44 -140 46 -287v-7q0 -192 -77 -362q-80 -176 -225 -272q-148 -98 -338 -98q-182 0 -330 95q-144 93 -226 259q-84 168 -84 385zM256 731q0 -327 182 -495q100 -92 266 -92 q154 0 264 94q100 86 148 237q36 112 37 256v6q0 278 -130 434q-123 146 -319 146q-270 0 -388 -269q-60 -133 -60 -317zM404 1676q0 48 32 80t80 32q47 0 78 -33t31 -79t-31.5 -77.5t-77.5 -31.5t-79 31.5t-33 77.5zM785 1676q0 48 31.5 80t79.5 32t80 -32t32 -80 q0 -46 -33 -77.5t-79 -31.5t-78.5 31.5t-32.5 77.5z" />
<glyph unicode="&#xd8;" horiz-adv-x="1401" d="M37 24q7 34 23 52l145 168q-141 208 -141 483q0 194 71 359q79 180 227 284q146 102 342 102q244 0 412 -164l127 152q23 29 57 29q64 1 64 -61q0 -14 -16 -40l-148 -172q140 -201 144 -489q2 -194 -77 -368.5t-225 -272.5q-148 -98 -338 -98q-241 0 -415 164l-125 -148 q-32 -37 -72 -37q-48 -1 -55 57zM256 731q0 -195 68 -344l684 797q-120 134 -304 133q-270 0 -388 -269q-60 -133 -60 -317zM396 276q116 -132 308 -132q194 0 318 148q131 156 131 439q1 196 -73 340z" />
<glyph unicode="&#xd9;" horiz-adv-x="1364" d="M121 559v821q0 92 88 92q90 0 90 -92v-876q0 -231 193 -319q91 -42 197 -42q3 1 7 1q110 2 200 49q176 94 175 311v876q0 92 84 92q92 0 92 -92v-817q0 -366 -245 -505q-124 -70 -310 -70q-286 0 -432 156q-140 150 -139 415zM456 1764q0 34 26 59t62 25q24 0 32 -5 l272 -115q68 -28 68 -80q0 -69 -88 -75q-16 3 -47 10l-260 105q-57 24 -65 76z" />
<glyph unicode="&#xda;" horiz-adv-x="1364" d="M121 559v821q0 92 88 92q90 0 90 -92v-876q0 -231 193 -319q91 -42 197 -42q3 1 7 1q110 2 200 49q176 94 175 311v876q0 92 84 92q92 0 92 -92v-817q0 -366 -245 -505q-124 -70 -310 -70q-286 0 -432 156q-140 150 -139 415zM456 1648q8 58 79 88l242 99q14 8 47 8 q32 0 58 -23.5t26 -55.5q0 -48 -68 -76l-239 -101q-19 -8 -61 -10q-34 -2 -58 20q-22 19 -26 51z" />
<glyph unicode="&#xdb;" horiz-adv-x="1364" d="M121 559v821q0 92 88 92q90 0 90 -92v-876q0 -231 193 -319q91 -42 197 -42q3 1 7 1q110 2 200 49q176 94 175 311v876q0 92 84 92q92 0 92 -92v-817q0 -366 -245 -505q-124 -70 -310 -70q-286 0 -432 156q-140 150 -139 415zM359 1641q0 59 48 79l273 116l266 -116 q53 -17 53 -79q0 -68 -76 -74q-28 7 -48 13l-195 79l-193 -75q-20 -8 -59 -17q-69 0 -69 74z" />
<glyph unicode="&#xdc;" horiz-adv-x="1364" d="M121 559v821q0 92 88 92q90 0 90 -92v-876q0 -231 193 -319q91 -42 197 -42q3 1 7 1q110 2 200 49q176 94 175 311v876q0 92 84 92q92 0 92 -92v-817q0 -366 -245 -505q-124 -70 -310 -70q-286 0 -432 156q-140 150 -139 415zM383 1676q0 48 32 80t80 32q47 0 78 -33 t31 -79t-31.5 -77.5t-77.5 -31.5t-79 31.5t-33 77.5zM764 1676q0 48 31.5 80t79.5 32t80 -32t32 -80q0 -46 -33 -77.5t-79 -31.5t-78.5 31.5t-32.5 77.5z" />
<glyph unicode="&#xdd;" horiz-adv-x="987" d="M0 1401q0 29 25 51q24 20 55 20q58 0 88 -48l344 -560l344 556q33 52 84 52q80 0 80 -76q0 -30 -16 -56l-400 -652v-604q0 -42 -24 -70q-26 -30 -68 -30q-38 0 -64 30q-24 30 -24 70v604l-400 648q-20 40 -24 65zM288 1652q8 58 79 88l242 99q14 8 47 8q32 0 58 -23.5 t26 -55.5q0 -48 -68 -76l-239 -101q-19 -8 -61 -10q-34 -2 -58 20q-22 19 -26 51z" />
<glyph unicode="&#xde;" horiz-adv-x="1065" d="M121 84v1292q1 42 23 72q24 32 65 32q90 0 90 -104v-147h273q290 -1 415 -227q57 -105 57 -230q0 -264 -229 -392q-107 -60 -239 -60h-277v-236q0 -104 -90 -104q-41 0 -65 32q-22 30 -23 72zM299 475h264q181 -1 263 147q38 68 38 150q0 174 -132 258q-70 44 -177 45 h-256v-600z" />
<glyph unicode="&#xdf;" horiz-adv-x="1140" d="M121 72v1104q-1 230 173 346q90 60 218 61q106 1 200 -49t151 -138t57 -196q0 -222 -156 -336q134 -37 207 -158q65 -110 65 -258q0 -180 -116 -318q-124 -146 -300 -142q-108 2 -108 92q11 66 80 68q156 4 204 97q48 92 48 220q0 123 -60 205q-66 90 -184 98 q-96 6 -96 80q0 34 18 51q16 15 66 29q80 22 112 73q36 57 40 163q4 114 -60 190q-60 72 -160 74q-94 2 -144 -55q-74 -82 -79 -224l2 -3v-1v-1073q0 -84 -90 -84q-88 0 -88 84z" />
<glyph unicode="&#xe0;" horiz-adv-x="1140" d="M72 540q0 359 250 502q108 62 218 62q179 0 308 -148h4v60q0 38 23.5 63t60.5 25q84 0 84 -92v-932q0 -92 -84 -92t-84 84v80h-4q-117 -162 -285 -164q-4 0 -7 -1q-130 0 -244 69q-240 145 -240 484zM252 545v-6q0 -99 32 -191q72 -204 256 -204q162 0 242 124 q66 104 66 277q0 253 -141 355q-68 48 -154 48h-4q-142 0 -220 -116q-75 -113 -77 -287zM336 1444q0 34 26 59t62 25q24 0 32 -5l272 -115q68 -28 68 -80q0 -69 -88 -75q-16 3 -47 10l-260 105q-57 24 -65 76z" />
<glyph unicode="&#xe1;" horiz-adv-x="1140" d="M72 540q0 359 250 502q108 62 218 62q179 0 308 -148h4v60q0 38 23.5 63t60.5 25q84 0 84 -92v-932q0 -92 -84 -92t-84 84v80h-4q-117 -162 -285 -164q-4 0 -7 -1q-130 0 -244 69q-240 145 -240 484zM252 545v-6q0 -99 32 -191q72 -204 256 -204q162 0 242 124 q66 104 66 277q0 253 -141 355q-68 48 -154 48h-4q-142 0 -220 -116q-75 -113 -77 -287zM340 1320q8 58 79 88l242 99q14 8 47 8q32 0 58 -23.5t26 -55.5q0 -48 -68 -76l-239 -101q-19 -8 -61 -10q-34 -2 -58 20q-22 19 -26 51z" />
<glyph unicode="&#xe2;" horiz-adv-x="1140" d="M72 540q0 359 250 502q108 62 218 62q179 0 308 -148h4v60q0 38 23.5 63t60.5 25q84 0 84 -92v-932q0 -92 -84 -92t-84 84v80h-4q-117 -162 -285 -164q-4 0 -7 -1q-130 0 -244 69q-240 145 -240 484zM252 545v-6q0 -99 32 -191q72 -204 256 -204q162 0 242 124 q66 104 66 277q0 253 -141 355q-68 48 -154 48h-4q-142 0 -220 -116q-75 -113 -77 -287zM248 1313q0 59 48 79l273 116l266 -116q53 -17 53 -79q0 -68 -76 -74q-28 7 -48 13l-195 79l-193 -75q-20 -8 -59 -17q-69 0 -69 74z" />
<glyph unicode="&#xe3;" horiz-adv-x="1140" d="M72 540q0 359 250 502q108 62 218 62q179 0 308 -148h4v60q0 38 23.5 63t60.5 25q84 0 84 -92v-932q0 -92 -84 -92t-84 84v80h-4q-117 -162 -285 -164q-4 0 -7 -1q-130 0 -244 69q-240 145 -240 484zM252 545v-6q0 -99 32 -191q72 -204 256 -204q162 0 242 124 q66 104 66 277q0 253 -141 355q-68 48 -154 48h-4q-142 0 -220 -116q-75 -113 -77 -287zM272 1340q0 46 20 69q52 59 160 59q42 0 112 -17q82 -19 112 -23q20 2 65 21q43 19 67 19q28 0 48 -23t20 -53q0 -64 -70 -100q-52 -28 -126 -32q-8 4 -19 4q-30 0 -96.5 18t-100.5 18 q-26 0 -65 -15q-31 -13 -63 -25q-64 32 -64 80z" />
<glyph unicode="&#xe4;" horiz-adv-x="1140" d="M72 540q0 359 250 502q108 62 218 62q179 0 308 -148h4v60q0 38 23.5 63t60.5 25q84 0 84 -92v-932q0 -92 -84 -92t-84 84v80h-4q-117 -162 -285 -164q-4 0 -7 -1q-130 0 -244 69q-240 145 -240 484zM252 545v-6q0 -99 32 -191q72 -204 256 -204q162 0 242 124 q66 104 66 277q0 253 -141 355q-68 48 -154 48h-4q-142 0 -220 -116q-75 -113 -77 -287zM268 1348q0 48 32 80t80 32q47 0 78 -33t31 -79t-31.5 -77.5t-77.5 -31.5t-79 31.5t-33 77.5zM649 1348q0 48 31.5 80t79.5 32t80 -32t32 -80q0 -46 -33 -77.5t-79 -31.5t-78.5 31.5 t-32.5 77.5z" />
<glyph unicode="&#xe5;" horiz-adv-x="1140" d="M72 540q0 359 250 502q108 62 218 62q179 0 308 -148h4v60q0 38 23.5 63t60.5 25q84 0 84 -92v-932q0 -92 -84 -92t-84 84v80h-4q-117 -162 -285 -164q-4 0 -7 -1q-130 0 -244 69q-240 145 -240 484zM252 545v-6q0 -99 32 -191q72 -204 256 -204q162 0 242 124 q66 104 66 277q0 253 -141 355q-68 48 -154 48h-4q-142 0 -220 -116q-75 -113 -77 -287zM376 1392q0 80 56.5 137.5t136.5 57.5q81 0 138 -56.5t57 -138.5q0 -80 -57.5 -136t-137.5 -56q-79 0 -136 56.5t-57 135.5zM476 1392q0 -40 27 -66t66 -26q40 0 67 27t27 65 t-27.5 67.5t-66.5 29.5t-66 -29t-27 -68z" />
<glyph unicode="&#xe6;" horiz-adv-x="1820" d="M72 540q-2 174 70 306q62 114 164 184q108 74 234 74q180 0 308 -148h4v60q0 84 80 84q88 0 88 -88v-44h4q38 48 119 92q85 46 174 44q127 -2 233 -82q102 -76 160 -198q58 -118 58 -248q0 -100 -101 -101h-663q6 -199 162 -287q72 -40 157 -40q143 0 321 132q26 8 36 9 q66 0 65 -76q-1 -22 -9 -45q-50 -74 -160 -125q-116 -53 -220 -55q-229 -2 -332 133h-4v-41q0 -92 -84 -92q-36 0 -60 25.5t-24 62.5v76h-4q-108 -160 -303 -160q-291 0 -415 278q-58 128 -58 270zM252 549q0 -247 138 -353q68 -52 163 -52q194 0 267 202q32 88 32 190 q0 186 -82 300q-84 114 -225 112q-110 -2 -178 -71q-115 -118 -115 -328zM1016 612h571q-1 138 -71 232q-78 104 -212 104q-142 0 -216 -100q-66 -88 -72 -236z" />
<glyph unicode="&#xe7;" horiz-adv-x="907" d="M72 520q-2 236 108 392q133 188 375 192q98 2 202 -30q99 -32 99 -110q0 -69 -80 -75q-52 17 -105 35q-62 20 -108 20q-190 0 -271 -199q-38 -94 -40 -186q-2 -143 64 -273q64 -126 216 -142q20 0 31 -4q51 4 91 18q16 6 42 17l39 17q25 12 45 13q68 0 68 -76 q0 -74 -100 -113q-74 -28 -164 -28l-52 -76q14 2 44 8q128 -6 141 -112q1 -176 -229 -176q-152 0 -152 71q0 57 45 57q18 0 53.5 -10t53.5 -10q72 0 71 55q0 32 -32 39q-10 2 -58 2q-55 0 -61 39q4 16 20 49l47 72q-203 32 -308 200q-48 76 -70 160q-25 90 -25 164z" />
<glyph unicode="&#xe8;" horiz-adv-x="1065" d="M47 545q2 4 4 10q13 312 229 469q108 79 252 80h4q136 0 247 -76q108 -74 169 -202q60 -126 60 -263q0 -88 -100 -88h-680q4 -215 166 -295q74 -36 165 -36q154 0 293 112q40 33 68 33q64 0 63 -76q-1 -35 -27 -65q-56 -62 -170 -112q-110 -48 -237 -48q-257 0 -389 183 q-112 156 -117 374zM232 612h600q-2 150 -80 242t-212 94h-4q-132 0 -214 -88q-84 -90 -90 -248zM308 1436q0 34 26 59t62 25q24 0 32 -5l272 -115q68 -28 68 -80q0 -69 -88 -75q-16 3 -47 10l-260 105q-57 24 -65 76z" />
<glyph unicode="&#xe9;" horiz-adv-x="1065" d="M47 545q2 4 4 10q13 312 229 469q108 79 252 80h4q136 0 247 -76q108 -74 169 -202q60 -126 60 -263q0 -88 -100 -88h-680q4 -215 166 -295q74 -36 165 -36q154 0 293 112q40 33 68 33q64 0 63 -76q-1 -35 -27 -65q-56 -62 -170 -112q-110 -48 -237 -48q-257 0 -389 183 q-112 156 -117 374zM232 612h600q-2 150 -80 242t-212 94h-4q-132 0 -214 -88q-84 -90 -90 -248zM308 1324q8 58 79 88l242 99q14 8 47 8q32 0 58 -23.5t26 -55.5q0 -48 -68 -76l-239 -101q-19 -8 -61 -10q-34 -2 -58 20q-22 19 -26 51z" />
<glyph unicode="&#xea;" horiz-adv-x="1065" d="M47 545q2 4 4 10q13 312 229 469q108 79 252 80h4q136 0 247 -76q108 -74 169 -202q60 -126 60 -263q0 -88 -100 -88h-680q4 -215 166 -295q74 -36 165 -36q154 0 293 112q40 33 68 33q64 0 63 -76q-1 -35 -27 -65q-56 -62 -170 -112q-110 -48 -237 -48q-257 0 -389 183 q-112 156 -117 374zM232 612h600q-2 150 -80 242t-212 94h-4q-132 0 -214 -88q-84 -90 -90 -248zM208 1317q0 59 48 79l273 116l266 -116q53 -17 53 -79q0 -68 -76 -74q-28 7 -48 13l-195 79l-193 -75q-20 -8 -59 -17q-69 0 -69 74z" />
<glyph unicode="&#xeb;" horiz-adv-x="1065" d="M47 545q2 4 4 10q13 312 229 469q108 79 252 80h4q136 0 247 -76q108 -74 169 -202q60 -126 60 -263q0 -88 -100 -88h-680q4 -215 166 -295q74 -36 165 -36q154 0 293 112q40 33 68 33q64 0 63 -76q-1 -35 -27 -65q-56 -62 -170 -112q-110 -48 -237 -48q-257 0 -389 183 q-112 156 -117 374zM232 612h600q-2 150 -80 242t-212 94h-4q-132 0 -214 -88q-84 -90 -90 -248zM232 1348q0 48 32 80t80 32q47 0 78 -33t31 -79t-31.5 -77.5t-77.5 -31.5t-79 31.5t-33 77.5zM613 1348q0 48 31.5 80t79.5 32t80 -32t32 -80q0 -46 -33 -77.5t-79 -31.5 t-78.5 31.5t-32.5 77.5z" />
<glyph unicode="&#xec;" horiz-adv-x="415" d="M121 80v932q0 92 88 92q90 0 90 -96v-928q0 -92 -90 -92q-39 0 -63.5 26t-24.5 66zM-24 1440q0 34 26 59t62 25q24 0 32 -5l272 -115q68 -28 68 -80q0 -69 -88 -75q-16 3 -47 10l-260 105q-57 24 -65 76z" />
<glyph unicode="&#xed;" horiz-adv-x="415" d="M121 80v932q0 92 88 92q90 0 90 -96v-928q0 -92 -90 -92q-39 0 -63.5 26t-24.5 66zM-24 1320q8 58 79 88l242 99q14 8 47 8q32 0 58 -23.5t26 -55.5q0 -48 -68 -76l-239 -101q-19 -8 -61 -10q-34 -2 -58 20q-22 19 -26 51z" />
<glyph unicode="&#xee;" horiz-adv-x="415" d="M121 80v932q0 92 88 92q90 0 90 -96v-928q0 -92 -90 -92q-39 0 -63.5 26t-24.5 66zM-108 1313q0 59 48 79l273 116l266 -116q53 -17 53 -79q0 -68 -76 -74q-28 7 -48 13l-195 79l-193 -75q-20 -8 -59 -17q-69 0 -69 74z" />
<glyph unicode="&#xef;" horiz-adv-x="415" d="M121 80v932q0 92 88 92q90 0 90 -96v-928q0 -92 -90 -92q-39 0 -63.5 26t-24.5 66zM-88 1348q0 48 32 80t80 32q47 0 78 -33t31 -79t-31.5 -77.5t-77.5 -31.5t-79 31.5t-33 77.5zM293 1348q0 48 31.5 80t79.5 32t80 -32t32 -80q0 -46 -33 -77.5t-79 -31.5t-78.5 31.5 t-32.5 77.5z" />
<glyph unicode="&#xf0;" d="M72 536q0 222 123 384q131 172 345 172q164 0 256 -124l5 5q-65 171 -248 327l-176 -84q-31 -15 -65 -20q-28 6 -38 28q-6 12 -10 23q8 39 35 53l162 76q-27 20 -85 47q-60 27 -86 45q-22 16 -22 52q0 64 76 63q112 0 276 -127l189 96q31 16 55 17q52 1 52 -49 q0 -39 -44 -60l-160 -76q214 -188 286 -482q34 -140 34 -290q0 -392 -218 -546q-112 -78 -274 -78q-140 0 -249 77q-105 74 -163 205q-56 126 -56 266zM252 536q0 -222 134 -335q68 -57 167 -57q190 0 266 204q33 90 33 188q0 224 -134 338q-68 58 -165 58q-193 0 -268 -206 q-33 -92 -33 -190z" />
<glyph unicode="&#xf1;" d="M121 80v928q0 96 88 96q90 0 90 -96v-44l4 -4q109 144 297 144q225 0 330 -186q53 -94 53 -230v-608q0 -88 -90 -88q-88 0 -88 88v604q0 113 -69 186q-70 74 -183 74q-147 0 -218 -120q-36 -60 -36 -144v-600q0 -96 -86 -96q-40 0 -66 28t-26 68zM252 1340q0 46 20 69 q52 59 160 59q42 0 112 -17q82 -19 112 -23q20 2 65 21q43 19 67 19q28 0 48 -23t20 -53q0 -64 -70 -100q-52 -28 -126 -32q-8 4 -19 4q-30 0 -96.5 18t-100.5 18q-26 0 -65 -15q-31 -13 -63 -25q-64 32 -64 80z" />
<glyph unicode="&#xf2;" d="M72 545q0 334 233 487q110 72 244 72h4q141 -1 253 -78q108 -74 168 -205q58 -128 58 -276q0 -327 -225 -482q-109 -75 -254 -75q-296 0 -423 280q-58 128 -58 277zM252 545q0 -161 67 -271q80 -130 230 -130q199 0 269 199q34 94 34 202v6q0 103 -34 196 q-74 201 -265 201q-192 0 -266 -196q-35 -92 -35 -207zM328 1432q0 34 26 59t62 25q24 0 32 -5l272 -115q68 -28 68 -80q0 -69 -88 -75q-16 3 -47 10l-260 105q-57 24 -65 76z" />
<glyph unicode="&#xf3;" d="M72 545q0 334 233 487q110 72 244 72h4q141 -1 253 -78q108 -74 168 -205q58 -128 58 -276q0 -327 -225 -482q-109 -75 -254 -75q-296 0 -423 280q-58 128 -58 277zM252 545q0 -161 67 -271q80 -130 230 -130q199 0 269 199q34 94 34 202v6q0 103 -34 196 q-74 201 -265 201q-192 0 -266 -196q-35 -92 -35 -207zM328 1324q8 58 79 88l242 99q14 8 47 8q32 0 58 -23.5t26 -55.5q0 -48 -68 -76l-239 -101q-19 -8 -61 -10q-34 -2 -58 20q-22 19 -26 51z" />
<glyph unicode="&#xf4;" d="M72 545q0 334 233 487q110 72 244 72h4q141 -1 253 -78q108 -74 168 -205q58 -128 58 -276q0 -327 -225 -482q-109 -75 -254 -75q-296 0 -423 280q-58 128 -58 277zM252 545q0 -161 67 -271q80 -130 230 -130q199 0 269 199q34 94 34 202v6q0 103 -34 196 q-74 201 -265 201q-192 0 -266 -196q-35 -92 -35 -207zM232 1317q0 59 48 79l273 116l266 -116q53 -17 53 -79q0 -68 -76 -74q-28 7 -48 13l-195 79l-193 -75q-20 -8 -59 -17q-69 0 -69 74z" />
<glyph unicode="&#xf5;" d="M72 545q0 334 233 487q110 72 244 72h4q141 -1 253 -78q108 -74 168 -205q58 -128 58 -276q0 -327 -225 -482q-109 -75 -254 -75q-296 0 -423 280q-58 128 -58 277zM252 545q0 -161 67 -271q80 -130 230 -130q199 0 269 199q34 94 34 202v6q0 103 -34 196 q-74 201 -265 201q-192 0 -266 -196q-35 -92 -35 -207zM244 1344q0 46 20 69q52 59 160 59q42 0 112 -17q82 -19 112 -23q20 2 65 21q43 19 67 19q28 0 48 -23t20 -53q0 -64 -70 -100q-52 -28 -126 -32q-8 4 -19 4q-30 0 -96.5 18t-100.5 18q-26 0 -65 -15q-31 -13 -63 -25 q-64 32 -64 80z" />
<glyph unicode="&#xf6;" d="M72 545q0 334 233 487q110 72 244 72h4q141 -1 253 -78q108 -74 168 -205q58 -128 58 -276q0 -327 -225 -482q-109 -75 -254 -75q-296 0 -423 280q-58 128 -58 277zM252 545q0 -161 67 -271q80 -130 230 -130q199 0 269 199q34 94 34 202v6q0 103 -34 196 q-74 201 -265 201q-192 0 -266 -196q-35 -92 -35 -207zM252 1352q0 48 32 80t80 32q47 0 78 -33t31 -79t-31.5 -77.5t-77.5 -31.5t-79 31.5t-33 77.5zM633 1352q0 48 31.5 80t79.5 32t80 -32t32 -80q0 -46 -33 -77.5t-79 -31.5t-78.5 31.5t-32.5 77.5z" />
<glyph unicode="&#xf8;" d="M41 8q5 28 31 60l104 124q-104 134 -104 344q0 334 223 491q110 77 260 77q184 0 289 -108l88 108q30 36 59 36q24 0 45 -18t21 -42q-1 -22 -21 -48l-108 -133q106 -151 104 -359q-2 -226 -130 -386q-132 -166 -349 -166q-169 0 -293 104l-92 -108q-20 -30 -60 -31 q-56 0 -67 55zM248 532q8 -126 45 -200l447 540q-76 76 -187 76q-177 0 -255 -173q-40 -89 -46 -216q0 -17 -4 -27zM364 219q76 -75 191 -75q130 0 211 104q82 108 86 292q2 114 -43 216z" />
<glyph unicode="&#xf9;" d="M121 412v600q0 92 88 92q90 0 90 -92v-596q0 -272 250 -272q256 0 256 272v596q0 92 88 92q90 0 90 -92v-600q-1 -252 -189 -365q-98 -59 -249 -59q-279 0 -379 212q-46 96 -45 212zM324 1432q0 34 26 59t62 25q24 0 32 -5l272 -115q68 -28 68 -80q0 -69 -88 -75 q-16 3 -47 10l-260 105q-57 24 -65 76z" />
<glyph unicode="&#xfa;" d="M121 412v600q0 92 88 92q90 0 90 -92v-596q0 -272 250 -272q256 0 256 272v596q0 92 88 92q90 0 90 -92v-600q-1 -252 -189 -365q-98 -59 -249 -59q-279 0 -379 212q-46 96 -45 212zM312 1316q8 58 79 88l242 99q14 8 47 8q32 0 58 -23.5t26 -55.5q0 -48 -68 -76 l-239 -101q-19 -8 -61 -10q-34 -2 -58 20q-22 19 -26 51z" />
<glyph unicode="&#xfb;" d="M121 412v600q0 92 88 92q90 0 90 -92v-596q0 -272 250 -272q256 0 256 272v596q0 92 88 92q90 0 90 -92v-600q-1 -252 -189 -365q-98 -59 -249 -59q-279 0 -379 212q-46 96 -45 212zM236 1313q0 59 48 79l273 116l266 -116q53 -17 53 -79q0 -68 -76 -74q-28 7 -48 13 l-195 79l-193 -75q-20 -8 -59 -17q-69 0 -69 74z" />
<glyph unicode="&#xfc;" d="M121 412v600q0 92 88 92q90 0 90 -92v-596q0 -272 250 -272q256 0 256 272v596q0 92 88 92q90 0 90 -92v-600q-1 -252 -189 -365q-98 -59 -249 -59q-279 0 -379 212q-46 96 -45 212zM256 1344q0 48 32 80t80 32q47 0 78 -33t31 -79t-31.5 -77.5t-77.5 -31.5t-79 31.5 t-33 77.5zM637 1344q0 48 31.5 80t79.5 32t80 -32t32 -80q0 -46 -33 -77.5t-79 -31.5t-78.5 31.5t-32.5 77.5z" />
<glyph unicode="&#xfd;" horiz-adv-x="872" d="M33 1020q-1 80 83 80q72 0 93 -64l247 -747h5l247 751q20 64 84 64q84 0 84 -88q0 -20 -8 -43l-472 -1345q-14 -40 -38 -59q-28 -21 -61 -21q-66 0 -74 84q5 16 13 56l132 353l-325 932q-2 14 -10 47zM228 1320q8 58 79 88l242 99q14 8 47 8q32 0 58 -23.5t26 -55.5 q0 -48 -68 -76l-239 -101q-19 -8 -61 -10q-34 -2 -58 20q-22 19 -26 51z" />
<glyph unicode="&#xfe;" horiz-adv-x="1140" d="M129 -352v1841q0 90 86 90q92 0 92 -86v-537h5q74 144 272 148q104 2 196 -40q180 -82 252 -288q35 -104 35 -223q0 -335 -221 -491q-106 -74 -242 -74q-182 0 -292 147h-5v-483q0 -108 -88 -108q-39 0 -65 33q-24 31 -25 71zM289 549q-2 -183 82 -295q83 -110 213 -114 q8 4 16 4q182 12 254 200q34 92 35 201q1 100 -31 194q-30 91 -94 149q-66 59 -160 60q-111 2 -181.5 -57t-100.5 -149q-32 -96 -33 -193z" />
<glyph unicode="&#xff;" horiz-adv-x="872" d="M33 1020q-1 80 83 80q72 0 93 -64l247 -747h5l247 751q20 64 84 64q84 0 84 -88q0 -20 -8 -43l-472 -1345q-14 -40 -38 -59q-28 -21 -61 -21q-66 0 -74 84q5 16 13 56l132 353l-325 932q-2 14 -10 47zM148 1348q0 48 32 80t80 32q47 0 78 -33t31 -79t-31.5 -77.5 t-77.5 -31.5t-79 31.5t-33 77.5zM529 1348q0 48 31.5 80t79.5 32t80 -32t32 -80q0 -46 -33 -77.5t-79 -31.5t-78.5 31.5t-32.5 77.5z" />
<glyph unicode="&#x131;" horiz-adv-x="415" d="M121 80v932q0 92 88 92q90 0 90 -96v-928q0 -92 -90 -92q-39 0 -63.5 26t-24.5 66z" />
<glyph unicode="&#x152;" horiz-adv-x="1896" d="M64 727q0 303 168 519q178 226 472 226q242 0 432 -204v92q0 100 97 100h508q79 0 79 -84t-92 -84h-411v-481h403q80 0 80 -84t-88 -84h-395v-475h438q80 0 80 -88q0 -80 -86 -80h-516q-97 0 -97 100v113h-4q-98 -139 -261 -197q-81 -28 -167 -28q-296 0 -472 226 q-168 214 -168 513zM256 727q0 -354 204 -507q104 -78 248 -76q144 1 246 80q196 154 195 511q0 355 -201 507q-100 76 -244 75q-284 0 -396 -290q-52 -134 -52 -300z" />
<glyph unicode="&#x153;" horiz-adv-x="1859" d="M72 540q0 358 250 501q112 64 233 63q142 -2 238 -70q94 -68 147 -145q52 89 154 152q104 64 242 63q98 -2 188 -48q174 -90 246 -286q34 -94 34 -194t-100 -101h-676q0 -183 133 -273q61 -42 139 -50q43 0 64 -4q158 6 301 120q26 20 51 21q28 -1 46 -25q18 -22 18 -51 q0 -16 -8 -41q-66 -104 -248 -158q-90 -26 -168 -26q-130 -1 -244 54q-112 54 -172 158q-92 -126 -230 -180q-92 -36 -198 -32q-104 4 -211 74q-229 152 -229 478zM252 549q0 -247 136 -353q68 -52 161 -52q198 0 268 204q32 94 31 192q-2 121 -38 216q-36 92 -102 142 q-70 52 -163 50q-111 -2 -178 -71q-115 -118 -115 -328zM1028 612h596q-4 214 -147 296q-69 39 -150 40q-122 2 -210.5 -89t-88.5 -247z" />
<glyph unicode="&#x178;" horiz-adv-x="987" d="M208 1704q0 48 32 80t80 32q47 0 78 -33t31 -79t-31.5 -77.5t-77.5 -31.5t-79 31.5t-33 77.5zM589 1704q0 48 31.5 80t79.5 32t80 -32t32 -80q0 -46 -33 -77.5t-79 -31.5t-78.5 31.5t-32.5 77.5zM0 1401q0 29 25 51q24 20 55 20q58 0 88 -48l344 -560l344 556 q33 52 84 52q80 0 80 -76q0 -30 -16 -56l-400 -652v-604q0 -42 -24 -70q-26 -30 -68 -30q-38 0 -64 30q-24 30 -24 70v604l-400 648q-20 40 -24 65z" />
<glyph unicode="&#x2c6;" horiz-adv-x="415" d="M-112 1313q0 59 48 79l273 116l266 -116q53 -17 53 -79q0 -68 -76 -74q-28 7 -48 13l-195 79l-193 -75q-20 -8 -59 -17q-69 0 -69 74z" />
<glyph unicode="&#x2da;" horiz-adv-x="415" d="M16 1388q0 80 56.5 137.5t136.5 57.5q81 0 138 -56.5t57 -138.5q0 -80 -57.5 -136t-137.5 -56q-79 0 -136 56.5t-57 135.5zM116 1388q0 -40 27 -66t66 -26q40 0 67 27t27 65t-27.5 67.5t-66.5 29.5t-66 -29t-27 -68z" />
<glyph unicode="&#x2dc;" horiz-adv-x="415" d="M-92 1340q0 46 20 69q52 59 160 59q42 0 112 -17q82 -19 112 -23q20 2 65 21q43 19 67 19q28 0 48 -23t20 -53q0 -64 -70 -100q-52 -28 -126 -32q-8 4 -19 4q-30 0 -96.5 18t-100.5 18q-26 0 -65 -15q-31 -13 -63 -25q-64 32 -64 80z" />
<glyph unicode="&#x2000;" horiz-adv-x="947" />
<glyph unicode="&#x2001;" horiz-adv-x="1894" />
<glyph unicode="&#x2002;" horiz-adv-x="947" />
<glyph unicode="&#x2003;" horiz-adv-x="1894" />
<glyph unicode="&#x2004;" horiz-adv-x="631" />
<glyph unicode="&#x2005;" horiz-adv-x="473" />
<glyph unicode="&#x2006;" horiz-adv-x="315" />
<glyph unicode="&#x2007;" horiz-adv-x="315" />
<glyph unicode="&#x2008;" horiz-adv-x="236" />
<glyph unicode="&#x2009;" horiz-adv-x="378" />
<glyph unicode="&#x200a;" horiz-adv-x="105" />
<glyph unicode="&#x2010;" horiz-adv-x="721" d="M68 545q8 83 84 83h411q84 0 84 -79q0 -78 -84 -78h-407q-80 0 -88 74z" />
<glyph unicode="&#x2011;" horiz-adv-x="721" d="M68 545q8 83 84 83h411q84 0 84 -79q0 -78 -84 -78h-407q-80 0 -88 74z" />
<glyph unicode="&#x2012;" horiz-adv-x="721" d="M68 545q8 83 84 83h411q84 0 84 -79q0 -78 -84 -78h-407q-80 0 -88 74z" />
<glyph unicode="&#x2013;" horiz-adv-x="2048" d="M-76 549q0 79 76 79h2052q76 0 76 -79q0 -78 -76 -78h-2052q-76 0 -76 78z" />
<glyph unicode="&#x2014;" horiz-adv-x="1024" d="M0 549q0 79 88 79h852q84 0 84 -79q0 -78 -84 -78h-856q-84 0 -84 78z" />
<glyph unicode="&#x2018;" horiz-adv-x="381" d="M51 1096q9 49 17 63l132 256q30 57 84 57q80 0 80 -80q0 -30 -12 -61l-133 -256q-29 -55 -90 -63q-70 0 -78 84z" />
<glyph unicode="&#x2019;" horiz-adv-x="381" d="M47 1096q7 32 21 59l124 250q32 63 88 63q88 0 88 -76q0 -35 -16 -65l-129 -247q-33 -64 -83 -72q-78 14 -93 88z" />
<glyph unicode="&#x201c;" horiz-adv-x="643" d="M41 1096q5 38 15 59l124 254q30 63 92 63q80 0 80 -84q0 -28 -12 -52l-127 -256q-29 -56 -97 -64q-72 0 -75 80zM332 1096q8 44 16 59l123 254q30 63 88 63q84 0 84 -84q0 -34 -10 -52l-133 -256q-30 -57 -92 -64q-68 0 -76 80z" />
<glyph unicode="&#x201d;" horiz-adv-x="643" d="M41 1096q5 38 15 59l124 254q30 63 92 63q80 0 80 -84q0 -28 -12 -52l-127 -256q-29 -56 -97 -64q-72 0 -75 80zM332 1096q8 44 16 59l123 254q30 63 88 63q84 0 84 -84q0 -34 -10 -52l-133 -256q-30 -57 -92 -64q-68 0 -76 80z" />
<glyph unicode="&#x201e;" horiz-adv-x="643" d="M41 -176q5 34 15 55l124 252q32 65 92 65q80 0 80 -84q0 -28 -12 -52l-127 -256q-31 -60 -97 -60q-72 0 -75 80zM332 -176q11 44 16 55l123 252q32 65 88 65q84 0 84 -84q0 -34 -10 -52l-133 -256q-30 -60 -92 -60q-70 0 -76 80z" />
<glyph unicode="&#x2022;" horiz-adv-x="1024" d="M148 727q0 213 182 319q84 50 182 50q210 0 316 -184q48 -85 48 -185q0 -207 -182 -313q-84 -50 -182 -50q-208 0 -315 182q-49 83 -49 181z" />
<glyph unicode="&#x2026;" horiz-adv-x="2048" d="M236 92q0 44 32 74t76 30q43 0 73.5 -30.5t30.5 -73.5q0 -42 -31 -73t-73 -31q-43 0 -75.5 31t-32.5 73zM920 92q0 42 31 73t73 31q44 0 74 -30t30 -74t-30 -74t-74 -30q-42 0 -73 31t-31 73zM1604 92q0 42 31 73t73 31q43 0 73.5 -30.5t30.5 -73.5q0 -42 -31 -73 t-73 -31t-73 31t-31 73z" />
<glyph unicode="&#x202f;" horiz-adv-x="378" />
<glyph unicode="&#x2039;" horiz-adv-x="491" d="M88 549l205 367q29 52 71 52q27 0 51.5 -22t24.5 -49q0 -23 -20 -65l-172 -283l176 -293q16 -28 16 -60q0 -54 -80 -67q-44 4 -63 51z" />
<glyph unicode="&#x203a;" horiz-adv-x="491" d="M84 893q6 71 80 71q46 0 72 -44l208 -371l-204 -365q-30 -52 -72 -55q-70 9 -80 67q4 22 24 72l168 281l-176 291q-18 48 -20 53z" />
<glyph unicode="&#x205f;" horiz-adv-x="473" />
<glyph unicode="&#x2122;" horiz-adv-x="2027" d="M116 1388q8 72 60 72h572q62 0 61 -68q1 -70 -57 -69h-203v-635q0 -72 -84 -80q-84 8 -84 80v635h-205q-51 -1 -60 65zM973 692v644q1 136 123 136q110 0 143 -88l205 -528l200 532q33 88 144 84q125 -4 125 -132v-648q0 -76 -78 -84q-80 8 -80 80v592h-4l-227 -608 q-20 -56 -84 -64q-59 8 -80 64l-228 608h-4v-588q0 -76 -80 -84q-76 8 -75 84z" />
<glyph unicode="&#xe000;" horiz-adv-x="1105" d="M0 1105h1105v-1105h-1105v1105z" />
<glyph unicode="&#xfb01;" horiz-adv-x="907" d="M588 1360q0 46 33.5 79t79.5 33t78.5 -33t32.5 -79q0 -45 -33 -79t-78 -34q-46 0 -79.5 33.5t-33.5 79.5zM613 80v928q0 96 88 96q90 0 90 -92v-932q0 -92 -90 -92q-39 0 -63.5 26t-24.5 66zM12 1020q2 72 92 72h72v260q0 102 68 162q72 66 168 69h16q144 0 144 -84 q0 -71 -93 -71h-55q-68 0 -68 -80v-256h115q81 0 88 -72q0 -84 -88 -84h-115v-856q0 -92 -92 -92q-39 0 -63.5 26t-24.5 66v856h-76q-88 0 -88 79v5z" />
<glyph unicode="&#xfb02;" horiz-adv-x="907" d="M613 84v1401q0 94 88 94q90 0 90 -90v-1405q0 -96 -90 -96q-88 0 -88 96zM12 1020q2 72 92 72h72v260q0 102 68 162q72 66 168 69h16q144 0 144 -84q0 -71 -93 -71h-55q-68 0 -68 -80v-256h115q81 0 88 -72q0 -84 -88 -84h-115v-856q0 -92 -92 -92q-39 0 -63.5 26 t-24.5 66v856h-76q-88 0 -88 79v5z" />
<glyph unicode="&#xfb03;" horiz-adv-x="1398" d="M1079 1360q0 46 33.5 79t79.5 33t78.5 -33t32.5 -79q0 -45 -33 -79t-78 -34q-46 0 -79.5 33.5t-33.5 79.5zM1104 80v928q0 96 88 96q90 0 90 -92v-932q0 -92 -90 -92q-39 0 -63.5 26t-24.5 66zM504 1020q2 72 92 72h72v260q0 102 68 162q72 66 168 69h16q144 0 144 -84 q0 -71 -93 -71h-55q-68 0 -68 -80v-256h115q81 0 88 -72q0 -84 -88 -84h-115v-856q0 -92 -92 -92q-39 0 -63.5 26t-24.5 66v856h-76q-88 0 -88 79v5zM12 1020q2 72 92 72h72v260q0 102 68 162q72 66 168 69h16q144 0 144 -84q0 -71 -93 -71h-55q-68 0 -68 -80v-256h115 q81 0 88 -72q0 -84 -88 -84h-115v-856q0 -92 -92 -92q-39 0 -63.5 26t-24.5 66v856h-76q-88 0 -88 79v5z" />
<glyph unicode="&#xfb04;" horiz-adv-x="1398" d="M1104 84v1401q0 94 88 94q90 0 90 -90v-1405q0 -96 -90 -96q-88 0 -88 96zM504 1020q2 72 92 72h72v260q0 102 68 162q72 66 168 69h16q144 0 144 -84q0 -71 -93 -71h-55q-68 0 -68 -80v-256h115q81 0 88 -72q0 -84 -88 -84h-115v-856q0 -92 -92 -92q-39 0 -63.5 26 t-24.5 66v856h-76q-88 0 -88 79v5zM12 1020q2 72 92 72h72v260q0 102 68 162q72 66 168 69h16q144 0 144 -84q0 -71 -93 -71h-55q-68 0 -68 -80v-256h115q81 0 88 -72q0 -84 -88 -84h-115v-856q0 -92 -92 -92q-39 0 -63.5 26t-24.5 66v856h-76q-88 0 -88 79v5z" />
</font>
</defs>
</svg>
