<?xml version="1.0" standalone="no"?>
<!DOCTYPE svg PUBLIC "-//W3C//DTD SVG 1.1//EN" "http://www.w3.org/Graphics/SVG/1.1/DTD/svg11.dtd" >
<svg xmlns="http://www.w3.org/2000/svg">
<metadata>
This is a custom SVG webfont generated by Font Squirrel.
</metadata>
<defs>
<font id="VAGRoundedBoldWdRegular" horiz-adv-x="1468" >
<font-face units-per-em="2048" ascent="1638" descent="-410" />
<missing-glyph horiz-adv-x="686" />
<glyph unicode=" "  horiz-adv-x="686" />
<glyph unicode="&#x09;" horiz-adv-x="686" />
<glyph unicode="&#xa0;" horiz-adv-x="686" />
<glyph unicode="!" horiz-adv-x="854" d="M227 133q0 33 14.5 60.5t45.5 52.5q29 23 63.5 35t75.5 12t76 -12.5t65 -34.5q29 -25 44.5 -52.5t15.5 -60.5t-15.5 -61.5t-44.5 -51.5q-31 -20 -65.5 -31.5t-75.5 -11.5v-2q-41 2 -76 13.5t-63 31.5q-31 23 -45.5 51.5t-14.5 61.5zM242 553v2v788q0 31 12 56.5t39 44.5 q29 18 61.5 27.5t71.5 9.5t71.5 -10.5t59.5 -28.5q29 -18 41 -44t12 -57v-786q0 -33 -12 -59.5t-41 -44.5q-27 -18 -59.5 -27.5t-71.5 -9.5t-71.5 9t-61.5 28q-27 18 -39 43.5t-12 58.5z" />
<glyph unicode="&#x22;" horiz-adv-x="1136" d="M180 1010v2v348q0 27 10.5 48.5t30.5 37.5t49 25.5t64 9.5t63.5 -9.5t48.5 -25.5t30.5 -38t10.5 -50v-346q0 -29 -10 -52.5t-31 -39.5q-20 -16 -48.5 -24.5t-63.5 -8.5t-63.5 8t-49.5 25q-20 16 -30.5 39.5t-10.5 50.5zM647 1010v2v348q0 27 10.5 48.5t30.5 37.5 q18 16 47 25.5t66 9.5q35 0 63.5 -9.5t48.5 -25.5q18 -16 29.5 -38t11.5 -50v-346q0 -29 -11 -52.5t-30 -39.5q-20 -16 -48.5 -24.5t-63.5 -8.5q-37 0 -65.5 8t-47.5 25q-20 16 -30.5 39.5t-10.5 50.5z" />
<glyph unicode="#" horiz-adv-x="1536" d="M0 512q0 18 6 35.5t21 32.5q16 16 39.5 23t56.5 7l256 2l41 234h-221q-33 -2 -55.5 6t-39.5 22q-14 16 -21 33t-7 35t7 35.5t21 32.5q16 16 39 23t56 7l256 2l57 330q4 27 15.5 45.5t25.5 28.5q16 10 36.5 16t49.5 6q23 0 43 -6t39 -16q16 -12 26.5 -26.5t10.5 -33.5v-9 v-7v-4v-2q0 -2 -1 -3l-1 -1q0 -2 -1 -3t-1 -3v-3v-3q-2 -2 -2 -5v-6l-52 -295h246l58 330q4 27 15 45.5t25 28.5q16 10 37 16t49 6q23 0 43.5 -6t38.5 -16q16 -12 26.5 -26.5t10.5 -33.5v-9v-7v-4v-2q0 -2 -1 -3l-1 -1q0 -2 -1 -3t-1 -3v-3v-3q-2 -2 -2 -5v-6l-51 -295h221 q31 -2 54.5 -9t37.5 -23q16 -14 23.5 -31.5t7.5 -36.5q0 -18 -7 -34.5t-24 -33.5q-14 -14 -37.5 -22t-54.5 -8l-256 2l-41 -234h219q31 -2 54.5 -9t37.5 -23q16 -14 23.5 -32t7.5 -36t-7 -34.5t-24 -33.5q-14 -14 -37.5 -22t-54.5 -8l-256 2l-55 -330q-6 -29 -15.5 -48.5 t-25.5 -29.5q-14 -8 -36.5 -13t-51.5 -5q-23 0 -44.5 5t-37.5 13q-18 10 -26.5 25.5t-8.5 34.5v10v6v3v3v4v4q0 4 1 8.5t3 10.5l52 299h-246l-56 -330q-6 -29 -15 -48.5t-25 -29.5q-14 -8 -37 -13t-52 -5q-23 0 -44 5t-37 13q-18 10 -26.5 25.5t-8.5 34.5v10v6v3v3v4v4 q0 4 1 8.5t3 10.5l51 299h-219q-33 -2 -56.5 6t-39.5 22q-14 16 -20.5 33t-6.5 35zM627 612h243l41 234h-243z" />
<glyph unicode="$" horiz-adv-x="1374" d="M47 203q0 29 12.5 55.5t34.5 46.5q23 23 54.5 33t70.5 10q23 0 46.5 -3t47.5 -9q12 -2 25.5 -6t28.5 -6q12 -4 25.5 -7.5t27.5 -7.5q20 -6 43 -12l45 -12q16 -4 32.5 -7.5t32.5 -5.5q8 0 16.5 -1t16.5 -1v2v342q-2 -2 -4 -2h-3h-2q-1 0 -1 2h-2q-8 2 -15.5 4.5l-13.5 4.5 q-8 0 -15 2t-15 4t-15.5 3t-13.5 3q-8 2 -15.5 4t-15.5 4q-78 18 -150.5 47t-138.5 68q-66 37 -98.5 101.5t-32.5 156.5q0 98 40 177t122 140q80 61 177.5 97t211.5 47v6v59q0 18 2 34.5t6 31.5q4 14 19.5 21t42.5 7q25 0 40 -7t17 -21q4 -14 7 -30.5t3 -37.5v-61 q20 -2 42 -3t44 -6q23 -2 46.5 -6t48.5 -8q49 -8 95 -23.5t89 -37.5q41 -20 62.5 -51t21.5 -68q0 -31 -11.5 -57.5t-33.5 -49.5q-23 -23 -55.5 -34t-71.5 -11h-20q-9 0 -17 2q-10 2 -19.5 4.5t-17.5 4.5t-17 4l-18 4q-10 2 -19 5t-18 5q-8 2 -15 4t-15 4q-8 0 -15.5 2 t-15.5 4q-14 4 -31.5 7.5t-38.5 5.5v-271q10 -2 19.5 -5t19.5 -5q10 -4 19.5 -6t19.5 -4q18 -4 40 -9.5t42 -11.5q78 -20 151.5 -54t137.5 -79q66 -45 99.5 -116.5t33.5 -169.5q0 -102 -44 -185.5t-128 -144.5t-186.5 -94t-223.5 -41v-9v-59v2v-2v-1v-3q0 -16 -3 -31.5 t-7 -30.5q-4 -14 -19.5 -21t-37.5 -7q-27 0 -41 7t-19 21q-6 14 -8 30t-2 32v3v1v2v62q-23 2 -47 3t-53 3q-27 2 -52.5 5t-52.5 7q-68 6 -129 21.5t-114 39.5q-55 25 -83 61t-28 83zM471 1053q0 -20 8 -37t27 -29q20 -12 44.5 -22.5t55.5 -20.5v2v234q-29 -8 -53.5 -19.5 t-44.5 -27.5q-18 -14 -27.5 -34.5t-9.5 -45.5zM743 281q41 6 72 21t51 38q23 23 34 48.5t11 55.5q0 25 -12 46.5t-35 35.5q-23 16 -53.5 28.5t-67.5 23.5v2v-299z" />
<glyph unicode="%" horiz-adv-x="1847" d="M78 1149q0 66 27.5 124t82.5 107t127 75t158 26q84 0 154.5 -25.5t126.5 -75.5q57 -49 84.5 -107.5t27.5 -123.5q0 -68 -27.5 -125t-84.5 -106q-55 -49 -126 -74t-155 -25v2q-86 -2 -157.5 22.5t-127.5 74.5q-55 49 -82.5 106t-27.5 125zM340 1149q0 -25 8 -46.5 t25 -39.5q16 -18 41.5 -26.5t58.5 -8.5v2q31 -2 55.5 6t40.5 27q18 18 27.5 39.5t9.5 46.5t-9 46.5t-28 39.5q-16 18 -40.5 27.5t-55.5 9.5q-33 0 -58.5 -9.5t-41.5 -27.5t-24.5 -39.5t-8.5 -46.5zM354 74q0 8 1 16t5 16q2 6 4.5 10.5t4.5 10.5q0 2 2 4t2 4t2 4v4q0 2 1 3 t3 1l1 1l1 2v2l848 1278q2 4 3 7t3 5l3 3l3 3l1 1l3 3l11 11l10 10q4 4 9 7t11 5q12 4 26.5 6t33.5 2q29 0 55 -9t49 -26q23 -16 35 -36.5t12 -43.5v-3v-1v-2v-5q0 -3 -2 -5q0 -4 -1 -6l-3 -6q-2 -6 -5 -14.5t-9 -18.5l-861 -1286q-4 -4 -7 -8.5t-5 -8.5l-3 -3l-3 -3l-4 -4 q-2 -2 -2 -4q-2 0 -4 -1t-4 -3q-4 -4 -8.5 -6t-8.5 -6q-6 -2 -10 -5.5t-8 -5.5q-8 -4 -19.5 -6t-27.5 -2h-4h-4q-2 2 -5 2h-4h-5h-7q-23 6 -43 15.5t-39 21.5q-20 16 -28.5 33t-8.5 37zM979 303q0 66 27.5 124t83.5 108q55 49 126.5 74.5t157.5 25.5q84 0 154.5 -25.5 t126.5 -74.5q57 -49 84.5 -107.5t27.5 -124.5q0 -68 -27.5 -125t-84.5 -106q-55 -49 -126 -72t-155 -23v-2q-86 2 -157.5 25t-126.5 72t-83 106t-28 125zM1241 303q0 -25 8 -46t25 -40q16 -18 41.5 -26.5t58.5 -8.5v2q31 -2 55.5 6.5t40.5 26.5q18 18 27.5 40t9.5 46 q0 25 -9 46.5t-28 39.5q-16 18 -40.5 27.5t-55.5 9.5q-33 0 -58.5 -9t-41.5 -28q-16 -18 -24.5 -39.5t-8.5 -46.5z" />
<glyph unicode="&#x26;" horiz-adv-x="1802" d="M61 416q0 76 29 141.5t86 120.5t125 101t145 81q-39 29 -69.5 60.5t-52.5 64.5q-23 33 -34 71t-11 81q0 84 38.5 146.5t118.5 105.5t168 66.5t184 25.5h3h2h4h4h4h4h2h4h15h16q8 -2 15 -2h16q16 -2 31.5 -3t29.5 -6q76 -12 144.5 -36.5t129.5 -63.5t93 -91t32 -120 q0 -61 -25.5 -114.5t-76.5 -100.5q-49 -45 -104.5 -82t-116.5 -61v2l268 -238l100 92q4 4 8.5 7.5t8.5 7.5q4 2 8 6l8 8q4 4 8 7t9 5q4 4 8 7.5t8 5.5q14 10 29.5 16t29.5 12q16 4 32.5 7.5t37.5 3.5q27 0 51.5 -9.5t44.5 -25.5q23 -18 33 -42t10 -52q0 -20 -10 -43t-31 -48 q-18 -25 -42.5 -50t-55.5 -54l-66 -53l175 -158q2 -2 4 -5t4 -5q0 -2 2 -3t4 -3t4 -3t4 -3q0 -2 2 -3.5t4 -3.5q4 -4 6 -8t6 -8q2 -6 5 -10l4 -8q4 -8 6 -18.5t2 -22.5q0 -27 -13.5 -49.5t-39.5 -45.5q-27 -18 -59 -28.5t-68 -10.5q-23 0 -41.5 3.5t-34.5 9.5 q-14 6 -29.5 12t-30.5 18l-176 150q-41 -31 -85 -56.5t-87 -47.5q-20 -10 -41.5 -20.5t-44.5 -18.5q-68 -25 -144.5 -37.5t-160.5 -12.5q-129 0 -239.5 27t-202.5 84q-92 55 -138.5 138.5t-46.5 189.5zM430 444q0 -49 17.5 -85.5t56.5 -63.5q37 -27 85 -39t107 -12 q43 0 82 5t74 17q33 12 65.5 29.5t65.5 38.5q4 4 8 7t8 5q2 2 5.5 4t5.5 4t5 4t5 4v3l-371 329q-45 -25 -83 -50.5t-70 -53.5q-33 -29 -49.5 -66t-16.5 -80zM662 1145q0 -8 1 -16.5t3 -16.5t5 -15t7 -14l8 -12q4 -6 10 -12q4 -8 10.5 -14.5t14.5 -12.5q16 -14 35.5 -29.5 t42.5 -33.5q4 4 11 7t15 5q4 2 7.5 3t7.5 3t7 3t7 3q23 12 46.5 26.5t43.5 31.5q18 16 29.5 36.5t11.5 40.5v2q0 25 -9 43.5t-28 32.5q-16 12 -34.5 21.5t-41.5 13.5q-8 2 -15 3t-15 1h-7q-3 0 -8 2h-5h-7h-5h-5q-2 -2 -5 -2h-5h-4h-5q-2 -2 -4 -2h-4q-23 -6 -43 -15 t-37 -22q-20 -12 -28 -27.5t-8 -33.5z" />
<glyph unicode="'" horiz-adv-x="614" d="M154 1010v2v348q0 27 10 48.5t31 37.5q18 16 46.5 25.5t65.5 9.5q35 0 63.5 -9.5t49.5 -25.5q18 -16 29.5 -38t11.5 -50v-346q0 -29 -11.5 -52.5t-29.5 -39.5q-20 -16 -49 -24.5t-64 -8.5q-37 0 -65.5 8t-46.5 25q-20 16 -30.5 39.5t-10.5 50.5z" />
<glyph unicode="(" horiz-adv-x="616" d="M98 582q0 35 3 79t12 101q8 57 17 116.5t24 122.5q16 72 35.5 138.5t46.5 130.5q25 63 55.5 109t62.5 75q4 4 10.5 8t14.5 6q4 2 8 3.5t8 3.5q2 0 6.5 1t8.5 3h4h4h2h4h4q2 0 4 2h4h4v2q31 -2 58.5 -10.5t54.5 -24.5q25 -16 38 -37.5t13 -48.5q0 -6 -2 -12.5t-6 -16.5 q-2 -4 -4 -9t-2 -9q-2 -2 -2 -4v-4q-2 -2 -2 -5.5t-2 -7.5q0 -2 -1 -3q-1 -3 -2 -4l-1 -1q0 -2 -1 -3l-1 -4v-3l-5 -8q-2 -4 -2 -6q-2 -4 -4 -7.5t-4 -7.5q-4 -6 -6 -11t-2 -9q-33 -78 -58.5 -158t-41.5 -162t-24.5 -162.5t-8.5 -162.5v-30v-30q0 -16 1 -30.5t1 -30.5 q0 -14 2 -30.5t4 -31.5q2 -16 5 -31.5t5 -31.5q4 -45 14.5 -91t22.5 -93q12 -45 27.5 -89.5t34.5 -82.5q4 -4 7 -11.5t7 -15.5l8 -21l8 -20v-3v-3q0 -2 1 -2t3 -2l2 -2q2 -8 5.5 -16.5t7.5 -16.5q2 -4 3 -8t3 -9q0 -4 1 -6t3 -4q2 -8 4 -13t2 -9q0 -29 -12 -52.5t-35 -41.5 t-52.5 -27.5t-64.5 -9.5q-23 0 -43 6t-37 16q-14 12 -28.5 25.5t-24.5 29.5q-27 39 -51.5 86.5t-44.5 104.5q-20 53 -37.5 112.5t-28.5 122.5q-12 53 -21 106.5t-15 104.5q-4 53 -7.5 97.5t-3.5 83.5z" />
<glyph unicode=")" horiz-adv-x="616" d="M12 -195q0 6 1 12.5t3 16.5l4.5 9t4.5 10q2 6 4 11t4 9v4q0 2 2 4v3q0 1 2 1v3v3l4 9q2 4 4 6q0 4 2 7t4 7q2 2 3 5t3 7q0 2 1 4.5t3 4.5q31 76 55.5 154.5t41.5 160.5q16 80 26.5 162t10.5 164q0 20 -1 39.5t-4 40.5q0 10 -1 20t-1 20q0 20 -3 41t-5 41q0 10 -1 21.5 t-3 21.5q-8 47 -17 93.5t-22 91.5q-14 47 -29.5 90t-31.5 86q-2 4 -5 11t-8 15q-4 10 -9 20.5t-9 20.5v1v4q-2 0 -2 1v2v3q-2 0 -2 1v1q-6 12 -11 24.5t-10 24.5q-4 12 -6 20.5t-2 12.5q0 29 11.5 52t33.5 42q23 18 52.5 27.5t66.5 9.5q23 0 42.5 -6.5t33.5 -16.5 q16 -12 30.5 -25.5t26.5 -29.5q27 -39 50.5 -86t43.5 -105q20 -57 37 -117.5t31 -121.5q10 -55 18.5 -107.5t14.5 -105.5q6 -51 9 -96.5t3 -81.5q0 -33 -3 -79t-11 -104q-8 -57 -18.5 -116.5t-20.5 -120.5q-16 -70 -38 -135.5t-46 -128.5q-27 -63 -55.5 -109.5t-63.5 -75.5 q-2 -2 -4 -3t-4 -3q-4 -2 -7 -4t-9 -4q-4 -2 -7.5 -3t-7.5 -3q-4 0 -7 -1t-7 -3h-4h-4h-4h-5h-4q-2 0 -2 -2h-4h-4v-2q-33 2 -61.5 10t-53.5 24q-27 16 -38 37.5t-11 48.5z" />
<glyph unicode="*" horiz-adv-x="995" d="M74 952v2v4q0 23 10 38.5t31 25.5q18 10 40.5 19.5t49.5 17.5q2 0 4 1l6 3h2h2q2 2 4 3t4 1t4 1t5 1q4 2 8 3t8 3l12 4l12 4q-4 2 -7 3t-7 4q-2 0 -5 1t-7 3q-4 0 -7 1t-7 3q-4 0 -7.5 1t-7.5 3h-3q-1 0 -1 2q-2 0 -3 1t-3 1h-1q-1 0 -1 2h-3q-28 8 -50.5 17.5 t-40.5 19.5q-20 10 -30.5 27.5t-10.5 37.5q0 23 8 43.5t24 38.5t40 27.5t55 9.5h5h3h4q2 -2 3 -2h3q16 -2 34.5 -10t37.5 -19l20 -12q10 -6 21 -10l20 -12q10 -6 23 -13l1 -1l3 -3h1h3q0 -2 1 -2l1 4v6q-2 2 -2 6v5q-2 6 -3 12t-1 12v4l-1 1q-1 1 -1 3l-2 2q0 4 -1 9.5 t-1 11.5q-2 4 -3 9t-1 9q-2 10 -3 18.5t-1 16.5q0 25 10 43.5t28 28.5q20 10 43 16t50 6v2q25 -2 47 -8t43 -16q18 -10 29.5 -28.5t11.5 -43.5q0 -8 -1 -16t-5 -19q0 -4 -1.5 -9t-1.5 -9q-2 -6 -2 -11v-10v-1q-2 -3 -2 -4v-4l-4 -13q-2 -6 -2 -12v-5v-6q-2 -4 -2 -6v-4l2 2 h1l2 1q1 1 3 1l2 2q8 4 16.5 9.5t16.5 11.5q8 4 15.5 9t15.5 9q16 10 31.5 17.5t29.5 13.5q4 2 9.5 3t11.5 3h7q3 0 5 2h7h7q29 0 51.5 -9t43.5 -28q18 -18 28.5 -38.5t10.5 -43.5q0 -20 -11.5 -37.5t-33.5 -27.5q-20 -10 -43 -19.5t-46 -17.5l-6 -3q-2 -1 -4 -1h-3 q-3 -2 -4 -2q-5 -2 -8 -3t-7 -1q-4 -2 -7.5 -3t-7.5 -1q-4 -2 -7 -3t-7 -1q-2 -2 -5 -3.5t-5 -3.5q4 -2 9 -4t13 -4q2 0 4 -1t5 -3q4 0 8 -1t8 -3q2 0 3 -1t3 -1q0 -2 1 -2h3h3h3q2 -2 4 -2h4q23 -8 45.5 -18.5t43.5 -20.5q23 -10 34 -25.5t11 -38.5v-3v-3 q-2 -20 -12.5 -40.5t-28.5 -39.5q-20 -18 -43 -26t-50 -8h-14q-6 0 -12 2q-6 0 -11.5 2t-9.5 4q-14 4 -28.5 12t-26.5 16q-14 10 -29.5 19.5t-31.5 19.5q-4 0 -6.5 1t-4.5 4q-2 2 -4 3t-4 3v-5q0 -3 2 -6v-6v-6v-5q0 -3 2 -5q0 -4 1 -6l3 -6v-3v-4q0 -2 2 -2v-2q0 -10 1 -20 t4 -21q4 -8 5 -17t1 -15q0 -27 -11.5 -45.5t-29.5 -28.5q-20 -10 -43 -15.5t-47 -5.5q-27 0 -49.5 5.5t-43.5 15.5q-18 10 -28 28.5t-10 45.5q0 6 1 15t3 17q2 10 3 20.5t3 20.5h1q1 0 1 2l1 1l1 1v4v3v6q0 2 2 6q0 2 1 5t1 5v6q0 2 2 6v6v5q-2 0 -3 -1l-4 -4q-1 -1 -3 -1 l-3 -4q-1 -1 -3 -1q-23 -12 -43.5 -24t-36.5 -23q-8 -6 -17.5 -10t-17.5 -6q-8 -4 -17.5 -6t-17.5 -4q-2 -2 -5 -2h-5h-3h-5q-27 0 -50.5 8t-41.5 26q-16 18 -25.5 39t-9.5 41z" />
<glyph unicode="+" horiz-adv-x="1536" d="M88 516q0 29 10.5 50.5t30.5 37.5t49 25.5t64 9.5l372 2v297q0 27 10.5 48.5t30.5 37.5q18 16 47 25.5t66 9.5q35 0 63.5 -9.5t49.5 -25.5q18 -16 29.5 -37.5t11.5 -50.5v-295h370q35 -2 63.5 -11t49.5 -26q18 -16 29.5 -37.5t11.5 -50.5q0 -27 -11.5 -50.5t-29.5 -39.5 q-20 -16 -49 -24.5t-64 -8.5l-370 2v-297q0 -29 -11.5 -51t-29.5 -39q-20 -14 -49 -22.5t-64 -8.5q-37 0 -65.5 8.5t-47.5 22.5q-20 16 -30.5 39t-10.5 49v299h-372q-35 -2 -63.5 6.5t-49.5 24.5q-20 16 -30.5 39.5t-10.5 50.5z" />
<glyph unicode="," horiz-adv-x="686" d="M-20 -137q0 8 2 16t4 15l3 6q1 2 1 4l8 20q4 10 6 21l213 305q6 10 14.5 17t18.5 14q6 4 12 6t12 6l11 5q6 3 12 5q10 4 19.5 6t17.5 4t15 3t16 1q35 0 65.5 -10t56.5 -31q29 -20 42.5 -42.5t13.5 -51.5q0 -6 -2 -13t-4 -13l-3 -6q-1 -2 -2 -5q-2 -2 -3 -5t-3 -7 q-4 -6 -7 -11t-5 -11v-2q-2 -2 -2 -4v-1l-1 -1l-1 -1q0 -2 -1 -2l-1 2l-215 -307l-17 -16q-8 -8 -18 -17q-8 -4 -15 -8l-14 -8q-4 -2 -7 -3t-7 -3q-10 -4 -19.5 -5t-17.5 -3t-16 -3t-15 -1q-33 0 -63.5 10t-56.5 31q-23 20 -35 42.5t-12 51.5z" />
<glyph unicode="-" horiz-adv-x="995" d="M78 590q0 29 8 50.5t29 39.5q18 18 45.5 28.5t64.5 12.5v2h545q35 -2 61.5 -13.5t45.5 -29.5q20 -18 29 -40t9 -50q0 -27 -9 -48.5t-29 -39.5q-18 -18 -45 -27.5t-62 -11.5l-545 2q-37 0 -64.5 9t-45.5 28q-20 18 -28.5 39.5t-8.5 48.5z" />
<glyph unicode="." horiz-adv-x="686" d="M143 133v2q0 31 13.5 58.5t44.5 52.5q29 23 64.5 35t76.5 12t76 -12.5t65 -34.5q29 -25 44.5 -52.5t15.5 -60.5t-15.5 -61.5t-44.5 -51.5q-31 -20 -65.5 -31.5t-75.5 -11.5t-77 11.5t-64 31.5q-31 23 -44.5 51.5t-13.5 61.5z" />
<glyph unicode="/" horiz-adv-x="1040" d="M20 86q0 2 1.5 7t3.5 13q2 2 3 5.5t3 5.5q2 6 5 13t7 13v2l684 1262q8 16 20.5 29.5t26.5 23.5q16 10 41 15.5t55 5.5q31 0 57.5 -8.5t49.5 -24.5t33 -36.5t10 -43.5q0 -2 -1 -7t-3 -13q-2 -2 -3 -5.5t-3 -5.5q-2 -6 -5 -12l-8 -14l-680 -1260q-10 -18 -22 -31.5 t-29 -21.5q-14 -10 -37.5 -15.5t-54.5 -5.5q-33 0 -60.5 8.5t-50.5 20.5q-23 16 -33 35.5t-10 44.5z" />
<glyph unicode="0" d="M55 684v22v21v44q0 22 2 42q4 23 7.5 45.5t7.5 44.5q18 109 65 207t123 188t193.5 136.5t279.5 46.5t281 -46t194 -137q74 -90 122 -188t67 -207q4 -23 6 -45l4 -45q0 -6 1 -14t1 -15q2 -14 3 -28.5t1 -28.5q0 -10 -1 -21.5t-1 -21.5q0 -4 -1 -8t-1 -8q0 -6 -1 -13.5 t-1 -15.5q0 -10 -1 -21.5t-3 -21.5q0 -12 -2 -23.5t-4 -21.5q-18 -106 -66.5 -205.5t-122.5 -189.5q-76 -90 -194.5 -134.5t-280.5 -44.5v-2q-162 2 -279.5 46.5t-193.5 134.5t-123 189t-65 206q-2 10 -4 21.5t-5 23.5q-2 10 -3 21.5t-3 21.5q0 10 -1 21.5t-1 23.5zM455 684 q0 -23 2 -51q0 -27 4 -54.5t12 -56.5q10 -51 29.5 -97t46.5 -89q29 -43 75 -63.5t109 -20.5v2q61 -2 107.5 18.5t74.5 63.5q29 43 48.5 89t31.5 97q6 29 9.5 56.5t5.5 54.5q0 14 1 26.5t1 24.5t1 22.5t1 20.5t-1 20.5t-1 20.5q0 12 -1 24.5t-1 24.5q-2 25 -5.5 52.5 t-7.5 54.5q-8 53 -27.5 100t-47.5 90q-29 43 -76 65.5t-113 22.5q-63 0 -111.5 -22.5t-76.5 -65.5q-29 -43 -47.5 -90t-26.5 -100q-6 -27 -10 -54.5t-4 -52.5q-2 -27 -2 -49v-41v-43z" />
<glyph unicode="1" horiz-adv-x="946" d="M63 1309v2v4q0 27 11.5 51.5t34.5 44.5q23 23 54.5 34t74.5 11l362 2q41 -2 73 -12t54 -33q23 -20 34 -46t11 -56v-1164q0 -39 -14.5 -68.5t-40.5 -49.5q-27 -20 -61.5 -29.5t-75.5 -9.5t-76 9t-62 30q-27 20 -40 48.5t-13 67.5v2v1029h-151q-45 -2 -78 8t-54 30 q-20 23 -31.5 45.5t-11.5 49.5z" />
<glyph unicode="2" d="M115 133q0 12 2 24.5t10 24.5q8 10 15.5 21.5t15.5 19.5l1 1l3 3q2 0 3 1l1 1l4 4l4 5q23 23 47.5 46t50.5 46q12 12 25.5 23.5t26.5 23.5q12 10 25 21.5t26 23.5q0 2 1 2t3 2l1 1l1 1l4 4q2 2 6 4q53 49 107.5 98.5t107.5 100.5q41 39 79 78t75 82q14 12 26 26l25 29 q16 20 31.5 41.5t29.5 46.5q14 23 21.5 49.5t7.5 52.5q0 31 -13.5 58.5t-41.5 52.5q-27 23 -58.5 35t-70.5 12q-57 0 -95 -13.5t-59 -39.5q-20 -27 -36.5 -54.5t-28.5 -58.5q-2 -2 -3 -4t-1 -4v-3v-3q-12 -31 -26.5 -57.5t-31.5 -49.5q-16 -23 -47 -34t-72 -11 q-45 0 -81.5 11.5t-59.5 33.5q-23 23 -35 48.5t-12 56.5q0 96 45 179t137 151t196.5 101.5t223.5 33.5q117 0 217.5 -29t184.5 -88q84 -57 125.5 -135t41.5 -174q0 -74 -29.5 -146.5t-88.5 -144.5t-124 -140.5t-134 -134.5q-33 -31 -64 -58.5t-61 -55.5q-31 -27 -59.5 -54.5 t-53.5 -52.5v2h467q43 -2 78 -10t63 -24q29 -14 44.5 -41t15.5 -62t-14.5 -60.5t-43.5 -41.5q-27 -14 -58.5 -22.5t-68.5 -8.5h-856q-41 0 -77.5 8t-65.5 23q-27 16 -41 41.5t-14 60.5z" />
<glyph unicode="3" d="M82 358q0 27 12 49.5t39 41.5q27 18 55.5 29t59.5 16h4q2 0 4 2h2h4h4h4h4h5q25 0 46 -6.5t35 -18.5q16 -12 29.5 -26.5t26.5 -30.5q2 -2 4 -5l4 -6q2 -4 4 -6l4 -4l4 -4l4 -4q0 -2 2 -4l4 -4q18 -23 41 -44.5t50 -39.5q29 -18 69.5 -27.5t93.5 -9.5q51 0 93.5 13.5 t76.5 39.5q35 29 53.5 63t18.5 74q0 53 -17.5 88t-52.5 50q-35 14 -71.5 23t-77.5 16h-3h-1h-3h-3h-3q-1 0 -1 2q-39 4 -75 11t-67 19q-31 10 -46 38t-15 71q0 41 14.5 66.5t42.5 37.5q27 12 58.5 21.5t66.5 17.5q35 6 65.5 16.5t59.5 24.5q29 12 43 41t14 72q0 29 -13 53.5 t-36 44.5q-25 18 -59.5 28.5t-75.5 10.5q-45 0 -81 -8t-58 -25q-23 -14 -43.5 -31.5t-36.5 -35.5l-3 -3q-1 -1 -1 -3l-3 -3l-3 -4l-4 -4q-2 -2 -2 -4q-14 -16 -29.5 -30.5t-32.5 -26.5q-14 -12 -36.5 -17.5t-51.5 -5.5q-39 0 -69.5 11.5t-53.5 35.5q-23 23 -33 49.5 t-10 55.5v8v8v4q0 2 2 5v4v4q12 55 60.5 107t130.5 97q82 47 173 71t191 24v2q111 -2 198 -23.5t150 -64.5q66 -43 109 -89t65 -98q6 -14 11.5 -27.5t7.5 -25.5q0 -4 1 -8t1 -8q2 -8 3 -16.5t1 -16.5q0 -49 -13.5 -93t-41.5 -85q-27 -41 -65 -75t-91 -60q70 -27 125 -64 t100 -86q43 -49 65.5 -103.5t22.5 -113.5q0 -92 -48 -172t-140 -145q-92 -68 -207 -100t-250 -32q-113 0 -206 19.5t-168 62.5q-76 43 -128.5 90.5t-80.5 98.5q-8 14 -14.5 27.5t-10.5 27.5q-2 14 -4 27.5t-2 27.5z" />
<glyph unicode="4" d="M41 426v4v4v2v4q0 12 2 24.5t4 20.5l3 7l3 6l5 10q3 6 8 10l2 2l4 4q0 2 1 3l3 3l573 834q23 29 47.5 51.5t55.5 36.5q29 14 68.5 21.5t90.5 7.5q55 0 105.5 -15.5t95.5 -46.5q47 -31 69.5 -81t22.5 -119v-627h45q35 -2 67 -11.5t58 -27.5q27 -18 40 -43t13 -55 q0 -31 -13 -55.5t-40 -43.5q-27 -18 -58.5 -27.5t-66.5 -9.5l-45 3v-175q0 -43 -10 -73.5t-33 -48.5t-57.5 -26.5t-83.5 -8.5t-84 8t-55 27q-23 18 -34 48.5t-11 71.5v177h-617q-39 -2 -68.5 5t-52.5 21q-20 14 -33.5 29.5t-19.5 34.5q-2 4 -3 7t-1 7zM485 592h351v571h-5z " />
<glyph unicode="5" d="M82 248q0 29 12 53.5t39 44.5q25 20 55.5 30.5t67.5 10.5q18 0 37.5 -5t40.5 -15q23 -10 45 -22l47 -23q23 -12 50.5 -23.5t55.5 -22.5q27 -10 56.5 -15t62.5 -5q61 0 110.5 18.5t82.5 57.5q35 37 54.5 79t23.5 87v3q0 1 2 3v3v3v4v4v2v4q0 47 -16.5 84t-47.5 66t-77 43 t-105 14q-29 0 -52.5 -3t-39.5 -7q-10 -2 -19.5 -5t-17.5 -5q-8 -4 -15.5 -6.5t-15.5 -6.5l-3 -3l-1 -1h-2q-8 -2 -15.5 -5t-13.5 -7q-8 -2 -15 -5t-15 -5q-14 -4 -35 -6t-43 -2q-27 0 -48.5 5t-37.5 13q-16 10 -29.5 19.5t-21.5 21.5q-4 4 -6.5 9l-4.5 9t-2 10v9v12v12v7 q0 2 2 6q0 2 1 5t1 5v2v1v3v4v4v1q0 1 2 3v1v3l66 435q10 59 25.5 98t37.5 57q23 18 57 27.5t79 9.5l616 2q45 -2 80 -11t59 -28q23 -18 36 -40.5t13 -51.5q0 -33 -7 -56.5t-23 -39.5q-10 -10 -21.5 -19.5t-23.5 -15.5q-6 -2 -11.5 -5t-11.5 -5t-11 -4t-11 -4q-6 0 -11.5 -1 t-11.5 -1q-12 -2 -21 -2h-16l-481 2l-39 -218q16 2 31.5 4.5t30.5 4.5q10 2 21 3t24 1q6 2 11 3t11 1h15h16h8q4 0 8 2h8h9q115 0 211 -32t170 -97q74 -63 111.5 -140t37.5 -167q0 -129 -44 -231.5t-130 -180.5q-86 -76 -213 -114t-291 -38q-23 0 -50.5 2.5t-57.5 6.5 q-31 4 -63 9t-64 11q-61 16 -119 39t-107 53q-51 31 -76.5 68t-25.5 82z" />
<glyph unicode="6" d="M92 481q0 41 8.5 82t22.5 86q16 43 36.5 88t47.5 90q31 53 68.5 105.5t78.5 103.5q14 18 29 35l29 33q29 33 57.5 64.5t56.5 62.5q29 29 56.5 53.5t54.5 48.5q8 8 17.5 15.5t17.5 15.5q18 14 35.5 27.5t33.5 25.5l17 13q8 6 20 12q6 4 11.5 7t11.5 5q6 4 11 7t11 5 q10 4 20.5 7.5t20.5 5.5h7h6h4q2 0 2 2h10h8q4 0 11.5 -1t15.5 -3q4 -2 8 -3t10 -1q4 -2 8 -3.5t9 -3.5q20 -8 39.5 -22t37.5 -33q20 -18 29.5 -36.5t11.5 -37.5v-3v-1v-2v-4v-4q-2 -2 -2 -4v-4q-2 -4 -3 -8t-5 -9q-2 -6 -8 -12l-12 -12q-2 -2 -5.5 -6t-5.5 -6 q-4 -4 -6 -7.5t-6 -7.5q-10 -10 -23.5 -22.5t-25.5 -22.5l-12 -12l-13 -12q-20 -18 -41.5 -37t-42.5 -37l-4 -4q-2 -2 -4 -2l-1 -1l-1 -1q-2 0 -3 -1q-28 -26 -52.5 -48.5t-46.5 -45.5q-27 -20 -46.5 -41.5t-35.5 -39.5l4 -2q6 2 14 4t15 4q8 0 16 2l16 4q16 4 35 5t37 3h5 h3h3h1h4h5h4h4q115 0 210 -35t171 -104q78 -70 115.5 -150t37.5 -170q0 -100 -45 -187t-133 -165q-90 -76 -205.5 -114t-259.5 -38v-2q-147 2 -264 38t-203 112q-88 76 -131 165t-43 191zM492 481q0 -43 15 -81t48 -68q31 -33 76 -48.5t102 -15.5q53 0 98.5 15.5t79.5 46.5 q33 31 49.5 68.5t16.5 82.5q0 41 -15.5 78t-46.5 70t-76.5 49t-105.5 16v2q-55 -2 -99 -17t-77 -46t-49 -69t-16 -83z" />
<glyph unicode="7" horiz-adv-x="1376" d="M37 1309v2v4q0 27 10 51.5t31 44.5q23 23 59.5 34t89.5 11l926 2q35 -2 62.5 -9t48.5 -22q20 -14 35.5 -30.5t23.5 -32.5q4 -8 6 -15.5t4 -13.5q2 -8 3 -14t1 -12q0 -8 -1 -16.5t-3 -14.5q-2 -8 -5 -16.5t-7 -16.5q-6 -8 -11 -17l-10 -18q-4 -10 -9 -18t-11 -18 l-635 -1031q-10 -14 -18.5 -28.5t-16.5 -24.5q-8 -12 -15 -21.5t-11 -19.5q-14 -16 -29.5 -28.5t-32.5 -18.5q-18 -4 -40.5 -8t-51.5 -4q-41 0 -73.5 7t-57.5 21q-27 16 -44 33t-26 35q0 2 -1 3l-3 3q0 2 -1 3t-1 3q-2 2 -3 5t-1 6q0 4 -1 6t-1 6v5v5v7v5v4q0 2 2 5v2v4 q0 4 2 9t6 11q2 2 4 5t5 5q0 4 2 7.5t4 7.5v2l641 971h-656q-51 -2 -86 8t-57 30q-23 23 -35 45.5t-12 49.5z" />
<glyph unicode="8" d="M102 440q0 61 18.5 114.5t57.5 98.5t87 80t110 62q-45 27 -80 57.5t-64 67.5q-27 35 -39 76.5t-12 90.5q0 90 41 162t121 125q82 53 179 80t212 27q113 0 209 -27t180 -80q84 -51 126 -123.5t42 -163.5q0 -43 -13 -83.5t-38 -81.5q-27 -39 -63.5 -72t-83.5 -55 q66 -27 115.5 -62t86.5 -82q35 -45 53.5 -98t18.5 -113q0 -106 -47 -191t-139 -149q-94 -63 -206 -93t-241 -30v-2q-131 2 -242.5 34t-203.5 95q-92 66 -138.5 150t-46.5 186zM502 461q0 -39 13 -75t42 -67q29 -33 74 -48t102 -15q53 0 97 15.5t75 47.5q31 31 46.5 67 t15.5 75q0 47 -16.5 85t-47.5 64q-33 29 -75 42.5t-95 13.5v2q-55 -2 -97 -17.5t-73 -44.5q-31 -31 -46 -66.5t-15 -78.5zM549 1055q0 -35 12 -62.5t37 -50.5q23 -20 57.5 -31.5t77.5 -11.5q45 0 80 11.5t59 31.5q23 23 36.5 50.5t13.5 62.5q0 33 -13.5 60.5t-36.5 49.5 q-25 23 -59.5 34t-79.5 11v2q-45 -2 -80 -13t-57 -34q-23 -23 -35 -50t-12 -60z" />
<glyph unicode="9" d="M92 973q0 100 44 189t134 165q90 78 206 116t257 38v2q150 -2 266.5 -40t202.5 -114t130 -165t44 -191q0 -39 -8 -82t-25 -86q-14 -45 -35.5 -89t-45.5 -89q-33 -53 -70 -105.5t-80 -105.5q-20 -27 -41.5 -51.5t-42.5 -49.5q-23 -25 -44 -47t-42 -45l-57 -53 q-29 -27 -56 -49q-27 -25 -53 -45.5t-49 -38.5q-8 -6 -18 -12l-21 -13q-6 -2 -11 -5t-11 -5q-2 -2 -3 -2h-4q-4 -2 -7 -4t-7 -4l-21 -7q-9 -3 -20 -5h-11q-5 0 -9 -3h-9h-8q-8 0 -15 1.5t-15 3.5q-4 2 -8.5 3t-6.5 1q-4 2 -8 3t-8 3q-16 6 -31.5 13t-30.5 20q-6 4 -11 8 t-9 8q-18 18 -28.5 36.5t-10.5 39.5v2v4q0 4 1 8t3 8q0 4 2 8l4 9q2 2 3 4t3 4q2 4 5.5 8t7.5 8l12 13l14 14q16 16 35 33.5t39 35.5q18 18 39.5 37t44.5 37q0 2 2 3t4 3q2 0 3 1l3 3q27 23 51.5 46.5t49.5 44.5q23 23 44 43t38 41l-5 6q-14 -6 -30.5 -10.5t-34.5 -8.5 q-16 -2 -33.5 -5t-34.5 -3h-4h-4h-4h-4h-5h-7q-115 0 -211.5 35t-173.5 104q-76 70 -113 150t-37 170zM492 973q0 -41 15 -78t46 -70t75 -49t105 -16v2q53 -2 98.5 13.5t79.5 45.5q33 31 49.5 69t16.5 83q0 43 -16.5 80t-47.5 69q-33 31 -76.5 47.5t-103.5 16.5 q-55 0 -99 -15.5t-77 -46.5t-49 -68.5t-16 -82.5z" />
<glyph unicode=":" horiz-adv-x="686" d="M143 133v2q0 31 13.5 58.5t44.5 52.5q29 23 64.5 35t76.5 12t76 -12.5t65 -34.5q29 -25 44.5 -52.5t15.5 -60.5t-15.5 -61.5t-44.5 -51.5q-31 -20 -65.5 -31.5t-75.5 -11.5t-77 11.5t-64 31.5q-31 23 -44.5 51.5t-13.5 61.5zM143 791v2q0 31 13.5 58.5t44.5 51.5 q29 23 64.5 35t76.5 12t76 -12t65 -35q29 -25 44.5 -52.5t15.5 -59.5q0 -33 -15.5 -62t-44.5 -51q-31 -25 -65.5 -36t-75.5 -11t-77 11t-64 36q-31 23 -44.5 51.5t-13.5 61.5z" />
<glyph unicode=";" horiz-adv-x="686" d="M-20 -137q0 8 2 16t4 15l3 6q1 2 1 4l8 20q4 10 6 21l213 305q6 10 14.5 17t18.5 14q6 4 12 6t12 6l11 5q6 3 12 5q10 4 19.5 6t17.5 4t15 3t16 1v2q35 -2 65.5 -12t56.5 -31q29 -20 42.5 -42.5t13.5 -51.5q0 -6 -2 -13t-4 -13l-3 -6q-1 -2 -2 -5q-2 -2 -3 -5t-3 -7 q-4 -6 -7 -11t-5 -11v-2q-2 -2 -2 -4v-1l-1 -1l-1 -1q0 -2 -1 -2l-216 -305l-17 -16q-8 -8 -18 -17q-8 -4 -15 -8l-14 -8q-4 -2 -7 -3t-7 -3q-10 -4 -19.5 -5t-17.5 -3t-16 -3t-15 -1q-33 0 -63.5 10t-56.5 31q-23 20 -35 42.5t-12 51.5zM143 791v2q0 31 13.5 58.5 t44.5 51.5q29 23 64.5 35t76.5 12t76 -12t65 -35q29 -25 44.5 -52.5t15.5 -59.5q0 -33 -15.5 -62t-44.5 -51q-31 -25 -65.5 -36t-75.5 -11t-77 11t-64 36q-31 23 -44.5 51.5t-13.5 61.5z" />
<glyph unicode="&#x3c;" horiz-adv-x="1536" d="M88 516q0 23 6 41t21 33q14 14 31.5 24.5t37.5 18.5l1010 373q29 10 49.5 16t32.5 8q14 2 26.5 3t20.5 1q23 0 44.5 -8t39.5 -25q20 -14 29.5 -38.5t9.5 -57.5q0 -16 -5 -31.5t-16 -27.5q-8 -14 -26.5 -24.5t-44.5 -20.5l-852 -283l852 -285q27 -10 45 -22t26 -25 q10 -14 15.5 -28.5t5.5 -30.5q0 -33 -9.5 -56.5t-29.5 -39.5q-18 -14 -39.5 -22.5t-44.5 -8.5h-20q-12 0 -27 2q-12 2 -32.5 8t-49.5 17l-1010 374q-20 6 -37.5 15.5t-31.5 23.5t-20.5 32.5t-6.5 43.5z" />
<glyph unicode="=" horiz-adv-x="1536" d="M88 287q0 29 10.5 50t30.5 38q20 16 49 25.5t64 9.5v2h1050q35 -2 63.5 -11.5t49.5 -25.5q18 -16 29.5 -38t11.5 -50q0 -27 -11.5 -50.5t-29.5 -39.5q-20 -16 -49 -24.5t-64 -8.5l-1050 2q-35 -2 -63.5 6t-49.5 25q-20 16 -30.5 39.5t-10.5 50.5zM88 745q0 29 10.5 50.5 t30.5 38.5q20 16 49 25t64 9v2h1050q35 -2 63.5 -11t49.5 -25q18 -16 29.5 -38t11.5 -51q0 -27 -11.5 -50t-29.5 -40q-20 -16 -49 -24t-64 -8l-1050 2q-35 -2 -63.5 6t-49.5 24q-20 16 -30.5 39.5t-10.5 50.5z" />
<glyph unicode="&#x3e;" horiz-adv-x="1536" d="M88 127q0 16 5 30.5t13 28.5q10 12 29 24.5t45 20.5v2l854 285l-854 285q-27 8 -45 18t-29 25q-8 12 -13 27.5t-5 31.5q0 33 8 57.5t29 38.5q18 16 39.5 24.5t46.5 8.5q8 0 19.5 -1t25.5 -3q12 -2 33.5 -9t50.5 -17l1012 -369q18 -8 34.5 -19.5t30.5 -25.5t21.5 -32.5 t7.5 -41.5q0 -25 -7 -43t-22 -33q-14 -14 -30.5 -24t-34.5 -17l-1012 -370q-29 -12 -50.5 -18.5t-33.5 -8.5q-14 -2 -26 -2h-19q-25 0 -46.5 8t-39.5 23q-20 16 -28.5 39.5t-8.5 56.5z" />
<glyph unicode="?" horiz-adv-x="1230" d="M6 1143q0 61 30 112.5t91 90.5q61 41 129 69.5t139 44.5q23 4 46.5 8.5t45.5 6.5q23 4 45.5 5t42.5 1q123 0 230.5 -29t200.5 -88q90 -57 136 -138t46 -184q0 -86 -31 -153.5t-92 -118.5t-142 -86t-180 -55v-72q0 -33 -12 -58.5t-39 -45.5t-59.5 -29.5t-73.5 -9.5 q-43 0 -78 9t-57 30q-25 20 -37 45.5t-12 56.5v2v205q0 23 12 39t37 24q23 10 52.5 18.5t62.5 14.5q2 0 5 1t5 3q2 0 5 1t5 1q6 0 12.5 1t12.5 3q39 8 72.5 20.5t66.5 31.5q31 16 48 46.5t17 75.5q0 35 -17 63t-50 48q-33 23 -69 34t-77 11q-39 0 -72.5 -8t-60.5 -25 q-27 -14 -50 -31.5t-42 -35.5l-4 -4l-4 -4q-2 -2 -4 -3.5t-4 -3.5l-1 -1l-3 -3q-2 -2 -3 -4t-5 -4q-16 -14 -34 -28.5t-38 -24.5q-18 -12 -40 -17.5t-46 -5.5q-35 0 -63.5 9.5t-49.5 29.5q-23 20 -34 48t-11 61zM360 133q0 33 14.5 60.5t45.5 52.5q29 23 63.5 35t75.5 12 t76 -12.5t65 -34.5q29 -25 44.5 -52.5t15.5 -60.5t-15.5 -61.5t-44.5 -51.5q-31 -20 -65.5 -31.5t-75.5 -11.5v-2q-41 2 -75.5 13.5t-63.5 31.5q-31 23 -45.5 51.5t-14.5 61.5z" />
<glyph unicode="@" horiz-adv-x="2048" d="M82 727q0 156 69.5 289t206.5 244q139 111 304 166t362 55v2q178 -2 341 -49.5t308 -139.5q145 -94 219 -211.5t74 -259.5q0 -86 -27.5 -154.5t-80.5 -121.5q-53 -51 -112.5 -92t-123.5 -70q-49 -20 -95 -35.5t-91 -25.5q-45 -8 -77 -13.5t-52 -5.5q-49 0 -84 7t-54 22 q-20 16 -29.5 33.5t-9.5 38.5l-4 2q-27 -25 -56.5 -44.5t-63.5 -31.5q-37 -14 -74 -20.5t-76 -6.5q-80 0 -146.5 26.5t-119.5 80.5q-53 53 -81 113.5t-32 123.5v3v3v3v4q0 88 34 166.5t103 148.5q66 72 157 106.5t206 34.5q47 0 90 -7t82 -21t69.5 -38t57.5 -57l6 2v25 q0 23 8 40t25 30q16 12 43.5 19t66.5 7q23 0 44.5 -4t37.5 -10q16 -8 25.5 -18.5t9.5 -24.5v-8v-9q-2 -2 -2 -5v-7q-2 -6 -3 -12t-1 -12q0 -2 -1 -3l-1 -1q0 -2 -1 -3l-1 -3v-3l-102 -370q0 -2 -1.5 -5.5t-1.5 -5.5q-2 -4 -2 -6v-6q0 -2 -1 -5t-1 -5v-6v-6q-2 -2 -3 -5.5 t-1 -7.5v-5v-7q0 -8 3 -16.5t12 -14.5q8 -6 19 -9t26 -3q10 0 23.5 2t27.5 6q16 4 31.5 12.5t29.5 18.5q29 16 52.5 41.5t46.5 58.5q23 35 34 78t11 94q0 109 -54.5 196t-162.5 150q-106 63 -230.5 95t-263.5 32q-150 0 -275.5 -41t-230.5 -125q-102 -82 -154.5 -183 t-52.5 -220t52.5 -219t154.5 -184q104 -82 230 -124t276 -42q35 0 68.5 1t68.5 5q33 2 67 6t68 10q68 10 133.5 28.5t126.5 45.5q8 4 16.5 7t16.5 9t17.5 12.5t17.5 12.5h1h3l2 2v1q10 9 23.5 16.5t27.5 13.5q6 4 11.5 6t11.5 4t11 3t11 1h4h3h4h4h4q2 -2 4 -2h4q6 -2 11 -4 t12 -4q6 -2 11 -5t11 -8q12 -8 18.5 -21t6.5 -32q0 -4 -1 -8t-3 -8q0 -2 -1 -4t-1 -4q-2 -6 -3.5 -11.5t-5.5 -9.5q-2 -8 -8 -15t-14 -16l-8 -8l-9 -8q-4 -6 -8 -10l-8 -8q-74 -51 -154.5 -87t-173.5 -55q-92 -16 -185 -25t-189 -12h-1h-3h-4h-5h-4h-2h-4h-4 q-197 0 -361.5 53.5t-304.5 164.5q-137 111 -206.5 243.5t-69.5 288.5zM739 680q2 -33 14.5 -61.5t34.5 -53.5q20 -27 53 -39t77 -12v2q57 -2 103 15.5t81 50.5q35 35 53.5 72.5t18.5 80.5q0 35 -12.5 64.5t-39.5 56.5t-61.5 40t-81.5 13q-45 0 -84 -15t-72 -44t-53 -59.5 t-29 -65.5v-5v-5q-2 -2 -2 -4v-4v-9v-8v-3v-3v-4z" />
<glyph unicode="A" horiz-adv-x="1611" d="M4 129v15q0 7 2 14q0 4 1 6t1 6q2 2 3 5t3 5q0 2 2 4v4q0 2 1 3l3 4l2 1l1 1v2l514 1114q16 35 42.5 64.5t61.5 54.5t77 37t93 12q49 0 93 -12.5t79 -36.5q35 -25 59.5 -54.5t42.5 -66.5l502 -1112q4 -14 8 -25.5t7 -21.5q0 -4 1 -7.5t1 -5.5q2 -6 3 -10t1 -8 q0 -31 -13.5 -54.5t-42.5 -41.5q-27 -18 -57.5 -26.5t-64.5 -8.5q-39 0 -70 6t-53 20q-23 16 -38.5 35t-25.5 41l-76 195h-712l-76 -191q-10 -25 -25.5 -44t-36.5 -36q-23 -14 -53.5 -20t-68.5 -6q-39 0 -73 8t-61 29q-29 20 -43 45.5t-14 56.5zM565 569h486l-238 594h-4z " />
<glyph unicode="B" d="M115 154v2v1149q0 35 14 62.5t41 47.5q29 20 65.5 30.5t81.5 10.5l492 2q100 -2 185 -26.5t155 -73.5t105.5 -114.5t35.5 -147.5q0 -53 -15 -98.5t-44 -82.5t-74 -67.5t-106 -52.5v-2q82 -10 150.5 -40t125.5 -79t85 -107.5t28 -124.5q0 -109 -41 -191.5t-123 -137.5 q-82 -57 -189.5 -85t-240.5 -28h-527q-45 0 -80.5 10t-64.5 31q-31 20 -45 48t-14 65zM498 270h303h16q44 0 79 10q42 11 77 33q35 23 51 56.5t16 76.5q0 35 -16 65t-51 52q-35 23 -85 34t-118 11l-272 2v-340zM498 881h200q7 0 15 -1q39 0 70 10q38 11 67 32q27 23 41 51 t14 67q0 35 -15.5 62.5t-45.5 46.5q-31 18 -68 27.5t-78 9.5l-200 2v-307z" />
<glyph unicode="C" horiz-adv-x="1562" d="M43 727v2q0 158 60.5 292t183.5 243t281.5 163t355.5 54q23 0 48 -1t54 -3q10 0 19.5 -2t19.5 -2q18 -2 37.5 -4.5t40.5 -6.5q61 -10 119.5 -28.5t109.5 -42.5q49 -25 76 -60t27 -80q0 -27 -11.5 -51t-33.5 -45q-23 -20 -51.5 -30.5t-63.5 -10.5h-16q-7 0 -15 2 q-8 0 -14 1t-10 3t-8.5 2t-8.5 2l-16 4l-17 5l-24 8q-12 4 -25 10q-12 4 -23.5 6t-23.5 6q-12 2 -25.5 5t-27.5 6q-27 6 -61.5 9t-75.5 3q-119 0 -209 -35t-152 -104q-61 -70 -91 -151t-30 -175q0 -92 31 -171t92 -147t150.5 -101.5t208.5 -33.5q41 0 75.5 3t65.5 10 q29 6 55.5 14t48.5 16q8 4 16.5 6t16.5 7q6 2 14.5 5t16.5 5q8 4 15 6t16 4q6 2 13 3t15 3h4q2 0 4 2h3h2h3h3h4q2 0 4 2h7h5q29 0 51.5 -7t42.5 -19q18 -12 33 -26.5t23 -31.5q4 -8 8 -15t6 -13q2 -8 3 -14.5t1 -12.5q0 -49 -26.5 -87t-79.5 -62q-53 -27 -111.5 -43.5 t-120.5 -24.5q-33 -6 -64.5 -10t-62.5 -6t-59.5 -3.5t-50.5 -1.5q-197 0 -354.5 53.5t-280.5 162.5t-184.5 241.5t-61.5 292.5z" />
<glyph unicode="D" horiz-adv-x="1705" d="M115 152v2v1146q0 35 13 64t40 49q29 23 63.5 33t79.5 10l426 2q215 -2 381 -53t285 -154q117 -100 176 -237t59 -307q0 -162 -60 -290t-181 -224q-119 -96 -277.5 -144.5t-357.5 -48.5h-445h-7h-7h-7h-7q-8 0 -15.5 1t-15.5 3q-27 4 -52.5 15.5t-47.5 29.5 q-23 16 -33 43t-10 60zM498 283h260q7 -1 15 -1q114 0 199 30q91 32 148 96q59 66 89 143.5t30 169.5q0 98 -30.5 179t-90.5 144q-61 66 -157.5 98t-229.5 32l-233 2v-893z" />
<glyph unicode="E" horiz-adv-x="1183" d="M115 152v2v1126q0 37 11 68.5t38 56.5q23 25 60.5 38t88.5 13l635 2q47 -2 81 -13t56 -34q23 -20 34 -45t11 -51v-3v-3q-2 -27 -14 -49.5t-35 -45.5q-23 -20 -56.5 -30t-76.5 -10l-450 2v-299h420q47 -2 82.5 -13.5t58.5 -34.5q23 -20 35 -44.5t12 -51.5v-3v-3 q-2 -27 -15.5 -49.5t-35.5 -44.5q-23 -20 -57.5 -30.5t-79.5 -10.5l-420 2v-311h475q47 -2 79.5 -13.5t55.5 -33.5q23 -20 34 -45t11 -52v-3v-3q-2 -27 -13.5 -49.5t-33.5 -42.5q-23 -20 -57.5 -30.5t-75.5 -10.5h-662q-41 0 -76.5 10t-64.5 31q-27 20 -41 48t-14 63z" />
<glyph unicode="F" horiz-adv-x="1136" d="M115 145v2v1151q0 31 12 57.5t39 51.5t63.5 37t83.5 12l656 2q43 -2 74.5 -13t54.5 -34q23 -20 33 -45t10 -51v-3v-3q-2 -27 -13.5 -49.5t-31.5 -45.5q-20 -20 -52 -30t-75 -10l-471 2v-299h397q47 -2 82 -12.5t57 -33.5q23 -20 34 -44.5t11 -51.5t-11 -51.5t-34 -46.5 q-23 -23 -57.5 -34t-81.5 -11l-397 2v-447q0 -39 -14.5 -68.5t-41.5 -49.5t-60.5 -29.5t-74.5 -9.5q-43 0 -76.5 9t-62.5 30q-27 20 -40 48.5t-13 67.5z" />
<glyph unicode="G" horiz-adv-x="1802" d="M43 727q0 160 60.5 294t183.5 243t281.5 163t355.5 54q141 0 264 -22.5t227 -65.5q102 -45 155.5 -93.5t57.5 -101.5v-3v-1v-2q0 -33 -12 -59.5t-35 -45.5q-23 -20 -51.5 -29t-61.5 -9q-20 0 -38.5 2t-34.5 8q-16 4 -31.5 10t-32.5 14q-10 4 -19 9.5t-18 9.5q-8 4 -18 10 l-21 12q-27 12 -58.5 24.5t-70.5 25.5q-39 12 -90 18t-112 6q-121 0 -211 -36t-150 -107q-61 -70 -91 -153t-30 -175q0 -94 30 -176t87 -154q59 -70 150.5 -105.5t214.5 -35.5h17h17q6 0 12.5 1t12.5 1q2 0 6 1t6 1q68 6 129.5 28.5t118.5 59.5q59 37 87 95.5t28 136.5 l-260 2q-7 0 -14 -1q-31 0 -59 8q-34 9 -58 29q-25 20 -37 46t-12 59t14 58.5t41 43.5t57.5 27.5t67.5 9.5v2h434q59 -2 102 -14t70 -37q29 -25 41 -61.5t12 -85.5q0 -150 -56 -273t-169 -221t-264.5 -146.5t-343.5 -48.5q-197 0 -354.5 53.5t-280.5 162.5t-184.5 241.5 t-61.5 292.5z" />
<glyph unicode="H" horiz-adv-x="1802" d="M115 145v2v1164q0 37 13 66.5t40 49.5q29 20 62.5 30.5t76.5 10.5q41 0 75 -10t60 -31q27 -20 41.5 -49.5t14.5 -68.5v-432h805v434q0 37 13 66.5t40 49.5q29 20 62.5 30.5t76.5 10.5q41 0 75 -10t60 -31q27 -20 41.5 -49.5t14.5 -68.5v-1162q0 -39 -14.5 -68.5 t-41.5 -49.5t-60.5 -29.5t-74.5 -9.5q-43 0 -77 9t-62 30q-27 20 -40 48.5t-13 67.5v449h-805v-447q0 -39 -14.5 -68.5t-41.5 -49.5t-60.5 -29.5t-74.5 -9.5q-43 0 -76.5 9t-62.5 30q-27 20 -40 48.5t-13 67.5z" />
<glyph unicode="I" horiz-adv-x="614" d="M115 145v2v1164q0 37 13 66.5t40 49.5q29 20 62.5 30.5t76.5 10.5q41 0 75 -10t60 -31q27 -20 41.5 -49.5t14.5 -68.5v-1162q0 -39 -14.5 -68.5t-41.5 -49.5t-60.5 -29.5t-74.5 -9.5q-43 0 -76.5 9t-62.5 30q-27 20 -40 48.5t-13 67.5z" />
<glyph unicode="J" horiz-adv-x="1040" d="M-31 207v3v3q2 2 2 4v4q0 2 1 4t1 4l1 2q1 2 1 5q8 18 17.5 34.5t23.5 30.5q18 16 41 23.5t49 7.5q12 0 24.5 -1t25.5 -5q10 -2 23.5 -6.5t27.5 -8.5l6 -3q2 -1 6 -1q2 -2 5 -3t5 -1l13 -4q6 -2 14 -4q10 -4 19.5 -7t19.5 -7q8 -2 18.5 -5.5t18.5 -7.5q4 -2 9 -3t11 -3 q14 -2 29.5 -4t32.5 -2q39 0 64.5 8t39.5 27q14 16 23.5 35.5t13.5 40.5v8q0 4 2 8v6v8v16v15v883q0 37 13.5 66.5t39.5 49.5q29 20 63 30.5t77 10.5q41 0 74.5 -10t60.5 -31q29 -20 43 -49.5t14 -68.5v2v-901q0 -113 -32.5 -193t-98.5 -127q-66 -45 -136.5 -72.5 t-148.5 -35.5h-11q-5 0 -11 -2h-11h-12h-12q-6 0 -10 -3h-13h-12q-18 0 -38.5 1.5t-43.5 3.5q-12 0 -23.5 1t-21.5 3t-21.5 3t-23.5 3q-57 8 -107.5 24.5t-97.5 42.5q-45 25 -66.5 62t-21.5 86z" />
<glyph unicode="K" horiz-adv-x="1562" d="M115 133v2v1184q0 31 12 57.5t39 46.5q27 23 61.5 34t79.5 11q41 0 75 -10t60 -31q27 -20 41.5 -47.5t14.5 -62.5v-440l630 536q2 0 5 2l4 4q2 2 5 4t7 4q4 4 10 7.5t12 7.5q6 2 13.5 6t15.5 6q16 6 34.5 10t41.5 4q37 0 69.5 -10t61.5 -31q29 -20 44 -46.5t15 -59.5v-5 v-7q-2 -2 -2 -5v-8q-2 -6 -4 -11t-4 -9q-8 -14 -17 -27.5t-26 -27.5q-14 -14 -32.5 -30.5t-39.5 -33.5l-485 -379l592 -493q4 -6 9 -10.5t9 -8.5q4 -2 8.5 -5l10.5 -7q8 -8 14 -15.5t12 -13.5q4 -4 7.5 -8t5.5 -8q4 -2 7 -6t5 -8q10 -14 15 -32t5 -36q0 -37 -15 -63.5 t-46 -43.5q-31 -14 -65.5 -22t-73.5 -8q-14 0 -28.5 1t-24.5 5l-17 4q-8 2 -16 6l-8 4l-9 4q-6 4 -11 7.5t-11 5.5q-6 4 -11.5 8t-11.5 8l-12 8q-6 4 -10 8q-6 6 -12.5 11.5t-12.5 11.5l-663 575v-522q0 -31 -12.5 -56.5t-41.5 -47.5q-27 -20 -61.5 -30.5t-75.5 -10.5 q-43 0 -76.5 8t-62.5 29q-27 18 -40 45.5t-13 60.5z" />
<glyph unicode="L" horiz-adv-x="1089" d="M115 166v2v1143q0 37 13 66.5t40 49.5q29 20 62.5 30.5t76.5 10.5q41 0 75 -10t60 -31q27 -20 41.5 -49.5t14.5 -68.5v-1026h456q41 -2 75 -12.5t56 -28.5q20 -20 34 -41t18 -43v-3q0 -1 2 -3v-4v-3v-4v-4v-2v-2q-2 -27 -15.5 -49.5t-36.5 -42.5q-25 -20 -58.5 -30.5 t-74.5 -10.5h-641q-47 0 -83.5 11.5t-63.5 33.5q-27 23 -39 52.5t-12 68.5z" />
<glyph unicode="M" horiz-adv-x="2226" d="M61 133v8v9v9q0 5 2 9v2l238 1143v5q0 3 2 5q0 2 1 4t3 4q0 2 1 3l1 1q10 25 31.5 47.5t54.5 42.5q35 23 74 33t84 10q47 0 89 -12t77 -35t56.5 -47t33.5 -53l301 -809h6l301 811q10 27 33 51.5t57 46.5q35 23 77 35t89 12q45 0 83 -10t71 -33q33 -20 55.5 -42.5 t34.5 -47.5q0 -2 1 -5t3 -7q0 -2 1 -3t1 -3t1 -3t1 -3l238 -1141v-5q0 -3 2 -5v-6v-4v-9v-8q0 -33 -13.5 -60.5t-40.5 -45.5q-27 -20 -59.5 -28.5t-71.5 -8.5q-49 0 -84.5 8t-58.5 25q-23 16 -37 42.5t-18 63.5l-152 836h-6l-307 -859q-2 -6 -3 -11t-3 -9q-4 -4 -6 -8l-5 -8 q-12 -16 -27.5 -30.5t-37.5 -27.5q-23 -12 -53.5 -17t-69.5 -5t-69.5 5t-53.5 17t-38 26.5t-25 31.5q-2 4 -5 8l-6 8q-2 4 -5 9t-3 9l-307 861h-4l-152 -834q-8 -37 -22 -64.5t-37 -43.5t-57.5 -24.5t-81.5 -8.5q-39 0 -72 8t-59 29q-27 18 -40.5 45.5t-13.5 60.5z" />
<glyph unicode="N" horiz-adv-x="1753" d="M98 145v2v1164q0 37 14.5 66.5t41.5 49.5t61.5 30.5t75.5 10.5q8 0 16 -1t17 -3q6 0 12 -2t12 -2q2 -2 6 -2t6 -2q10 -6 23.5 -12t28.5 -12q2 -2 5 -4.5t5 -4.5q8 -6 16 -11t15 -11l811 -864h6v774q0 37 13 66.5t40 49.5t61.5 30.5t75.5 10.5t76 -10t61 -31 q27 -20 41.5 -49.5t14.5 -68.5v-1162q0 -39 -14.5 -68.5t-41.5 -49.5t-61.5 -29.5t-75.5 -9.5h-8q-4 0 -8 2q-4 0 -8 1t-9 1q-8 2 -17 4t-17 2q-14 4 -27.5 9t-24.5 14q-14 6 -23 14l-18 16l-813 858h-4v-764q0 -39 -14 -68.5t-43 -49.5q-27 -20 -60.5 -29.5t-74.5 -9.5 t-76 9t-61 30q-27 20 -41.5 48.5t-14.5 67.5z" />
<glyph unicode="O" horiz-adv-x="1847" d="M43 727q0 160 60.5 294t183.5 243t281.5 163t355.5 54q193 0 351.5 -55.5t280.5 -165.5q123 -111 185.5 -244t62.5 -289q0 -160 -61.5 -293t-181.5 -241q-123 -109 -283 -162.5t-354 -53.5v-2q-197 2 -354.5 55.5t-280.5 162.5t-184.5 241.5t-61.5 292.5zM442 727 q0 -94 30 -176t87 -154q59 -70 150.5 -105.5t214.5 -35.5v2h13q113 0 198 34q90 36 149 105q59 72 90 154t31 176q0 92 -31 175t-90 153q-61 72 -151.5 107.5t-208.5 35.5q-121 0 -211 -36t-150 -107q-61 -70 -91 -153t-30 -175z" />
<glyph unicode="P" horiz-adv-x="1423" d="M115 145v2v1151q0 35 12 64t39 49q27 23 63.5 34t83.5 11l455 2q139 -2 256 -35.5t211 -101.5q92 -68 140 -157t48 -197q0 -113 -48 -201t-142 -154t-207 -98.5t-244 -32.5l-284 2v-336q0 -39 -14.5 -68.5t-41.5 -49.5t-60.5 -29.5t-74.5 -9.5q-43 0 -76.5 9t-62.5 30 q-27 20 -40 48.5t-13 67.5zM498 754h262q7 0 14 -1q51 0 93 14q48 15 85 46q35 31 53.5 71t18.5 85q0 47 -18.5 85t-53.5 68q-37 31 -85 47.5t-107 16.5l-262 2v-434z" />
<glyph unicode="Q" horiz-adv-x="1847" d="M43 727q0 160 60.5 294t183.5 243t281.5 163t355.5 54q193 0 351.5 -55.5t280.5 -165.5q123 -111 185.5 -244t62.5 -289q0 -68 -11 -132.5t-32 -123.5q-23 -61 -54.5 -115.5t-74.5 -101.5l146 -98q0 -2 1 -3l3 -3h2q0 -2 1 -3.5t3 -1.5q8 -6 15 -12t16 -12q6 -8 13 -14.5 t13 -12.5q10 -14 16.5 -30.5t6.5 -34.5q0 -25 -13.5 -46.5t-39.5 -39.5q-27 -18 -55.5 -27.5t-59.5 -11.5h-4h-2h-2h-8h-7q-2 2 -5 2h-7q-4 0 -8 1t-8 1q-2 0 -4.5 1t-4.5 1q-14 2 -27.5 8t-29.5 12q-14 8 -30.5 17.5t-32.5 21.5v-2l-146 99q-47 -23 -99 -40.5t-108 -25.5 q-57 -10 -117.5 -16.5t-125.5 -6.5q-197 0 -354.5 53.5t-280.5 162.5t-184.5 241.5t-61.5 292.5zM442 727q0 -94 30 -176t87 -154q59 -70 150.5 -105.5t214.5 -35.5h20h23q10 0 20 1t21 3q20 2 39.5 5t39.5 5l-92 74q-8 4 -15 10t-13 15q-8 8 -11.5 16t-7.5 16v3v4 q-2 0 -2 1v3v7v5q0 29 12.5 55.5t34.5 46.5q23 23 55.5 34t71.5 11q14 0 27.5 -2t23.5 -6l13 -4l12 -4q4 -2 10 -4t13 -6v2l124 -80q16 29 26.5 59.5t19.5 63.5q8 35 12 68.5t4 68.5q0 90 -31 172t-90 154q-61 72 -151.5 108.5t-208.5 36.5q-121 0 -211 -36t-150 -107 q-61 -70 -91 -153t-30 -175z" />
<glyph unicode="R" horiz-adv-x="1423" d="M115 145v2v1151q0 35 12 65t39 50q25 23 61.5 33t83.5 10l451 2q147 -2 265 -29.5t202 -82.5t127 -143.5t43 -209.5q0 -84 -34 -150.5t-103 -115.5q-70 -49 -154 -79t-182 -42l436 -370q12 -12 22.5 -24.5t14.5 -23.5q6 -12 10 -23t4 -22q0 -31 -13.5 -57.5t-41.5 -50.5 q-27 -25 -61.5 -35t-75.5 -10h-9h-8q-4 2 -8 2h-8q-8 2 -15.5 3t-15.5 3q-2 0 -5 1t-7 1h-5q-3 0 -5 2l-13 4l-12 4q-10 6 -20.5 13.5t-18.5 15.5l-567 553h-6v-445q0 -39 -14.5 -68.5t-41.5 -49.5t-60.5 -29.5t-74.5 -9.5q-43 0 -76.5 9t-62.5 30q-27 20 -40 48.5t-13 67.5 zM498 813h264h16q44 0 79 9q42 11 77 36q33 25 49 58.5t16 76.5t-16 77t-49 56q-35 23 -77 35.5t-95 12.5l-264 2v-363z" />
<glyph unicode="S" horiz-adv-x="1374" d="M47 203q0 29 12.5 55.5t34.5 46.5q23 23 54.5 33t70.5 10q23 0 46.5 -3t47.5 -9q12 -2 24.5 -6t24.5 -6l13.5 -4.5l13.5 -4.5t13.5 -3t13.5 -3t13 -4t13 -4q20 -6 42 -11t44 -9q29 -6 59.5 -9.5t61.5 -3.5q63 0 112.5 12.5t82.5 36.5q33 25 50 57t17 70q0 35 -20.5 60.5 t-61.5 42.5q-43 16 -92 31.5t-108 29.5l-37 8q-18 4 -35 9l-37 8q-18 4 -37 10q-82 18 -155.5 48t-139.5 69q-68 39 -100.5 103.5t-32.5 152.5q0 109 47.5 192.5t143.5 147.5q94 61 204.5 93t239.5 32v2q20 -2 45 -3t56 -5q29 -2 59.5 -6.5t62.5 -10.5q53 -10 100.5 -25.5 t92.5 -37.5q41 -20 63.5 -51t22.5 -68q0 -31 -11.5 -57.5t-33.5 -49.5q-23 -23 -55.5 -34t-71.5 -11h-18q-9 0 -19 2q-10 0 -19.5 2t-17.5 5q-4 2 -9 3t-9 3q-4 0 -9.5 1t-11.5 3q-8 4 -17 7t-20 5q-20 6 -42.5 11t-45.5 10q-23 4 -48 7t-54 3q-41 0 -78 -9.5t-67 -25.5 q-33 -16 -48.5 -41t-15.5 -57q0 -27 16.5 -47.5t49.5 -36.5q33 -14 74.5 -27.5t90.5 -23.5q23 -6 46.5 -12.5t50.5 -12.5q12 -2 23.5 -5t23.5 -5q12 -4 25.5 -6.5t25.5 -6.5q82 -23 154.5 -56.5t140.5 -78.5q66 -45 99.5 -116.5t33.5 -169.5q0 -111 -49 -197t-146 -150 q-98 -63 -212.5 -94t-247.5 -31q-27 0 -56.5 1.5t-64.5 3.5q-16 2 -33.5 3t-36.5 3q-18 2 -35.5 4t-33.5 4q-70 8 -131.5 23.5t-118.5 39.5q-57 25 -85 61t-28 83z" />
<glyph unicode="T" horiz-adv-x="1228" d="M-25 1309v2v4q0 27 10.5 51.5t28.5 44.5q23 23 54.5 34t74.5 11l942 2q41 -2 73 -13t54 -34q23 -20 35.5 -45t12.5 -51v-3v-3q-2 -27 -13.5 -49.5t-32.5 -45.5q-20 -20 -53 -30t-76 -10l-280 2v-1029q0 -39 -14.5 -68.5t-40.5 -49.5q-27 -20 -61 -29.5t-75 -9.5 q-43 0 -76.5 9t-62.5 30q-27 20 -40 48.5t-13 67.5v2v1029h-279q-8 0 -14 -1q-36 0 -64 9q-34 10 -53 30q-14 23 -24.5 45.5t-12.5 49.5z" />
<glyph unicode="U" horiz-adv-x="1753" d="M98 578v2v731q0 37 14.5 66.5t41.5 49.5t61.5 30.5t75.5 10.5t74.5 -10t60.5 -31q29 -20 43 -49.5t14 -68.5v-713q0 -72 26 -132.5t79 -109.5t124.5 -73.5t164.5 -24.5q88 0 158.5 24.5t123.5 75.5t82 110.5t29 127.5v717q0 37 13 66.5t40 49.5t61.5 30.5t75.5 10.5 t76 -10t61 -31q27 -20 41.5 -49.5t14.5 -68.5v-729q0 -131 -57.5 -239t-172.5 -194t-252 -128t-294 -42q-162 0 -298.5 41t-250.5 127q-115 86 -172.5 194t-57.5 239z" />
<glyph unicode="V" horiz-adv-x="1515" d="M-4 1309v7v5q0 33 12 59.5t43 46.5q29 20 62.5 30.5t72.5 10.5q33 0 59.5 -7t47.5 -23q20 -14 36.5 -31.5t30.5 -38.5l398 -850l395 852q12 18 29.5 35.5t38.5 32.5q23 16 48 23t58 7q39 0 73 -10t64 -31q31 -20 46.5 -46.5t15.5 -59.5q0 -2 -1 -5t-1 -7q0 -2 -1 -5.5 t-1 -5.5v-5v-5q-2 -4 -2 -6v-4q-2 -4 -3 -8t-1 -8l-5 -9l-4 -8l-561 -1139q-14 -27 -30.5 -48t-34.5 -38q-20 -14 -51 -22t-72 -8q-43 0 -75 8t-52 22q-18 16 -34.5 38t-29.5 46v2l-561 1141q-2 4 -4 7t-2 8v8v8v4q0 2 -2 6v5v5v6q0 3 -2 5z" />
<glyph unicode="W" horiz-adv-x="2324" d="M20 1304v9v9v11v1v3v3v3q2 23 15.5 44.5t38.5 42.5q23 18 55.5 28t71.5 10q47 0 81.5 -10t57.5 -31q23 -20 40 -45.5t26 -60.5l219 -868h4l334 897q10 27 28.5 48t44.5 38q27 16 57.5 24t67.5 8q35 0 67 -8t58 -24q29 -16 46.5 -38t29.5 -50l332 -895h6l217 870 q8 33 24.5 58.5t38.5 45.5q23 20 60 30.5t82 10.5q39 0 70.5 -10t56.5 -28q23 -20 37 -42t18 -45v-3v-3v-3v-1v-11v-9q0 -2 -1 -4t-1 -4q0 -4 -1 -6.5t-1 -4.5v-4v-2q-2 -2 -2 -4v-4q-2 -2 -3 -7t-1 -9l-326 -1117q-8 -33 -29.5 -61.5t-52.5 -50.5q-33 -25 -76 -35t-96 -10 q-47 0 -88 9t-76 30q-33 23 -55 48t-35 58l-297 793h-4l-297 -791q-12 -33 -34.5 -59.5t-57.5 -48.5q-35 -20 -75 -29.5t-87 -9.5q-53 0 -97 10t-75 35q-31 23 -51 50.5t-31 59.5v2l-323 1119q-2 2 -3 4t-1 4q-2 0 -2 2v4q0 2 -1 4t-1 4v2v4q-3 5 -3 10z" />
<glyph unicode="X" horiz-adv-x="1566" d="M10 129q0 14 2 27.5t8 25.5q4 12 11.5 23.5t15.5 19.5v4l1 1q1 1 3 1l1 1l1 4l506 544l-414 451q-8 10 -16 19.5t-14 21.5q-6 10 -8.5 22.5t-2.5 24.5q0 35 14.5 61.5t41.5 46.5q29 20 62.5 30.5t76.5 10.5h4h3h3h1h3q23 -2 44.5 -9t41.5 -17q18 -10 35 -22.5t31 -26.5 l317 -359l318 361q12 12 29.5 24.5t37.5 22.5q18 10 40 17t44 9h4h5h3h3q41 0 75.5 -10t63.5 -31q27 -20 41 -46.5t14 -61.5q0 -12 -3 -24.5t-7 -22.5q-4 -12 -12 -22.5t-19 -20.5l-413 -449l505 -544q0 -2 1 -4l1 -1q0 -2 1 -2l2 -1q0 -1 2 -1v-2q8 -8 14 -19t10 -24 q6 -12 10 -25.5t4 -27.5q0 -33 -14 -58.5t-43 -43.5q-27 -20 -61.5 -28.5t-75.5 -8.5q-27 0 -50.5 4t-41.5 10q-20 8 -36.5 20.5t-31.5 28.5l-420 469l-420 -467q-14 -18 -31.5 -30.5t-37.5 -20.5q-18 -6 -41 -10t-47 -4q-43 0 -79 8t-63 29q-27 18 -40 43.5t-13 58.5z" />
<glyph unicode="Y" horiz-adv-x="1372" d="M-20 1319q0 31 12 57.5t35 46.5q27 23 59.5 34t71.5 11q25 0 48 -4t44 -12q20 -8 36.5 -19.5t30.5 -25.5l369 -426l369 428q10 12 27.5 23.5t37.5 19.5q23 8 45.5 12t46.5 4q41 0 74 -11t60 -34q25 -20 38 -46.5t13 -57.5q0 -12 -3 -24.5t-8 -24.5q-2 -12 -9 -22.5 t-15 -20.5l-485 -543v-547q0 -31 -11.5 -56.5t-34.5 -47.5q-23 -23 -59.5 -33t-85.5 -10q-51 0 -89 10t-60 33q-23 23 -33 48t-10 54v2v547l-484 545q-8 10 -12 19t-8 22q0 4 -1 7t-3 5q-2 10 -4 19.5t-2 17.5z" />
<glyph unicode="Z" horiz-adv-x="1517" d="M55 145q0 16 2 32t11 30q6 16 15 29.5t23 27.5l826 924h-674q-8 0 -15 -1q-30 0 -56 7q-32 8 -58 25q-27 16 -39 40.5t-12 57.5q0 29 14 53.5t41 44.5t57.5 30.5t67.5 10.5l936 2q53 -2 92 -12t66 -33q27 -20 41 -45t16 -49v-3v-3v-3v-1v-4v-5q-2 -4 -2 -6v-4v-5v-5 q-2 -2 -2 -4v-4q-2 -4 -3 -7t-1 -8q-4 -8 -7 -17t-10 -19l-15 -22.5t-15 -20.5l-819 -908h741q41 -2 73.5 -11t59.5 -26q27 -18 39 -42.5t12 -57.5q0 -29 -14 -53.5t-43 -42.5t-60.5 -27.5t-66.5 -9.5h-1006q-51 0 -91 10t-66 31q-29 20 -43.5 45.5t-14.5 58.5z" />
<glyph unicode="[" horiz-adv-x="710" d="M113 -166v-2v1503q0 33 12 58.5t39 46.5q25 20 58.5 30.5t76.5 10.5l256 2q27 -2 51.5 -9.5t42.5 -19.5q20 -14 30.5 -36.5t10.5 -53.5q0 -33 -10 -55.5t-31 -34.5q-18 -14 -42.5 -20.5t-51.5 -6.5l-121 2v-1331h121q27 2 51.5 -4t42.5 -20q20 -12 30.5 -35t10.5 -56 q0 -31 -10 -53t-31 -37q-18 -12 -42.5 -19t-51.5 -7l-256 -2q-43 2 -77 12t-58 31q-27 20 -39 45.5t-12 60.5z" />
<glyph unicode="\" horiz-adv-x="1040" d="M20 1368q0 23 10.5 43.5t32.5 36.5q23 16 48.5 24.5t58.5 8.5q31 0 54.5 -5.5t37.5 -15.5q16 -10 29.5 -24.5t21.5 -30.5v2l684 -1262l7.5 -15t5.5 -13q2 -2 3 -5t3 -6q2 -8 3 -13t1 -7q0 -25 -11.5 -44t-33.5 -36q-23 -12 -50.5 -20.5t-58.5 -8.5t-53 5.5t-39 15.5 q-14 8 -26.5 21.5t-20.5 29.5l-686 1264q-6 10 -10 18t-6 17q-2 8 -3.5 13t-1.5 7z" />
<glyph unicode="]" horiz-adv-x="710" d="M20 -197q0 33 9.5 55.5t27.5 35.5q20 14 45 20t54 6l120 -2v1331h-120q-29 -2 -53.5 4.5t-45.5 20.5q-18 12 -27.5 34.5t-9.5 55.5q0 31 9.5 53.5t27.5 36.5q20 12 45 19.5t54 7.5l256 2q41 -2 74.5 -12.5t60.5 -30.5q25 -20 38 -46t13 -61v2v-1503q0 -33 -13.5 -58.5 t-37.5 -45.5q-27 -20 -60.5 -30.5t-74.5 -10.5l-256 -2q-29 2 -53.5 9t-45.5 19q-18 14 -27.5 36.5t-9.5 53.5z" />
<glyph unicode="^" horiz-adv-x="1536" d="M186 725q0 10 2 19.5t7 19.5q4 10 10 20.5t14 22.5l412 602q8 12 21.5 22.5t27.5 18.5q16 6 31.5 10t31.5 6h3q1 0 4 2h4h4h4h2h4h4h6h2h2h2q0 -2 2 -2h5q8 0 16 -2l16 -4q6 -2 14.5 -4t16.5 -6q16 -8 28.5 -18.5t20.5 -24.5l412 -598q8 -12 14 -23.5t8 -21.5 q4 -10 7.5 -19.5t3.5 -19.5q0 -20 -9.5 -35.5t-27.5 -25.5q-20 -10 -43 -15.5t-49 -5.5q-23 0 -42.5 2t-35.5 6q-14 4 -28.5 13.5t-25.5 23.5l-319 475l-322 -473q-10 -14 -23 -24.5t-30 -14.5q-14 -4 -33.5 -6t-42.5 -2q-27 0 -50 5t-42 16q-20 10 -29.5 25.5t-9.5 35.5z " />
<glyph unicode="_" horiz-adv-x="1280" d="M-70 -203q0 12 6.5 22.5t18.5 16.5q10 6 22.5 9t22.5 3l1280 -2q12 2 21.5 0t17.5 -4q4 -2 7 -3t5 -3q10 -6 16.5 -16t6.5 -23q0 -12 -6.5 -21t-16.5 -16q-2 -2 -5 -3t-7 -3q-8 -4 -17.5 -6t-21.5 -2v-2h-1280q-10 2 -22.5 6t-22.5 10q-12 6 -18.5 15.5t-6.5 21.5z" />
<glyph unicode="`" horiz-adv-x="567" d="M-25 1454v4v4q2 2 2 4v4v5v4q2 2 3 4v4q8 16 17 32.5t28 30.5q16 16 37.5 23.5t43.5 7.5q6 0 13.5 -1t15.5 -1q4 -2 7 -2t8 -2q12 -2 26 -6l29 -8v2l301 -99l20 -8q14 -8 25.5 -15t21.5 -18q4 -4 8.5 -9t6.5 -9q4 -6 6 -11t2 -10v-3q0 -1 2 -1v-3v-4v-5v-4v-4v-4 q-2 -25 -14.5 -47.5t-30.5 -44.5q-20 -20 -42 -30.5t-48 -10.5h-16h-11h-2h-2q-2 0 -4 1t-4 1t-8 2l-13 4q-8 2 -17 5t-26 7l-286 92q-27 6 -46.5 17.5t-27.5 25.5q-10 16 -17.5 34.5t-7.5 41.5z" />
<glyph unicode="a" d="M51 541q0 121 44 223t132 184t198 123t234 41q51 0 100.5 -8t94.5 -25q47 -16 86 -41.5t70 -60.5q4 27 18 48.5t41 39.5q25 16 54.5 25.5t64.5 9.5q47 0 79.5 -10.5t49.5 -30.5q18 -20 29.5 -42t15.5 -44v-9q0 -5 2 -10v-8v-8v-16v-15v2v-729v-16v-17v-8v-8q-2 -6 -2 -10 v-8q-4 -25 -15.5 -46.5t-29.5 -39.5q-16 -20 -49 -28.5t-80 -8.5q-41 0 -69.5 8t-49.5 22q-18 16 -33.5 39t-25.5 52q-35 -33 -76 -59.5t-82 -43.5q-45 -14 -92 -22.5t-101 -8.5q-131 0 -238.5 38t-195.5 118t-131 181.5t-43 226.5zM420 513q0 -5 2 -9q4 -49 24.5 -93 t55.5 -85t87 -61.5t122 -20.5q66 0 117 20.5t85 61.5q35 41 54.5 85t25.5 93v4q0 2 2 6v4v4v9v10v4v6q-2 2 -2 5v5v12v13q-8 47 -27.5 92t-54.5 84q-35 41 -85 60.5t-115 19.5q-70 0 -121 -19.5t-86 -60.5q-35 -39 -55.5 -84t-26.5 -92v-5v-8q-2 -2 -2 -5v-7v-11v-9v2v-12 v-9v-9z" />
<glyph unicode="b" d="M104 150v2v1261q0 35 12.5 64.5t39.5 52.5t60.5 34t72.5 11q41 0 73.5 -11.5t59.5 -33.5q25 -23 38 -52.5t13 -66.5v-399q37 25 78 43t86 30q47 12 93 19.5t93 7.5q143 0 252 -44t185 -130q72 -86 111.5 -181t45.5 -200v-4v-2v-4v-4v-4v-2v-5v-4q0 -104 -41 -199.5 t-123 -181.5t-192.5 -128t-249.5 -42h-9h-9q-6 2 -12 3h-9h-9h-9q-4 2 -9 2h-8q-41 6 -78.5 16t-72.5 25q-37 16 -65.5 37.5t-47.5 48.5q-8 -29 -24.5 -51.5t-38.5 -39.5q-23 -14 -52.5 -21t-68.5 -7t-73 10t-60 31q-27 23 -39.5 52.5t-12.5 66.5zM473 521q0 -3 2 -7v-5v-7 q6 -49 27.5 -93t54.5 -85q35 -39 85 -59.5t120 -20.5q61 0 111.5 18.5t82.5 56.5q35 39 57.5 82t30.5 88v8q0 3 3 5v7v5v7q0 3 2 7v7v6v7v5q-2 4 -2 7v5v7v8q-2 2 -3 6v6q-8 47 -30.5 90t-57.5 82q-33 39 -83 58.5t-111 19.5q-72 0 -126 -22.5t-89 -65.5 q-33 -43 -52.5 -90.5t-21.5 -100.5v-4v-4v-3v-1v2v-14v-13v-5z" />
<glyph unicode="c" horiz-adv-x="1183" d="M51 541q0 113 46 212t139 185q92 86 210.5 130t264.5 44q20 0 40.5 -1t47.5 -3q23 -2 47 -6t51 -8q51 -8 96 -22.5t86 -35.5q41 -20 61.5 -47.5t20.5 -62.5v2v-5v-5q-2 -4 -2 -7v-4v-4v-4q-2 -4 -2 -6v-4q-8 -20 -20.5 -37.5t-28.5 -34.5q-16 -16 -37.5 -24.5t-50.5 -8.5 h-15q-7 0 -16 2q-8 0 -15 2.5t-16 4.5q-8 2 -17 4t-19 4q-10 4 -19.5 7t-17.5 5q-18 4 -37 9t-37 9q-20 4 -39.5 7.5t-42.5 3.5q-78 0 -136 -23.5t-97 -70.5q-39 -45 -57.5 -97.5t-18.5 -109.5v-4v-5v-4v-4q4 -53 25.5 -102t60.5 -92t94 -64.5t129 -21.5q10 0 22.5 1t26.5 3 q10 2 23.5 5t27.5 7h8q3 0 7 2q2 0 5 1t7 3q6 2 13.5 4t15.5 4q20 6 37.5 11.5t31.5 9.5l29 7q12 3 21 3q33 0 61.5 -10t50.5 -29q23 -18 34 -40.5t11 -49.5q0 -37 -20.5 -64.5t-59.5 -50.5q-39 -20 -83 -36.5t-91 -24.5q-27 -6 -54.5 -10t-53.5 -6q-27 -4 -49.5 -5.5 t-38.5 -1.5q-150 0 -269.5 41t-210.5 125q-92 84 -136 183.5t-44 214.5z" />
<glyph unicode="d" d="M51 528v4v5v2v4v4v4v2v4q4 104 43 199.5t115 181.5q74 86 183.5 130t252.5 44q47 0 94 -7t92 -20q47 -12 87 -31.5t77 -43.5v403q0 35 12.5 64.5t39.5 52.5t60.5 34t72.5 11q41 0 73.5 -11.5t59.5 -33.5q25 -23 38 -52.5t13 -66.5v2v-1261q0 -39 -13.5 -69t-37.5 -52 q-27 -20 -59.5 -30.5t-73.5 -10.5q-39 0 -70 7t-53 21q-23 16 -38 39t-24 52q-20 -27 -48.5 -48.5t-63.5 -37.5q-37 -14 -75 -24.5t-77 -16.5h-9q-5 0 -9 -2h-10h-11h-9q-5 0 -9 -3h-8h-9q-139 0 -250.5 42t-191.5 128q-82 86 -123 181.5t-41 199.5zM420 514q0 -6 1 -12 t3 -13q8 -45 29.5 -88t54.5 -82q35 -39 85 -57t114 -18q66 0 118 20.5t86 59.5q35 41 54.5 85t27.5 93v12v12v8q0 3 2 5v7v5v2v2v4v4q-4 53 -23.5 100.5t-53.5 90.5q-33 43 -86.5 65.5t-124.5 22.5q-63 0 -113.5 -19.5t-85.5 -58.5q-33 -39 -54.5 -82t-29.5 -90q0 -2 -1 -6 t-1 -6q-2 -4 -2 -8v-7v-12v-12v-6v-7v-7v-7z" />
<glyph unicode="e" horiz-adv-x="1374" d="M25 541q0 113 46 212t138 185t212 130t265 44q127 0 234.5 -35t195.5 -102q86 -68 141.5 -142.5t77.5 -156.5q0 -6 1 -12.5t3 -12.5q2 -8 3 -14t1 -12q2 -12 3.5 -24.5t1.5 -25.5q0 -33 -9.5 -57t-27.5 -41q-20 -16 -51 -24.5t-72 -8.5v2h-787q10 -55 40 -96t81 -67 q49 -27 105.5 -39.5t122.5 -12.5q35 0 67.5 5.5t63.5 13.5q23 6 44 13t42 16q6 4 13 7t13 5q25 10 48.5 21.5t45.5 19.5q14 6 27.5 10t26.5 6q6 2 13 2h13q29 0 55.5 -10t49.5 -31q23 -20 34 -41.5t11 -44.5q0 -41 -38 -79t-112 -72q-76 -35 -159.5 -56.5t-173.5 -31.5 q-14 0 -30 -1t-32 -3h-15q-7 0 -14 -3h-14h-12q-156 0 -281 39t-221 119t-143 181.5t-47 224.5zM393 641v2h586q-8 47 -30.5 86t-61.5 72t-88 49t-113 16q-61 0 -112.5 -16t-90.5 -49t-61.5 -73t-28.5 -87z" />
<glyph unicode="f" horiz-adv-x="757" d="M-49 958q0 29 12 51.5t35 41.5q18 18 47 27t61 9l82 3v151q0 80 28 142.5t81 105.5t124 64.5t154 21.5q47 0 92.5 -7t84.5 -22q39 -14 59 -39.5t20 -64.5q0 -33 -9 -55.5t-29 -38.5q-18 -14 -46 -22.5t-67 -8.5q-23 0 -44.5 -4t-39.5 -10q-20 -6 -29.5 -30t-9.5 -65v-118 h115q41 -2 73.5 -9.5t59.5 -21.5q29 -14 42 -40t13 -61t-13 -59.5t-42 -40.5q-27 -14 -59.5 -21.5t-73.5 -7.5l-115 2v-679q0 -39 -13.5 -69t-37.5 -52q-27 -20 -59.5 -30.5t-73.5 -10.5q-39 0 -72 10t-61 31q-27 23 -39.5 52.5t-12.5 66.5v2v679h-82h-15q-29 0 -52 7 q-29 8 -43 26q-23 16 -34 39.5t-11 54.5z" />
<glyph unicode="g" d="M51 539q0 111 41 210t123 187q80 88 191.5 132t250.5 44h9h8q4 -2 9 -2h9h11h10q4 -2 9 -2h9q39 -6 77 -17.5t75 -27.5q35 -14 63.5 -35.5t48.5 -50.5q8 29 23.5 52.5t38.5 37.5q23 16 53.5 24.5t69.5 8.5q41 0 73.5 -11.5t59.5 -33.5q25 -23 38 -52.5t13 -66.5v2v-852 q0 -131 -50 -230.5t-147 -166.5q-100 -66 -227 -99.5t-285 -33.5q-23 0 -52.5 2t-63.5 6q-35 2 -72 8t-76 14q-61 12 -115.5 30.5t-105.5 41.5q-49 23 -72.5 52.5t-23.5 66.5v9q0 5 2 9q0 4 2 8l4 9q8 16 19.5 31.5t31.5 29.5q16 14 35.5 21.5t40.5 11.5h2h4h3h3 q23 0 45.5 -3t44.5 -12q23 -6 50.5 -15t54.5 -17q29 -8 58.5 -15.5t62.5 -15.5q33 -6 69.5 -10t75.5 -4q68 0 123 15t100 46t67.5 73t22.5 95v72h-6q-27 -35 -64.5 -61.5t-84.5 -43.5q-45 -14 -101.5 -23.5t-120.5 -9.5q-145 0 -252.5 42t-177.5 128t-103.5 183.5 t-33.5 208.5zM420 545q0 -59 17.5 -111.5t54.5 -99.5q35 -45 88 -67.5t127 -22.5q72 0 125 21.5t86 64.5q35 43 54 92t23 100v3v3v3v4v2v5v5q-2 4 -2 7v5v12v13q-8 47 -27.5 92t-54.5 84q-35 41 -87 61.5t-117 20.5q-63 0 -113.5 -19.5t-85.5 -58.5q-33 -39 -54.5 -80 t-29.5 -88q0 -2 -1 -6t-1 -6q-2 -4 -2 -7v-8v-12v-12z" />
<glyph unicode="h" horiz-adv-x="1423" d="M104 150v2v1261q0 35 12.5 64.5t39.5 52.5t60.5 34t72.5 11q41 0 73.5 -11.5t59.5 -33.5q25 -23 38 -52.5t13 -66.5v-399h4q20 18 45 33.5t56 27.5q31 10 62.5 18.5t66.5 12.5q12 2 25 3t28 3h13q7 0 13 2h14h13q109 0 199 -25.5t162 -78.5q72 -51 107.5 -125t35.5 -168 v-563q0 -39 -12.5 -69t-38.5 -52q-27 -20 -59.5 -30.5t-73.5 -10.5q-39 0 -72 10t-62 31q-27 23 -39 52.5t-12 66.5v516q0 49 -18.5 87t-52.5 62q-33 25 -76 38t-92 13q-57 0 -100.5 -15t-73.5 -44q-31 -29 -46.5 -64.5t-15.5 -78.5v-512q0 -39 -13.5 -69t-37.5 -52 q-27 -20 -59.5 -30.5t-73.5 -10.5q-39 0 -73 10t-60 31q-27 23 -39.5 52.5t-12.5 66.5z" />
<glyph unicode="i" horiz-adv-x="567" d="M76 1380q0 31 15 59.5t46 53.5t68 37t78 12v2q41 -2 76.5 -14t66.5 -37t48.5 -52.5t17.5 -60.5q0 -35 -15.5 -65.5t-46.5 -54.5q-31 -25 -67.5 -37.5t-79.5 -12.5q-41 0 -78 12.5t-68 39.5q-31 25 -46 55t-15 63zM98 150v2v786q0 35 12.5 64.5t39.5 52.5q29 23 61.5 34 t71.5 11q41 0 73.5 -11.5t59.5 -33.5q27 -23 39 -52.5t12 -66.5v-784q0 -39 -12.5 -69t-38.5 -52q-27 -20 -59.5 -30.5t-73.5 -10.5q-39 0 -72 10t-61 31q-27 23 -39.5 52.5t-12.5 66.5z" />
<glyph unicode="j" horiz-adv-x="567" d="M76 1380q0 31 15 59.5t46 53.5t68 37t78 12v2q41 -2 76.5 -14t66.5 -37t48.5 -52.5t17.5 -60.5q0 -35 -15.5 -65.5t-46.5 -54.5q-31 -25 -67.5 -37.5t-79.5 -12.5q-41 0 -78 12.5t-68 39.5q-31 25 -46 55t-15 63zM98 -281v-2v1221q0 35 12.5 64.5t39.5 52.5 q29 23 61.5 34t71.5 11q41 0 73.5 -11.5t59.5 -33.5q27 -23 39 -52.5t12 -66.5v-1219q0 -35 -12.5 -64.5t-38.5 -51.5q-27 -23 -59.5 -34t-73.5 -11q-39 0 -72 11t-61 34q-27 23 -39.5 52t-12.5 66z" />
<glyph unicode="k" horiz-adv-x="1280" d="M104 150v2v1261q0 35 12.5 64.5t39.5 52.5t60.5 34t72.5 11q41 0 73.5 -11.5t59.5 -33.5q25 -23 38 -52.5t13 -66.5v-686l404 313q23 16 44 27.5t44 19.5q14 4 27.5 7.5t25.5 5.5q6 2 13 2h13q33 0 59.5 -10.5t49.5 -30.5t34 -42t13 -44v-3v-1v-2q0 -10 -2 -20.5 t-6 -20.5q-2 -8 -7 -17.5t-14 -19.5l-11 -11l-9 -10q-2 -2 -5 -4t-5 -4l-6 -6q-2 -2 -7 -4l-327 -232l432 -405l8 -8q4 -4 6 -8l7 -10.5t6 -8.5l4 -8l4 -8q0 -4 2 -8l4 -9v-4q0 -2 2 -4v-4v-4q0 -2 1 -4t1 -4t1 -4t1 -4q0 -29 -13.5 -53.5t-37.5 -45.5q-27 -16 -57.5 -26.5 t-65.5 -10.5q-18 0 -33.5 3.5t-32.5 7.5q-10 4 -19 8t-17 8q-4 2 -9.5 5t-9.5 5t-7 5.5t-7 5.5l-7 7q-3 3 -8 5l-7 7q-3 3 -7 5l-7 7l-7 7l-451 447h-4v-358q0 -39 -13.5 -69t-37.5 -52q-27 -20 -59.5 -30.5t-73.5 -10.5q-39 0 -73 10t-60 31q-27 23 -39.5 52.5t-12.5 66.5z " />
<glyph unicode="l" horiz-adv-x="567" d="M98 150v2v1261q0 35 12.5 64.5t39.5 52.5q29 23 61.5 34t71.5 11q41 0 73.5 -11.5t59.5 -33.5q27 -23 39 -52.5t12 -66.5v-1259q0 -39 -12.5 -69t-38.5 -52q-27 -20 -59.5 -30.5t-73.5 -10.5q-39 0 -72 10t-61 31q-27 23 -39.5 52.5t-12.5 66.5z" />
<glyph unicode="m" horiz-adv-x="2181" d="M104 150v2v786q0 35 12.5 64.5t39.5 52.5t60.5 34t72.5 11q35 0 63.5 -7.5t50.5 -21.5q23 -14 36.5 -34.5t17.5 -47.5q35 29 72.5 52.5t80.5 37.5q43 16 91.5 24.5t99.5 8.5q57 0 109.5 -10t103.5 -29q47 -18 89 -46t79 -64q23 23 51.5 41t58.5 34q31 16 61.5 29.5 t63.5 22.5q20 4 40 9t40 7q18 4 36.5 5t37.5 1q113 0 204 -25.5t160 -76.5q70 -51 105 -125t35 -170v-563q0 -39 -12.5 -69t-39.5 -52q-27 -20 -59.5 -30.5t-73.5 -10.5q-39 0 -71.5 10t-61.5 31q-27 23 -39 52.5t-12 66.5v516q0 43 -14.5 79.5t-42.5 63.5q-29 29 -68 43 t-90 14t-91 -14t-69 -43q-29 -27 -43 -63.5t-14 -81.5v-512q0 -39 -13.5 -69t-37.5 -52q-27 -20 -60 -30.5t-73 -10.5q-39 0 -72 10t-62 31q-27 23 -39 52.5t-12 66.5v516q0 43 -15.5 79.5t-43.5 63.5q-27 29 -66 43t-90 14q-57 0 -98 -14t-68 -43q-27 -27 -39 -63.5 t-12 -81.5v-512q0 -39 -13.5 -69t-37.5 -52q-27 -20 -59.5 -30.5t-73.5 -10.5q-39 0 -73 10t-60 31q-27 23 -39.5 52.5t-12.5 66.5z" />
<glyph unicode="n" horiz-adv-x="1423" d="M104 150v2v786q0 35 12.5 64.5t39.5 52.5t60.5 34t72.5 11q35 0 63.5 -7.5t50.5 -21.5q23 -14 36.5 -34.5t17.5 -45.5q29 29 62.5 52.5t76.5 37.5q41 16 97.5 23.5t119.5 7.5q109 0 199 -25.5t162 -78.5q72 -51 107.5 -125t35.5 -168v-563q0 -39 -12.5 -69t-38.5 -52 q-27 -20 -59.5 -30.5t-73.5 -10.5q-39 0 -72 10t-62 31q-27 23 -39 52.5t-12 66.5v516q0 49 -18.5 87t-52.5 62q-33 25 -76 38t-92 13q-57 0 -100.5 -15t-73.5 -44q-31 -29 -46.5 -64.5t-15.5 -78.5v-512q0 -39 -13.5 -69t-37.5 -52q-27 -20 -59.5 -30.5t-73.5 -10.5 q-39 0 -73 10t-60 31q-27 23 -39.5 52.5t-12.5 66.5z" />
<glyph unicode="o" horiz-adv-x="1423" d="M51 541q0 113 46 212t139 185q92 86 210.5 130t264.5 44v2q145 -2 265 -46t212 -130t138 -185.5t46 -211.5q0 -115 -46 -214.5t-136 -183.5q-92 -84 -212 -125t-267 -41q-150 0 -269.5 41t-210.5 125q-92 84 -136 183.5t-44 214.5zM420 513q0 -5 2 -9q4 -49 24.5 -93 t55.5 -85t87 -61.5t122 -20.5t122 20.5t85 61.5q35 41 56 85t25 93q0 2 1 4t1 6q0 2 1.5 4t1.5 4v9v10q0 2 -1.5 4t-1.5 6q0 2 -1 5t-1 5v12v13q-8 47 -28.5 92t-55.5 84q-33 41 -85 60.5t-119 19.5v2q-70 -2 -121 -21.5t-86 -60.5q-35 -39 -55.5 -84t-26.5 -92v-5v-8 q-2 -2 -2 -5v-7v-11v-9v-10v-9v-9z" />
<glyph unicode="p" d="M104 -281v-2v1221q0 35 12.5 64.5t39.5 52.5t60.5 34t72.5 11t68.5 -8.5t52.5 -24.5q23 -14 39 -37.5t24 -52.5q23 31 57.5 55.5t79.5 40.5t91.5 26.5t97.5 12.5h4h6h4h4h2h4q143 0 252 -44t185 -130q72 -86 111.5 -181t45.5 -200v-4v-2v-4v-4v-4v-2v-5v-4 q0 -104 -41 -199.5t-123 -181.5t-192.5 -128t-249.5 -42h-12h-11q-6 2 -12 3h-12q-6 0 -11 1t-12 1q-6 2 -12 3t-12 1l-66 12q-33 6 -63 18q-31 10 -59.5 25.5t-55.5 34.5v-359q0 -35 -13.5 -64.5t-37.5 -51.5q-27 -23 -59.5 -34t-73.5 -11q-39 0 -73 11t-60 34 q-27 23 -39.5 52t-12.5 66zM473 521q0 -3 2 -7v-5v-7q6 -49 27.5 -93t54.5 -85q35 -39 85 -59.5t120 -20.5q61 0 111.5 18.5t82.5 56.5q35 39 57.5 82t30.5 88v8q0 3 3 5v7v5v7q0 3 2 7v7v6v7v5q-2 4 -2 7v5v7v8q-2 2 -3 6v6q-8 47 -30.5 90t-57.5 82q-33 39 -83 58.5 t-111 19.5q-72 0 -126 -22.5t-89 -65.5q-33 -43 -52.5 -90.5t-21.5 -100.5v-4v-4v-3v-1v2v-14v-13v-5z" />
<glyph unicode="q" d="M51 528v4v5v2v4v4v4v2v4q4 104 43 199.5t115 181.5q74 86 183.5 130t252.5 44h2h2h4h4h8h5q47 -2 94 -12t92 -27q45 -16 80 -40.5t59 -55.5q8 29 23.5 52.5t38.5 37.5q23 16 53.5 24.5t69.5 8.5q41 0 73.5 -11.5t59.5 -33.5q25 -23 38 -52.5t13 -66.5v2v-1221 q0 -35 -13.5 -64.5t-37.5 -51.5q-27 -23 -59.5 -34t-73.5 -11q-39 0 -73 11t-60 34q-27 23 -39.5 52.5t-12.5 65.5v359q-27 -20 -57.5 -35.5t-60.5 -26.5q-14 -6 -31 -11t-31 -7q-16 -2 -31.5 -6t-31.5 -6q-8 -2 -16.5 -2t-16.5 -2q-4 0 -8 -1t-9 -1h-11q-5 0 -11 -3h-11 h-12q-139 0 -250.5 42t-191.5 128q-82 86 -123 181.5t-41 199.5zM420 514q0 -6 1 -12t3 -13q8 -45 29.5 -88t54.5 -82q35 -39 85 -57t114 -18q66 0 118 20.5t86 59.5q35 41 54.5 85t27.5 93v12v12v8q0 3 2 5v7v5v2v2v4v4q-4 53 -23.5 100.5t-53.5 90.5q-33 43 -86.5 65.5 t-124.5 22.5q-63 0 -113.5 -19.5t-85.5 -58.5q-33 -39 -54.5 -82t-29.5 -90q0 -2 -1 -6t-1 -6q-2 -4 -2 -8v-7v-12v-12v-6v-7v-7v-7z" />
<glyph unicode="r" horiz-adv-x="851" d="M98 150v2v802q0 35 14.5 60.5t41.5 44.5q27 18 57.5 28.5t64.5 12.5h2h3h1h3h3h1q37 0 67.5 -7.5t57.5 -19.5q29 -12 41 -36.5t12 -59.5l6 2q25 29 52.5 52.5t58.5 37.5q31 16 66.5 23.5t80.5 7.5q33 0 63.5 -10.5t59.5 -28.5q29 -20 43 -49t14 -70q0 -27 -10 -45 t-29 -31q-20 -12 -42.5 -21t-49.5 -18q-6 -2 -11 -4t-11 -2q-2 -2 -3 -2t-3 -2q-4 0 -7.5 -1t-7.5 -3l-12 -4q-6 -2 -10 -2l-13 -4l-12 -4h-1l-3 -2h-1h-2h-1q-39 -14 -76 -33t-71 -37q-35 -20 -51.5 -51t-16.5 -74v-450q0 -39 -12.5 -69t-38.5 -52q-27 -20 -59.5 -30.5 t-73.5 -10.5q-39 0 -72 10t-61 31q-27 23 -39.5 52.5t-12.5 66.5z" />
<glyph unicode="s" horiz-adv-x="1089" d="M25 201v10q0 6 2 14q2 4 3 7.5t3 7.5q2 2 5 6t5 6q8 16 21.5 29.5t31.5 25.5q16 12 39 18.5t49 6.5q16 0 31.5 -2t30.5 -4q6 -2 11 -3t9 -4q16 -6 33.5 -12t34.5 -14q2 0 4 -1t4 -1q0 -2 2 -3t4 -1t4 -1t4 -1q0 -2 2 -2h4q20 -10 43 -19.5t48 -17.5q23 -8 51 -11.5 t61 -3.5q41 0 71 5.5t44 15.5q16 10 23.5 26.5t7.5 36.5q0 16 -10.5 28.5t-30.5 23.5q-18 10 -44 21t-57 22q-18 6 -40.5 12t-45.5 14q-23 6 -46 13.5t-46 15.5q-61 20 -115.5 48t-105.5 60q-49 35 -73.5 83.5t-24.5 111.5q0 78 34.5 139.5t104.5 108.5t160 71.5t198 24.5 q18 0 37 -1t39 -3q18 -2 37.5 -4t40.5 -6q59 -8 111.5 -26.5t99.5 -43.5t71.5 -56.5t24.5 -72.5v2q0 -27 -10 -50.5t-33 -43.5q-20 -20 -47 -29.5t-59 -9.5q-14 0 -29.5 3t-36.5 9q-18 6 -38.5 14.5t-43.5 16.5l-12 4l-12 4q-8 2 -15 4l-12 4l-12 4l-13 5q-8 2 -14 4l-12 4 q-6 0 -11.5 1t-9.5 3q-4 0 -9 1t-11 1t-11.5 1t-9.5 1q-4 2 -9 2h-11q-25 0 -46.5 -5t-39.5 -15q-20 -8 -29.5 -23.5t-9.5 -38.5q0 -14 10 -28.5t31 -24.5q20 -12 46 -22.5t56 -20.5q10 -2 20.5 -6t20.5 -6q10 -4 20.5 -7.5l22.5 -7.5q23 -6 46.5 -13t45.5 -15 q59 -20 114.5 -47t107.5 -62q49 -33 74.5 -81t25.5 -112q0 -74 -36 -135t-107 -110q-74 -49 -168.5 -73t-214.5 -24q-18 0 -39 1.5t-43 3.5q-10 2 -20.5 3t-20.5 3t-20.5 3t-20.5 3q-66 8 -127.5 28.5t-114.5 47.5q-53 29 -80.5 60.5t-27.5 70.5z" />
<glyph unicode="t" horiz-adv-x="757" d="M-43 958q0 29 11.5 51.5t31.5 41.5q20 18 49 27t64 9l82 3v176q0 35 12 64.5t39 51.5q27 23 59.5 34t73.5 11t73.5 -11t59.5 -34q25 -23 38 -52.5t13 -65.5v-174h105q35 -2 65.5 -9.5t57.5 -21.5t40 -40t13 -61t-13.5 -59.5t-39.5 -40.5q-27 -14 -58 -21.5t-65 -7.5 l-105 2v-679q0 -39 -13 -69t-38 -52q-27 -20 -59.5 -30.5t-73.5 -10.5t-74 10t-59 31q-27 23 -39 52.5t-12 66.5v2v679h-82h-16q-29 0 -52 7q-29 8 -45 26q-23 16 -33 39.5t-10 54.5z" />
<glyph unicode="u" horiz-adv-x="1423" d="M104 403v3v532q0 35 12.5 64.5t39.5 52.5t60.5 34t72.5 11q41 0 73.5 -11.5t59.5 -33.5q25 -23 38 -52.5t13 -66.5v-524q0 -47 17.5 -83t54.5 -61t79 -37t87 -12q47 0 87 12.5t76 36.5q37 25 55.5 61t18.5 81v528q0 35 12.5 64.5t38.5 52.5q29 23 62 34t72 11 q41 0 73.5 -11.5t59.5 -33.5q27 -23 39 -52.5t12 -66.5v-530q0 -100 -40 -178t-118 -138q-78 -57 -190.5 -85t-257.5 -28t-259 28t-192 85q-78 59 -117 137t-39 176z" />
<glyph unicode="v" horiz-adv-x="1181" d="M0 940v4v4v4v4q0 35 13.5 61.5t41.5 45.5q29 18 62 27.5t71 9.5q31 0 54.5 -6.5t44.5 -18.5q16 -12 30.5 -25.5t22.5 -27.5v-4q0 -2 2 -2q0 -2 1 -4t1 -4q4 -2 5 -5.5t3 -7.5l236 -579h6l235 581q0 2 1 5.5t4 5.5q0 2 1 4t3 4q2 0 3 2t1 4q8 14 21.5 27.5t31.5 25.5 q16 12 42 18.5t56 6.5q35 0 69 -9.5t64 -27.5q29 -18 43.5 -45t14.5 -62v-4v-4v-4v-4q-2 -8 -3 -16.5t-3 -16.5l-4 -8l-5 -8q-2 -4 -4 -9t-4 -12l-370 -759q-14 -31 -31 -53.5t-37 -39.5q-18 -14 -52 -21t-81 -7t-80 7t-53 21q-18 16 -34.5 39t-31.5 52v2l-371 761 q-6 10 -10 18.5t-6 16.5t-3 16.5t-1 16.5z" />
<glyph unicode="w" horiz-adv-x="1990" d="M16 967v4v4v2v4q0 25 12.5 45.5t39.5 38.5q29 16 61.5 25.5t71.5 9.5q35 0 62.5 -8.5t49.5 -24.5q23 -14 38.5 -35.5t23.5 -48.5l213 -561h6l215 551q10 29 25.5 51.5t37.5 40.5q23 16 53.5 25.5t69.5 9.5q41 0 72 -9.5t51 -25.5q23 -18 38 -42t26 -52l215 -549h6 l211 563q8 25 23.5 46.5t37.5 35.5q23 16 51.5 24.5t61.5 8.5q41 0 73.5 -10.5t59.5 -28.5t39 -44t12 -61q0 -6 -1 -12t-1 -12q-2 -8 -4 -14.5t-6 -12.5q-2 -6 -5 -13t-5 -13q-4 -8 -6 -16.5t-7 -16.5l-315 -709q-14 -33 -33.5 -59.5t-48.5 -48.5q-27 -20 -61.5 -29.5 t-79.5 -9.5q-41 0 -76 8t-59 25q-27 18 -46.5 42.5t-29.5 57.5l-191 477h-4l-190 -475q-14 -33 -32.5 -58.5t-43.5 -43.5q-27 -16 -60.5 -24.5t-76.5 -8.5q-45 0 -80 9t-64 30q-27 23 -46 48t-31 58v2l-314 707q-8 16 -14 30.5t-10 28.5l-4 12q-2 6 -4 15q0 6 -1.5 12 t-1.5 12q-2 4 -3 7.5t-1 5.5z" />
<glyph unicode="x" horiz-adv-x="1280" d="M0 129v8q0 4 2 10q0 4 1 9.5t3 9.5l3 6l3 6l1 2q1 2 1 4q2 4 5.5 8.5t5.5 8.5q6 8 12 15t14 13v2l373 340l-311 281q-10 6 -18.5 15.5t-16.5 19.5t-11.5 20.5t-5.5 20.5q-2 2 -3 4t-1 4q-2 0 -2 2v4v4v4v2v4q0 29 14.5 54.5t45.5 46.5q29 23 61.5 33t69.5 10 q20 0 39.5 -4t33.5 -11q16 -8 32 -18t30 -25l258 -256l258 258q14 12 29.5 22.5t29.5 18.5q16 6 36 10.5t42 4.5q35 0 67 -10.5t62 -32.5q29 -20 44.5 -46t15.5 -55v-4v-2q-2 -2 -2 -4v-4v-4v-2q-2 -2 -2 -4v-4q-2 -2 -3.5 -5t-1.5 -5q-4 -8 -7 -16.5t-9 -14.5 q-8 -10 -15 -19.5t-16 -17.5l-313 -279l375 -340q4 -8 10 -15t12 -15q4 -4 6 -8l5 -9q4 -6 6 -10l4 -8q0 -4 1 -9t3 -10q0 -2 1 -5t1 -5t1 -4t1 -4q0 -33 -13.5 -58.5t-37.5 -43.5q-27 -20 -58.5 -28.5t-72.5 -8.5q-29 0 -50.5 4t-37.5 8q-14 6 -29.5 16.5t-26.5 22.5h-2 l-3 3l-1 1l-3 3q-1 1 -1 3l-305 301l-305 -299q-2 -2 -3 -4t-1 -4l-1 -1l-1 -1q-2 0 -3 -1q-13 -13 -26.5 -23.5t-30.5 -16.5q-14 -4 -36.5 -8t-51.5 -4q-39 0 -71.5 8t-57.5 29q-27 18 -39 43.5t-12 58.5z" />
<glyph unicode="y" horiz-adv-x="1230" d="M0 932v9v9v12v11q0 23 8 42t27 36q20 16 42.5 27.5t49.5 17.5h4q2 0 6 2h5h5h5q2 0 6 2h5h5q33 0 61.5 -7.5t51.5 -21.5t42 -32.5t29 -43.5l254 -553l271 555q12 23 29.5 41.5t39.5 32.5q23 14 52.5 21.5t62.5 7.5h5h5q2 -2 5 -2h5h5h6q2 -2 5 -2h5q27 -6 49.5 -17.5 t42.5 -27.5t30.5 -36t10.5 -42q0 -12 -1 -21.5t-3 -19.5q0 -6 -3 -12.5t-5 -12.5q0 -2 -1 -5t-3 -5l-619 -1227q-10 -20 -26.5 -40.5t-38.5 -39.5q-20 -16 -47 -25t-62 -9q-47 0 -84 10t-59 31q-25 20 -36 41.5t-11 44.5v4v2v4v4v4q0 2 2 4v3v3q0 8 2 15.5t6 13.5q2 2 2 5 t2 5q2 4 4 9l4 10l162 317l-408 813q-4 6 -7 15.5t-5 17.5z" />
<glyph unicode="z" horiz-adv-x="1230" d="M27 98v8v11q2 4 3 8t3 8l4 8q2 4 4 6q0 4 2 8.5t4 6.5q4 2 5 4t3 4q0 2 2 4l4 4v2l578 651h-428h-13q-26 0 -51 7q-31 8 -53 24q-25 16 -37 41t-12 55q0 31 12.5 54.5t36.5 40.5q23 16 53.5 25t63.5 9l838 3q4 -2 9 -3.5t13 -1.5q8 -2 15.5 -3t15.5 -3q6 -2 12 -5t12 -7 q4 -4 11 -8l12 -8q10 -8 15 -22.5t5 -33.5q0 -8 -1 -17t-5 -15q-2 -6 -3 -12.5t-3 -12.5l-4 -4l-2 -2l-4 -4l-4 -4q0 -2 -1 -3l-3 -3q-2 -2 -3 -5.5t-6 -5.5l-581 -649h487q35 -2 63.5 -11t53.5 -26q23 -16 36 -39.5t13 -54.5t-13 -54.5t-36 -39.5q-25 -16 -53.5 -24.5 t-63.5 -8.5h-858q-31 0 -57.5 5t-48.5 18q-23 12 -34 30t-11 45z" />
<glyph unicode="{" horiz-adv-x="851" d="M-20 582q0 18 7 35.5t17 31.5q14 16 36.5 23.5t55.5 7.5q23 0 44.5 5t39.5 15q20 10 29.5 40t9.5 75v399q0 68 21.5 118t66.5 83q41 33 104.5 49.5t147.5 16.5l160 2q25 -2 46 -8.5t36 -16.5q16 -12 24.5 -29.5t8.5 -39.5q0 -23 -8.5 -40.5t-24.5 -29.5 q-14 -12 -36 -17.5t-46 -5.5l-64 2q-27 -2 -48 -9t-38 -21q-14 -14 -20 -37t-6 -53v-385q0 -47 -13.5 -81t-37.5 -57q-27 -20 -53.5 -34.5t-57.5 -20.5q-14 -4 -29.5 -7t-32.5 -5q-14 -2 -28.5 -3t-24.5 -1v-2q10 -2 25 -4l28 -5l32 -4t30 -6q31 -8 57.5 -21.5t53.5 -35.5 q25 -20 38 -53t13 -80v-385q0 -29 6 -51.5t20 -36.5q16 -14 38 -21.5t48 -7.5l64 -2q25 2 46 -3t36 -18q16 -12 24.5 -29.5t8.5 -39.5q0 -23 -8.5 -40.5t-24.5 -29.5q-14 -10 -36 -16t-46 -6l-160 -2q-84 2 -147.5 18t-104.5 49q-45 33 -66.5 83t-21.5 120v-2v397 q0 45 -9 73t-30 38q-18 10 -39.5 16t-44.5 6q-33 0 -55.5 8.5t-36.5 22.5q-10 16 -17 33t-7 35z" />
<glyph unicode="|" horiz-adv-x="567" d="M129 96v1358q0 27 10.5 48.5t30.5 37.5t49 25.5t64 9.5t63.5 -9.5t48.5 -25.5t30.5 -37.5t10.5 -50.5v2v-1356q0 -29 -10 -51t-31 -39q-20 -14 -49 -22.5t-63 -8.5q-35 0 -64 8.5t-49 22.5q-20 16 -30.5 38.5t-10.5 49.5z" />
<glyph unicode="}" horiz-adv-x="851" d="M16 -221q0 23 8.5 40t26.5 29q16 12 35.5 17.5t46.5 5.5l64 -2q27 2 47 9t35 22q16 14 23 36.5t7 53.5v385q0 45 11.5 77.5t37.5 53.5q25 23 53.5 36t59.5 21q16 4 31.5 6t29.5 4q16 2 28.5 3.5t25.5 3.5v6h-25q-12 0 -29 2q-14 2 -29.5 5t-31.5 7q-31 6 -59.5 20.5 t-53.5 34.5q-27 23 -38 56.5t-11 79.5v389q0 31 -7 52t-23 36q-14 14 -35 21t-47 7l-64 2q-27 -2 -46 3.5t-36 17.5q-18 12 -26.5 29.5t-8.5 40.5t8.5 40t26.5 29q16 10 35.5 16.5t46.5 6.5l158 2q84 -2 146.5 -18.5t107.5 -49.5q41 -33 63.5 -83t22.5 -120v2v-397 q0 -47 8 -76.5t29 -40.5q18 -10 39.5 -15t46.5 -5q31 0 54 -7t38 -24q16 -14 23.5 -31.5t7.5 -35.5t-7.5 -35t-23.5 -33q-14 -14 -38 -22.5t-54 -8.5q-25 0 -46.5 -6t-39.5 -16q-20 -10 -28.5 -38t-8.5 -75v-395q0 -68 -22.5 -118t-63.5 -83q-45 -33 -107.5 -49t-146.5 -16 l-158 -2q-27 2 -46 8t-36 16q-18 12 -26.5 29.5t-8.5 40.5z" />
<glyph unicode="~" horiz-adv-x="1536" d="M104 432v2v4v6v7v5v5q0 6 1 12t4 12q12 41 41.5 80t78.5 74q51 35 117 52.5t148 17.5q10 0 19 -1t19 -1q8 -2 18.5 -3.5t18.5 -3.5q6 0 13.5 -2t13.5 -2q12 -4 25.5 -6t27.5 -6q16 -4 32.5 -9t35.5 -11q16 -6 33.5 -12.5t37.5 -12.5q12 -4 23.5 -9t22.5 -9 q23 -8 46 -15.5t44 -15.5q31 -10 59.5 -15.5t52.5 -5.5v2q27 -2 48.5 3.5t41.5 13.5q16 10 33 21.5t31 23.5q4 2 7 4t5 4t5 4t5 4q4 4 8.5 6t8.5 7q8 4 16 9t17 9q10 6 25.5 10t33.5 4q29 0 49.5 -7t32.5 -23q10 -14 17 -31t10 -33v-3v-1v-2v-5v-7q-2 -2 -3 -5v-8v-5v-5 q-2 -4 -2 -6v-6q-12 -43 -42.5 -81t-79.5 -73q-51 -35 -116 -52t-147 -17h-18q-10 0 -18 2q-10 0 -19.5 1t-19.5 3l-40 8t-40 10q-16 4 -33.5 9t-36.5 12q-16 6 -33.5 12t-33.5 12q-37 12 -72 24.5t-66 22.5q-33 10 -61.5 16.5t-50.5 6.5q-27 0 -49.5 -5t-38.5 -16 q-20 -8 -36 -19t-30 -22l-2 -1q-2 -1 -2 -3q-2 -2 -4 -3t-4 -3t-5 -4t-5 -4q-6 -6 -15.5 -12t-17.5 -11q-4 -4 -8 -6l-9 -4q-12 -6 -26.5 -9t-30.5 -3q-31 0 -52.5 7t-33.5 22q-10 16 -17.5 31.5t-7.5 33.5z" />
<glyph unicode="&#xa1;" horiz-adv-x="854" d="M227 952q0 33 14.5 60.5t45.5 52.5q29 23 63.5 35t75.5 12v2q41 -2 76 -14.5t65 -34.5q29 -25 44.5 -52.5t15.5 -60.5t-15.5 -61.5t-44.5 -50.5q-31 -25 -65.5 -36t-75.5 -11t-76 11t-63 36q-31 23 -45.5 51t-14.5 61zM242 -252v-2v789q0 31 12 56t39 44q29 18 61.5 27.5 t71.5 9.5t71.5 -10.5t59.5 -28.5q29 -18 41 -44t12 -57v-786q0 -29 -12 -54.5t-41 -43.5q-27 -18 -59.5 -28.5t-71.5 -10.5t-71.5 9t-61.5 28q-27 18 -39 43.5t-12 58.5z" />
<glyph unicode="&#xa2;" horiz-adv-x="1183" d="M51 549q0 104 37 196.5t113 169.5q78 78 180 126.5t227 62.5v59q0 18 2 34.5t6 31.5q4 14 19.5 21t42.5 7q25 0 40 -7t19 -21q0 -4 1 -7t3 -8q2 -12 4.5 -25t2.5 -28v-47q16 -2 34.5 -3t40.5 -5q23 -2 45.5 -5t44.5 -7q47 -8 88 -23.5t80 -36.5q39 -20 59.5 -46.5 t20.5 -61.5v-4v-4q-2 -2 -2 -5v-4v-4v-2v-4v-4q-6 -20 -17.5 -40.5t-29.5 -39.5q-18 -18 -40.5 -26.5t-51.5 -8.5h-15q-7 0 -16 2q-8 0 -15 2t-16 4q-8 2 -17 5.5t-19 5.5q-10 4 -19.5 7t-17.5 5q-14 4 -31.5 8t-34.5 8q-8 2 -17 4.5t-18 4.5q-10 2 -18 3t-18 1v2v-596h17 q9 0 19 2q6 0 11.5 1t9.5 3t9 3t11 3q8 2 15.5 4t15.5 4q4 0 7 1t7 3q4 0 7.5 1t7.5 3q20 6 37.5 11.5t31.5 9.5l29 7q12 3 21 3q33 0 61.5 -10t50.5 -29q23 -18 34 -40.5t11 -49.5q0 -39 -20.5 -68.5t-61.5 -52.5q-39 -20 -84 -35.5t-92 -23.5q-20 -4 -41.5 -7t-40.5 -5 q-20 -4 -38.5 -5.5t-34.5 -1.5v-49v2v-2v-1v-3q0 -12 -2.5 -23.5t-4.5 -23.5q-2 -2 -3 -6t-1 -8q-6 -14 -21.5 -21.5t-37.5 -7.5q-25 0 -40 7t-20 22q-6 14 -8 29.5t-2 31.5v3v1v2v54q-131 14 -235.5 60t-175.5 126q-74 80 -110 174t-36 205zM420 522q2 -39 15.5 -77.5 t37.5 -73.5q23 -37 56.5 -61.5t78.5 -41.5v2v551q-47 -18 -84 -45.5t-59 -66.5q-23 -39 -34 -81t-11 -87v-3v-4v-4v-4v-4z" />
<glyph unicode="&#xa3;" horiz-adv-x="1562" d="M41 725q0 33 12.5 58.5t38.5 43.5q27 18 59.5 28.5t73.5 10.5l54 2q-8 10 -14.5 21.5t-12.5 25.5q-8 16 -13.5 32t-9.5 32q0 4 -2 9t-2 9q-2 10 -4 19.5t-4 17.5q-4 14 -5 26.5t-1 22.5q0 90 49 163t143 126q96 53 209 81t244 28q135 0 250 -25.5t209 -77.5 q94 -51 142 -113.5t48 -138.5q0 -35 -14 -62.5t-43 -49.5q-29 -20 -64.5 -31.5t-78.5 -11.5q-27 0 -48.5 5t-37.5 17q-18 10 -34 24.5t-32 29.5l-4 4q-2 2 -2 4l-4 4l-4 4l-4 4l-5 4l-4 4l-4 4q-20 18 -44.5 37t-51.5 35t-65.5 25.5t-88.5 9.5q-47 0 -90 -10.5t-82 -30.5 t-56 -49t-17 -68q0 -14 2 -28.5t6 -28.5t10 -27.5t14 -23.5l39 -52h389q41 -2 74 -12t60 -29q25 -18 38 -43.5t13 -58.5t-13.5 -59.5t-37.5 -44.5q-27 -18 -60 -27.5t-74 -9.5l-329 2q0 -43 -10.5 -83t-26.5 -79t-40 -74t-54 -69l710 2q41 -2 74 -12.5t59 -28.5 q27 -18 39.5 -44t12.5 -59t-12.5 -58.5t-39.5 -43.5t-59.5 -27.5t-73.5 -9.5h-1003q-47 0 -84 10t-64 31q-27 23 -39 51.5t-12 65.5q0 16 8.5 31.5t24.5 33.5q16 16 36.5 38t43.5 46l12 17l12 16q12 18 25.5 38.5t24.5 43.5q16 35 26 75t10 87l-133 2q-41 -2 -73.5 7 t-59.5 28q-27 18 -39 44.5t-12 59.5z" />
<glyph unicode="&#xa4;" horiz-adv-x="1536" d="M66 276q0 4 1 9.5t5 9.5l4 4l4 4q0 2 2 4l4 4l4 4q2 0 3 1l1 1q2 2 4 3.5t4 3.5l148 120q-29 25 -49.5 55.5t-36.5 67.5q-14 37 -22.5 77t-8.5 83v3v3v3v3q0 41 8.5 80t22.5 76q16 37 36.5 67.5t49.5 53.5l-148 121q-2 0 -4 1t-4 3l-1 1l-3 3q-2 0 -3 1t-1 3t-2 3l-2 1 q-2 2 -4 5t-4 5q-4 4 -6 8.5t-2 10.5v17q0 9 2 18q4 10 11 19t17 19q4 6 9.5 11.5t13.5 7.5q4 2 8 3t8 3q2 0 6 1t9 3h4q2 0 4 2h4h4h4q2 0 4 2h2h2h3h3q10 0 19.5 -1t21.5 -5q10 -2 17.5 -7t15.5 -11l145 -115q29 16 62 29.5t74 25.5t84 20.5t88 10.5h13h15h7q3 0 8 2h7h7 h5h7q2 -2 6 -2h9h7h7h7h7q31 -2 58.5 -6t56.5 -10q14 -2 29 -7l28 -8q41 -12 75 -26.5t60 -30.5l146 119q6 4 14 9t21 7q10 4 19 5t22 1h4h4q0 -2 2 -2h4h4h6q2 -2 4 -2h4q4 -2 7.5 -3t7.5 -1q4 -2 7 -3t7 -3q6 -2 9 -5t8 -5l4 -4l4 -5q10 -10 16 -19t10 -19q2 -8 3 -17.5 t1 -17.5q0 -6 -2 -11.5t-6 -9.5q0 -2 -1 -3l-3 -3q-2 -2 -3 -4t-5 -4q-2 -2 -5 -4t-5 -4l-3 -3l-151 -118q29 -25 49.5 -55.5t34.5 -67.5q16 -37 24.5 -76t10.5 -80v-3v-3v-3v-3q0 -43 -7 -83t-24 -77q-14 -37 -36.5 -68.5t-51.5 -56.5l150 -116q0 -2 1 -4.5t3 -4.5t5 -3 t5 -3q4 -2 5 -5t3 -5l3 -3q1 -1 1 -3q4 -4 6 -9t2 -10q0 -8 -1 -15t-3 -17q-4 -8 -10 -19.5t-16 -21.5l-4 -4l-4 -4q-4 -2 -7.5 -5.5t-9.5 -5.5q-4 -2 -7 -3t-7 -3t-7 -3t-8 -1q-4 -2 -9 -3t-9 -1h-4h-2h-4h-4q-12 0 -21.5 2t-19.5 4q-12 4 -20.5 8t-14.5 11l-146 122 q-31 -25 -70.5 -42t-86.5 -29q-12 -2 -24.5 -5t-26.5 -5q-37 -8 -75 -11.5t-79 -3.5v2q-53 -2 -105.5 4t-99.5 19q-51 12 -90 29.5t-70 39.5l-145 -118q-8 -8 -15 -12.5t-18 -8.5q-12 -2 -21 -4t-20 -2h-3h-3h-7h-5h-4q-2 0 -4 2q-2 0 -4 1t-4 1q-8 2 -15.5 5t-15.5 5 q-8 4 -13.5 8.5t-9.5 10.5q-8 10 -14 21.5t-10 19.5q-4 10 -5 17t-1 15zM440 727q0 -57 23.5 -106.5t68.5 -88.5q47 -39 105.5 -58t130.5 -19q70 0 128 19.5t103 57.5q47 39 72 88.5t25 106.5q0 59 -22.5 108.5t-69.5 88.5q-45 41 -104.5 60.5t-131.5 19.5v2 q-72 -2 -130 -21.5t-106 -60.5q-45 -39 -68.5 -88.5t-23.5 -108.5z" />
<glyph unicode="&#xa5;" d="M25 1319q0 31 12 57.5t39 46.5q29 23 61.5 34t71.5 11h4h6q2 -2 5 -2h5h8h5q4 -2 7 -2h7l16 -4l17 -4q6 -4 14 -6t16 -6q16 -8 27.5 -17.5t22.5 -19.5l364 -426l367 428q8 10 21.5 18.5t27.5 16.5q16 6 31.5 12t31.5 8h7q2 0 6 2h5h5h7q3 0 5 2h7h6q41 0 73.5 -11 t59.5 -34q25 -20 38 -46.5t13 -57.5q0 -8 -2 -17.5t-4 -19.5q-2 -2 -3 -5t-1 -7q-4 -12 -11.5 -22.5t-15.5 -20.5l-326 -359h209q23 -2 43.5 -8t40.5 -18q18 -12 28.5 -27.5t10.5 -34.5q0 -20 -10 -35.5t-29 -27.5q-20 -12 -40.5 -17.5t-43.5 -5.5l-364 2v-139h364 q23 -2 43.5 -8t40.5 -19q18 -12 28.5 -27.5t10.5 -33.5q0 -20 -10 -35.5t-29 -27.5q-20 -12 -40.5 -17.5t-43.5 -5.5l-364 2v-248q0 -31 -10.5 -56.5t-32.5 -47.5q-23 -23 -60 -33t-90 -10q-51 0 -88 10t-59 33q-23 23 -33 48t-10 54v2v248h-365q-25 -2 -46 3t-40 18 q-20 12 -28.5 27.5t-8.5 35.5q0 18 8.5 33.5t28.5 27.5q18 12 40 18.5t46 6.5l365 2v139h-365q-25 -2 -46 3.5t-40 17.5q-20 12 -28.5 27.5t-8.5 35.5q0 18 8.5 33.5t28.5 28.5q18 12 40 18t46 6l207 2l-324 361q-10 10 -17 19t-11 22q-4 12 -6 24.5t-2 24.5z" />
<glyph unicode="&#xa6;" horiz-adv-x="686" />
<glyph unicode="&#xa7;" d="M51 528q0 57 13.5 105.5t39.5 87.5q27 41 66 78t92 71q4 2 5 3l3 4q2 0 4 2q2 0 4 1q-7 7 -14.5 13t-13.5 12l-7 7l-7 8q-2 2 -5.5 6t-5.5 6q-14 16 -27.5 34.5t-21.5 37.5q-8 18 -13 41.5t-5 50.5q0 92 41 162.5t125 121.5q84 49 182 75t211 26v2q25 -2 53.5 -3t60.5 -5 q33 -2 66 -7.5t68 -11.5q72 -14 137 -37.5t127 -58.5q59 -33 89 -78t30 -104q0 -27 -12.5 -52.5t-39.5 -48.5q-25 -23 -54.5 -34t-63.5 -11q-23 0 -44.5 5t-41.5 14q-8 4 -17.5 9t-17.5 11q-10 6 -18.5 12.5t-18.5 12.5q-2 2 -4 3t-4 3t-4 3t-4 3l-4 3q-1 1 -3 1q-4 2 -7 5 l-5 5q-23 16 -46.5 30.5t-51.5 29.5q-27 14 -57.5 21t-67.5 7t-70 -10t-61 -29q-31 -20 -44.5 -45.5t-13.5 -56.5q0 -25 11.5 -44t36.5 -34q23 -14 55.5 -27.5t71.5 -25.5q27 -8 55 -17.5t61 -19.5q33 -8 67 -20.5t66 -24.5q78 -27 152 -58.5t137 -70.5q66 -39 98.5 -93 t32.5 -126q0 -63 -16.5 -113.5t-46.5 -91.5q-33 -39 -79 -74.5t-106 -70.5q-2 -2 -4 -3t-4 -3q-2 0 -2 -1t-2 -1l-6 -4q-2 -1 -4 -3q4 -4 7 -8t7 -6q2 -4 5 -7l8 -7q6 -8 12 -15.5t12 -13.5q6 -8 12.5 -17.5t12.5 -17.5q4 -10 9 -18t9 -19q8 -16 11 -36.5t3 -45.5 q0 -90 -40.5 -159.5t-122.5 -118.5t-176.5 -73.5t-198.5 -24.5h-11h-10q-4 2 -9 2h-9h-11h-12q-4 2 -8 2h-8q-106 8 -201.5 34.5t-181.5 71.5q-88 45 -131 94.5t-43 104.5q0 33 15.5 60.5t45.5 49.5q31 20 66 29.5t78 9.5q18 0 34.5 -4t30.5 -10q8 -4 15.5 -8t15.5 -10 q6 -4 13 -10.5t16 -12.5l9 -9q5 -5 11 -9q4 -4 9 -8.5t12 -10.5q18 -18 40.5 -34.5t49.5 -30.5q25 -16 56.5 -23.5t70.5 -7.5h4h6q2 2 5 2h5h7h5q4 2 8 2h7q27 4 50.5 13.5t45.5 23.5q23 14 33 33.5t10 42.5q0 33 -18.5 56.5t-57.5 43.5q-39 18 -85 36.5t-99 35.5l-31.5 9 t-36.5 11q-16 4 -32.5 9.5t-32.5 11.5h-2h-3h-1v2h-2q-76 23 -145.5 55.5t-133.5 71.5q-63 41 -94 101t-31 142zM434 563q0 -27 8.5 -47t24.5 -37q18 -14 43 -28.5t55 -24.5v2l322 -109q29 12 51.5 26.5t40.5 31.5q20 16 29.5 39.5t9.5 50.5q0 29 -14.5 51.5t-40.5 40.5 q-29 18 -62 33.5t-72 28.5l-282 90q-23 -14 -43.5 -30.5t-36.5 -35.5q-16 -18 -24.5 -38.5t-8.5 -43.5z" />
<glyph unicode="&#xa8;" horiz-adv-x="567" d="M-180 1382q4 29 17 55.5t40 47.5q27 23 59.5 33t65.5 10q39 0 71.5 -10.5t59.5 -32.5q27 -20 40 -47t13 -58t-13 -56.5t-40 -47.5q-27 -20 -59.5 -31.5t-71.5 -11.5q-33 0 -65.5 11t-59.5 32q-27 23 -40 48.5t-13 55.5zM381 1380v2q0 29 13.5 55.5t39.5 47.5 q29 23 60.5 33t70.5 10t72 -10.5t59 -32.5q27 -20 40.5 -47t13.5 -58t-13.5 -56.5t-40.5 -47.5q-27 -20 -59.5 -31.5t-71.5 -11.5t-70.5 11t-60.5 32q-27 23 -40 48t-13 56z" />
<glyph unicode="&#xa9;" horiz-adv-x="2048" d="M82 727v2q0 154 69.5 287t206.5 244q139 111 304 166t362 55q195 0 361.5 -55.5t304.5 -165.5q139 -111 207.5 -244t68.5 -289t-68.5 -289t-207.5 -243q-137 -111 -304 -164.5t-362 -53.5q-197 0 -361.5 53.5t-304.5 164.5q-137 111 -206.5 243.5t-69.5 288.5zM311 727v2 q0 -119 52.5 -220t154.5 -185q104 -82 230 -124t276 -42q147 0 273 42t231 124q102 84 154.5 184t52.5 219t-52.5 220.5t-154.5 182.5q-104 84 -230.5 125t-273.5 41q-150 0 -275.5 -41t-230.5 -125q-102 -82 -154.5 -183t-52.5 -220zM522 727q0 90 33 165t102 136 q70 59 162 90t211 31q72 0 133.5 -12.5t112.5 -36.5q53 -25 91 -50.5t63 -54.5q10 -12 18 -24.5t12 -22.5q6 -12 10.5 -22.5t4.5 -20.5q0 -27 -5.5 -47t-15.5 -31q-10 -12 -30.5 -20t-51.5 -12v2q-31 -2 -53.5 3t-34.5 15l-5 5q-3 3 -5 7q-8 8 -16.5 18.5t-14.5 22.5 q-2 2 -3 4t-1 5l-3 3q-1 1 -1 3q-2 0 -2 1v3l-3 3l-3 3q-2 0 -3 1t-1 3q-2 4 -3 7t-6 5q-10 10 -26.5 19.5t-36.5 17.5q-18 10 -49 14.5t-72 4.5q-57 0 -101 -16.5t-73 -49.5q-31 -33 -44 -76t-13 -96q0 -55 13 -98t44 -76q29 -33 73 -48.5t101 -15.5q41 0 72 4.5t49 12.5 q20 10 36.5 19.5t26.5 19.5l4 3q1 1 1 3q2 0 3 1t1 3q2 4 5 7l5 5q0 2 2 4l4 4v4q0 1 2 3t2 4q6 12 14.5 21t16.5 20l5 5l5 5q12 10 34.5 16t53.5 6q31 -4 51.5 -12t30.5 -20t15.5 -30.5t5.5 -47.5q0 -10 -4.5 -21.5t-10.5 -21.5q-2 -6 -5 -12.5t-7 -10.5l-8 -12 q-4 -6 -10 -12q-25 -29 -63 -55.5t-91 -51.5q-51 -25 -112.5 -36t-133.5 -11q-119 0 -211 30t-162 91q-70 59 -102.5 135t-32.5 166z" />
<glyph unicode="&#xaa;" horiz-adv-x="954" d="M33 1139q0 72 28.5 133t85.5 110q59 49 130 74t153 25q33 0 63.5 -5.5t61.5 -15.5q31 -8 56.5 -23.5t45.5 -35.5q2 16 9.5 29.5t19.5 25.5q10 12 31.5 18.5t54.5 6.5q37 0 60.5 -9.5t31.5 -25.5q10 -18 15.5 -36.5t5.5 -39.5v2v-481v-5v-7v-5v-4q-2 -14 -9.5 -26.5 t-19.5 -22.5q-10 -12 -31.5 -17t-52.5 -5q-33 0 -54.5 5t-31.5 17q-12 12 -19.5 26.5t-9.5 31.5l-1 -1q-3 -1 -4 -2l-1 -2l-2 -2q-16 -14 -37.5 -26t-48.5 -25q-27 -12 -56.5 -17t-60.5 -5q-92 0 -165.5 23.5t-133.5 70.5q-57 47 -85.5 108.5t-28.5 137.5zM279 1118 q4 -31 16 -58.5t35 -51.5q23 -25 55.5 -37.5t77.5 -12.5v3q41 -2 73.5 10t53.5 37q20 25 33.5 52t15.5 58v4v4v8v5v7v5v3v3q-2 2 -2 3v3q-4 29 -15.5 56.5t-33.5 52.5q-20 25 -52 37t-73 12q-45 0 -77 -12.5t-54 -36.5q-23 -25 -35 -52.5t-16 -56.5q-2 -2 -2 -5v-7v-5v-7v-5 v-8v-4v-4z" />
<glyph unicode="&#xab;" horiz-adv-x="1280" d="M94 564v5v8v5v8q0 4 2 10q0 4 2 9t4 9t4.5 7.5t4.5 7.5q0 2 2 6l4 8q2 4 4 7t6 8q2 2 5 6t5 6q0 2 1 3l3 3l3 3q1 1 1 3t1 3l4 3l2 1q2 1 4 3v2l247 281q10 6 21.5 12t26.5 10q10 4 26.5 7.5t36.5 3.5q35 0 61.5 -9.5t45.5 -25.5q20 -16 30.5 -35.5t10.5 -42.5 q0 -10 -1.5 -20.5t-3.5 -20.5q-4 -8 -9 -17.5t-13 -19.5l-203 -246l203 -243q8 -12 13 -21.5t9 -19.5q2 -8 3.5 -16.5t1.5 -14.5q0 -27 -10.5 -50.5t-33.5 -41.5q-20 -18 -47.5 -27.5t-62.5 -9.5h-12q-6 0 -13 2q-12 0 -24.5 3t-24.5 7q-16 6 -29.5 16.5t-23.5 22.5 l-264 328q0 2 -2 3t-2 3q-2 2 -4 6l-5 8q-4 6 -6 12.5t-2 14.5q-2 4 -2 7zM616 564v5v8v5v8q0 4 2 10q0 4 2.5 9l4.5 9t4 7.5t4 7.5q0 2 2 6l4 8q2 4 4 7t6 8q2 2 5 6t5 6q0 2 1 3l4 3l3 3q1 1 1 3t1 3l3 3l2 1q2 1 4 3v2l248 281q10 6 21 12t26 10q10 4 26.5 7.5t36.5 3.5 q35 0 61.5 -9.5t45.5 -25.5q20 -16 30.5 -35.5t10.5 -42.5q0 -10 -1 -20.5t-3 -20.5q-4 -8 -9.5 -17.5t-13.5 -19.5l-203 -246l203 -243q8 -12 13.5 -21.5t9.5 -19.5q2 -8 3 -16.5t1 -14.5q0 -27 -10.5 -50.5t-32.5 -41.5q-20 -18 -48 -27.5t-63 -9.5h-12q-6 0 -12 2 q-12 0 -24.5 3t-25.5 7q-16 6 -29.5 16.5t-23.5 22.5l-264 328q0 2 -2 3t-2 3q-2 2 -4 6l-4 8q-4 6 -6.5 12.5t-2.5 14.5q-2 4 -2 7z" />
<glyph unicode="&#xac;" horiz-adv-x="686" />
<glyph unicode="&#xad;" horiz-adv-x="1280" />
<glyph unicode="&#xae;" horiz-adv-x="2048" d="M82 727v2q0 154 69.5 287t206.5 244q139 111 304 166t362 55q195 0 361.5 -55.5t304.5 -165.5q139 -111 207.5 -244t68.5 -289t-68.5 -289t-207.5 -243q-137 -111 -304 -164.5t-362 -53.5q-197 0 -361.5 53.5t-304.5 164.5q-137 111 -206.5 243.5t-69.5 288.5zM311 727v2 q0 -119 52.5 -220t154.5 -185q104 -82 230 -124t276 -42q147 0 273 42t231 124q102 84 154.5 184t52.5 219t-52.5 220.5t-154.5 182.5q-104 84 -230.5 125t-273.5 41q-150 0 -275.5 -41t-230.5 -125q-102 -82 -154.5 -183t-52.5 -220zM645 403v635q0 16 5 30.5t18 27.5 q10 12 33.5 19t60.5 7l289 2q78 -2 145.5 -14t124.5 -37q55 -25 84 -72t29 -118q0 -55 -17.5 -96.5t-50.5 -69.5q-33 -27 -80 -42.5t-108 -17.5l180 -235q4 -8 6 -14.5t4 -10.5q4 -6 5 -11t1 -9q0 -16 -7 -29.5t-21 -23.5q-14 -8 -38 -13.5t-55 -5.5q-27 0 -47 6t-35 19 q-14 12 -24 26l-21 29q-2 2 -4 3t-2 3q-2 0 -2 1v3l-1 1l-1 1l-3 3q-1 1 -1 3l-160 244h-78v-241q0 -23 -7 -41.5t-17 -32.5q-12 -14 -34.5 -20.5t-55.5 -6.5q-35 0 -58.5 6t-33.5 19q-12 12 -17.5 30t-5.5 43zM874 795h193q31 -2 55.5 2t44.5 12q16 10 25.5 28.5t9.5 45.5 q0 29 -9 47t-26 26q-20 10 -44.5 14.5t-55.5 4.5l-193 2v-182z" />
<glyph unicode="&#xaf;" horiz-adv-x="686" />
<glyph unicode="&#xb0;" horiz-adv-x="686" />
<glyph unicode="&#xb1;" horiz-adv-x="1536" d="M88 121q0 29 10.5 50.5t30.5 37.5t49 25.5t64 9.5v2h1050q35 -2 63.5 -11.5t49.5 -25.5q18 -16 29.5 -37.5t11.5 -50.5q0 -27 -11.5 -49.5t-29.5 -38.5q-20 -16 -49 -24.5t-64 -8.5h-1050q-35 0 -63.5 8t-49.5 25q-20 16 -30.5 38.5t-10.5 49.5zM88 682q0 29 10.5 50.5 t30.5 37.5t49 25.5t64 9.5l372 2v131q0 27 10.5 48.5t30.5 37.5q18 16 47 25.5t66 9.5q35 0 63.5 -9.5t49.5 -25.5q18 -16 29.5 -37.5t11.5 -50.5v-129h370q35 -2 63.5 -11.5t49.5 -25.5q18 -16 29.5 -37.5t11.5 -50.5q0 -27 -11.5 -50.5t-29.5 -39.5q-20 -16 -49 -24.5 t-64 -8.5l-370 2v-131q0 -29 -11.5 -52.5t-29.5 -39.5q-20 -16 -49 -24.5t-64 -8.5q-37 0 -65.5 8.5t-47.5 24.5q-20 16 -30.5 39.5t-10.5 50.5v133h-372q-35 -2 -63.5 6t-49.5 25q-20 16 -30.5 39.5t-10.5 50.5z" />
<glyph unicode="&#xb2;" horiz-adv-x="686" />
<glyph unicode="&#xb3;" horiz-adv-x="686" />
<glyph unicode="&#xb4;" horiz-adv-x="567" d="M-25 1356v4v4v4v4v4v4q2 0 2 1v3q0 4 2.5 9.5t4.5 11.5q4 4 7 9t7 9q4 10 16.5 17.5t26.5 13.5l20 10l301 99q14 4 27.5 7t24.5 5q6 2 12 3t12 1q4 2 11 2h12q16 0 31.5 -4t29.5 -12q6 -4 11.5 -7.5t9.5 -7.5q18 -14 30.5 -30.5t20.5 -32.5v-4q0 -2 2 -4v-4v-5v-4 q0 -2 2 -4v-4v-4q0 -23 -7 -41t-18 -35q-14 -14 -33.5 -25.5t-45.5 -19.5l-287 -88q-14 -6 -26.5 -9t-16.5 -5q-8 -2 -12.5 -4t-8.5 -2q-2 0 -4 -1t-4 -1h-4h-4h-8h-15q-27 0 -50 10t-40 31q-14 23 -25.5 45t-13.5 47z" />
<glyph unicode="&#xb5;" horiz-adv-x="1423" d="M104 -281v-2v1221q0 35 12.5 64.5t39.5 52.5t60.5 34t72.5 11q41 0 73.5 -11.5t59.5 -33.5q25 -23 38 -52.5t13 -66.5v-524q0 -47 17.5 -83t54.5 -61t79 -37t87 -12q47 0 87 12.5t76 36.5q37 25 55.5 61t18.5 81v528q0 35 12.5 64.5t38.5 52.5q29 23 62 34t72 11 q41 0 73.5 -11.5t59.5 -33.5q27 -23 39 -52.5t12 -66.5v-784q0 -39 -12.5 -69t-38.5 -52q-27 -20 -59.5 -30.5t-73.5 -10.5q-39 0 -72 8t-62 27q-27 18 -39 43.5t-12 58.5l-4 2q-14 -27 -30.5 -50.5t-36.5 -39.5q-8 -8 -18.5 -15.5t-20.5 -13.5t-19.5 -10t-19.5 -6 q-6 -2 -12.5 -3t-10.5 -3q-6 -2 -12 -3t-12 -3q-4 0 -7.5 -1t-7.5 -1q-8 0 -15 -1.5t-13 -1.5q-8 0 -19.5 1.5t-21.5 3.5q-12 2 -21.5 4t-19.5 6q-23 6 -44.5 12t-39.5 19q-20 12 -37 25t-29 28l-4 2v-361q0 -35 -13.5 -64.5t-37.5 -51.5q-27 -23 -59.5 -34t-73.5 -11 q-39 0 -73 11t-60 34q-27 23 -39.5 52t-12.5 66z" />
<glyph unicode="&#xb6;" horiz-adv-x="1587" d="M37 1092q0 111 45 183.5t137 108.5q90 35 201.5 53.5t247.5 18.5l649 2q35 -2 63.5 -11t49.5 -26q20 -16 30 -37.5t10 -50.5v-1644q0 -27 -10 -48.5t-30 -37.5t-49 -25.5t-64 -9.5t-63.5 9t-49.5 26q-20 16 -30.5 37.5t-10.5 50.5v1583h-248v-1585q0 -27 -10 -48.5 t-31 -37.5q-20 -16 -48.5 -25.5t-63.5 -9.5q-37 0 -64.5 9t-48.5 26q-20 16 -30.5 37.5t-10.5 50.5v-2v1054q-139 -2 -245.5 21.5t-178.5 69.5q-74 47 -110.5 111.5t-36.5 146.5z" />
<glyph unicode="&#xb7;" horiz-adv-x="686" />
<glyph unicode="&#xb8;" horiz-adv-x="567" d="M113 -342q0 12 4 21.5t12 17.5t19.5 11t25.5 3h10q6 0 15 -2l16 -4l16 -4h3h4q2 -2 5 -3t7 -1q6 0 12 -1t10 -3h3h4h4h4q2 0 4 -2h2h4h1h3h2h2h1q13 0 22.5 2t17.5 4q4 2 7 3t5 3q10 6 16.5 17.5t6.5 27.5q0 20 -7 32.5t-22 16.5q-14 4 -28.5 6t-30.5 2h-3h-1q-2 2 -3 2 h-3h-3h-4q-14 2 -26 3.5t-23 5.5q-12 2 -16 11t-4 26q0 2 1 7t3 11q2 2 4 5t4 5q2 4 4 6t4 7q0 2 1 3l3 3l1 1l4 3l1 1q5 5 8 9t5 8q4 2 5 5t3 5q2 0 3 1l63 67h153l-98 -104l2 2h2h2q0 2 2 2h4h4h4h2h5q2 0 4 1t4 1q0 2 2 2h4h4h4h2h4q41 0 75 -10.5t60 -30.5 q29 -20 43.5 -49t14.5 -66q0 -41 -17.5 -72.5t-52.5 -54.5q-33 -23 -69.5 -38t-77.5 -21q-4 0 -8.5 -1t-8.5 -1q-6 -2 -10 -2h-8h-8q-4 0 -9 -2h-8h-8h-9h-11q-2 2 -5 2h-4h-7h-7q-14 0 -27.5 1t-25.5 3q-27 4 -49.5 12t-42.5 18t-30.5 26.5t-10.5 39.5z" />
<glyph unicode="&#xb9;" horiz-adv-x="686" />
<glyph unicode="&#xba;" horiz-adv-x="923" d="M33 1139q0 68 29.5 127t91.5 110q59 53 136 79t173 26v2q94 -2 171 -27.5t136 -79.5q59 -51 90 -110.5t31 -126.5q0 -70 -30 -129.5t-89 -110.5t-136 -75.5t-173 -24.5q-98 0 -176 24.5t-137 75.5q-57 51 -87 110.5t-30 129.5zM279 1117q0 -3 2 -7q4 -29 16 -55.5 t35 -48.5q23 -25 55.5 -36.5t75.5 -11.5v3q39 -2 69.5 9t53.5 36q23 23 37 49t18 55q0 2 1 3t1 3t1 4t1 4v4v5v2v4v8v8q0 2 -1 4t-1 4t-1 4t-1 4q-2 29 -15.5 53.5t-35.5 49.5q-23 23 -54.5 35t-72.5 12q-43 0 -75 -12.5t-54 -34.5q-23 -25 -36 -49.5t-17 -53.5v-4v-4 q-2 -2 -2 -4v-4v-8v-8v-4v-2v-5v-4v-7z" />
<glyph unicode="&#xbb;" horiz-adv-x="1280" d="M94 244v9v11q0 4 1 9.5t3 9.5t4 9t4 11q4 4 7.5 9t9.5 10v2l201 251l-201 240q-6 4 -9 8t-8 11l-4 8l-4 8q-2 10 -3 17t-1 16q0 27 10.5 49t30.5 41q23 18 50.5 28.5t62.5 10.5q18 0 36.5 -4t34.5 -11q16 -6 31 -15t25 -21l264 -324q4 -6 7 -12.5t5 -12.5q2 -2 3 -6t1 -6 q2 -4 3 -7t1 -7v-3q0 -1 3 -3v-3v-4v-5v-7v-4v-4l-3 -6v-4q-2 -6 -3 -10.5t-1 -8.5q-2 -2 -3 -5t-3 -5q-4 -4 -7 -9t-5 -9q-4 -8 -9 -14.5t-10 -12.5l-5 -5q-3 -3 -5 -7q-2 -2 -3 -5t-5 -6l-248 -278q-8 -8 -20.5 -16.5t-24.5 -12.5q-14 -4 -29.5 -6t-35.5 -2q-33 0 -61.5 8 t-47.5 25q-20 16 -29.5 36.5t-9.5 43.5zM616 244v9v11q0 4 1 9.5t4 9.5q2 4 4 9t4 11q4 4 7 9t9 10v2l201 251l-201 240q-6 4 -9 8t-7 11l-4 8l-4 8q-2 10 -3.5 17t-1.5 16q0 27 10.5 49t30.5 41q23 18 50.5 28.5t62.5 10.5q18 0 36.5 -4t35.5 -11q16 -6 30.5 -15t24.5 -21 l264 -324q4 -6 7 -12.5t6 -12.5q2 -2 3 -6t1 -6q2 -4 3 -7t1 -7v-3q0 -1 2 -3v-3v-4v-5v-7v-4v-4q-2 -4 -2 -6v-4q-2 -6 -3 -10.5t-1 -8.5q-2 -2 -3 -5t-4 -5q-4 -4 -7 -9t-5 -9q-4 -8 -9 -14.5t-9 -12.5l-5 -5q-3 -3 -6 -7q-2 -2 -3 -5t-5 -6l-248 -278q-8 -8 -20 -16.5 t-25 -12.5q-14 -4 -29.5 -6t-35.5 -2q-33 0 -61.5 8t-47.5 25q-20 16 -29.5 36.5t-9.5 43.5z" />
<glyph unicode="&#xbc;" horiz-adv-x="686" />
<glyph unicode="&#xbd;" horiz-adv-x="2203" d="M92 1366q0 23 8.5 41t22.5 33q16 14 35.5 21t46.5 7l237 2q27 -2 47.5 -8t34.5 -18t21.5 -27.5t7.5 -34.5v-708q0 -20 -10.5 -36.5t-26.5 -29.5q-16 -14 -39.5 -20t-54.5 -6q-29 0 -52.5 6t-41.5 18q-20 12 -28.5 28.5t-8.5 37.5v2v588h-86q-31 -2 -52.5 5t-35.5 21 q-14 16 -19.5 34.5t-5.5 43.5zM389 74q0 8 1 16t3 16q2 6 4 10.5t4 10.5q0 2 2.5 4t2.5 4q2 2 2 4l1 1q1 1 1 3t1 3l3 4v2l848 1278q2 4 4 7t4 5q0 2 1 3l3 3l2 1q2 1 4 3q10 12 19.5 20.5t21.5 12.5q10 4 24.5 6t32.5 2q29 0 56.5 -9t50.5 -26q23 -16 34 -36.5t11 -43.5v-3 v-1v-2v-5q0 -3 -2 -5q0 -4 -1 -6t-1 -6q-2 -6 -6 -14.5t-11 -18.5l-860 -1286q-4 -4 -7 -8.5t-5 -8.5l-3 -3l-3 -3l-4 -4q-2 -2 -2 -4q-2 0 -4.5 -1t-4.5 -3q-4 -4 -8 -6t-8 -6q-4 -2 -8 -5.5t-8 -5.5q-10 -4 -21.5 -6t-27.5 -2h-5h-4q-2 2 -4 2h-4h-1h-3h-3h-5 q-16 4 -31.5 11.5t-30.5 15.5q-6 2 -11 4t-9 6q-18 16 -26.5 33t-8.5 37zM1305 80q0 8 2 15t8 16q2 4 4 7t6 7q2 2 5 6t7 6l1 1q1 1 3 1l1 1l1 1l33 29l33 29q10 10 21.5 19t23.5 18l11 11q5 5 12 9l2 2h2h1q1 0 1 2l1 1l1 1q16 14 33.5 29.5t35.5 30.5q18 16 36 31.5 t34 29.5q35 31 67.5 62.5t63.5 64.5q12 12 22.5 24.5t18.5 26.5t13.5 29.5t5.5 32.5q0 18 -8.5 33.5t-24.5 23.5q-18 10 -39 15t-47 5q-39 0 -63.5 -7t-39.5 -21q-12 -14 -22 -29.5t-15 -32.5l-3 -3l-1 -2v-1l-2 -2q-8 -16 -16 -31.5t-18 -27.5q-12 -12 -32 -18.5t-48 -6.5 q-31 0 -52.5 8.5t-37.5 22.5q-14 16 -22.5 36.5t-8.5 47.5q0 10 2 21.5t8 23.5q2 6 5 12l7 15l9 12l8 12q23 29 55.5 55.5t77.5 51.5t100 37t119 12q78 0 143.5 -16.5t118.5 -51.5q53 -33 80 -79t27 -105q0 -39 -14.5 -77t-41.5 -75q-29 -37 -59.5 -70.5t-63.5 -62.5 q-25 -20 -47 -40.5t-45 -39.5q-23 -18 -39 -33.5t-28 -27.5l254 2q23 -2 43 -10.5t39 -24.5q20 -14 29 -33.5t9 -42.5q0 -29 -7 -48t-23 -30q-14 -10 -32.5 -15t-41.5 -5h-582q-25 0 -46 5t-38 13q-20 10 -28 26t-8 36z" />
<glyph unicode="&#xbe;" horiz-adv-x="686" />
<glyph unicode="&#xbf;" horiz-adv-x="1230" d="M43 43q0 84 30.5 152.5t92.5 119.5q61 51 140 86t179 56v75q0 29 12.5 53.5t39.5 45.5q29 20 61.5 30.5t71.5 10.5q43 0 76.5 -10.5t58.5 -30.5q23 -20 36 -45t13 -56v2v-204q0 -25 -13.5 -42.5t-35.5 -27.5q-25 -8 -53.5 -16.5t-61.5 -14.5q-2 -2 -5 -3t-5 -1 q-4 -2 -6 -2h-6q-6 -2 -11.5 -3t-9.5 -1q-39 -8 -74.5 -21.5t-66.5 -29.5q-33 -16 -48.5 -47t-15.5 -76q0 -33 16.5 -59.5t49.5 -46.5q35 -23 70.5 -34.5t76.5 -11.5t74 8.5t59 24.5q25 14 48.5 31.5t44.5 36.5q2 2 2 3t2 3t4 3t4 1q2 2 4 3t4 3q0 2 2 3t4 3 q16 16 33.5 28.5t36.5 25.5q20 10 41.5 16t48.5 6q35 0 62.5 -10t50.5 -31q23 -20 33 -44.5t10 -57.5q0 -61 -31 -112.5t-92 -90.5q-61 -41 -127 -69.5t-139 -45.5q-23 -4 -46.5 -8t-46.5 -6q-23 -4 -45 -5t-41 -1q-125 0 -232.5 28.5t-197.5 88.5q-92 57 -137 137t-45 180z M471 952q0 33 13.5 60.5t43.5 52.5q29 23 65 35t77 12v2q41 -2 75.5 -14.5t65.5 -34.5q29 -25 44 -52.5t15 -60.5t-15 -61.5t-44 -50.5q-31 -25 -65.5 -36t-75.5 -11t-77 11t-65 36q-31 23 -44 51t-13 61z" />
<glyph unicode="&#xc0;" horiz-adv-x="1611" d="M4 129v15q0 7 2 14q0 4 1 6t1 6q2 2 3 5t3 5q0 2 2 4v4q0 2 1 3l3 4l2 1l1 1v2l514 1114q16 35 42.5 64.5t61.5 54.5t77 37t93 12q49 0 93 -12.5t79 -36.5q35 -25 59.5 -54.5t42.5 -66.5l502 -1112q4 -14 8 -25.5t7 -21.5q0 -4 1 -7.5t1 -5.5q2 -6 3 -10t1 -8 q0 -31 -13.5 -54.5t-42.5 -41.5q-27 -18 -57.5 -26.5t-64.5 -8.5q-39 0 -70 6t-53 20q-23 16 -38.5 35t-25.5 41l-76 195h-712l-76 -191q-10 -25 -25.5 -44t-36.5 -36q-23 -14 -53.5 -20t-68.5 -6q-39 0 -73 8t-61 29q-29 20 -43 45.5t-14 56.5zM492 1786v8v8q0 4 1 8.5 t3 8.5q6 16 17 32.5t32 30.5q18 16 39.5 23.5t44.5 7.5q6 0 13 -1t15 -1q4 -2 7.5 -2t7.5 -2q12 -2 26 -6l29 -9v2l301 -98l21 -8q14 -8 25 -15.5t22 -17.5q4 -4 8 -9t6 -9q4 -6 6 -11.5t2 -9.5v-3q0 -1 2 -1v-3v-4v-5v-4v-4v-4q-2 -25 -14 -47.5t-31 -45.5 q-20 -20 -41.5 -30.5t-48.5 -10.5h-15h-12h-2h-2q-2 0 -4 1t-4 1t-8 3l-12 4q-8 2 -17.5 5t-25.5 7l-287 92q-27 6 -47.5 17.5t-32.5 25.5q-14 16 -19 34.5t-5 41.5zM565 569h486l-238 594h-4z" />
<glyph unicode="&#xc1;" horiz-adv-x="1611" d="M4 129v15q0 7 2 14q0 4 1 6t1 6q2 2 3 5t3 5q0 2 2 4v4q0 2 1 3l3 4l2 1l1 1v2l514 1114q16 35 42.5 64.5t61.5 54.5t77 37t93 12q49 0 93 -12.5t79 -36.5q35 -25 59.5 -54.5t42.5 -66.5l502 -1112q4 -14 8 -25.5t7 -21.5q0 -4 1 -7.5t1 -5.5q2 -6 3 -10t1 -8 q0 -31 -13.5 -54.5t-42.5 -41.5q-27 -18 -57.5 -26.5t-64.5 -8.5q-39 0 -70 6t-53 20q-23 16 -38.5 35t-25.5 41l-76 195h-712l-76 -191q-10 -25 -25.5 -44t-36.5 -36q-23 -14 -53.5 -20t-68.5 -6q-39 0 -73 8t-61 29q-29 20 -43 45.5t-14 56.5zM492 1688v4v4v4v4v4v4 q0 2 2 4q0 4 1 9.5t5 11.5q2 4 6 9t8 9q10 10 22.5 17.5t26.5 13.5l21 10l301 98q14 4 27.5 7.5t23.5 5.5q6 2 12 3t13 1q4 2 10 2h12q16 0 31.5 -4t29.5 -13q6 -4 11.5 -7t9.5 -7q18 -14 30.5 -30.5t20.5 -32.5v-4q0 -2 2 -5v-4v-4v-4q0 -2 2 -4v-4v-4q0 -23 -7 -41.5 t-17 -34.5q-14 -14 -34 -25.5t-46 -19.5l-287 -88q-14 -6 -26.5 -9t-16.5 -5q-8 -2 -12 -4.5t-8 -2.5q-2 0 -4.5 -1t-4.5 -1h-4h-4h-8h-14q-27 0 -50.5 10.5t-41.5 30.5q-20 23 -29.5 45.5t-13.5 47.5zM565 569h486l-238 594h-4z" />
<glyph unicode="&#xc2;" horiz-adv-x="1611" d="M4 129v15q0 7 2 14q0 4 1 6t1 6q2 2 3 5t3 5q0 2 2 4v4q0 2 1 3l3 4l2 1l1 1v2l514 1114q16 35 42.5 64.5t61.5 54.5t77 37t93 12q49 0 93 -12.5t79 -36.5q35 -25 59.5 -54.5t42.5 -66.5l502 -1112q4 -14 8 -25.5t7 -21.5q0 -4 1 -7.5t1 -5.5q2 -6 3 -10t1 -8 q0 -31 -13.5 -54.5t-42.5 -41.5q-27 -18 -57.5 -26.5t-64.5 -8.5q-39 0 -70 6t-53 20q-23 16 -38.5 35t-25.5 41l-76 195h-712l-76 -191q-10 -25 -25.5 -44t-36.5 -36q-23 -14 -53.5 -20t-68.5 -6q-39 0 -73 8t-61 29q-29 20 -43 45.5t-14 56.5zM416 1681q0 25 8 44.5 t22 33.5q16 16 38 27.5t51 19.5v2l270 88l272 -88q27 -10 49.5 -22t36.5 -27q16 -14 23.5 -33.5t7.5 -44.5t-12.5 -47t-34.5 -43q-23 -20 -50.5 -30.5t-58.5 -10.5q-8 0 -20 2t-29 7q-8 2 -15 4t-13 4q-6 4 -13.5 7t-15.5 5h-4q-2 0 -4 2q-2 0 -4 1t-5 1q-2 0 -5 1t-5 3 l-100 37l-98 -35q-2 -2 -5 -3l-2 -1q-2 -2 -4 -2h-4l-1 -1q-1 -1 -3 -1t-3 -1t-5 -1q-14 -6 -29.5 -11t-32.5 -9q-14 -4 -25 -6.5t-20 -2.5q-31 0 -59.5 10.5t-50.5 30.5q-23 20 -35 42.5t-12 47.5zM565 569h486l-238 594h-4z" />
<glyph unicode="&#xc3;" horiz-adv-x="1611" d="M4 129v15q0 7 2 14q0 4 1 6t1 6q2 2 3 5t3 5q0 2 2 4v4q0 2 1 3l3 4l2 1l1 1v2l514 1114q16 35 42.5 64.5t61.5 54.5t77 37t93 12q49 0 93 -12.5t79 -36.5q35 -25 59.5 -54.5t42.5 -66.5l502 -1112q4 -14 8 -25.5t7 -21.5q0 -4 1 -7.5t1 -5.5q2 -6 3 -10t1 -8 q0 -31 -13.5 -54.5t-42.5 -41.5q-27 -18 -57.5 -26.5t-64.5 -8.5q-39 0 -70 6t-53 20q-23 16 -38.5 35t-25.5 41l-76 195h-712l-76 -191q-10 -25 -25.5 -44t-36.5 -36q-23 -14 -53.5 -20t-68.5 -6q-39 0 -73 8t-61 29q-29 20 -43 45.5t-14 56.5zM381 1665v1v3v3v3 q0 41 17.5 74t54.5 57q35 25 77.5 37t94.5 12q20 0 41.5 -2t42.5 -6q14 -2 27.5 -5t25.5 -7q6 0 13 -1t13 -3q18 -6 36 -10t32 -9q16 -4 29.5 -6t25.5 -2q10 0 20.5 2t22.5 6q10 4 22.5 10.5t27.5 12.5q4 2 10 4t14 4q4 2 7 3t5 3q4 0 7.5 1t7.5 3t11 3.5t15 3.5q4 0 7.5 1 t7.5 1q4 2 7 2h7q29 0 52.5 -9.5t37.5 -27.5q16 -18 23.5 -36.5t7.5 -41.5q0 -37 -18.5 -66.5t-53.5 -54.5t-73.5 -38t-79.5 -17q-2 0 -4.5 -1t-4.5 -1h-2h-2h-4h-2h-4h-4q-12 0 -26.5 2t-30.5 4q-18 4 -35 7t-33 5h-4q-2 0 -2 2q-2 0 -4 1t-4 1h-4q-2 0 -5 2h-3h-3 q-20 4 -39.5 9.5t-35.5 9.5q-20 4 -34 6t-26 2q-8 0 -16 -1t-17 -5q-4 -2 -8 -3t-6 -1q-4 -2 -7 -3t-7 -3q-2 -2 -5 -3t-6 -4q-2 -2 -5 -3t-5 -1q-10 -6 -21.5 -10t-21.5 -8q-12 -4 -26.5 -6t-30.5 -2v2q-16 -2 -31.5 2t-30.5 12q-6 2 -11 5t-9 7q-18 16 -29.5 33t-15.5 35z M565 569h486l-238 594h-4z" />
<glyph unicode="&#xc4;" horiz-adv-x="1611" d="M4 129v15q0 7 2 14q0 4 1 6t1 6q2 2 3 5t3 5q0 2 2 4v4q0 2 1 3l3 4l2 1l1 1v2l514 1114q16 35 42.5 64.5t61.5 54.5t77 37t93 12q49 0 93 -12.5t79 -36.5q35 -25 59.5 -54.5t42.5 -66.5l502 -1112q4 -14 8 -25.5t7 -21.5q0 -4 1 -7.5t1 -5.5q2 -6 3 -10t1 -8 q0 -31 -13.5 -54.5t-42.5 -41.5q-27 -18 -57.5 -26.5t-64.5 -8.5q-39 0 -70 6t-53 20q-23 16 -38.5 35t-25.5 41l-76 195h-712l-76 -191q-10 -25 -25.5 -44t-36.5 -36q-23 -14 -53.5 -20t-68.5 -6q-39 0 -73 8t-61 29q-29 20 -43 45.5t-14 56.5zM340 1712v2q0 29 13.5 55.5 t39.5 47.5q29 23 60.5 33t70.5 10t72 -10.5t59 -32.5q27 -20 40.5 -47t13.5 -58t-13.5 -56.5t-40.5 -47.5q-27 -20 -59.5 -31.5t-71.5 -11.5t-70.5 11t-60.5 32q-27 23 -40 48t-13 56zM565 569h486l-238 594h-4zM903 1712v2q0 29 13.5 55.5t39.5 47.5q29 23 61 33t70 10 q39 0 72 -10.5t60 -32.5q27 -20 40 -47t13 -58t-13.5 -56.5t-39.5 -47.5q-27 -20 -60 -31.5t-72 -11.5t-70.5 11t-60.5 32q-27 23 -40 48t-13 56z" />
<glyph unicode="&#xc5;" horiz-adv-x="1611" d="M4 129v15q0 7 2 14q0 4 1 6t1 6q2 2 3 5t3 5q0 2 2 4v4q0 2 1 3l3 4l2 1l1 1v2l514 1114q16 35 42.5 64.5t61.5 54.5t77 37t93 12q49 0 93 -12.5t79 -36.5q35 -25 59.5 -54.5t42.5 -66.5l502 -1112q4 -14 8 -25.5t7 -21.5q0 -4 1 -7.5t1 -5.5q2 -6 3 -10t1 -8 q0 -31 -13.5 -54.5t-42.5 -41.5q-27 -18 -57.5 -26.5t-64.5 -8.5q-39 0 -70 6t-53 20q-23 16 -38.5 35t-25.5 41l-76 195h-712l-76 -191q-10 -25 -25.5 -44t-36.5 -36q-23 -14 -53.5 -20t-68.5 -6q-39 0 -73 8t-61 29q-29 20 -43 45.5t-14 56.5zM553 1718v2q0 41 17.5 76 t56.5 66q37 29 81 44t97 15t97 -15.5t83 -43.5q37 -31 55.5 -67t18.5 -77q0 -43 -18.5 -78.5t-55.5 -64.5q-39 -31 -83 -45t-97 -14t-97 14t-81 45q-39 29 -56.5 64.5t-17.5 78.5zM565 569h486l-238 594h-4zM690 1718v2q0 -20 8.5 -37.5t24.5 -29.5q16 -14 36.5 -20.5 t45.5 -6.5q23 0 44 6t38 21q16 12 25.5 28.5t9.5 36.5q0 18 -9.5 34.5t-25.5 31.5q-16 12 -38 19t-44 7q-25 0 -45.5 -7t-36.5 -19q-16 -14 -24.5 -31t-8.5 -35z" />
<glyph unicode="&#xc6;" horiz-adv-x="2131" d="M-4 115q0 10 1 18t3 17v4v4q0 6 1 11t3 9q0 4 2 8t6 9q2 2 4 5t4 5q0 2 2.5 4t2.5 4v2l794 1174l1 2q1 2 3 4q0 2 2 4t6 4q8 10 19.5 19.5t32.5 17.5q18 8 46.5 12t67.5 4l899 2q47 -2 80 -13t56 -34q23 -20 35 -45t12 -51v-3v-3q-2 -27 -14.5 -49.5t-34.5 -45.5 q-23 -20 -58 -30t-76 -10l-450 2v-299h420q47 -2 83 -13.5t58 -34.5q23 -20 34 -44.5t11 -51.5v-3v-3q-2 -27 -15.5 -49.5t-35.5 -44.5q-23 -20 -56.5 -30.5t-78.5 -10.5l-420 2v-311h473q47 -2 80 -13.5t55 -33.5q23 -20 35 -45t12 -52v-3v-3q-2 -27 -14 -49.5t-35 -42.5 t-56.5 -30.5t-76.5 -10.5h-659q-43 0 -79 10t-63 31q-29 20 -43 48t-14 63v104h-586l-121 -168q-14 -23 -33.5 -41t-41.5 -33q-23 -12 -48.5 -18t-56.5 -6q-37 0 -68.5 8t-60.5 22q-27 16 -38 40t-11 55zM651 532h410v594h-4z" />
<glyph unicode="&#xc7;" horiz-adv-x="1562" d="M43 727v2q0 158 60.5 292t183.5 243t281.5 163t355.5 54q23 0 48 -1t54 -3q10 0 19.5 -2t19.5 -2q18 -2 37.5 -4.5t40.5 -6.5q61 -10 119.5 -28.5t109.5 -42.5q49 -25 76 -60t27 -80q0 -27 -11.5 -51t-33.5 -45q-23 -20 -51.5 -30.5t-63.5 -10.5h-16q-7 0 -15 2 q-8 0 -14 1t-10 3t-8.5 2t-8.5 2l-16 4l-17 5l-24 8q-12 4 -25 10q-12 4 -23.5 6t-23.5 6q-12 2 -25.5 5t-27.5 6q-27 6 -61.5 9t-75.5 3q-119 0 -209 -35t-152 -104q-61 -70 -91 -151t-30 -175q0 -92 31 -171t92 -147t150.5 -101.5t208.5 -33.5q41 0 75.5 3t65.5 10 q29 6 55.5 14t48.5 16q8 4 16.5 6t16.5 7q6 2 14.5 5t16.5 5q8 4 15 6t16 4q6 2 13 3t15 3h4q2 0 4 2h3h2h3h3h4q2 0 4 2h7h5q29 0 51.5 -7t42.5 -19q18 -12 33 -26.5t23 -31.5q4 -8 8 -15t6 -13q2 -8 3 -14.5t1 -12.5q0 -49 -26.5 -87t-79.5 -62q-53 -27 -111.5 -43.5 t-120.5 -24.5q-33 -6 -64.5 -10t-62.5 -6t-59.5 -3.5t-50.5 -1.5q-197 0 -354.5 53.5t-280.5 162.5t-184.5 241.5t-61.5 292.5zM610 -342q0 12 5.5 21.5t13.5 17.5t19 11t24 3h11q7 0 15 -2l17 -4l16 -4h3h3q2 -2 5 -3t8 -1h6q2 0 6 -2q2 0 5 -1t5 -1h5h5h4q2 0 2 -2h3h3h2 h3h2h2h2q16 0 28.5 3t22.5 9q12 6 18.5 17.5t6.5 27.5q0 20 -7.5 32.5t-21.5 16.5t-28.5 6t-30.5 2h-3h-4q-2 2 -3 2h-4h-5q-14 2 -25.5 3.5t-21.5 5.5q-12 2 -16 11t-4 26q0 2 1 7t3 11q2 2 4 5t4 5q2 4 4 6t4 7q0 2 1 3l3 3q0 2 2 3t4 3t2 3t2 3t4.5 5t4.5 5l7 7l5 5 l61 66h154l-100 -104q2 2 4 2h4q0 2 2 2h4h4h4h2h4q4 0 5 1l3 3h3h6h4h4h4q41 0 74.5 -10.5t60.5 -30.5q29 -20 43 -49t14 -66q0 -41 -17 -72.5t-52 -54.5t-72 -38t-78 -21q-4 0 -8 -1t-8 -1q-4 -2 -8 -2h-9h-8q-4 0 -8 -2h-8h-8h-9h-12q-2 2 -4 2h-4h-7h-7q-14 0 -27.5 1 t-28.5 3q-25 4 -47 12t-45 18q-20 10 -30.5 26.5t-10.5 39.5z" />
<glyph unicode="&#xc8;" horiz-adv-x="1183" d="M115 152v2v1126q0 37 11 68.5t38 56.5q23 25 60.5 38t88.5 13l635 2q47 -2 81 -13t56 -34q23 -20 34 -45t11 -51v-3v-3q-2 -27 -14 -49.5t-35 -45.5q-23 -20 -56.5 -30t-76.5 -10l-450 2v-299h420q47 -2 82.5 -13.5t58.5 -34.5q23 -20 35 -44.5t12 -51.5v-3v-3 q-2 -27 -15.5 -49.5t-35.5 -44.5q-23 -20 -57.5 -30.5t-79.5 -10.5l-420 2v-311h475q47 -2 79.5 -13.5t55.5 -33.5q23 -20 34 -45t11 -52v-3v-3q-2 -27 -13.5 -49.5t-33.5 -42.5q-23 -20 -57.5 -30.5t-75.5 -10.5h-662q-41 0 -76.5 10t-64.5 31q-27 20 -41 48t-14 63z M279 1786v8v8q0 4 1 8.5t3 8.5q6 16 18 32.5t31 30.5q20 16 40.5 23.5t43.5 7.5q10 0 21.5 -1t23.5 -5q10 -2 24 -6l29 -9v2l301 -98l21 -8q14 -8 26 -15.5t21 -17.5q4 -4 8 -9t6 -9q4 -6 6 -11.5t2 -9.5v-3q0 -1 2 -1v-3v-4v-5v-4v-4v-4q-2 -25 -14 -47.5t-31 -45.5 q-20 -20 -40.5 -30.5t-49.5 -10.5h-14h-10h-8q-3 0 -7 2q-2 0 -8 3l-12 4q-8 2 -17.5 5t-25.5 7l-287 92q-27 6 -47.5 17.5t-32.5 25.5q-12 16 -18 34.5t-6 41.5z" />
<glyph unicode="&#xc9;" horiz-adv-x="1183" d="M115 152v2v1126q0 37 11 68.5t38 56.5q23 25 60.5 38t88.5 13l635 2q47 -2 81 -13t56 -34q23 -20 34 -45t11 -51v-3v-3q-2 -27 -14 -49.5t-35 -45.5q-23 -20 -56.5 -30t-76.5 -10l-450 2v-299h420q47 -2 82.5 -13.5t58.5 -34.5q23 -20 35 -44.5t12 -51.5v-3v-3 q-2 -27 -15.5 -49.5t-35.5 -44.5q-23 -20 -57.5 -30.5t-79.5 -10.5l-420 2v-311h475q47 -2 79.5 -13.5t55.5 -33.5q23 -20 34 -45t11 -52v-3v-3q-2 -27 -13.5 -49.5t-33.5 -42.5q-23 -20 -57.5 -30.5t-75.5 -10.5h-662q-41 0 -76.5 10t-64.5 31q-27 20 -41 48t-14 63z M279 1688v4v4v4v4v4v4q0 2 2 4q0 4 1 9.5t5 11.5q2 4 6 9t8 9q10 10 22.5 17.5t26.5 13.5l21 10l301 98q14 4 27.5 7.5t23.5 5.5q6 2 12 3t13 1q4 2 10 2h12q16 0 31.5 -4t29.5 -13q6 -4 11.5 -7t9.5 -7q18 -14 30.5 -30.5t20.5 -32.5v-4q0 -2 2 -5v-4v-4v-4q0 -2 2 -4v-4 v-4q0 -23 -7 -41.5t-17 -34.5q-14 -14 -33 -25.5t-47 -19.5l-287 -88q-14 -6 -25.5 -9t-17.5 -5q-8 -2 -12 -4.5t-8 -2.5q-2 0 -4.5 -1t-4.5 -1h-4h-4h-8h-14q-27 0 -49.5 10.5t-42.5 30.5q-18 23 -28.5 45.5t-14.5 47.5z" />
<glyph unicode="&#xca;" horiz-adv-x="1183" d="M115 152v2v1126q0 37 11 68.5t38 56.5q23 25 60.5 38t88.5 13l635 2q47 -2 81 -13t56 -34q23 -20 34 -45t11 -51v-3v-3q-2 -27 -14 -49.5t-35 -45.5q-23 -20 -56.5 -30t-76.5 -10l-450 2v-299h420q47 -2 82.5 -13.5t58.5 -34.5q23 -20 35 -44.5t12 -51.5v-3v-3 q-2 -27 -15.5 -49.5t-35.5 -44.5q-23 -20 -57.5 -30.5t-79.5 -10.5l-420 2v-311h475q47 -2 79.5 -13.5t55.5 -33.5q23 -20 34 -45t11 -52v-3v-3q-2 -27 -13.5 -49.5t-33.5 -42.5q-23 -20 -57.5 -30.5t-75.5 -10.5h-662q-41 0 -76.5 10t-64.5 31q-27 20 -41 48t-14 63z M205 1681q0 25 8 44.5t23 33.5q16 16 36.5 27.5t49.5 19.5v2l272 88l270 -88q29 -10 51.5 -22t36.5 -27q16 -14 23.5 -33.5t7.5 -44.5t-13.5 -47t-35.5 -43q-23 -20 -50.5 -30.5t-58.5 -10.5q-8 0 -19 2t-28 7q-8 2 -15 4t-13 4q-8 4 -15.5 7t-15.5 5h-4q-2 0 -4 2 q-2 0 -4 1t-5 1h-3q-1 0 -1 2q-2 0 -3 1t-3 1l-98 37l-100 -35q-2 -2 -4.5 -3t-4.5 -3h-2h-2q-2 0 -4 -1l-2 -1q-2 -2 -4 -2h-4q-14 -6 -29.5 -11t-31.5 -9q-14 -4 -25.5 -6.5t-20.5 -2.5q-31 0 -59.5 10.5t-50.5 30.5q-23 20 -34 42.5t-11 47.5z" />
<glyph unicode="&#xcb;" horiz-adv-x="1183" d="M115 152v2v1126q0 37 11 68.5t38 56.5q23 25 60.5 38t88.5 13l635 2q47 -2 81 -13t56 -34q23 -20 34 -45t11 -51v-3v-3q-2 -27 -14 -49.5t-35 -45.5q-23 -20 -56.5 -30t-76.5 -10l-450 2v-299h420q47 -2 82.5 -13.5t58.5 -34.5q23 -20 35 -44.5t12 -51.5v-3v-3 q-2 -27 -15.5 -49.5t-35.5 -44.5q-23 -20 -57.5 -30.5t-79.5 -10.5l-420 2v-311h475q47 -2 79.5 -13.5t55.5 -33.5q23 -20 34 -45t11 -52v-3v-3q-2 -27 -13.5 -49.5t-33.5 -42.5q-23 -20 -57.5 -30.5t-75.5 -10.5h-662q-41 0 -76.5 10t-64.5 31q-27 20 -41 48t-14 63z M127 1712v2q0 29 13.5 55.5t39.5 47.5q29 23 60.5 33t70.5 10t72 -10.5t59 -32.5q27 -20 40.5 -47t13.5 -58t-13.5 -56.5t-40.5 -47.5q-27 -20 -59.5 -31.5t-71.5 -11.5t-70.5 11t-60.5 32q-27 23 -40 48t-13 56zM690 1712v2q0 29 13.5 55.5t39.5 47.5q29 23 61 33t70 10 q39 0 72 -10.5t60 -32.5q27 -20 40 -47t13 -58t-13.5 -56.5t-39.5 -47.5q-27 -20 -60 -31.5t-72 -11.5t-70.5 11t-60.5 32q-27 23 -40 48t-13 56z" />
<glyph unicode="&#xcc;" horiz-adv-x="614" d="M-2 1786v4v4q2 2 2 4v4v4v4v5v4q4 16 15.5 32.5t29.5 30.5q20 16 40.5 23.5t43.5 7.5q10 0 21.5 -1t23.5 -5q10 -2 25 -6l28 -9v2l301 -98l21 -8q14 -8 26.5 -15.5t20.5 -17.5q4 -4 8 -9t6 -9q4 -6 6 -11.5t2 -9.5v-3q0 -1 3 -1v-3v-4v-5v-4v-4v-4q-2 -25 -14.5 -47.5 t-31.5 -45.5q-20 -20 -40.5 -30.5t-49.5 -10.5h-14h-10h-7q-3 0 -8 2q-2 0 -8 3l-12 4q-8 2 -17.5 5t-25.5 7l-287 92q-27 6 -47 17.5t-33 25.5q-10 16 -14 34.5t-4 41.5zM115 145v2v1164q0 37 13 66.5t40 49.5q29 20 62.5 30.5t76.5 10.5q41 0 75 -10t60 -31 q27 -20 41.5 -49.5t14.5 -68.5v-1162q0 -39 -14.5 -68.5t-41.5 -49.5t-60.5 -29.5t-74.5 -9.5q-43 0 -76.5 9t-62.5 30q-27 20 -40 48.5t-13 67.5z" />
<glyph unicode="&#xcd;" horiz-adv-x="614" d="M-2 1688v4v4v4v4v4v4q2 0 2 1v3q0 4 1 9.5t3 11.5q2 4 5 9t7 9q8 10 20.5 17.5t26.5 13.5l21 10l301 98q14 4 27.5 7.5t23.5 5.5q6 2 12.5 3t12.5 1q4 2 10 2h12q16 0 31.5 -4t30.5 -13q6 -4 11 -7t9 -7q18 -14 30.5 -30.5t20.5 -32.5v-4q0 -2 2 -5v-4v-4v-4q0 -2 3 -4 v-4v-4q0 -23 -7.5 -41.5t-17.5 -34.5q-14 -14 -32.5 -25.5t-47.5 -19.5l-287 -88q-14 -6 -25 -9t-18 -5q-8 -2 -12 -4.5t-8 -2.5q-2 0 -4 -1t-4 -1h-4h-4h-9h-14q-27 0 -49.5 10.5t-42.5 30.5q-18 23 -26.5 45.5t-10.5 47.5zM115 145v2v1164q0 37 13 66.5t40 49.5 q29 20 62.5 30.5t76.5 10.5q41 0 75 -10t60 -31q27 -20 41.5 -49.5t14.5 -68.5v-1162q0 -39 -14.5 -68.5t-41.5 -49.5t-60.5 -29.5t-74.5 -9.5q-43 0 -76.5 9t-62.5 30q-27 20 -40 48.5t-13 67.5z" />
<glyph unicode="&#xce;" horiz-adv-x="614" d="M-76 1681q0 25 7.5 44.5t23.5 33.5q14 16 33.5 27.5t46.5 19.5v2l272 88l271 -88q29 -10 51 -22t37 -27q16 -14 23 -33.5t7 -44.5t-13 -47t-36 -43q-23 -20 -50.5 -30.5t-57.5 -10.5q-8 0 -19.5 2t-27.5 7q-8 2 -15.5 4t-13.5 4q-8 4 -15.5 7t-15.5 5h-4q-2 0 -4 2 q-2 0 -4 1t-4 1h-3q-1 0 -1 2q-2 0 -3 1t-3 1l-99 37l-100 -35q-2 -2 -4 -3t-4 -3h-2h-2q-2 0 -5 -1l-2 -1q-2 -2 -4 -2h-4q-14 -6 -29.5 -11t-31.5 -9q-14 -4 -25.5 -6.5t-19.5 -2.5q-31 0 -56.5 10.5t-48.5 30.5t-34 42.5t-11 47.5zM115 145v2v1164q0 37 13 66.5t40 49.5 q29 20 62.5 30.5t76.5 10.5q41 0 75 -10t60 -31q27 -20 41.5 -49.5t14.5 -68.5v-1162q0 -39 -14.5 -68.5t-41.5 -49.5t-60.5 -29.5t-74.5 -9.5q-43 0 -76.5 9t-62.5 30q-27 20 -40 48.5t-13 67.5z" />
<glyph unicode="&#xcf;" horiz-adv-x="614" d="M-158 1714q4 29 17.5 55.5t40.5 47.5q27 23 59.5 33t65.5 10q39 0 71.5 -10.5t59.5 -32.5q27 -20 40 -47t13 -58t-13.5 -56.5t-39.5 -47.5q-27 -20 -60 -31.5t-71 -11.5q-33 0 -66 11t-59 32q-27 23 -40.5 48t-13.5 56zM115 145v2v1164q0 37 13 66.5t40 49.5 q29 20 62.5 30.5t76.5 10.5q41 0 75 -10t60 -31q27 -20 41.5 -49.5t14.5 -68.5v-1162q0 -39 -14.5 -68.5t-41.5 -49.5t-60.5 -29.5t-74.5 -9.5q-43 0 -76.5 9t-62.5 30q-27 20 -40 48.5t-13 67.5zM403 1712v2q0 29 13.5 55.5t40.5 47.5q29 23 60.5 33t70.5 10t71.5 -10.5 t59.5 -32.5q27 -20 40 -47t13 -58t-13.5 -56.5t-39.5 -47.5q-27 -20 -59.5 -31.5t-71.5 -11.5t-71 11t-60 32q-27 23 -40.5 48t-13.5 56z" />
<glyph unicode="&#xd0;" horiz-adv-x="1705" d="M-111 731v2v4q0 23 11.5 42.5t29.5 37.5q20 18 49 27.5t66 9.5l70 2v444q0 35 13 64t40 49q29 23 63.5 33t79.5 10l426 2q215 -2 381 -53t285 -154q117 -100 176 -237t59 -307q0 -162 -60 -290t-181 -224q-119 -96 -277.5 -144.5t-357.5 -48.5h-445h-7h-7h-7h-7 q-8 0 -15.5 1t-15.5 3q-27 4 -52.5 15.5t-47.5 29.5q-23 16 -33 43t-10 60v2v469h-70q-35 -2 -62.5 6t-48.5 26q-20 16 -31.5 36t-13.5 40zM498 283h260q123 -2 214 29.5t148 95.5q59 66 89 143.5t30 169.5q0 98 -30.5 179t-90.5 144q-61 66 -157.5 98t-229.5 32l-233 2 v-320h211q41 -2 70.5 -11t49.5 -28q18 -18 29.5 -37.5t11.5 -42.5v-3v-3q-2 -20 -13 -39.5t-32 -36.5q-20 -18 -48.5 -26t-67.5 -8l-211 2v-340z" />
<glyph unicode="&#xd1;" horiz-adv-x="1753" d="M98 145v2v1164q0 37 14.5 66.5t41.5 49.5t61.5 30.5t75.5 10.5q8 0 16 -1t17 -3q6 0 12 -2t12 -2q2 -2 6 -2t6 -2q10 -6 23.5 -12t28.5 -12q2 -2 5 -4.5t5 -4.5q8 -6 16 -11t15 -11l811 -864h6v774q0 37 13 66.5t40 49.5t61.5 30.5t75.5 10.5t76 -10t61 -31 q27 -20 41.5 -49.5t14.5 -68.5v-1162q0 -39 -14.5 -68.5t-41.5 -49.5t-61.5 -29.5t-75.5 -9.5h-8q-4 0 -8 2q-4 0 -8 1t-9 1q-8 2 -17 4t-17 2q-14 4 -27.5 9t-24.5 14q-14 6 -23 14l-18 16l-813 858h-4v-764q0 -39 -14 -68.5t-43 -49.5q-27 -20 -60.5 -29.5t-74.5 -9.5 t-76 9t-61 30q-27 20 -41.5 48.5t-14.5 67.5zM453 1665v1v3v3v3q0 41 17 74t54 57q35 25 78 37t94 12q20 0 42 -2t42 -6q14 -2 27.5 -5t26.5 -7q6 0 13 -1t13 -3q18 -6 35.5 -10t32.5 -9q16 -4 29.5 -6t25.5 -2q10 0 20.5 2t22.5 6q10 4 22.5 10.5t26.5 12.5q4 2 10.5 4 t14.5 4q4 2 7 3t5 3q4 0 7 1t7 3t11.5 3.5t15.5 3.5q4 0 7 1t7 1q4 2 8 2h7q29 0 52 -9.5t38 -27.5q16 -18 23.5 -36.5t7.5 -41.5q0 -37 -18.5 -66.5t-53.5 -54.5t-74 -38t-80 -17q-2 0 -4 -1t-4 -1h-2h-2h-4h-2h-4h-4q-12 0 -26.5 2t-31.5 4q-18 4 -34.5 7t-32.5 5h-4 q-2 0 -2 2q-2 0 -4.5 1t-4.5 1h-4q-2 0 -4 2h-3h-3q-20 4 -39.5 9.5t-36.5 9.5q-20 4 -33.5 6t-25.5 2q-8 0 -16.5 -1t-16.5 -5q-4 -2 -8 -3t-6 -1q-4 -2 -7 -3t-8 -3q-2 -2 -5 -3t-5 -4q-2 -2 -5 -3t-5 -1q-10 -6 -21.5 -10t-21.5 -8q-12 -4 -26.5 -6t-30.5 -2v2 q-16 -2 -32 2t-30 12q-6 2 -11 5t-9 7q-18 16 -29.5 33t-15.5 35z" />
<glyph unicode="&#xd2;" horiz-adv-x="686" />
<glyph unicode="&#xd3;" horiz-adv-x="1847" d="M43 727q0 160 60.5 294t183.5 243t281.5 163t355.5 54q193 0 351.5 -55.5t280.5 -165.5q123 -111 185.5 -244t62.5 -289q0 -160 -61.5 -293t-181.5 -241q-123 -109 -283 -162.5t-354 -53.5v-2q-197 2 -354.5 55.5t-280.5 162.5t-184.5 241.5t-61.5 292.5zM442 727 q0 -94 30 -176t87 -154q59 -70 150.5 -105.5t214.5 -35.5v2q121 -2 211 34t149 105q59 72 90 154t31 176q0 92 -31 175t-90 153q-61 72 -151.5 107.5t-208.5 35.5q-121 0 -211 -36t-150 -107q-61 -70 -91 -153t-30 -175zM608 1688v4v4v4v4v4v4q0 2 2 4q0 4 1 9.5t5 11.5 q2 4 6.5 9t8.5 9q10 10 22.5 17.5t26.5 13.5l20 10l304 98q6 2 12 3t14 4q6 2 12.5 3t12.5 3t11 3t11 1q6 2 12 2h11q23 0 43 -7.5t39 -23.5q20 -14 31.5 -30.5t19.5 -32.5v-4q0 -2 2 -5v-4v-4q0 -2 1 -4t1 -4t1 -4t1 -4q0 -23 -7 -41.5t-20 -34.5q-14 -14 -32.5 -25.5 t-46.5 -19.5l-287 -88q-14 -6 -25.5 -9t-17.5 -5t-9 -4.5t-8 -2.5h-4q-2 0 -4 -1l-2 -1h-4h-4h-10h-15q-27 0 -49 10.5t-43 30.5q-18 23 -28.5 45.5t-14.5 47.5z" />
<glyph unicode="&#xd4;" horiz-adv-x="1847" d="M43 727q0 160 60.5 294t183.5 243t281.5 163t355.5 54q193 0 351.5 -55.5t280.5 -165.5q123 -111 185.5 -244t62.5 -289q0 -160 -61.5 -293t-181.5 -241q-123 -109 -283 -162.5t-354 -53.5v-2q-197 2 -354.5 55.5t-280.5 162.5t-184.5 241.5t-61.5 292.5zM442 727 q0 -94 30 -176t87 -154q59 -70 150.5 -105.5t214.5 -35.5v2q121 -2 211 34t149 105q59 72 90 154t31 176q0 92 -31 175t-90 153q-61 72 -151.5 107.5t-208.5 35.5q-121 0 -211 -36t-150 -107q-61 -70 -91 -153t-30 -175zM535 1681q0 25 8 44.5t22 33.5q16 16 38 27.5 t48 19.5v2l273 88l270 -88q29 -10 51.5 -22t36.5 -27q16 -14 23.5 -33.5t7.5 -44.5t-13.5 -47t-35.5 -43q-23 -20 -49.5 -30.5t-57.5 -10.5q-10 0 -21.5 2t-27.5 7q-8 2 -15.5 4t-13.5 4q-8 4 -15 7t-15 5h-5q-2 0 -2 2q-2 0 -4 1t-4 1q-4 0 -6 1t-4 3l-100 37l-101 -35 q-2 -2 -5 -4t-7 -2q-2 0 -4 -1t-4 -3h-2h-2q-14 -6 -29.5 -11t-32.5 -9q-14 -4 -26.5 -6.5t-20.5 -2.5q-31 0 -59.5 10.5t-50.5 30.5q-23 20 -34 42.5t-11 47.5z" />
<glyph unicode="&#xd5;" horiz-adv-x="1847" d="M43 727q0 160 60.5 294t183.5 243t281.5 163t355.5 54q193 0 351.5 -55.5t280.5 -165.5q123 -111 185.5 -244t62.5 -289q0 -160 -61.5 -293t-181.5 -241q-123 -109 -283 -162.5t-354 -53.5v-2q-197 2 -354.5 55.5t-280.5 162.5t-184.5 241.5t-61.5 292.5zM442 727 q0 -94 30 -176t87 -154q59 -70 150.5 -105.5t214.5 -35.5v2q121 -2 211 34t149 105q59 72 90 154t31 176q0 92 -31 175t-90 153q-61 72 -151.5 107.5t-208.5 35.5q-121 0 -211 -36t-150 -107q-61 -70 -91 -153t-30 -175zM498 1665v1v3v3v3q0 41 18.5 74t52.5 57q35 25 79 37 t93 12q23 0 43.5 -2t40.5 -6q23 -4 42.5 -8t37.5 -8q20 -6 38 -10t32 -9q16 -4 29.5 -6t23.5 -2q6 0 13.5 1t15.5 3q4 0 7 1t7 3t8 3.5t8 3.5l17 8l16 8l13 4q6 2 14 4q2 2 5 3t5 3q4 0 7 1t7 3q6 2 13.5 3.5t15.5 3.5q4 0 7 1t7 1q4 2 8 2h7q29 0 51.5 -9.5t36.5 -27.5 q16 -18 23.5 -36.5t7.5 -41.5q0 -37 -18.5 -66.5t-53.5 -54.5q-33 -25 -72 -38t-82 -17q-2 -2 -4 -2h-3h-5h-5h-7q-14 0 -28.5 2t-31.5 4q-16 4 -32.5 7t-32.5 5h-4q-2 0 -4 2q-2 0 -4.5 1t-4.5 1h-2h-2h-2v2h-4h-2q-20 4 -39.5 9.5t-38.5 9.5q-18 4 -32.5 6t-24.5 2 t-18.5 -1t-16.5 -5q-4 -2 -8 -3t-6 -1q-4 -2 -7 -3t-5 -3l-7 -3q-2 -1 -4 -4l-6 -3q-2 -1 -4 -1q-6 -2 -11 -5t-11 -5t-11.5 -4t-11.5 -4q-10 -4 -24.5 -6t-30.5 -2v2q-23 -2 -43.5 5t-38.5 21q-20 16 -31.5 33t-15.5 35z" />
<glyph unicode="&#xd6;" horiz-adv-x="1847" d="M43 727q0 160 60.5 294t183.5 243t281.5 163t355.5 54q193 0 351.5 -55.5t280.5 -165.5q123 -111 185.5 -244t62.5 -289q0 -160 -61.5 -293t-181.5 -241q-123 -109 -283 -162.5t-354 -53.5v-2q-197 2 -354.5 55.5t-280.5 162.5t-184.5 241.5t-61.5 292.5zM442 727 q0 -94 30 -176t87 -154q59 -70 150.5 -105.5t214.5 -35.5v2q121 -2 211 34t149 105q59 72 90 154t31 176q0 92 -31 175t-90 153q-61 72 -151.5 107.5t-208.5 35.5q-121 0 -211 -36t-150 -107q-61 -70 -91 -153t-30 -175zM457 1712v2q0 29 14 55.5t41 47.5q27 23 58.5 33 t70.5 10t71.5 -10.5t59.5 -32.5q29 -20 41 -47t12 -58t-12 -56.5t-41 -47.5q-27 -20 -59.5 -31.5t-71.5 -11.5t-70.5 11t-58.5 32q-27 23 -41 48t-14 56zM1020 1712v2q0 29 14.5 55.5t40.5 47.5q27 23 58.5 33t70.5 10t72 -10.5t59 -32.5q29 -20 41.5 -47t12.5 -58 t-12.5 -56.5t-41.5 -47.5q-27 -20 -59.5 -31.5t-71.5 -11.5t-70.5 11t-58.5 32q-27 23 -41 48t-14 56z" />
<glyph unicode="&#xd7;" horiz-adv-x="686" />
<glyph unicode="&#xd8;" horiz-adv-x="1847" d="M0 53q0 10 2 17.5t8 15.5q4 8 10.5 15.5t14.5 15.5v2l180 145q-43 47 -74.5 100.5t-54.5 112.5t-33 122t-10 128q0 160 60.5 294t183.5 243t281.5 163t355.5 54q84 0 161.5 -10.5t147.5 -30.5t131 -49t113 -66l122 100q2 0 4.5 3.5t6.5 5.5l3 3l3 3q2 0 3 1l3 3q4 2 6 4 t6 4q8 6 17.5 12t21.5 13q14 8 31.5 12t38.5 4h4h4h1h3q0 -2 2 -2h4q16 -2 30.5 -8t27.5 -17q14 -8 21 -20t7 -25v-4v-6q-2 -2 -2 -4v-6q0 -6 -1 -12.5t-5 -12.5l-3 -3l-4 -4l-3 -3q-2 -2 -3 -5t-3 -7l-195 -158q41 -49 73 -103.5t54 -113.5q23 -59 36 -122.5t13 -129.5 q0 -160 -61.5 -293t-181.5 -241q-123 -109 -283 -162.5t-354 -53.5q-86 0 -165 10.5t-149 26.5q-70 20 -131 49t-114 66l-158 -127q-6 -2 -13.5 -7t-15.5 -9q-4 -2 -7 -4t-7 -5q-14 -6 -27.5 -9t-30.5 -3h-3h-5h-3q-22 2 -37 11.5t-31 21.5q-14 8 -20.5 23.5t-6.5 31.5z M442 727q0 -31 2 -61.5t11 -59.5q6 -29 16 -56.5t25 -51.5v2l725 614q-27 18 -60 33.5t-69 28.5q-35 10 -78 16t-90 6q-121 0 -211 -36t-150 -107q-61 -70 -91 -153t-30 -175zM625 346q25 -20 55.5 -37.5t69.5 -29.5t80.5 -17.5t93.5 -5.5q121 0 211 36t149 105 q59 72 90 154t31 176q0 31 -4 61l-8 62q-8 29 -18.5 56.5t-26.5 54.5v2z" />
<glyph unicode="&#xd9;" horiz-adv-x="1753" d="M98 578v2v731q0 37 14.5 66.5t41.5 49.5t61.5 30.5t75.5 10.5t74.5 -10t60.5 -31q29 -20 43 -49.5t14 -68.5v-713q0 -72 26 -132.5t79 -109.5t124.5 -73.5t164.5 -24.5q88 0 158.5 24.5t123.5 75.5t82 110.5t29 127.5v717q0 37 13 66.5t40 49.5t61.5 30.5t75.5 10.5 t76 -10t61 -31q27 -20 41.5 -49.5t14.5 -68.5v-729q0 -131 -57.5 -239t-172.5 -194t-252 -128t-294 -42q-162 0 -298.5 41t-250.5 127q-115 86 -172.5 194t-57.5 239zM563 1786v8v8q0 4 1 8.5t3 8.5q6 16 17.5 32.5t31.5 30.5q18 16 40 23.5t44 7.5q6 0 13.5 -1t15.5 -1 q4 -2 7 -2t7 -2q12 -2 27 -6l29 -9v2l301 -98l20 -8q14 -8 25.5 -15.5t21.5 -17.5q4 -4 8.5 -9t6.5 -9q4 -6 6 -11.5t2 -9.5v-3q0 -1 2 -1v-3v-4v-5v-4v-4v-4q-2 -25 -14.5 -47.5t-30.5 -45.5q-20 -20 -42 -30.5t-48 -10.5h-16h-11h-2h-2q-2 0 -4 1t-4 1t-8 3l-13 4 q-8 2 -17 5t-26 7l-286 92q-27 6 -47.5 17.5t-32.5 25.5q-14 16 -19.5 34.5t-5.5 41.5z" />
<glyph unicode="&#xda;" horiz-adv-x="1753" d="M98 578v2v731q0 37 14.5 66.5t41.5 49.5t61.5 30.5t75.5 10.5t74.5 -10t60.5 -31q29 -20 43 -49.5t14 -68.5v-713q0 -72 26 -132.5t79 -109.5t124.5 -73.5t164.5 -24.5q88 0 158.5 24.5t123.5 75.5t82 110.5t29 127.5v717q0 37 13 66.5t40 49.5t61.5 30.5t75.5 10.5 t76 -10t61 -31q27 -20 41.5 -49.5t14.5 -68.5v-729q0 -131 -57.5 -239t-172.5 -194t-252 -128t-294 -42q-162 0 -298.5 41t-250.5 127q-115 86 -172.5 194t-57.5 239zM563 1688v4v4v4v4v4v4q0 2 2 4q0 4 1 9.5t5 11.5q2 4 6.5 9t8.5 9q10 10 22.5 17.5t26.5 13.5l20 10 l301 98q14 4 27.5 7.5t24.5 5.5q6 2 12 3t12 1q4 2 10 2h13q16 0 31.5 -4t29.5 -13q6 -4 11.5 -7t9.5 -7q18 -14 30.5 -30.5t20.5 -32.5v-4q0 -2 2 -5v-4v-4v-4q0 -2 2 -4v-4v-4q0 -23 -7 -41.5t-18 -34.5q-14 -14 -33.5 -25.5t-46.5 -19.5l-286 -88q-14 -6 -26.5 -9 t-16.5 -5q-8 -2 -12.5 -4.5t-8.5 -2.5q-2 0 -4 -1t-4 -1h-4h-4h-8h-15q-27 0 -50 10.5t-42 30.5q-20 23 -29.5 45.5t-13.5 47.5z" />
<glyph unicode="&#xdb;" horiz-adv-x="1753" d="M98 578v2v731q0 37 14.5 66.5t41.5 49.5t61.5 30.5t75.5 10.5t74.5 -10t60.5 -31q29 -20 43 -49.5t14 -68.5v-713q0 -72 26 -132.5t79 -109.5t124.5 -73.5t164.5 -24.5q88 0 158.5 24.5t123.5 75.5t82 110.5t29 127.5v717q0 37 13 66.5t40 49.5t61.5 30.5t75.5 10.5 t76 -10t61 -31q27 -20 41.5 -49.5t14.5 -68.5v-729q0 -131 -57.5 -239t-172.5 -194t-252 -128t-294 -42q-162 0 -298.5 41t-250.5 127q-115 86 -172.5 194t-57.5 239zM487 1681q0 25 8.5 44.5t22.5 33.5q16 16 38 27.5t50 19.5v2l271 88l272 -88q27 -10 49.5 -22t36.5 -27 q16 -14 23.5 -33.5t7.5 -44.5t-12.5 -47t-34.5 -43q-23 -20 -50.5 -30.5t-58.5 -10.5q-8 0 -20.5 2t-28.5 7q-8 2 -15.5 4t-13.5 4q-6 4 -13 7t-15 5h-5q-2 0 -4 2q-2 0 -4 1t-4 1t-5 1t-5 3l-100 37l-99 -35q-2 -2 -4 -3l-2 -1q-2 -2 -4 -2h-4l-1 -1q-1 -1 -3 -1t-3 -1 t-5 -1q-14 -6 -29.5 -11t-32.5 -9q-14 -4 -25.5 -6.5t-19.5 -2.5q-31 0 -59.5 10.5t-50.5 30.5q-23 20 -35.5 42.5t-12.5 47.5z" />
<glyph unicode="&#xdc;" horiz-adv-x="1753" d="M98 578v2v731q0 37 14.5 66.5t41.5 49.5t61.5 30.5t75.5 10.5t74.5 -10t60.5 -31q29 -20 43 -49.5t14 -68.5v-713q0 -72 26 -132.5t79 -109.5t124.5 -73.5t164.5 -24.5q88 0 158.5 24.5t123.5 75.5t82 110.5t29 127.5v717q0 37 13 66.5t40 49.5t61.5 30.5t75.5 10.5 t76 -10t61 -31q27 -20 41.5 -49.5t14.5 -68.5v-729q0 -131 -57.5 -239t-172.5 -194t-252 -128t-294 -42q-162 0 -298.5 41t-250.5 127q-115 86 -172.5 194t-57.5 239zM412 1712v2q0 29 13 55.5t40 47.5q29 23 60.5 33t70.5 10t71.5 -10.5t59.5 -32.5q27 -20 40 -47t13 -58 t-13 -56.5t-40 -47.5q-27 -20 -59.5 -31.5t-71.5 -11.5t-70.5 11t-60.5 32q-27 23 -40 48t-13 56zM975 1712v2q0 29 13 55.5t40 47.5q29 23 60.5 33t70.5 10t72 -10.5t59 -32.5q27 -20 40 -47t13 -58t-13 -56.5t-40 -47.5q-27 -20 -59.5 -31.5t-71.5 -11.5t-70.5 11 t-60.5 32q-27 23 -40 48t-13 56z" />
<glyph unicode="&#xdd;" horiz-adv-x="686" />
<glyph unicode="&#xde;" horiz-adv-x="1423" d="M115 145v2v1164q0 37 13 66.5t40 49.5q29 20 62.5 30.5t76.5 10.5q41 0 75 -10t60 -31q27 -20 41.5 -49.5t14.5 -68.5v-56h270q139 -2 256 -35.5t211 -101.5q92 -68 140 -157t48 -197q0 -113 -48 -201t-142 -153q-94 -66 -207 -99t-244 -33l-284 3v-132 q0 -39 -14.5 -68.5t-41.5 -49.5t-60.5 -29.5t-74.5 -9.5q-43 0 -76.5 9t-62.5 30q-27 20 -40 48.5t-13 67.5zM498 549h262q59 -2 107 13.5t85 45.5q35 31 53.5 71t18.5 85q0 47 -18.5 85t-53.5 69q-37 31 -85 47t-107 16l-262 2v-434z" />
<glyph unicode="&#xdf;" horiz-adv-x="1423" d="M98 150v2v905q0 109 38 200t114 166q76 76 185.5 114t254.5 38q115 0 213 -28.5t178 -88.5q82 -57 122 -134t40 -171v-8v-6q-2 -4 -2 -7v-8v-6v-6q-2 -4 -2 -7v-7q-6 -35 -19.5 -69t-31.5 -64q-20 -33 -50 -57.5t-69 -43.5q78 -18 136.5 -55t97.5 -90q39 -55 60 -112.5 t23 -119.5v-5v-7v-5v-7v-12v-11q-2 -6 -2 -11v-11q0 -6 -1 -11.5t-3 -9.5q-2 -6 -3 -11t-1 -11q-18 -76 -63 -144.5t-119 -130.5q-72 -63 -164 -93t-205 -30q-57 0 -100 10.5t-70 30.5q-27 23 -39 47.5t-12 55.5q0 35 15.5 58.5t46.5 35.5q31 10 63.5 19.5t71.5 17.5h1h3h3 q1 0 1 2h3h1q41 6 77 24.5t66 45.5q31 29 46.5 63.5t15.5 75.5q0 66 -16.5 107.5t-49.5 62.5q-35 23 -71.5 37t-77.5 22q-6 0 -11.5 1t-9.5 3h-4q-2 0 -2 2q-2 0 -4 1t-4 1q-37 6 -67.5 15.5t-59.5 21.5q-27 12 -40 38t-13 65q0 35 10 56.5t31 33.5q20 12 42.5 21.5 t49.5 17.5q2 0 4 2h3q3 0 5 1l6 3q6 2 13.5 4t13.5 4q20 8 39.5 18.5t36.5 22.5q23 16 36 49t13 80v1v3v3v3q-4 27 -19.5 51.5t-42.5 45.5q-27 23 -61.5 34t-77.5 11q-72 0 -118 -19.5t-66 -58.5q-18 -39 -28.5 -82t-10.5 -90v-903q0 -39 -12.5 -69t-38.5 -52 q-27 -20 -59.5 -30.5t-73.5 -10.5q-39 0 -72 10t-61 31q-27 23 -39.5 52.5t-12.5 66.5z" />
<glyph unicode="&#xe0;" d="M51 541q0 121 44 223t132 184t198 123t234 41q51 0 100.5 -8t94.5 -25q47 -16 86 -41.5t70 -60.5q4 27 18 48.5t41 39.5q25 16 54.5 25.5t64.5 9.5q47 0 79.5 -10.5t49.5 -30.5q18 -20 29.5 -42t15.5 -44v-9q0 -5 2 -10v-8v-8v-16v-15v2v-729v-16v-17v-8v-8q-2 -6 -2 -10 v-8q-4 -25 -15.5 -46.5t-29.5 -39.5q-16 -20 -49 -28.5t-80 -8.5q-41 0 -69.5 8t-49.5 22q-18 16 -33.5 39t-25.5 52q-35 -33 -76 -59.5t-82 -43.5q-45 -14 -92 -22.5t-101 -8.5q-131 0 -238.5 38t-195.5 118t-131 181.5t-43 226.5zM420 513q0 -5 2 -9q4 -49 24.5 -93 t55.5 -85t87 -61.5t122 -20.5q66 0 117 20.5t85 61.5q35 41 54.5 85t25.5 93v4q0 2 2 6v4v4v9v10v4v6q-2 2 -2 5v5v12v13q-8 47 -27.5 92t-54.5 84q-35 41 -85 60.5t-115 19.5q-70 0 -121 -19.5t-86 -60.5q-35 -39 -55.5 -84t-26.5 -92v-5v-8q-2 -2 -2 -5v-7v-11v-9v2v-12 v-9v-9zM420 1454v8v8q0 4 1 8.5t3 8.5q6 16 17.5 32.5t31.5 30.5q18 16 40 23.5t44 7.5q6 0 13.5 -1t15.5 -1q4 -2 7 -2t7 -2q12 -2 27 -6l28 -8v2l301 -99l21 -8q14 -8 25.5 -15t21.5 -18q4 -4 8 -9t6 -9q4 -6 6.5 -11t2.5 -10v-3q0 -1 2 -1v-3v-4v-5v-4v-4v-4 q-2 -25 -14.5 -47.5t-30.5 -44.5q-20 -20 -42 -30.5t-49 -10.5h-15h-11h-2h-2q-2 0 -4 1t-5 1q-2 0 -8 2l-12 4q-8 2 -17.5 5t-25.5 7l-287 92q-27 6 -47 17.5t-33 25.5q-14 16 -19 34.5t-5 41.5z" />
<glyph unicode="&#xe1;" d="M51 541q0 121 44 223t132 184t198 123t234 41q51 0 100.5 -8t94.5 -25q47 -16 86 -41.5t70 -60.5q4 27 18 48.5t41 39.5q25 16 54.5 25.5t64.5 9.5q47 0 79.5 -10.5t49.5 -30.5q18 -20 29.5 -42t15.5 -44v-9q0 -5 2 -10v-8v-8v-16v-15v2v-729v-16v-17v-8v-8q-2 -6 -2 -10 v-8q-4 -25 -15.5 -46.5t-29.5 -39.5q-16 -20 -49 -28.5t-80 -8.5q-41 0 -69.5 8t-49.5 22q-18 16 -33.5 39t-25.5 52q-35 -33 -76 -59.5t-82 -43.5q-45 -14 -92 -22.5t-101 -8.5q-131 0 -238.5 38t-195.5 118t-131 181.5t-43 226.5zM420 513q0 -5 2 -9q4 -49 24.5 -93 t55.5 -85t87 -61.5t122 -20.5q66 0 117 20.5t85 61.5q35 41 54.5 85t25.5 93v4q0 2 2 6v4v4v9v10v4v6q-2 2 -2 5v5v12v13q-8 47 -27.5 92t-54.5 84q-35 41 -85 60.5t-115 19.5q-70 0 -121 -19.5t-86 -60.5q-35 -39 -55.5 -84t-26.5 -92v-5v-8q-2 -2 -2 -5v-7v-11v-9v2v-12 v-9v-9zM420 1356v4v4v4v4v4v4q0 2 2 4q0 4 1 9.5t5 11.5q2 4 6 9t8 9q10 10 22.5 17.5t27.5 13.5l20 10l301 99q14 4 27.5 7t23.5 5q6 2 12.5 3t12.5 1q4 2 10 2h12q16 0 31.5 -4t30.5 -12q6 -4 11 -7.5t9 -7.5q18 -14 30.5 -30.5t20.5 -32.5v-4q0 -2 3 -4v-4v-5v-4 q0 -2 2 -4v-4v-4q0 -23 -7.5 -41t-17.5 -35q-14 -14 -33.5 -25.5t-46.5 -19.5l-287 -88q-14 -6 -26.5 -9t-16.5 -5q-8 -2 -12 -4t-8 -2q-2 0 -4 -1t-4 -1h-4h-4h-9h-14q-27 0 -50.5 10t-41.5 31q-20 23 -29.5 45t-13.5 47z" />
<glyph unicode="&#xe2;" d="M51 541q0 121 44 223t132 184t198 123t234 41q51 0 100.5 -8t94.5 -25q47 -16 86 -41.5t70 -60.5q4 27 18 48.5t41 39.5q25 16 54.5 25.5t64.5 9.5q47 0 79.5 -10.5t49.5 -30.5q18 -20 29.5 -42t15.5 -44v-9q0 -5 2 -10v-8v-8v-16v-15v2v-729v-16v-17v-8v-8q-2 -6 -2 -10 v-8q-4 -25 -15.5 -46.5t-29.5 -39.5q-16 -20 -49 -28.5t-80 -8.5q-41 0 -69.5 8t-49.5 22q-18 16 -33.5 39t-25.5 52q-35 -33 -76 -59.5t-82 -43.5q-45 -14 -92 -22.5t-101 -8.5q-131 0 -238.5 38t-195.5 118t-131 181.5t-43 226.5zM344 1350q0 25 8 44t23 33 q16 16 37.5 27.5t50.5 20.5v2l270 88l273 -88q27 -10 49 -22.5t37 -27.5q16 -14 23 -33.5t7 -43.5q0 -25 -12 -47.5t-35 -42.5t-50.5 -30.5t-57.5 -10.5q-8 0 -20.5 2t-28.5 6q-8 2 -15.5 4t-13.5 4q-6 4 -13.5 7t-15.5 5h-4q-2 0 -4 2q-2 0 -4 1t-4 1t-5 1t-5 3l-101 37 l-98 -35q-2 -2 -4 -3l-2 -1q-2 -2 -4 -2h-4l-1 -1q-1 -1 -4 -1q-2 0 -3 -1t-5 -1q-14 -6 -29.5 -11t-31.5 -9q-14 -4 -25.5 -6t-19.5 -2q-31 0 -59.5 10t-51.5 31q-23 20 -35 42.5t-12 47.5zM420 513q0 -5 2 -9q4 -49 24.5 -93t55.5 -85t87 -61.5t122 -20.5q66 0 117 20.5 t85 61.5q35 41 54.5 85t25.5 93v4q0 2 2 6v4v4v9v10v4v6q-2 2 -2 5v5v12v13q-8 47 -27.5 92t-54.5 84q-35 41 -85 60.5t-115 19.5q-70 0 -121 -19.5t-86 -60.5q-35 -39 -55.5 -84t-26.5 -92v-5v-8q-2 -2 -2 -5v-7v-11v-9v2v-12v-9v-9z" />
<glyph unicode="&#xe3;" d="M51 541q0 121 44 223t132 184t198 123t234 41q51 0 100.5 -8t94.5 -25q47 -16 86 -41.5t70 -60.5q4 27 18 48.5t41 39.5q25 16 54.5 25.5t64.5 9.5q47 0 79.5 -10.5t49.5 -30.5q18 -20 29.5 -42t15.5 -44v-9q0 -5 2 -10v-8v-8v-16v-15v2v-729v-16v-17v-8v-8q-2 -6 -2 -10 v-8q-4 -25 -15.5 -46.5t-29.5 -39.5q-16 -20 -49 -28.5t-80 -8.5q-41 0 -69.5 8t-49.5 22q-18 16 -33.5 39t-25.5 52q-35 -33 -76 -59.5t-82 -43.5q-45 -14 -92 -22.5t-101 -8.5q-131 0 -238.5 38t-195.5 118t-131 181.5t-43 226.5zM309 1333v1v3v3v3q0 41 17.5 74t54.5 58 q35 25 78 37t94 12q20 0 41.5 -2t42.5 -6q14 -2 27.5 -5.5t25.5 -7.5q6 0 13.5 -1t13.5 -3q18 -6 35.5 -10t31.5 -8q16 -4 29.5 -6t26.5 -2q10 0 20 2t23 6q10 4 22.5 10t26.5 12q4 2 10 4t14 4q4 2 7.5 3.5t5.5 3.5q4 0 7 1t7 3t11 3t16 3q4 0 7 1t7 1q4 2 7 2h7 q29 0 52.5 -9.5t37.5 -27.5q16 -18 23.5 -36.5t7.5 -41.5q0 -37 -18.5 -66.5t-53.5 -54.5t-73.5 -38t-79.5 -17q-2 0 -4 -1t-4 -1h-2h-2h-4h-3h-4h-4q-12 0 -26.5 2t-30.5 4q-18 4 -34.5 7t-33.5 5h-4q-2 0 -2 3q-2 0 -4 1t-4 1h-4q-2 0 -4 2h-3h-3q-20 4 -40 9l-36 9 q-20 4 -33.5 6t-26.5 2q-8 0 -16 -1t-16 -5q-4 -2 -8.5 -3t-6.5 -1q-4 -2 -7 -3t-7 -3q-2 -2 -5 -3t-5 -3t-5 -3t-5 -1q-10 -6 -21.5 -10.5t-21.5 -8.5q-12 -4 -26.5 -6t-31.5 -2v2q-16 -2 -31.5 2t-29.5 12q-6 2 -11.5 5.5t-9.5 7.5q-18 16 -29.5 32.5t-15.5 34.5zM420 513 q0 -5 2 -9q4 -49 24.5 -93t55.5 -85t87 -61.5t122 -20.5q66 0 117 20.5t85 61.5q35 41 54.5 85t25.5 93v4q0 2 2 6v4v4v9v10v4v6q-2 2 -2 5v5v12v13q-8 47 -27.5 92t-54.5 84q-35 41 -85 60.5t-115 19.5q-70 0 -121 -19.5t-86 -60.5q-35 -39 -55.5 -84t-26.5 -92v-5v-8 q-2 -2 -2 -5v-7v-11v-9v2v-12v-9v-9z" />
<glyph unicode="&#xe4;" d="M51 541q0 121 44 223t132 184t198 123t234 41q51 0 100.5 -8t94.5 -25q47 -16 86 -41.5t70 -60.5q4 27 18 48.5t41 39.5q25 16 54.5 25.5t64.5 9.5q47 0 79.5 -10.5t49.5 -30.5q18 -20 29.5 -42t15.5 -44v-9q0 -5 2 -10v-8v-8v-16v-15v2v-729v-16v-17v-8v-8q-2 -6 -2 -10 v-8q-4 -25 -15.5 -46.5t-29.5 -39.5q-16 -20 -49 -28.5t-80 -8.5q-41 0 -69.5 8t-49.5 22q-18 16 -33.5 39t-25.5 52q-35 -33 -76 -59.5t-82 -43.5q-45 -14 -92 -22.5t-101 -8.5q-131 0 -238.5 38t-195.5 118t-131 181.5t-43 226.5zM268 1380v2q0 29 13.5 55.5t40.5 47.5 q29 23 60.5 33t70.5 10t71.5 -10.5t59.5 -32.5q27 -20 40 -47t13 -58t-13.5 -56.5t-39.5 -47.5q-27 -20 -59.5 -31.5t-71.5 -11.5t-71 11t-60 32q-27 23 -40.5 48t-13.5 56zM420 513q0 -5 2 -9q4 -49 24.5 -93t55.5 -85t87 -61.5t122 -20.5q66 0 117 20.5t85 61.5 q35 41 54.5 85t25.5 93v4q0 2 2 6v4v4v9v10v4v6q-2 2 -2 5v5v12v13q-8 47 -27.5 92t-54.5 84q-35 41 -85 60.5t-115 19.5q-70 0 -121 -19.5t-86 -60.5q-35 -39 -55.5 -84t-26.5 -92v-5v-8q-2 -2 -2 -5v-7v-11v-9v2v-12v-9v-9zM831 1380v2q0 29 13.5 55.5t40.5 47.5 q29 23 60.5 33t70.5 10t71.5 -10.5t59.5 -32.5q27 -20 40 -47t13 -58t-13 -56.5t-40 -47.5q-27 -20 -59.5 -31.5t-71.5 -11.5t-71 11t-60 32q-27 23 -40.5 48t-13.5 56z" />
<glyph unicode="&#xe5;" d="M51 541q0 121 44 223t132 184t198 123t234 41q51 0 100.5 -8t94.5 -25q47 -16 86 -41.5t70 -60.5q4 27 18 48.5t41 39.5q25 16 54.5 25.5t64.5 9.5q47 0 79.5 -10.5t49.5 -30.5q18 -20 29.5 -42t15.5 -44v-9q0 -5 2 -10v-8v-8v-16v-15v2v-729v-16v-17v-8v-8q-2 -6 -2 -10 v-8q-4 -25 -15.5 -46.5t-29.5 -39.5q-16 -20 -49 -28.5t-80 -8.5q-41 0 -69.5 8t-49.5 22q-18 16 -33.5 39t-25.5 52q-35 -33 -76 -59.5t-82 -43.5q-45 -14 -92 -22.5t-101 -8.5q-131 0 -238.5 38t-195.5 118t-131 181.5t-43 226.5zM420 513q0 -5 2 -9q4 -49 24.5 -93 t55.5 -85t87 -61.5t122 -20.5q66 0 117 20.5t85 61.5q35 41 54.5 85t25.5 93v4q0 2 2 6v4v4v9v10v4v6q-2 2 -2 5v5v12v13q-8 47 -27.5 92t-54.5 84q-35 41 -85 60.5t-115 19.5q-70 0 -121 -19.5t-86 -60.5q-35 -39 -55.5 -84t-26.5 -92v-5v-8q-2 -2 -2 -5v-7v-11v-9v2v-12 v-9v-9zM481 1386v3q0 41 17.5 75.5t56.5 65.5q37 29 81 44t97 15t97 -15t83 -44q37 -31 55.5 -67t18.5 -77q0 -43 -18.5 -78.5t-55.5 -64.5q-39 -31 -83 -45t-97 -14t-97 14t-81 45q-39 29 -56.5 64.5t-17.5 78.5zM618 1386v3q0 -20 8.5 -38t24.5 -30q16 -14 37 -20.5 t45 -6.5q23 0 44.5 6.5t37.5 20.5q16 12 25.5 28.5t9.5 36.5q0 18 -9.5 35t-25.5 31q-16 12 -37.5 19.5t-44.5 7.5q-25 0 -45 -7.5t-37 -19.5q-16 -14 -24.5 -31t-8.5 -35z" />
<glyph unicode="&#xe6;" horiz-adv-x="2320" d="M51 541q0 121 44 223t132 184t198 123t234 41q53 0 102.5 -9t94.5 -26q47 -16 87 -40.5t73 -59.5l4 2q0 29 11 51.5t34 36.5q20 16 46 24.5t56 8.5q31 0 55.5 -6.5t39.5 -16.5q16 -12 26 -26.5t17 -32.5q33 25 69.5 42t79.5 30q41 10 85 16t89 6q133 0 249 -41t216 -121 t151.5 -173t51.5 -202q0 -33 -9.5 -57t-29.5 -41q-18 -16 -49 -24.5t-74 -8.5v2h-786q10 -55 40.5 -96t79.5 -67q51 -27 108.5 -39.5t123.5 -12.5q35 0 65.5 5.5t61.5 13.5l58 19q28 9 54 22q25 10 48.5 21.5t46.5 19.5q23 10 42 14t38 4q29 0 55 -10t49 -31 q23 -20 35 -41.5t12 -44.5q0 -41 -38 -79t-113 -72q-76 -35 -159 -56.5t-173 -31.5q-14 0 -29.5 -1t-32.5 -3h-15q-7 0 -13 -3h-16h-13h-15h-16h-7h-7q-4 2 -7 3h-7q-39 2 -79 8t-79 12q-39 10 -75 24.5t-66 34.5q-8 -14 -17.5 -27.5t-25.5 -23.5q-14 -8 -38 -13t-57 -5 q-43 0 -73.5 8t-46.5 22q-20 16 -28.5 40t-8.5 51l-4 2q-33 -33 -71 -59.5t-81 -43.5q-45 -14 -93 -23.5t-102 -9.5q-131 0 -238.5 38t-195.5 118t-131 181.5t-43 226.5zM420 513q0 -5 2 -9q4 -49 24.5 -93t55.5 -85t87 -61.5t122 -20.5q66 0 117 20.5t85 61.5 q35 41 54.5 85t25.5 93v4q0 2 2 6v4v4v9v10v4v6q-2 2 -2 5v5v12v13q-8 47 -27.5 92t-54.5 84q-35 41 -85 60.5t-115 19.5q-70 0 -121 -19.5t-86 -60.5q-35 -39 -55.5 -84t-26.5 -92v-5v-8q-2 -2 -2 -5v-7v-11v-9v2v-12v-9v-9zM1343 641v2h584q-8 47 -30.5 86t-59.5 72 q-39 33 -88 49t-115 16q-61 0 -111 -16t-89 -49t-62 -73t-29 -87z" />
<glyph unicode="&#xe7;" horiz-adv-x="1183" d="M51 541q0 113 46 212t139 185q92 86 210.5 130t264.5 44q20 0 40.5 -1t47.5 -3q23 -2 47 -6t51 -8q51 -8 96 -22.5t86 -35.5q41 -20 61.5 -47.5t20.5 -62.5v2v-5v-5q-2 -4 -2 -7v-4v-4v-4q-2 -4 -2 -6v-4q-8 -20 -20.5 -37.5t-28.5 -34.5q-16 -16 -37.5 -24.5t-50.5 -8.5 h-15q-7 0 -16 2q-8 0 -15 2.5t-16 4.5q-8 2 -17 4t-19 4q-10 4 -19.5 7t-17.5 5q-18 4 -37 9t-37 9q-20 4 -39.5 7.5t-42.5 3.5q-78 0 -136 -23.5t-97 -70.5q-39 -45 -57.5 -97.5t-18.5 -109.5v-4v-5v-4v-4q4 -53 25.5 -102t60.5 -92t94 -64.5t129 -21.5q10 0 22.5 1t26.5 3 q10 2 23.5 5t27.5 7h8q3 0 7 2q2 0 5 1t7 3q6 2 13.5 4t15.5 4q20 6 37.5 11.5t31.5 9.5l29 7q12 3 21 3q33 0 61.5 -10t50.5 -29q23 -18 34 -40.5t11 -49.5q0 -37 -20.5 -64.5t-59.5 -50.5q-39 -20 -83 -36.5t-91 -24.5q-27 -6 -54.5 -10t-53.5 -6q-27 -4 -49.5 -5.5 t-38.5 -1.5q-150 0 -269.5 41t-210.5 125q-92 84 -136 183.5t-44 214.5zM422 -342q0 12 4 21.5t14 17.5q8 8 18.5 11t24.5 3h11q6 0 14 -2l16 -4q8 -2 19 -4q4 0 8 -1t8 -3q6 0 12.5 -1t12.5 -3h4h6h2h2l2 -2h2h4h4h2h1h3q12 0 21.5 2t17.5 4q4 2 7.5 3t5.5 3q10 6 16 17.5 t6 27.5q0 20 -7 32.5t-21 16.5q-12 4 -26.5 6t-31.5 2h-4h-2q-2 2 -3 2h-5h-4q-14 2 -26.5 3.5t-22.5 5.5q-10 2 -15.5 11t-5.5 26q0 2 1 7t5 11q2 2 4 5t4 5q0 4 2.5 6t4.5 7q0 2 2 3t4 3q0 2 1 3l3 3q4 2 5 5t3 7q2 0 3 1t1 3l4 4l4 4l2 2q2 2 4 2l62 66h153l-100 -104 q2 2 3 2h3q2 2 3 2h3h5h4h4h4q2 0 2 1t2 1t4 1t4 1h4h4h2h4q41 0 76 -10.5t62 -30.5t41 -49t14 -66q0 -41 -17.5 -72.5t-52.5 -54.5q-33 -23 -69.5 -38t-77.5 -21q-4 0 -8 -1t-9 -1q-4 -2 -8 -2h-8h-10q-4 0 -8 -2h-9h-8h-9h-11q-4 2 -10 2h-13h-13q-7 0 -13 2q-6 0 -13.5 1 t-13.5 1q-25 4 -47.5 12t-44.5 18q-20 10 -30.5 26.5t-10.5 39.5z" />
<glyph unicode="&#xe8;" horiz-adv-x="1374" d="M25 541q0 113 46 212t138 185t212 130t265 44q127 0 234.5 -35t195.5 -102q86 -68 141.5 -142.5t77.5 -156.5q0 -6 1 -12.5t3 -12.5q2 -8 3 -14t1 -12q2 -12 3.5 -24.5t1.5 -25.5q0 -33 -9.5 -57t-27.5 -41q-20 -16 -51 -24.5t-72 -8.5v2h-787q10 -55 40 -96t81 -67 q49 -27 105.5 -39.5t122.5 -12.5q35 0 67.5 5.5t63.5 13.5q23 6 44 13t42 16q6 4 13 7t13 5q25 10 48.5 21.5t45.5 19.5q14 6 27.5 10t26.5 6q6 2 13 2h13q29 0 55.5 -10t49.5 -31q23 -20 34 -41.5t11 -44.5q0 -41 -38 -79t-112 -72q-76 -35 -159.5 -56.5t-173.5 -31.5 q-14 0 -30 -1t-32 -3h-15q-7 0 -14 -3h-14h-12q-156 0 -281 39t-221 119t-143 181.5t-47 224.5zM373 1454v8v8q0 4 2 9l4 8q4 16 16.5 32.5t30.5 30.5q20 16 41.5 23.5t44.5 7.5q10 0 20.5 -1t22.5 -5q10 -2 25 -6l28 -8v2l303 -99l21 -8q12 -8 24.5 -15t20.5 -18q4 -4 8 -9 t6 -9q4 -6 6 -11t2 -10q0 -2 1 -3l1 -1q0 -2 1 -3l2 -4v-5v-4v-4v-4q-4 -25 -15.5 -47.5t-32.5 -44.5q-18 -20 -39.5 -30.5t-50.5 -10.5h-14h-10h-7q-3 0 -6 2h-5q-3 0 -5 2q-2 0 -5 1t-5 3q-8 2 -18.5 5t-26.5 7l-287 92q-27 6 -47 17.5t-31 25.5q-14 16 -20 34.5t-6 41.5z M393 641v2h586q-8 47 -30.5 86t-61.5 72t-88 49t-113 16q-61 0 -112.5 -16t-90.5 -49t-61.5 -73t-28.5 -87z" />
<glyph unicode="&#xe9;" horiz-adv-x="1374" d="M25 541q0 113 46 212t138 185t212 130t265 44q127 0 234.5 -35t195.5 -102q86 -68 141.5 -142.5t77.5 -156.5q0 -6 1 -12.5t3 -12.5q2 -8 3 -14t1 -12q2 -12 3.5 -24.5t1.5 -25.5q0 -33 -9.5 -57t-27.5 -41q-20 -16 -51 -24.5t-72 -8.5v2h-787q10 -55 40 -96t81 -67 q49 -27 105.5 -39.5t122.5 -12.5q35 0 67.5 5.5t63.5 13.5q23 6 44 13t42 16q6 4 13 7t13 5q25 10 48.5 21.5t45.5 19.5q14 6 27.5 10t26.5 6q6 2 13 2h13q29 0 55.5 -10t49.5 -31q23 -20 34 -41.5t11 -44.5q0 -41 -38 -79t-112 -72q-76 -35 -159.5 -56.5t-173.5 -31.5 q-14 0 -30 -1t-32 -3h-15q-7 0 -14 -3h-14h-12q-156 0 -281 39t-221 119t-143 181.5t-47 224.5zM373 1356v4v4v4v4v4v4q0 2 2 4q0 4 1 9.5t5 11.5q2 4 6 9t8 9q10 10 22.5 17.5t26.5 13.5l21 10l303 99q6 2 12 3t15 3q6 2 12 3t12 3t11.5 3t11.5 1q6 2 11 2h11q23 0 43.5 -7 t38.5 -24q20 -14 31.5 -30.5t19.5 -32.5v-4q0 -2 2 -4v-4v-5q0 -2 1 -4t1 -4t1.5 -4t1.5 -4q0 -23 -7.5 -41t-19.5 -35q-14 -14 -32.5 -25.5t-47.5 -19.5l-287 -88q-14 -6 -25.5 -9t-17.5 -5t-9 -4t-7 -2h-1h-3q-2 0 -4 -1l-2 -1h-4h-5h-10h-14q-27 0 -49.5 10t-42.5 31 q-18 23 -28.5 45t-14.5 47zM393 641v2h586q-8 47 -30.5 86t-61.5 72t-88 49t-113 16q-61 0 -112.5 -16t-90.5 -49t-61.5 -73t-28.5 -87z" />
<glyph unicode="&#xea;" horiz-adv-x="1374" d="M25 541q0 113 46 212t138 185t212 130t265 44q127 0 234.5 -35t195.5 -102q86 -68 141.5 -142.5t77.5 -156.5q0 -6 1 -12.5t3 -12.5q2 -8 3 -14t1 -12q2 -12 3.5 -24.5t1.5 -25.5q0 -33 -9.5 -57t-27.5 -41q-20 -16 -51 -24.5t-72 -8.5v2h-787q10 -55 40 -96t81 -67 q49 -27 105.5 -39.5t122.5 -12.5q35 0 67.5 5.5t63.5 13.5q23 6 44 13t42 16q6 4 13 7t13 5q25 10 48.5 21.5t45.5 19.5q14 6 27.5 10t26.5 6q6 2 13 2h13q29 0 55.5 -10t49.5 -31q23 -20 34 -41.5t11 -44.5q0 -41 -38 -79t-112 -72q-76 -35 -159.5 -56.5t-173.5 -31.5 q-14 0 -30 -1t-32 -3h-15q-7 0 -14 -3h-14h-12q-156 0 -281 39t-221 119t-143 181.5t-47 224.5zM299 1350q0 25 8 44t23 33q16 16 37.5 27.5t48.5 20.5v2l272 88l270 -88q29 -10 51.5 -22.5t37.5 -27.5q16 -14 23 -33.5t7 -43.5q0 -25 -13 -47.5t-36 -42.5t-49.5 -30.5 t-56.5 -10.5q-10 0 -21.5 2t-28.5 6q-8 2 -15 4t-13 4q-8 4 -15.5 7t-15.5 5h-4q-2 0 -2 2q-2 0 -4 1t-4 1q-4 0 -6 1t-5 3l-100 37l-100 -35q-2 -2 -5 -4t-8 -2q-2 0 -4 -1t-4 -3h-2h-2q-14 -6 -29.5 -11t-31.5 -9q-14 -4 -26.5 -6t-20.5 -2q-31 0 -59.5 10t-51.5 31 q-23 20 -34 42.5t-11 47.5zM393 641v2h586q-8 47 -30.5 86t-61.5 72t-88 49t-113 16q-61 0 -112.5 -16t-90.5 -49t-61.5 -73t-28.5 -87z" />
<glyph unicode="&#xeb;" horiz-adv-x="1374" d="M25 541q0 113 46 212t138 185t212 130t265 44q127 0 234.5 -35t195.5 -102q86 -68 141.5 -142.5t77.5 -156.5q0 -6 1 -12.5t3 -12.5q2 -8 3 -14t1 -12q2 -12 3.5 -24.5t1.5 -25.5q0 -33 -9.5 -57t-27.5 -41q-20 -16 -51 -24.5t-72 -8.5v2h-787q10 -55 40 -96t81 -67 q49 -27 105.5 -39.5t122.5 -12.5q35 0 67.5 5.5t63.5 13.5q23 6 44 13t42 16q6 4 13 7t13 5q25 10 48.5 21.5t45.5 19.5q14 6 27.5 10t26.5 6q6 2 13 2h13q29 0 55.5 -10t49.5 -31q23 -20 34 -41.5t11 -44.5q0 -41 -38 -79t-112 -72q-76 -35 -159.5 -56.5t-173.5 -31.5 q-14 0 -30 -1t-32 -3h-15q-7 0 -14 -3h-14h-12q-156 0 -281 39t-221 119t-143 181.5t-47 224.5zM221 1380v2q0 29 14.5 55.5t40.5 47.5q27 23 59 33t71 10t71.5 -10.5t59.5 -32.5q29 -20 41 -47t12 -58t-12.5 -56.5t-40.5 -47.5q-27 -20 -60 -31.5t-71 -11.5q-39 0 -71 11 t-59 32q-27 23 -41 48t-14 56zM393 641v2h586q-8 47 -30.5 86t-61.5 72t-88 49t-113 16q-61 0 -112.5 -16t-90.5 -49t-61.5 -73t-28.5 -87zM784 1380v2q0 29 14.5 55.5t41.5 47.5q27 23 58.5 33t70.5 10t71.5 -10.5t59.5 -32.5q29 -20 41 -47t12 -58t-12.5 -56.5 t-40.5 -47.5q-27 -20 -59.5 -31.5t-71.5 -11.5t-71 11t-58 32q-27 23 -41.5 48t-14.5 56z" />
<glyph unicode="&#xec;" horiz-adv-x="567" d="M-25 1454v4v4q2 2 2 4v4v5v4q2 2 3 4v4q8 16 17 32.5t28 30.5q16 16 37.5 23.5t43.5 7.5q6 0 13.5 -1t15.5 -1q4 -2 7 -2t8 -2q12 -2 26 -6l29 -8v2l301 -99l20 -8q14 -8 25.5 -15t21.5 -18q4 -4 8.5 -9t6.5 -9q4 -6 6 -11t2 -10v-3q0 -1 2 -1v-3v-4v-5v-4v-4v-4 q-2 -25 -14.5 -47.5t-30.5 -44.5q-20 -20 -42 -30.5t-48 -10.5h-16h-11h-2h-2q-2 0 -4 1t-4 1t-8 2l-13 4q-8 2 -17 5t-26 7l-286 92q-27 6 -46.5 17.5t-27.5 25.5q-10 16 -17.5 34.5t-7.5 41.5zM98 150v2v786q0 35 12.5 64.5t39.5 52.5q29 23 61.5 34t71.5 11 q41 0 73.5 -11.5t59.5 -33.5q27 -23 39 -52.5t12 -66.5v-784q0 -39 -12.5 -69t-38.5 -52q-27 -20 -59.5 -30.5t-73.5 -10.5q-39 0 -72 10t-61 31q-27 23 -39.5 52.5t-12.5 66.5z" />
<glyph unicode="&#xed;" horiz-adv-x="567" d="M-25 1356v4v4v4v4v4v4q2 0 2 1v3q0 4 2.5 9.5t4.5 11.5q4 4 7 9t7 9q4 10 16.5 17.5t26.5 13.5l20 10l301 99q14 4 27.5 7t24.5 5q6 2 12 3t12 1q4 2 11 2h12q16 0 31.5 -4t29.5 -12q6 -4 11.5 -7.5t9.5 -7.5q18 -14 30.5 -30.5t20.5 -32.5v-4q0 -2 2 -4v-4v-5v-4 q0 -2 2 -4v-4v-4q0 -23 -7 -41t-18 -35q-14 -14 -33.5 -25.5t-45.5 -19.5l-287 -88q-14 -6 -26.5 -9t-16.5 -5q-8 -2 -12.5 -4t-8.5 -2q-2 0 -4 -1t-4 -1h-4h-4h-8h-15q-27 0 -50 10t-40 31q-14 23 -25.5 45t-13.5 47zM98 150v2v786q0 35 12.5 64.5t39.5 52.5q29 23 61.5 34 t71.5 11q41 0 73.5 -11.5t59.5 -33.5q27 -23 39 -52.5t12 -66.5v-784q0 -39 -12.5 -69t-38.5 -52q-27 -20 -59.5 -30.5t-73.5 -10.5q-39 0 -72 10t-61 31q-27 23 -39.5 52.5t-12.5 66.5z" />
<glyph unicode="&#xee;" horiz-adv-x="567" d="M-100 1350q0 25 7 44t23 33q14 16 36 27.5t46 20.5v2l271 88l272 -88q27 -10 49.5 -22.5t36.5 -27.5q16 -14 23.5 -33.5t7.5 -43.5q0 -25 -12.5 -47.5t-34.5 -42.5q-23 -20 -50.5 -30.5t-58.5 -10.5q-8 0 -20.5 2t-28.5 6q-8 2 -15.5 4t-13.5 4q-6 4 -13 7t-15 5h-4 q-2 0 -5 2q-2 0 -4 1t-4 1t-5 1t-5 3l-100 37l-99 -35q-2 -2 -4 -3l-2 -1q-2 -2 -4 -2h-4l-1 -1q-1 -1 -3 -1t-3 -1t-5 -1q-14 -6 -29.5 -11t-32.5 -9q-14 -4 -25.5 -6t-19.5 -2q-31 0 -55.5 10t-46.5 31q-23 20 -36 42.5t-13 47.5zM98 150v2v786q0 35 12.5 64.5t39.5 52.5 q29 23 61.5 34t71.5 11q41 0 73.5 -11.5t59.5 -33.5q27 -23 39 -52.5t12 -66.5v-784q0 -39 -12.5 -69t-38.5 -52q-27 -20 -59.5 -30.5t-73.5 -10.5q-39 0 -72 10t-61 31q-27 23 -39.5 52.5t-12.5 66.5z" />
<glyph unicode="&#xef;" horiz-adv-x="567" d="M-180 1382q4 29 17 55.5t40 47.5q27 23 59.5 33t65.5 10q39 0 71.5 -10.5t59.5 -32.5q27 -20 40 -47t13 -58t-13 -56.5t-40 -47.5q-27 -20 -59.5 -31.5t-71.5 -11.5q-33 0 -65.5 11t-59.5 32q-27 23 -40 48.5t-13 55.5zM98 150v2v786q0 35 12.5 64.5t39.5 52.5 q29 23 61.5 34t71.5 11q41 0 73.5 -11.5t59.5 -33.5q27 -23 39 -52.5t12 -66.5v-784q0 -39 -12.5 -69t-38.5 -52q-27 -20 -59.5 -30.5t-73.5 -10.5q-39 0 -72 10t-61 31q-27 23 -39.5 52.5t-12.5 66.5zM381 1380v2q0 29 13.5 55.5t39.5 47.5q29 23 60.5 33t70.5 10t72 -10.5 t59 -32.5q27 -20 40.5 -47t13.5 -58t-13.5 -56.5t-40.5 -47.5q-27 -20 -59.5 -31.5t-71.5 -11.5t-70.5 11t-60.5 32q-27 23 -40 48t-13 56z" />
<glyph unicode="&#xf0;" horiz-adv-x="1423" d="M51 541v3v3v1v3v7v5q4 94 50 180t135 164q84 78 193.5 118t240.5 40h5h5h5h5q37 -2 74 -7t72 -16q35 -10 65.5 -26.5t56.5 -38.5l7 6q-25 41 -55.5 79t-67.5 73q-39 35 -79 64.5t-85 49.5l-170 -69q-27 -14 -52.5 -24.5t-43.5 -18.5q-20 -8 -39 -11.5t-35 -3.5h-6h-4h-4 q-2 0 -5 2l-16 4q-8 2 -16 7q-4 2 -8.5 5t-8.5 5q-10 10 -16 22.5t-6 28.5t6 30.5t18 22.5q12 10 27.5 17.5t30.5 15.5h4q2 0 4 2q2 0 4 1l6 3l127 55q-8 0 -15 2.5t-16 4.5q-8 4 -15 7t-15 5q-16 6 -31.5 12t-30.5 15q-6 4 -11 7t-9 5q-18 12 -26.5 26.5t-8.5 32.5 q0 35 11 58.5t36 37.5q23 16 61.5 23.5t90.5 7.5q18 0 37.5 -2t39.5 -4q20 -4 40 -9t38 -11q39 -12 76 -25.5t72 -30.5q2 -2 4 -3t4 -1q0 -2 2 -3t4 -1t4 -1t4 -1q2 -2 4 -3t4 -1l205 90q16 6 28.5 10t22.5 6t18.5 3.5t16.5 1.5h2h4q16 0 32 -6.5t30 -16.5q12 -10 19 -24.5 t7 -30.5q0 -8 -3 -17.5t-7 -15.5q-2 -6 -9 -12t-17 -13q-4 -2 -7.5 -4t-7.5 -4t-7 -4t-7 -4l-8 -4q-4 -2 -8 -2q-4 -2 -9.5 -4t-11.5 -4l-133 -56q109 -82 184.5 -170t120.5 -184q43 -94 65.5 -203.5t22.5 -232.5q0 -133 -46 -243.5t-136 -196.5q-92 -88 -212 -130.5 t-267 -42.5v-2q-150 2 -269.5 43t-210.5 125q-92 84 -136 183.5t-44 214.5zM420 513q0 -5 2 -9q4 -49 24.5 -93t55.5 -85t87 -61.5t122 -20.5t122 20.5t85 61.5q35 41 56 85t25 93q0 2 1 4t1 6q0 2 1.5 4t1.5 4v9v10q-2 53 -21.5 99t-56.5 85q-39 41 -92.5 61.5t-124.5 20.5 v2q-66 -2 -117 -21.5t-90 -60.5q-39 -39 -59.5 -83t-22.5 -91v-4v-4v-3v-11v-9v-9z" />
<glyph unicode="&#xf1;" horiz-adv-x="1423" d="M104 150v2v786q0 35 12.5 64.5t39.5 52.5t60.5 34t72.5 11q35 0 63.5 -7.5t50.5 -21.5q23 -14 36.5 -34.5t17.5 -45.5q29 29 62.5 52.5t76.5 37.5q41 16 97.5 23.5t119.5 7.5q109 0 199 -25.5t162 -78.5q72 -51 107.5 -125t35.5 -168v-563q0 -39 -12.5 -69t-38.5 -52 q-27 -20 -59.5 -30.5t-73.5 -10.5q-39 0 -72 10t-62 31q-27 23 -39 52.5t-12 66.5v516q0 49 -18.5 87t-52.5 62q-33 25 -76 38t-92 13q-57 0 -100.5 -15t-73.5 -44q-31 -29 -46.5 -64.5t-15.5 -78.5v-512q0 -39 -13.5 -69t-37.5 -52q-27 -20 -59.5 -30.5t-73.5 -10.5 q-39 0 -73 10t-60 31q-27 23 -39.5 52.5t-12.5 66.5zM287 1333v1v3v3v3q0 41 17.5 74t53.5 58q35 25 78 37t92 12q23 0 44.5 -2t41.5 -6t40 -8.5t38 -8.5q20 -6 38 -10t32 -8q16 -4 29.5 -6t23.5 -2t21.5 2t23.5 6q10 4 23 10l24 12l13 4q6 2 14 4q2 2 4 2t4 3q2 0 4 2 q2 0 5 1t7 3q6 2 13.5 3t15.5 3q4 0 7 1t7 1q4 2 8 2h7q29 0 52.5 -9.5t37.5 -27.5q16 -18 23.5 -36.5t7.5 -41.5q0 -37 -18.5 -66.5t-53.5 -54.5t-74 -38t-80 -17q-2 0 -4 -1l-2 -1h-4h-4h-4h-3h-5q-14 0 -28.5 2t-31.5 4q-16 4 -32.5 7t-32.5 5h-4q-2 0 -4 3q-2 0 -4.5 1 t-4.5 1h-2h-2h-2v2h-4h-2q-20 4 -39.5 9t-36.5 9q-20 4 -34.5 6t-24.5 2q-8 0 -16.5 -1t-16.5 -5q-4 -2 -8 -3t-6 -1q-4 -2 -7 -3t-7 -3l-7 -3q-2 -1 -4 -3l-6 -3q-2 -1 -4 -1l-15 -7.5t-14 -7.5q-4 0 -7 -1t-7 -3q-12 -4 -26.5 -6t-30.5 -2v2q-16 -2 -31.5 2t-30.5 12 q-6 2 -11 5.5t-9 7.5q-18 16 -29.5 32.5t-15.5 34.5z" />
<glyph unicode="&#xf2;" horiz-adv-x="1423" d="M51 541q0 113 46 212t139 185q92 86 210.5 130t264.5 44v2q145 -2 265 -46t212 -130t138 -185.5t46 -211.5q0 -115 -46 -214.5t-136 -183.5q-92 -84 -212 -125t-267 -41q-150 0 -269.5 41t-210.5 125q-92 84 -136 183.5t-44 214.5zM395 1454v8v8q0 2 1 5.5t3 5.5q0 2 1 3 t1 3q6 16 17.5 32.5t32.5 30.5q18 16 39.5 23.5t44.5 7.5q6 0 13 -1t15 -1q4 -2 7 -2t8 -2q12 -2 25 -6t28 -8v2l303 -99l20 -8q14 -8 25.5 -15t19.5 -18q6 -4 9.5 -9t7.5 -9q2 -6 4 -11l4 -10v-3q0 -1 2 -1v-3v-4v-5v-4v-4v-4q-4 -25 -15.5 -47.5t-31.5 -44.5 q-18 -20 -39.5 -30.5t-48.5 -10.5h-15h-12h-2h-2q-2 0 -4 1t-4 1q-4 0 -9 2t-12 4q-8 2 -17 5t-26 7l-286 92q-27 6 -48.5 17.5t-31.5 25.5q-14 16 -20.5 34.5t-6.5 41.5zM420 513q0 -5 2 -9q4 -49 24.5 -93t55.5 -85t87 -61.5t122 -20.5t122 20.5t85 61.5q35 41 56 85 t25 93q0 2 1 4t1 6q0 2 1.5 4t1.5 4v9v10q0 2 -1.5 4t-1.5 6q0 2 -1 5t-1 5v12v13q-8 47 -28.5 92t-55.5 84q-33 41 -85 60.5t-119 19.5v2q-70 -2 -121 -21.5t-86 -60.5q-35 -39 -55.5 -84t-26.5 -92v-5v-8q-2 -2 -2 -5v-7v-11v-9v-10v-9v-9z" />
<glyph unicode="&#xf3;" horiz-adv-x="1423" d="M51 541q0 113 46 212t139 185q92 86 210.5 130t264.5 44v2q145 -2 265 -46t212 -130t138 -185.5t46 -211.5q0 -115 -46 -214.5t-136 -183.5q-92 -84 -212 -125t-267 -41q-150 0 -269.5 41t-210.5 125q-92 84 -136 183.5t-44 214.5zM395 1356v4v4v4v4v4q0 2 1 4t3 4 q0 4 1 9.5t3 11.5q4 4 7.5 9t9.5 9q10 10 21.5 17.5t25.5 13.5l20 10l304 99q14 4 26 7t25 5q6 2 11 3t11 1q6 2 12 2h11q23 0 43 -7t39 -24q20 -14 31.5 -30.5t19.5 -32.5q0 -2 1 -4t1 -4t1 -4t1 -5v-4q0 -2 2 -4v-4v-4q0 -23 -7 -41t-20 -35q-12 -14 -31.5 -25.5 t-45.5 -19.5l-287 -88q-14 -6 -26.5 -9t-18.5 -5t-9 -4t-8 -2h-4q-2 0 -4 -1l-2 -1h-4h-4h-9h-14q-27 0 -50 10t-42 31q-20 23 -30.5 45t-14.5 47zM420 513q0 -5 2 -9q4 -49 24.5 -93t55.5 -85t87 -61.5t122 -20.5t122 20.5t85 61.5q35 41 56 85t25 93q0 2 1 4t1 6 q0 2 1.5 4t1.5 4v9v10q0 2 -1.5 4t-1.5 6q0 2 -1 5t-1 5v12v13q-8 47 -28.5 92t-55.5 84q-33 41 -85 60.5t-119 19.5v2q-70 -2 -121 -21.5t-86 -60.5q-35 -39 -55.5 -84t-26.5 -92v-5v-8q-2 -2 -2 -5v-7v-11v-9v-10v-9v-9z" />
<glyph unicode="&#xf4;" horiz-adv-x="1423" d="M51 541q0 113 46 212t139 185q92 86 210.5 130t264.5 44v2q145 -2 265 -46t212 -130t138 -185.5t46 -211.5q0 -115 -46 -214.5t-136 -183.5q-92 -84 -212 -125t-267 -41q-150 0 -269.5 41t-210.5 125q-92 84 -136 183.5t-44 214.5zM322 1350q0 25 8 44t22 33 q16 16 38 27.5t50 20.5v2l271 88l272 -88q27 -10 49.5 -22.5t36.5 -27.5q16 -14 23.5 -33.5t7.5 -43.5q0 -25 -13.5 -47.5t-35.5 -42.5q-23 -20 -49.5 -30.5t-57.5 -10.5q-8 0 -20.5 2t-28.5 6q-8 2 -15.5 4t-13.5 4q-8 4 -15 7t-15 5h-5q-2 0 -2 2q-2 0 -4 1t-4 1 q-4 0 -6 1t-4 3l-100 37l-101 -35l-4 -4q-2 0 -3 -1t-5 -1q-2 -2 -5 -3t-7 -1q-14 -6 -29.5 -11t-32.5 -9q-14 -4 -26.5 -6t-20.5 -2q-31 0 -58.5 10t-49.5 31q-23 20 -35 42.5t-12 47.5zM420 513q0 -5 2 -9q4 -49 24.5 -93t55.5 -85t87 -61.5t122 -20.5t122 20.5t85 61.5 q35 41 56 85t25 93q0 2 1 4t1 6q0 2 1.5 4t1.5 4v9v10q0 2 -1.5 4t-1.5 6q0 2 -1 5t-1 5v12v13q-8 47 -28.5 92t-55.5 84q-33 41 -85 60.5t-119 19.5v2q-70 -2 -121 -21.5t-86 -60.5q-35 -39 -55.5 -84t-26.5 -92v-5v-8q-2 -2 -2 -5v-7v-11v-9v-10v-9v-9z" />
<glyph unicode="&#xf5;" horiz-adv-x="1423" d="M51 541q0 113 46 212t139 185q92 86 210.5 130t264.5 44v2q145 -2 265 -46t212 -130t138 -185.5t46 -211.5q0 -115 -46 -214.5t-136 -183.5q-92 -84 -212 -125t-267 -41q-150 0 -269.5 41t-210.5 125q-92 84 -136 183.5t-44 214.5zM287 1333v1v3v3v3q0 41 17.5 74 t53.5 58q35 25 78 37t92 12q23 0 44.5 -2t41.5 -6t40 -8.5t38 -8.5q20 -6 38 -10t32 -8q16 -4 29.5 -6t23.5 -2t21.5 2t23.5 6q10 4 23 10l24 12l13 4q6 2 14 4q2 2 4 2t4 3q2 0 4 2q2 0 5 1t7 3q6 2 13.5 3t15.5 3q4 0 7 1t7 1q4 2 8 2h7q29 0 52.5 -9.5t37.5 -27.5 q16 -18 23.5 -36.5t7.5 -41.5q0 -37 -18.5 -66.5t-53.5 -54.5t-74 -38t-80 -17q-2 0 -4 -1l-2 -1h-4h-4h-4h-3h-5q-14 0 -28.5 2t-31.5 4q-16 4 -32.5 7t-32.5 5h-4q-2 0 -4 3q-2 0 -4.5 1t-4.5 1h-2h-2h-2v2h-4h-2q-20 4 -39.5 9t-36.5 9q-20 4 -34.5 6t-24.5 2 q-8 0 -16.5 -1t-16.5 -5q-4 -2 -8 -3t-6 -1q-4 -2 -7 -3t-7 -3l-7 -3q-2 -1 -4 -3l-6 -3q-2 -1 -4 -1l-15 -7.5t-14 -7.5q-4 0 -7 -1t-7 -3q-12 -4 -26.5 -6t-30.5 -2v2q-16 -2 -31.5 2t-30.5 12q-6 2 -11 5.5t-9 7.5q-18 16 -29.5 32.5t-15.5 34.5zM420 513q0 -5 2 -9 q4 -49 24.5 -93t55.5 -85t87 -61.5t122 -20.5t122 20.5t85 61.5q35 41 56 85t25 93q0 2 1 4t1 6q0 2 1.5 4t1.5 4v9v10q0 2 -1.5 4t-1.5 6q0 2 -1 5t-1 5v12v13q-8 47 -28.5 92t-55.5 84q-33 41 -85 60.5t-119 19.5v2q-70 -2 -121 -21.5t-86 -60.5q-35 -39 -55.5 -84 t-26.5 -92v-5v-8q-2 -2 -2 -5v-7v-11v-9v-10v-9v-9z" />
<glyph unicode="&#xf6;" horiz-adv-x="1423" d="M51 541q0 113 46 212t139 185q92 86 210.5 130t264.5 44v2q145 -2 265 -46t212 -130t138 -185.5t46 -211.5q0 -115 -46 -214.5t-136 -183.5q-92 -84 -212 -125t-267 -41q-150 0 -269.5 41t-210.5 125q-92 84 -136 183.5t-44 214.5zM246 1380v2q0 29 13 55.5t40 47.5 q27 23 59.5 33t71.5 10t70.5 -10.5t58.5 -32.5q29 -20 42 -47t13 -58t-13 -56.5t-42 -47.5q-27 -20 -58.5 -31.5t-70.5 -11.5t-71.5 11t-59.5 32q-27 23 -40 48t-13 56zM420 513q0 -5 2 -9q4 -49 24.5 -93t55.5 -85t87 -61.5t122 -20.5t122 20.5t85 61.5q35 41 56 85t25 93 q0 2 1 4t1 6q0 2 1.5 4t1.5 4v9v10q0 2 -1.5 4t-1.5 6q0 2 -1 5t-1 5v12v13q-8 47 -28.5 92t-55.5 84q-33 41 -85 60.5t-119 19.5v2q-70 -2 -121 -21.5t-86 -60.5q-35 -39 -55.5 -84t-26.5 -92v-5v-8q-2 -2 -2 -5v-7v-11v-9v-10v-9v-9zM809 1380v2q0 29 13.5 55.5t39.5 47.5 q27 23 59.5 33t71.5 10t71 -10.5t58 -32.5q29 -20 42.5 -47t13.5 -58t-13.5 -56.5t-42.5 -47.5q-27 -20 -58.5 -31.5t-70.5 -11.5t-71.5 11t-59.5 32q-27 23 -40 48t-13 56z" />
<glyph unicode="&#xf7;" horiz-adv-x="686" />
<glyph unicode="&#xf8;" horiz-adv-x="1423" d="M12 37q0 10 2 17t6 16l9 12q4 6 8 10v2l137 113q-31 35 -53.5 72.5t-38.5 80.5q-14 43 -22.5 88.5t-8.5 92.5q0 113 46 212t139 185q92 86 210.5 130t264.5 44q59 0 115.5 -8t107.5 -25q49 -14 95 -36.5t89 -51.5l117 101q4 4 8 6t10 6l9 4l8 4q8 4 17 6t18 2q23 0 41 -6 t32 -18q16 -12 23.5 -27.5t7.5 -32.5q0 -8 -1 -17t-5 -15q-2 -2 -3 -4.5t-3 -4.5q-2 -4 -5 -7l-8 -7l-133 -109q29 -37 52.5 -76.5t37.5 -80.5q16 -43 23.5 -86t7.5 -88q0 -115 -46 -214.5t-136 -183.5q-92 -84 -212 -125t-267 -41q-59 0 -114.5 7.5t-104.5 19.5 q-51 14 -97.5 33.5t-85.5 46.5l-129 -104q-2 0 -5 -2.5t-5 -4.5q-4 0 -6 -2t-6 -4t-7.5 -3t-7.5 -1q-4 -2 -7 -3t-7 -1h-1q-1 0 -1 -2h-3h-5h-2q-23 0 -40.5 6t-33.5 19q-14 12 -22.5 25.5t-8.5 29.5zM420 541q0 -14 1 -28.5t3 -29.5q2 -4 3 -9t3 -11q2 -8 5 -17.5t7 -17.5 v2l439 365q-14 10 -34 18t-42 14q-23 6 -46.5 10.5t-47.5 4.5q-70 0 -121 -19.5t-86 -60.5q-35 -39 -55.5 -84t-26.5 -92v-5v-8q-2 -2 -2 -5v-7v-11v-9zM553 291q16 -12 32.5 -20.5t35.5 -14.5q20 -6 42.5 -9t47.5 -3q70 0 122 20.5t85 61.5q35 41 56 85t25 93q0 2 1 4t1 6 q0 2 1.5 4t1.5 4v9v10q0 8 -1.5 17t-3.5 17q0 4 -1 9.5t-1 9.5q0 10 -3 19.5t-5 17.5q0 4 -1 9t-3 9v2z" />
<glyph unicode="&#xf9;" horiz-adv-x="1423" d="M104 403v3v532q0 35 12.5 64.5t39.5 52.5t60.5 34t72.5 11q41 0 73.5 -11.5t59.5 -33.5q25 -23 38 -52.5t13 -66.5v-524q0 -47 17.5 -83t54.5 -61t79 -37t87 -12q47 0 87 12.5t76 36.5q37 25 55.5 61t18.5 81v528q0 35 12.5 64.5t38.5 52.5q29 23 62 34t72 11 q41 0 73.5 -11.5t59.5 -33.5q27 -23 39 -52.5t12 -66.5v-530q0 -100 -40 -178t-118 -138q-78 -57 -190.5 -85t-257.5 -28t-259 28t-192 85q-78 59 -117 137t-39 176zM395 1454v8v8q0 2 1 5.5t3 5.5q0 2 1 3t1 3q6 16 17.5 32.5t32.5 30.5q18 16 39.5 23.5t44.5 7.5 q6 0 13 -1t15 -1q4 -2 7 -2t8 -2q12 -2 25 -6t28 -8v2l303 -99l20 -8q14 -8 25.5 -15t19.5 -18q6 -4 9.5 -9t7.5 -9q2 -6 4 -11l4 -10v-3q0 -1 2 -1v-3v-4v-5v-4v-4v-4q-4 -25 -15.5 -47.5t-31.5 -44.5q-18 -20 -39.5 -30.5t-48.5 -10.5h-15h-12h-2h-2q-2 0 -4 1t-4 1 q-4 0 -9 2t-12 4q-8 2 -17 5t-26 7l-286 92q-27 6 -48.5 17.5t-31.5 25.5q-14 16 -20.5 34.5t-6.5 41.5z" />
<glyph unicode="&#xfa;" horiz-adv-x="1423" d="M104 403v3v532q0 35 12.5 64.5t39.5 52.5t60.5 34t72.5 11q41 0 73.5 -11.5t59.5 -33.5q25 -23 38 -52.5t13 -66.5v-524q0 -47 17.5 -83t54.5 -61t79 -37t87 -12q47 0 87 12.5t76 36.5q37 25 55.5 61t18.5 81v528q0 35 12.5 64.5t38.5 52.5q29 23 62 34t72 11 q41 0 73.5 -11.5t59.5 -33.5q27 -23 39 -52.5t12 -66.5v-530q0 -100 -40 -178t-118 -138q-78 -57 -190.5 -85t-257.5 -28t-259 28t-192 85q-78 59 -117 137t-39 176zM395 1356v4v4v4v4v4q0 2 1 4t3 4q0 4 1 9.5t3 11.5q4 4 7.5 9t9.5 9q10 10 21.5 17.5t25.5 13.5l20 10 l304 99q14 4 26 7t25 5q6 2 11 3t11 1q6 2 12 2h11q23 0 43 -7t39 -24q20 -14 31.5 -30.5t19.5 -32.5q0 -2 1 -4t1 -4t1 -4t1 -5v-4q0 -2 2 -4v-4v-4q0 -23 -7 -41t-20 -35q-12 -14 -31.5 -25.5t-45.5 -19.5l-287 -88q-14 -6 -26.5 -9t-18.5 -5t-9 -4t-8 -2h-4q-2 0 -4 -1 l-2 -1h-4h-4h-9h-14q-27 0 -50 10t-42 31q-20 23 -30.5 45t-14.5 47z" />
<glyph unicode="&#xfb;" horiz-adv-x="1423" d="M104 403v3v532q0 35 12.5 64.5t39.5 52.5t60.5 34t72.5 11q41 0 73.5 -11.5t59.5 -33.5q25 -23 38 -52.5t13 -66.5v-524q0 -47 17.5 -83t54.5 -61t79 -37t87 -12q47 0 87 12.5t76 36.5q37 25 55.5 61t18.5 81v528q0 35 12.5 64.5t38.5 52.5q29 23 62 34t72 11 q41 0 73.5 -11.5t59.5 -33.5q27 -23 39 -52.5t12 -66.5v-530q0 -100 -40 -178t-118 -138q-78 -57 -190.5 -85t-257.5 -28t-259 28t-192 85q-78 59 -117 137t-39 176zM322 1350q0 25 8 44t22 33q16 16 38 27.5t50 20.5v2l271 88l272 -88q27 -10 49.5 -22.5t36.5 -27.5 q16 -14 23.5 -33.5t7.5 -43.5q0 -25 -13.5 -47.5t-35.5 -42.5q-23 -20 -49.5 -30.5t-57.5 -10.5q-8 0 -20.5 2t-28.5 6q-8 2 -15.5 4t-13.5 4q-8 4 -15 7t-15 5h-5q-2 0 -2 2q-2 0 -4 1t-4 1q-4 0 -6 1t-4 3l-100 37l-101 -35l-4 -4q-2 0 -3 -1t-5 -1q-2 -2 -5 -3t-7 -1 q-14 -6 -29.5 -11t-32.5 -9q-14 -4 -26.5 -6t-20.5 -2q-31 0 -58.5 10t-49.5 31q-23 20 -35 42.5t-12 47.5z" />
<glyph unicode="&#xfc;" horiz-adv-x="1423" d="M104 403v3v532q0 35 12.5 64.5t39.5 52.5t60.5 34t72.5 11q41 0 73.5 -11.5t59.5 -33.5q25 -23 38 -52.5t13 -66.5v-524q0 -47 17.5 -83t54.5 -61t79 -37t87 -12q47 0 87 12.5t76 36.5q37 25 55.5 61t18.5 81v528q0 35 12.5 64.5t38.5 52.5q29 23 62 34t72 11 q41 0 73.5 -11.5t59.5 -33.5q27 -23 39 -52.5t12 -66.5v-530q0 -100 -40 -178t-118 -138q-78 -57 -190.5 -85t-257.5 -28t-259 28t-192 85q-78 59 -117 137t-39 176zM246 1380v2q0 29 13 55.5t40 47.5q27 23 59.5 33t71.5 10t70.5 -10.5t58.5 -32.5q29 -20 42 -47t13 -58 t-13 -56.5t-42 -47.5q-27 -20 -58.5 -31.5t-70.5 -11.5t-71.5 11t-59.5 32q-27 23 -40 48t-13 56zM809 1380v2q0 29 13.5 55.5t39.5 47.5q27 23 59.5 33t71.5 10t71 -10.5t58 -32.5q29 -20 42.5 -47t13.5 -58t-13.5 -56.5t-42.5 -47.5q-27 -20 -58.5 -31.5t-70.5 -11.5 t-71.5 11t-59.5 32q-27 23 -40 48t-13 56z" />
<glyph unicode="&#xfd;" horiz-adv-x="686" />
<glyph unicode="&#xfe;" d="M104 -281v-2v1696q0 35 12.5 64.5t39.5 52.5t60.5 34t72.5 11q41 0 73.5 -11.5t59.5 -33.5q25 -23 38 -52.5t13 -66.5v-432h4q20 27 47 48.5t64 37.5t74.5 26.5t76.5 16.5h9q4 0 8 2h9h9h8q4 0 11 2h2h4h6h6q139 0 249.5 -44t192.5 -130t123 -181t41 -200v-11v-9 q-2 -6 -2 -12v-11q0 -10 -1 -20.5t-5 -20.5q-14 -94 -58 -180t-120 -164q-76 -76 -178.5 -114t-229.5 -38q-47 0 -93 6.5t-93 16.5q-45 12 -86 30.5t-78 45.5v-359q0 -35 -13.5 -64.5t-37.5 -51.5q-27 -23 -59.5 -34t-73.5 -11q-39 0 -73 11t-60 34q-27 23 -39.5 52 t-12.5 66zM473 522q2 -51 21.5 -100t52.5 -92q35 -43 89 -64.5t126 -21.5q61 0 111.5 19.5t82.5 58.5q35 39 57.5 81.5t30.5 90.5v7q0 3 3 5v7v5v7q0 3 2 7v7v6v7v5q-2 4 -2 7v5v8v7q-2 2 -3 6v6q-8 47 -30.5 88t-57.5 80q-33 39 -83 58.5t-111 19.5q-70 0 -120 -20.5 t-85 -61.5q-33 -39 -54.5 -84t-27.5 -92v-5v-8q-2 -2 -2 -5v-7v-12v-12v2v-5v-4v-3v-3z" />
<glyph unicode="&#xff;" horiz-adv-x="1230" d="M0 932v9v9v12v11q0 23 8 42t27 36q20 16 42.5 27.5t49.5 17.5h4q2 0 6 2h5h5h5q2 0 6 2h5h5q33 0 61.5 -7.5t51.5 -21.5t42 -32.5t29 -43.5l254 -553l271 555q12 23 29.5 41.5t39.5 32.5q23 14 52.5 21.5t62.5 7.5h5h5q2 -2 5 -2h5h5h6q2 -2 5 -2h5q27 -6 49.5 -17.5 t42.5 -27.5t30.5 -36t10.5 -42q0 -12 -1 -21.5t-3 -19.5q0 -6 -3 -12.5t-5 -12.5q0 -2 -1 -5t-3 -5l-619 -1227q-10 -20 -26.5 -40.5t-38.5 -39.5q-20 -16 -47 -25t-62 -9q-47 0 -84 10t-59 31q-25 20 -36 41.5t-11 44.5v4v2v4v4v4q0 2 2 4v3v3q0 8 2 15.5t6 13.5q2 2 2 5 t2 5q2 4 4 9l4 10l162 317l-408 813q-4 6 -7 15.5t-5 17.5zM150 1380v2q0 29 14 55.5t41 47.5q27 23 58.5 33t70.5 10t71.5 -10.5t59.5 -32.5q29 -20 41 -47t12 -58t-12 -56.5t-41 -47.5q-27 -20 -59.5 -31.5t-71.5 -11.5t-71 11t-58 32q-27 23 -41 48t-14 56zM713 1380v2 q0 29 14 55.5t41 47.5q27 23 58.5 33t70.5 10t71.5 -10.5t59.5 -32.5q29 -20 41 -47t12 -58t-12 -56.5t-41 -47.5q-27 -20 -59.5 -31.5t-71.5 -11.5t-70.5 11t-58.5 32q-27 23 -41 48t-14 56z" />
<glyph unicode="&#x152;" horiz-adv-x="2463" d="M43 727q0 160 60.5 294t183.5 243t281.5 163t355.5 54h12h12q2 -2 4 -2h4h9h8h12h12q6 -2 14 -2h13q27 -2 53.5 -7.5t52.5 -9.5q25 -6 51.5 -13t53.5 -17q53 -18 99 -44t89 -59l4 6q0 41 8.5 65.5t28.5 35.5q18 10 55 16t93 6l616 2q47 -2 81 -13t56 -34q23 -20 34 -45 t11 -51v-3v-3q-2 -27 -14 -49.5t-35 -45.5q-23 -20 -56.5 -30t-76.5 -10l-454 2v-299h424q47 -2 82.5 -13.5t58.5 -34.5q23 -20 35 -44.5t12 -51.5v-3v-3q-2 -27 -15.5 -49.5t-35.5 -44.5q-23 -20 -57.5 -30.5t-79.5 -10.5l-424 2v-311h479q47 -2 79.5 -13.5t55.5 -33.5 q23 -20 34 -45t11 -52v-3v-3q-2 -27 -13.5 -49.5t-33.5 -42.5q-23 -20 -57.5 -30.5t-75.5 -10.5h-713q-45 0 -69.5 8t-32.5 27q-8 16 -10.5 36.5t-2.5 43.5l-6 2q-31 -33 -69.5 -57.5t-85.5 -41.5q-47 -14 -95.5 -22t-99.5 -12q-6 0 -12 -1t-13 -1q-12 0 -24 -1t-25 -1h-19 q-9 0 -18 -3h-18h-16q-197 0 -354.5 53.5t-280.5 162.5t-184.5 241.5t-61.5 292.5zM442 727v2q0 -94 30 -177t87 -155q59 -70 150.5 -105.5t214.5 -35.5q121 0 211 36t149 105q59 72 90 154t31 176q0 92 -31 175t-90 153q-61 72 -151.5 107.5t-208.5 35.5q-121 0 -211 -36 t-150 -107q-61 -70 -91 -153t-30 -175z" />
<glyph unicode="&#x153;" horiz-adv-x="2320" d="M51 541q0 113 46 212t139 185q92 86 210.5 130t264.5 44q78 0 145.5 -12.5t126.5 -36.5q57 -25 108.5 -53.5t96.5 -63.5q33 35 77 63.5t101 53.5q55 25 120.5 37t141.5 12q133 0 249 -41t216 -121t151.5 -173t51.5 -202q0 -33 -9.5 -57t-29.5 -41q-18 -16 -49 -24.5 t-74 -8.5v2h-786q10 -55 40.5 -96t79.5 -67q51 -27 108.5 -39.5t123.5 -12.5q35 0 65.5 5.5t61.5 13.5l58 19q28 9 54 22q25 10 48.5 21.5t46.5 19.5q23 10 42 14t38 4q29 0 55 -10t49 -31q23 -20 35 -41.5t12 -44.5q0 -41 -38 -79t-113 -72q-76 -35 -159 -56.5t-173 -31.5 q-14 0 -29.5 -1t-32.5 -3h-15q-7 0 -13 -3h-16h-13q-80 0 -152.5 11.5t-134.5 31.5q-61 23 -112.5 53.5t-89.5 69.5q-39 -39 -87.5 -69.5t-107.5 -53.5q-57 -20 -124 -31.5t-144 -11.5q-150 0 -269.5 41t-210.5 125q-92 84 -136 183.5t-44 214.5zM420 513q0 -5 2 -9 q4 -49 24.5 -93t55.5 -85t87 -61.5t122 -20.5t122 20.5t85 61.5q35 41 56 85t25 93q0 2 1 4t1 6q0 2 1.5 4t1.5 4v9v10q0 2 -1.5 4t-1.5 6q0 2 -1 5t-1 5v12v13q-8 47 -28.5 92t-55.5 84q-33 41 -85 60.5t-119 19.5q-70 0 -121 -19.5t-86 -60.5q-35 -39 -55.5 -84t-26.5 -92 v-5v-8q-2 -2 -2 -5v-7v-11v-9v2v-12v-9v-9zM1341 641v2h586q-8 47 -30.5 86t-59.5 72q-39 33 -88 49t-115 16q-61 0 -111 -16t-89 -49t-62 -73t-31 -87z" />
<glyph unicode="&#x178;" horiz-adv-x="1372" d="M-20 1319q0 31 12 57.5t35 46.5q27 23 59.5 34t71.5 11q25 0 48 -4t44 -12q20 -8 36.5 -19.5t30.5 -25.5l369 -426l369 428q10 12 27.5 23.5t37.5 19.5q23 8 45.5 12t46.5 4q41 0 74 -11t60 -34q25 -20 38 -46.5t13 -57.5q0 -12 -3 -24.5t-8 -24.5q-2 -12 -9 -22.5 t-15 -20.5l-485 -543v-547q0 -31 -11.5 -56.5t-34.5 -47.5q-23 -23 -59.5 -33t-85.5 -10q-51 0 -89 10t-60 33q-23 23 -33 48t-10 54v2v547l-484 545q-8 10 -12 19t-8 22q0 4 -1 7t-3 5q-2 10 -4 19.5t-2 17.5zM219 1712v2q0 29 13.5 55.5t39.5 47.5q29 23 61 33t70 10 q39 0 72 -10.5t60 -32.5q27 -20 40 -47t13 -58t-13.5 -56.5t-39.5 -47.5q-27 -20 -60 -31.5t-72 -11.5t-70.5 11t-60.5 32q-27 23 -40 48t-13 56zM782 1712v2q0 29 13.5 55.5t40.5 47.5q29 23 60.5 33t70.5 10t71.5 -10.5t59.5 -32.5q27 -20 40 -47t13 -58t-13.5 -56.5 t-39.5 -47.5q-27 -20 -59.5 -31.5t-71.5 -11.5t-71 11t-60 32q-27 23 -40.5 48t-13.5 56z" />
<glyph unicode="&#x2c6;" horiz-adv-x="567" d="M-135 1333v1v3v3v3q0 41 18.5 74t53.5 58q33 25 73.5 37t91.5 12q20 0 42 -2t42 -6q14 -2 27.5 -5.5t26.5 -7.5q6 0 13 -1t13 -3q18 -6 35.5 -10t32.5 -8q16 -4 29.5 -6t25.5 -2q10 0 20.5 2t22.5 6q10 4 22.5 10t26.5 12q4 2 10.5 4t14.5 4l7 3.5t5 3.5q4 0 7 1t7 3 t11.5 3t15.5 3q4 0 7 1t7 1q4 2 8 2h7q29 0 52.5 -9.5t37.5 -27.5q16 -18 23.5 -36.5t7.5 -41.5q0 -37 -18.5 -66.5t-53.5 -54.5t-74 -38t-80 -17q-2 0 -4 -1t-4 -1h-2h-2h-4h-2h-4h-4q-12 0 -26.5 2t-31.5 4q-18 4 -34.5 7t-32.5 5h-4q-2 0 -2 3q-2 0 -4.5 1t-4.5 1h-4 q-2 0 -4 2h-3h-3q-20 4 -39.5 9t-36.5 9q-20 4 -33.5 6t-25.5 2q-8 0 -16.5 -1t-16.5 -5q-4 -2 -8 -3t-6 -1q-4 -2 -7 -3t-8 -3q-2 -2 -5 -3t-5 -3t-5 -3t-5 -1q-10 -6 -21.5 -10.5t-21.5 -8.5q-12 -4 -24.5 -6t-26.5 -2l-4 2q-10 0 -23.5 2t-27.5 8q-6 2 -13.5 7.5 t-13.5 9.5q-18 16 -30.5 32.5t-14.5 34.5z" />
<glyph unicode="&#x2dc;" horiz-adv-x="567" d="M-100 1350q0 25 7 44t23 33q14 16 36 27.5t46 20.5v2l271 88l272 -88q27 -10 49.5 -22.5t36.5 -27.5q16 -14 23.5 -33.5t7.5 -43.5q0 -25 -12.5 -47.5t-34.5 -42.5q-23 -20 -50.5 -30.5t-58.5 -10.5q-8 0 -20.5 2t-28.5 6q-8 2 -15.5 4t-13.5 4q-6 4 -13 7t-15 5h-4 q-2 0 -5 2q-2 0 -4 1t-4 1t-5 1t-5 3l-100 37l-99 -35q-2 -2 -4 -3l-2 -1q-2 -2 -4 -2h-4l-1 -1q-1 -1 -3 -1t-3 -1t-5 -1q-14 -6 -29.5 -11t-32.5 -9q-14 -4 -25.5 -6t-19.5 -2q-31 0 -55.5 10t-46.5 31q-23 20 -36 42.5t-13 47.5z" />
<glyph unicode="&#x2000;" horiz-adv-x="960" />
<glyph unicode="&#x2001;" horiz-adv-x="1921" />
<glyph unicode="&#x2002;" horiz-adv-x="960" />
<glyph unicode="&#x2003;" horiz-adv-x="1921" />
<glyph unicode="&#x2004;" horiz-adv-x="638" />
<glyph unicode="&#x2005;" horiz-adv-x="479" />
<glyph unicode="&#x2006;" horiz-adv-x="319" />
<glyph unicode="&#x2007;" horiz-adv-x="319" />
<glyph unicode="&#x2008;" horiz-adv-x="239" />
<glyph unicode="&#x2009;" horiz-adv-x="382" />
<glyph unicode="&#x200a;" horiz-adv-x="106" />
<glyph unicode="&#x2010;" horiz-adv-x="995" d="M78 590q0 29 8 50.5t29 39.5q18 18 45.5 28.5t64.5 12.5v2h545q35 -2 61.5 -13.5t45.5 -29.5q20 -18 29 -40t9 -50q0 -27 -9 -48.5t-29 -39.5q-18 -18 -45 -27.5t-62 -11.5l-545 2q-37 0 -64.5 9t-45.5 28q-20 18 -28.5 39.5t-8.5 48.5z" />
<glyph unicode="&#x2011;" horiz-adv-x="995" d="M78 590q0 29 8 50.5t29 39.5q18 18 45.5 28.5t64.5 12.5v2h545q35 -2 61.5 -13.5t45.5 -29.5q20 -18 29 -40t9 -50q0 -27 -9 -48.5t-29 -39.5q-18 -18 -45 -27.5t-62 -11.5l-545 2q-37 0 -64.5 9t-45.5 28q-20 18 -28.5 39.5t-8.5 48.5z" />
<glyph unicode="&#x2012;" horiz-adv-x="995" d="M78 590q0 29 8 50.5t29 39.5q18 18 45.5 28.5t64.5 12.5v2h545q35 -2 61.5 -13.5t45.5 -29.5q20 -18 29 -40t9 -50q0 -27 -9 -48.5t-29 -39.5q-18 -18 -45 -27.5t-62 -11.5l-545 2q-37 0 -64.5 9t-45.5 28q-20 18 -28.5 39.5t-8.5 48.5z" />
<glyph unicode="&#x2013;" horiz-adv-x="1280" d="M0 592q0 29 10 50.5t31 37.5q18 16 47 25.5t66 9.5v2h972q35 -2 64 -11.5t49 -25.5q18 -16 29.5 -37.5t11.5 -50.5q0 -27 -11.5 -50.5t-29.5 -39.5q-20 -16 -49 -24.5t-64 -8.5l-972 2q-37 -2 -66 6t-47 25q-20 16 -30.5 39.5t-10.5 50.5z" />
<glyph unicode="&#x2014;" horiz-adv-x="2560" d="M-147 592q0 29 10 50.5t31 37.5q20 16 46.5 25.5t59.5 9.5v2h2560q35 -2 63.5 -11.5t49.5 -25.5q18 -16 29.5 -37.5t11.5 -50.5q0 -27 -11.5 -50.5t-29.5 -39.5q-20 -16 -49 -24.5t-64 -8.5l-2560 2q-33 -2 -59.5 6t-46.5 25q-20 16 -30.5 39.5t-10.5 50.5z" />
<glyph unicode="&#x2018;" horiz-adv-x="614" d="M23 1022q0 10 2 21.5t8 19.5q4 10 9 20.5t11 20.5l213 309q4 10 12.5 17.5t20.5 13.5q6 4 11 6t12 6q6 2 11 5t11 5q10 4 20.5 6.5t18.5 4.5t15.5 3t15.5 1q35 0 65.5 -10.5t57.5 -30.5q29 -20 41 -43t12 -51q0 -8 -3 -17.5t-7 -19.5q-2 -4 -4.5 -9.5t-4.5 -9.5l-4 -8 l-4 -8l-1 -1l-1 -1q0 -2 -1 -3l-1 -1v-1l-2 -3v2l-215 -308q-8 -12 -16.5 -21t-18.5 -15q-6 -4 -11 -7.5t-11 -7.5q-6 -2 -11.5 -4t-11.5 -4q-8 -2 -17 -5t-18 -5q-8 -2 -16 -2h-14q-35 0 -66 9t-57 30q-27 20 -39 44.5t-12 51.5z" />
<glyph unicode="&#x2019;" horiz-adv-x="614" d="M23 1022q0 10 2 21.5t8 19.5q4 10 9 20.5t11 20.5l213 309q4 10 12.5 17.5t20.5 13.5q6 4 11 6t12 6q6 2 11 5t11 5q10 4 20.5 6.5t18.5 4.5t15.5 3t15.5 1q35 0 65.5 -10.5t57.5 -30.5q29 -20 41 -43t12 -51q0 -8 -3 -17.5t-7 -19.5q-2 -4 -4.5 -9.5t-4.5 -9.5l-4 -8 l-4 -8l-1 -1l-1 -1q0 -2 -1 -3l-1 -1v-1l-2 -3v2l-215 -308q-8 -12 -16.5 -21t-18.5 -15q-6 -4 -11 -7.5t-11 -7.5q-6 -2 -11.5 -4t-11.5 -4q-8 -2 -17 -5t-18 -5q-8 -2 -16 -2h-14q-35 0 -66 9t-57 30q-27 20 -39 44.5t-12 51.5z" />
<glyph unicode="&#x201a;" horiz-adv-x="686" />
<glyph unicode="&#x201c;" horiz-adv-x="1136" d="M23 1022q0 10 2 21.5t8 19.5q4 10 9 20.5t11 20.5l213 309q4 10 12.5 17.5t20.5 13.5q6 4 11 6t12 6q6 2 11 5t11 5q10 4 20.5 6.5t18.5 4.5t15.5 3t15.5 1q35 0 65.5 -10.5t57.5 -30.5q29 -20 41 -43t12 -51q0 -8 -3 -17.5t-7 -19.5q-2 -4 -4.5 -9.5t-4.5 -9.5l-4 -8 l-4 -8l-1 -1l-1 -1q0 -2 -1 -3l-1 -1v-1l-2 -3v2l-215 -308q-8 -12 -16.5 -21t-18.5 -15q-6 -4 -11 -7.5t-11 -7.5q-6 -2 -11.5 -4t-11.5 -4q-8 -2 -17 -5t-18 -5q-8 -2 -16 -2h-14q-35 0 -66 9t-57 30q-27 20 -39 44.5t-12 51.5zM545 1022q0 10 2 21.5t8 19.5q4 10 9 20.5 t11 20.5l213 309q4 10 12.5 17.5t20.5 13.5q6 4 11.5 6t11.5 6q6 2 11 5t11 5q10 4 20.5 6.5t18.5 4.5t15.5 3t15.5 1q35 0 65.5 -10.5t57.5 -30.5q29 -20 41 -43t12 -51q0 -8 -3 -17.5t-7 -19.5q-2 -4 -4 -9.5t-4 -9.5l-4 -8l-5 -8l-2 -2q0 -2 -1 -3l-1 -1v-1l-2 -3v2 l-215 -308q-8 -12 -16 -21t-19 -15q-6 -4 -11 -7.5t-11 -7.5q-6 -2 -11 -4t-12 -4q-8 -2 -17 -5t-17 -5t-17 -2h-14q-35 0 -65.5 9t-57.5 30q-27 20 -39 44.5t-12 51.5z" />
<glyph unicode="&#x201d;" horiz-adv-x="1136" d="M23 1022q0 10 2 21.5t8 19.5q4 10 9 20.5t11 20.5l213 309q4 10 12.5 17.5t20.5 13.5q6 4 11 6t12 6q6 2 11 5t11 5q10 4 20.5 6.5t18.5 4.5t15.5 3t15.5 1q35 0 65.5 -10.5t57.5 -30.5q29 -20 41 -43t12 -51q0 -8 -3 -17.5t-7 -19.5q-2 -4 -4.5 -9.5t-4.5 -9.5l-4 -8 l-4 -8l-1 -1l-1 -1q0 -2 -1 -3l-1 -1v-1l-2 -3v2l-215 -308q-8 -12 -16.5 -21t-18.5 -15q-6 -4 -11 -7.5t-11 -7.5q-6 -2 -11.5 -4t-11.5 -4q-8 -2 -17 -5t-18 -5q-8 -2 -16 -2h-14q-35 0 -66 9t-57 30q-27 20 -39 44.5t-12 51.5zM545 1022q0 10 2 21.5t8 19.5q4 10 9 20.5 t11 20.5l213 309q4 10 12.5 17.5t20.5 13.5q6 4 11.5 6t11.5 6q6 2 11 5t11 5q10 4 20.5 6.5t18.5 4.5t15.5 3t15.5 1q35 0 65.5 -10.5t57.5 -30.5q29 -20 41 -43t12 -51q0 -8 -3 -17.5t-7 -19.5q-2 -4 -4 -9.5t-4 -9.5l-4 -8l-5 -8l-2 -2q0 -2 -1 -3l-1 -1v-1l-2 -3v2 l-215 -308q-8 -12 -16 -21t-19 -15q-6 -4 -11 -7.5t-11 -7.5q-6 -2 -11 -4t-12 -4q-8 -2 -17 -5t-17 -5t-17 -2h-14q-35 0 -65.5 9t-57.5 30q-27 20 -39 44.5t-12 51.5z" />
<glyph unicode="&#x201e;" horiz-adv-x="1136" d="M23 -137q0 10 2 20.5t8 20.5q4 10 9 20t11 21l213 305q4 10 12.5 17t20.5 14q6 4 11 6t12 6q6 2 11 5t11 5q10 4 20.5 6t18.5 4t15.5 3t15.5 1q35 0 65.5 -10t57.5 -31q29 -20 41 -42.5t12 -51.5q0 -8 -3 -17t-7 -20l-4.5 -9l-4.5 -9l-4 -8l-4 -8l-1 -1l-1 -1q0 -2 -1 -4 l-1 -1v-1l-2 -3v2l-215 -307l-16 -16q-8 -8 -19 -17q-6 -4 -11 -6t-11 -6q-6 -2 -11.5 -5t-11.5 -5q-8 -4 -17 -5t-18 -3q-8 -2 -16 -3t-14 -1q-35 0 -66 10t-57 31q-27 20 -39 42.5t-12 51.5zM545 -137q0 10 2 20.5t8 20.5q4 10 9 20t11 21l213 305q4 10 12.5 17t20.5 14 q6 4 11.5 6t11.5 6q6 2 11 5t11 5q10 4 20.5 6t18.5 4t15.5 3t15.5 1q35 0 65.5 -10t57.5 -31q29 -20 41 -42.5t12 -51.5q0 -8 -3 -17t-7 -20q-2 -4 -4 -9t-4 -9l-4 -8l-5 -8l-2 -2q0 -2 -1 -4l-1 -1v-1l-2 -3v2l-215 -307l-16 -16q-8 -8 -19 -17q-6 -4 -11 -6t-11 -6 q-6 -2 -11 -5t-12 -5q-8 -4 -17 -5t-17 -3t-16.5 -3t-14.5 -1q-35 0 -65.5 10t-57.5 31q-27 20 -39 42.5t-12 51.5z" />
<glyph unicode="&#x2022;" horiz-adv-x="1280" d="M184 727v2q0 74 33 138.5t100 117.5q66 53 147 80t175 27t175 -27t149 -80q66 -53 99.5 -117.5t33.5 -140.5t-34 -140.5t-99 -117.5q-68 -53 -149 -80t-175 -27t-175 27t-147 80q-68 53 -100.5 117.5t-32.5 140.5z" />
<glyph unicode="&#x2026;" horiz-adv-x="2560" d="M227 133v2q0 31 14.5 58.5t45.5 52.5q29 23 63.5 35t75.5 12t76 -12.5t65 -34.5q29 -25 44.5 -52.5t15.5 -60.5t-15.5 -61.5t-44.5 -51.5q-31 -20 -65.5 -31.5t-75.5 -11.5t-76 11.5t-63 31.5q-31 23 -45.5 51.5t-14.5 61.5zM1079 133v2q0 31 14.5 58.5t45.5 52.5 q29 23 63.5 35t77.5 12q41 0 75 -12.5t64 -34.5q29 -25 44.5 -52.5t15.5 -60.5t-15.5 -61.5t-44.5 -51.5q-31 -20 -64.5 -31.5t-74.5 -11.5q-43 0 -78 11.5t-63 31.5q-31 23 -45.5 51.5t-14.5 61.5zM1931 133v2q0 31 14.5 58.5t45.5 52.5q29 23 63.5 35t77.5 12 q41 0 76 -12.5t65 -34.5q29 -25 43.5 -52.5t14.5 -60.5t-14.5 -61.5t-43.5 -51.5q-31 -20 -65.5 -31.5t-75.5 -11.5q-43 0 -78 11.5t-63 31.5q-31 23 -45.5 51.5t-14.5 61.5z" />
<glyph unicode="&#x202f;" horiz-adv-x="382" />
<glyph unicode="&#x2039;" horiz-adv-x="757" d="M94 564v5v8v5v8q0 4 2 10q0 4 2 9t4 9t4.5 7.5t4.5 7.5q0 2 2 6l4 8q2 4 4 7t6 8q2 2 5 6t5 6q0 2 1 3l3 3l3 3q1 1 1 3t1 3l4 3l2 1q2 1 4 3l247 283q10 6 21.5 12t26.5 10q10 4 26.5 7.5t36.5 3.5q35 0 61.5 -9.5t45.5 -25.5q20 -16 30.5 -35.5t10.5 -42.5 q0 -10 -1.5 -20.5t-3.5 -20.5q-4 -8 -9 -17.5t-13 -19.5l-203 -246l203 -243q8 -12 13 -21.5t9 -19.5q2 -8 3.5 -16.5t1.5 -14.5q0 -27 -10.5 -50.5t-33.5 -41.5q-20 -18 -47.5 -27.5t-62.5 -9.5h-12q-6 0 -13 2q-12 0 -24.5 3t-24.5 7q-16 6 -29.5 16.5t-23.5 22.5 l-264 328q0 2 -2 3t-2 3q-2 2 -4 6l-5 8q-4 6 -6 12.5t-2 14.5q-2 4 -2 7z" />
<glyph unicode="&#x203a;" horiz-adv-x="757" d="M94 244v9v11q0 4 1 9.5t3 9.5t4 9t4 11q4 4 7.5 9t9.5 10v2l201 247l-201 244q-6 4 -9 8t-8 11l-4 8l-4 8q-2 10 -3 17t-1 16q0 27 10.5 49t30.5 41q23 18 50.5 28.5t62.5 10.5q18 0 36.5 -4t34.5 -11q16 -6 31 -15t25 -21l264 -324q4 -6 7 -12.5t5 -12.5q2 -2 3 -6t1 -6 q2 -4 3 -7t1 -7v-3q0 -1 3 -3v-3v-4v-5v-7v-4v-4l-3 -6v-4q-2 -6 -3 -10.5t-1 -8.5q-2 -2 -3 -5t-3 -5q-4 -4 -7 -9t-5 -9q-4 -8 -9 -14.5t-10 -12.5l-5 -5q-3 -3 -5 -7q-2 -2 -3 -5t-5 -6l-248 -278q-8 -8 -20.5 -16.5t-24.5 -12.5q-14 -4 -29.5 -6t-35.5 -2q-33 0 -61.5 8 t-47.5 25q-20 16 -29.5 36.5t-9.5 43.5z" />
<glyph unicode="&#x205f;" horiz-adv-x="479" />
<glyph unicode="&#x2122;" horiz-adv-x="2560" d="M106 1364q0 23 8.5 40t24.5 30q16 10 37 16t45 6l713 2q25 -2 46 -8t36 -16q16 -12 24.5 -30t8.5 -40q0 -23 -8.5 -40t-24.5 -30q-14 -12 -36 -17t-46 -5l-203 2v-537q0 -29 -10 -52t-31 -40q-20 -16 -49 -24.5t-63 -8.5q-37 0 -65 8.5t-48 24.5t-30.5 40t-10.5 50v2v537 h-203q-25 -2 -45 3t-37 17q-16 12 -24.5 29.5t-8.5 40.5zM1198 735v2v606q0 25 11.5 47.5t33.5 41.5q23 18 67 27t105 9q35 0 66.5 -5t58.5 -15q29 -10 53.5 -37t48.5 -70l183 -370l182 372q23 41 49.5 68t52.5 37q27 10 58 15t67 5q61 0 103.5 -9t64.5 -27q23 -18 36 -41 t13 -50v-604q0 -29 -7 -52t-21 -40q-14 -16 -41 -24.5t-68 -8.5q-43 0 -69.5 8.5t-40.5 24.5t-21.5 40t-7.5 50v428h-4l-184 -426q-2 -2 -4.5 -5t-2.5 -5v-3v-1q-10 -25 -23 -44.5t-30 -35.5q-14 -14 -39.5 -22.5t-62.5 -8.5q-39 0 -63.5 8.5t-41.5 22.5q-14 16 -27.5 35.5 t-23.5 44.5h-1q-1 0 -1 2l-2 2v1v3q-2 0 -2 1v3l-184 428h-4v-426q0 -29 -7.5 -52t-21.5 -40q-14 -16 -42 -24.5t-69 -8.5t-68.5 8.5t-41.5 24.5t-20.5 39.5t-6.5 50.5z" />
<glyph unicode="&#xe000;" horiz-adv-x="1100" d="M0 1100h1100v-1100h-1100v1100z" />
<glyph unicode="&#xfb01;" horiz-adv-x="1325" d="M834 1380q0 31 15 59.5t46 53.5t68 37t78 12v2q41 -2 76.5 -14t66.5 -37t48.5 -52.5t17.5 -60.5q0 -35 -15.5 -65.5t-46.5 -54.5q-31 -25 -67.5 -37.5t-79.5 -12.5q-41 0 -78 12.5t-68 39.5q-31 25 -46 55t-15 63zM856 150v2v786q0 35 12.5 64.5t39.5 52.5q29 23 61.5 34 t71.5 11q41 0 73.5 -11.5t59.5 -33.5q27 -23 39 -52.5t12 -66.5v-784q0 -39 -12.5 -69t-38.5 -52q-27 -20 -59.5 -30.5t-73.5 -10.5q-39 0 -72 10t-61 31q-27 23 -39.5 52.5t-12.5 66.5zM-49 958q0 29 12 51.5t35 41.5q18 18 47 27t61 9l82 3v151q0 80 28 142.5t81 105.5 t124 64.5t154 21.5q47 0 92.5 -7t84.5 -22q39 -14 59 -39.5t20 -64.5q0 -33 -9 -55.5t-29 -38.5q-18 -14 -46 -22.5t-67 -8.5q-23 0 -44.5 -4t-39.5 -10q-20 -6 -29.5 -30t-9.5 -65v-118h115q41 -2 73.5 -9.5t59.5 -21.5q29 -14 42 -40t13 -61t-13 -59.5t-42 -40.5 q-27 -14 -59.5 -21.5t-73.5 -7.5l-115 2v-679q0 -39 -13.5 -69t-37.5 -52q-27 -20 -59.5 -30.5t-73.5 -10.5q-39 0 -72 10t-61 31q-27 23 -39.5 52.5t-12.5 66.5v2v679h-82h-15q-29 0 -52 7q-29 8 -43 26q-23 16 -34 39.5t-11 54.5z" />
<glyph unicode="&#xfb02;" horiz-adv-x="1325" d="M856 150v2v1261q0 35 12.5 64.5t39.5 52.5q29 23 61.5 34t71.5 11q41 0 73.5 -11.5t59.5 -33.5q27 -23 39 -52.5t12 -66.5v-1259q0 -39 -12.5 -69t-38.5 -52q-27 -20 -59.5 -30.5t-73.5 -10.5q-39 0 -72 10t-61 31q-27 23 -39.5 52.5t-12.5 66.5zM-49 958q0 29 12 51.5 t35 41.5q18 18 47 27t61 9l82 3v151q0 80 28 142.5t81 105.5t124 64.5t154 21.5q47 0 92.5 -7t84.5 -22q39 -14 59 -39.5t20 -64.5q0 -33 -9 -55.5t-29 -38.5q-18 -14 -46 -22.5t-67 -8.5q-23 0 -44.5 -4t-39.5 -10q-20 -6 -29.5 -30t-9.5 -65v-118h115q41 -2 73.5 -9.5 t59.5 -21.5q29 -14 42 -40t13 -61t-13 -59.5t-42 -40.5q-27 -14 -59.5 -21.5t-73.5 -7.5l-115 2v-679q0 -39 -13.5 -69t-37.5 -52q-27 -20 -59.5 -30.5t-73.5 -10.5q-39 0 -72 10t-61 31q-27 23 -39.5 52.5t-12.5 66.5v2v679h-82h-15q-29 0 -52 7q-29 8 -43 26 q-23 16 -34 39.5t-11 54.5z" />
<glyph unicode="&#xfb03;" horiz-adv-x="2082" d="M1592 1380q0 31 15 59.5t46 53.5t68 37t78 12v2q41 -2 76.5 -14t66.5 -37t48.5 -52.5t17.5 -60.5q0 -35 -15.5 -65.5t-46.5 -54.5q-31 -25 -67.5 -37.5t-79.5 -12.5q-41 0 -78 12.5t-68 39.5q-31 25 -46 55t-15 63zM1614 150v2v786q0 35 12.5 64.5t39.5 52.5 q29 23 61.5 34t71.5 11q41 0 73.5 -11.5t59.5 -33.5q27 -23 39 -52.5t12 -66.5v-784q0 -39 -12.5 -69t-38.5 -52q-27 -20 -59.5 -30.5t-73.5 -10.5q-39 0 -72 10t-61 31q-27 23 -39.5 52.5t-12.5 66.5zM709 958q0 29 12 51.5t35 41.5q18 18 47 27t61 9l82 3v151 q0 80 28 142.5t81 105.5t124 64.5t154 21.5q47 0 92.5 -7t84.5 -22q39 -14 59 -39.5t20 -64.5q0 -33 -9 -55.5t-29 -38.5q-18 -14 -46 -22.5t-67 -8.5q-23 0 -44.5 -4t-39.5 -10q-20 -6 -29.5 -30t-9.5 -65v-118h115q41 -2 73.5 -9.5t59.5 -21.5q29 -14 42 -40t13 -61 t-13 -59.5t-42 -40.5q-27 -14 -59.5 -21.5t-73.5 -7.5l-115 2v-679q0 -39 -13.5 -69t-37.5 -52q-27 -20 -59.5 -30.5t-73.5 -10.5q-39 0 -72 10t-61 31q-27 23 -39.5 52.5t-12.5 66.5v2v679h-82h-15q-29 0 -52 7q-29 8 -43 26q-23 16 -34 39.5t-11 54.5zM-49 958 q0 29 12 51.5t35 41.5q18 18 47 27t61 9l82 3v151q0 80 28 142.5t81 105.5t124 64.5t154 21.5q47 0 92.5 -7t84.5 -22q39 -14 59 -39.5t20 -64.5q0 -33 -9 -55.5t-29 -38.5q-18 -14 -46 -22.5t-67 -8.5q-23 0 -44.5 -4t-39.5 -10q-20 -6 -29.5 -30t-9.5 -65v-118h115 q41 -2 73.5 -9.5t59.5 -21.5q29 -14 42 -40t13 -61t-13 -59.5t-42 -40.5q-27 -14 -59.5 -21.5t-73.5 -7.5l-115 2v-679q0 -39 -13.5 -69t-37.5 -52q-27 -20 -59.5 -30.5t-73.5 -10.5q-39 0 -72 10t-61 31q-27 23 -39.5 52.5t-12.5 66.5v2v679h-82h-15q-29 0 -52 7 q-29 8 -43 26q-23 16 -34 39.5t-11 54.5z" />
<glyph unicode="&#xfb04;" horiz-adv-x="2082" d="M1614 150v2v1261q0 35 12.5 64.5t39.5 52.5q29 23 61.5 34t71.5 11q41 0 73.5 -11.5t59.5 -33.5q27 -23 39 -52.5t12 -66.5v-1259q0 -39 -12.5 -69t-38.5 -52q-27 -20 -59.5 -30.5t-73.5 -10.5q-39 0 -72 10t-61 31q-27 23 -39.5 52.5t-12.5 66.5zM709 958q0 29 12 51.5 t35 41.5q18 18 47 27t61 9l82 3v151q0 80 28 142.5t81 105.5t124 64.5t154 21.5q47 0 92.5 -7t84.5 -22q39 -14 59 -39.5t20 -64.5q0 -33 -9 -55.5t-29 -38.5q-18 -14 -46 -22.5t-67 -8.5q-23 0 -44.5 -4t-39.5 -10q-20 -6 -29.5 -30t-9.5 -65v-118h115q41 -2 73.5 -9.5 t59.5 -21.5q29 -14 42 -40t13 -61t-13 -59.5t-42 -40.5q-27 -14 -59.5 -21.5t-73.5 -7.5l-115 2v-679q0 -39 -13.5 -69t-37.5 -52q-27 -20 -59.5 -30.5t-73.5 -10.5q-39 0 -72 10t-61 31q-27 23 -39.5 52.5t-12.5 66.5v2v679h-82h-15q-29 0 -52 7q-29 8 -43 26 q-23 16 -34 39.5t-11 54.5zM-49 958q0 29 12 51.5t35 41.5q18 18 47 27t61 9l82 3v151q0 80 28 142.5t81 105.5t124 64.5t154 21.5q47 0 92.5 -7t84.5 -22q39 -14 59 -39.5t20 -64.5q0 -33 -9 -55.5t-29 -38.5q-18 -14 -46 -22.5t-67 -8.5q-23 0 -44.5 -4t-39.5 -10 q-20 -6 -29.5 -30t-9.5 -65v-118h115q41 -2 73.5 -9.5t59.5 -21.5q29 -14 42 -40t13 -61t-13 -59.5t-42 -40.5q-27 -14 -59.5 -21.5t-73.5 -7.5l-115 2v-679q0 -39 -13.5 -69t-37.5 -52q-27 -20 -59.5 -30.5t-73.5 -10.5q-39 0 -72 10t-61 31q-27 23 -39.5 52.5t-12.5 66.5 v2v679h-82h-15q-29 0 -52 7q-29 8 -43 26q-23 16 -34 39.5t-11 54.5z" />
</font>
</defs>
</svg>
